%TF.GenerationSoftware,KiCad,Pcbnew,(5.1.9)-1*%
%TF.CreationDate,2021-08-24T10:45:27+02:00*%
%TF.ProjectId,PCB,5043422e-6b69-4636-9164-5f7063625858,rev?*%
%TF.SameCoordinates,Original*%
%TF.FileFunction,Legend,Top*%
%TF.FilePolarity,Positive*%
%FSLAX46Y46*%
G04 Gerber Fmt 4.6, Leading zero omitted, Abs format (unit mm)*
G04 Created by KiCad (PCBNEW (5.1.9)-1) date 2021-08-24 10:45:27*
%MOMM*%
%LPD*%
G01*
G04 APERTURE LIST*
%ADD10C,0.120000*%
%ADD11C,0.200000*%
%ADD12C,0.150000*%
G04 APERTURE END LIST*
D10*
%TO.C,U2*%
X127635000Y-85090000D02*
X127635000Y-100330000D01*
X117475000Y-85090000D02*
X127635000Y-85090000D01*
X117475000Y-100330000D02*
X117475000Y-85090000D01*
X127635000Y-100330000D02*
X117475000Y-100330000D01*
D11*
%TO.C,U1*%
X105650000Y-97310000D02*
G75*
G03*
X105650000Y-97310000I-250000J0D01*
G01*
X108750000Y-102870000D02*
X94450000Y-102870000D01*
X108750000Y-78060000D02*
X108750000Y-102870000D01*
X94450000Y-78060000D02*
X108750000Y-78060000D01*
X94450000Y-102870000D02*
X94450000Y-78060000D01*
D10*
%TO.C,R1*%
X113950000Y-101615000D02*
X113950000Y-97775000D01*
X112110000Y-101615000D02*
X112110000Y-97775000D01*
%TO.C,PS1*%
X120380000Y-42295000D02*
X118370000Y-42295000D01*
X126980000Y-76885000D02*
X126980000Y-42685000D01*
X106780000Y-76885000D02*
X126980000Y-76885000D01*
X106780000Y-42685000D02*
X106780000Y-76885000D01*
X126980000Y-42685000D02*
X106780000Y-42685000D01*
%TO.C,J1*%
X95250000Y-50165000D02*
X105410000Y-50165000D01*
X95250000Y-42545000D02*
X95250000Y-50165000D01*
X105410000Y-42545000D02*
X95250000Y-42545000D01*
X105410000Y-50165000D02*
X105410000Y-42545000D01*
X105410000Y-48895000D02*
X95250000Y-48895000D01*
%TO.C,F1*%
X104650000Y-76470000D02*
X104650000Y-52070000D01*
X95250000Y-76470000D02*
X95250000Y-52070000D01*
X95250000Y-52070000D02*
X104650000Y-52070000D01*
X95250000Y-76470000D02*
X104650000Y-76470000D01*
%TO.C,C1*%
X114265225Y-78285000D02*
X114265225Y-78785000D01*
X114015225Y-78535000D02*
X114515225Y-78535000D01*
X119421000Y-79726000D02*
X119421000Y-80294000D01*
X119381000Y-79492000D02*
X119381000Y-80528000D01*
X119341000Y-79333000D02*
X119341000Y-80687000D01*
X119301000Y-79205000D02*
X119301000Y-80815000D01*
X119261000Y-79095000D02*
X119261000Y-80925000D01*
X119221000Y-78999000D02*
X119221000Y-81021000D01*
X119181000Y-78912000D02*
X119181000Y-81108000D01*
X119141000Y-78832000D02*
X119141000Y-81188000D01*
X119101000Y-81050000D02*
X119101000Y-81261000D01*
X119101000Y-78759000D02*
X119101000Y-78970000D01*
X119061000Y-81050000D02*
X119061000Y-81329000D01*
X119061000Y-78691000D02*
X119061000Y-78970000D01*
X119021000Y-81050000D02*
X119021000Y-81393000D01*
X119021000Y-78627000D02*
X119021000Y-78970000D01*
X118981000Y-81050000D02*
X118981000Y-81453000D01*
X118981000Y-78567000D02*
X118981000Y-78970000D01*
X118941000Y-81050000D02*
X118941000Y-81510000D01*
X118941000Y-78510000D02*
X118941000Y-78970000D01*
X118901000Y-81050000D02*
X118901000Y-81564000D01*
X118901000Y-78456000D02*
X118901000Y-78970000D01*
X118861000Y-81050000D02*
X118861000Y-81615000D01*
X118861000Y-78405000D02*
X118861000Y-78970000D01*
X118821000Y-81050000D02*
X118821000Y-81663000D01*
X118821000Y-78357000D02*
X118821000Y-78970000D01*
X118781000Y-81050000D02*
X118781000Y-81709000D01*
X118781000Y-78311000D02*
X118781000Y-78970000D01*
X118741000Y-81050000D02*
X118741000Y-81753000D01*
X118741000Y-78267000D02*
X118741000Y-78970000D01*
X118701000Y-81050000D02*
X118701000Y-81795000D01*
X118701000Y-78225000D02*
X118701000Y-78970000D01*
X118661000Y-81050000D02*
X118661000Y-81836000D01*
X118661000Y-78184000D02*
X118661000Y-78970000D01*
X118621000Y-81050000D02*
X118621000Y-81874000D01*
X118621000Y-78146000D02*
X118621000Y-78970000D01*
X118581000Y-81050000D02*
X118581000Y-81911000D01*
X118581000Y-78109000D02*
X118581000Y-78970000D01*
X118541000Y-81050000D02*
X118541000Y-81947000D01*
X118541000Y-78073000D02*
X118541000Y-78970000D01*
X118501000Y-81050000D02*
X118501000Y-81981000D01*
X118501000Y-78039000D02*
X118501000Y-78970000D01*
X118461000Y-81050000D02*
X118461000Y-82014000D01*
X118461000Y-78006000D02*
X118461000Y-78970000D01*
X118421000Y-81050000D02*
X118421000Y-82045000D01*
X118421000Y-77975000D02*
X118421000Y-78970000D01*
X118381000Y-81050000D02*
X118381000Y-82075000D01*
X118381000Y-77945000D02*
X118381000Y-78970000D01*
X118341000Y-81050000D02*
X118341000Y-82105000D01*
X118341000Y-77915000D02*
X118341000Y-78970000D01*
X118301000Y-81050000D02*
X118301000Y-82132000D01*
X118301000Y-77888000D02*
X118301000Y-78970000D01*
X118261000Y-81050000D02*
X118261000Y-82159000D01*
X118261000Y-77861000D02*
X118261000Y-78970000D01*
X118221000Y-81050000D02*
X118221000Y-82185000D01*
X118221000Y-77835000D02*
X118221000Y-78970000D01*
X118181000Y-81050000D02*
X118181000Y-82210000D01*
X118181000Y-77810000D02*
X118181000Y-78970000D01*
X118141000Y-81050000D02*
X118141000Y-82234000D01*
X118141000Y-77786000D02*
X118141000Y-78970000D01*
X118101000Y-81050000D02*
X118101000Y-82257000D01*
X118101000Y-77763000D02*
X118101000Y-78970000D01*
X118061000Y-81050000D02*
X118061000Y-82278000D01*
X118061000Y-77742000D02*
X118061000Y-78970000D01*
X118021000Y-81050000D02*
X118021000Y-82300000D01*
X118021000Y-77720000D02*
X118021000Y-78970000D01*
X117981000Y-81050000D02*
X117981000Y-82320000D01*
X117981000Y-77700000D02*
X117981000Y-78970000D01*
X117941000Y-81050000D02*
X117941000Y-82339000D01*
X117941000Y-77681000D02*
X117941000Y-78970000D01*
X117901000Y-81050000D02*
X117901000Y-82358000D01*
X117901000Y-77662000D02*
X117901000Y-78970000D01*
X117861000Y-81050000D02*
X117861000Y-82375000D01*
X117861000Y-77645000D02*
X117861000Y-78970000D01*
X117821000Y-81050000D02*
X117821000Y-82392000D01*
X117821000Y-77628000D02*
X117821000Y-78970000D01*
X117781000Y-81050000D02*
X117781000Y-82408000D01*
X117781000Y-77612000D02*
X117781000Y-78970000D01*
X117741000Y-81050000D02*
X117741000Y-82424000D01*
X117741000Y-77596000D02*
X117741000Y-78970000D01*
X117701000Y-81050000D02*
X117701000Y-82438000D01*
X117701000Y-77582000D02*
X117701000Y-78970000D01*
X117661000Y-81050000D02*
X117661000Y-82452000D01*
X117661000Y-77568000D02*
X117661000Y-78970000D01*
X117621000Y-81050000D02*
X117621000Y-82465000D01*
X117621000Y-77555000D02*
X117621000Y-78970000D01*
X117581000Y-81050000D02*
X117581000Y-82478000D01*
X117581000Y-77542000D02*
X117581000Y-78970000D01*
X117541000Y-81050000D02*
X117541000Y-82490000D01*
X117541000Y-77530000D02*
X117541000Y-78970000D01*
X117500000Y-81050000D02*
X117500000Y-82501000D01*
X117500000Y-77519000D02*
X117500000Y-78970000D01*
X117460000Y-81050000D02*
X117460000Y-82511000D01*
X117460000Y-77509000D02*
X117460000Y-78970000D01*
X117420000Y-81050000D02*
X117420000Y-82521000D01*
X117420000Y-77499000D02*
X117420000Y-78970000D01*
X117380000Y-81050000D02*
X117380000Y-82530000D01*
X117380000Y-77490000D02*
X117380000Y-78970000D01*
X117340000Y-81050000D02*
X117340000Y-82538000D01*
X117340000Y-77482000D02*
X117340000Y-78970000D01*
X117300000Y-81050000D02*
X117300000Y-82546000D01*
X117300000Y-77474000D02*
X117300000Y-78970000D01*
X117260000Y-81050000D02*
X117260000Y-82553000D01*
X117260000Y-77467000D02*
X117260000Y-78970000D01*
X117220000Y-81050000D02*
X117220000Y-82560000D01*
X117220000Y-77460000D02*
X117220000Y-78970000D01*
X117180000Y-81050000D02*
X117180000Y-82566000D01*
X117180000Y-77454000D02*
X117180000Y-78970000D01*
X117140000Y-81050000D02*
X117140000Y-82571000D01*
X117140000Y-77449000D02*
X117140000Y-78970000D01*
X117100000Y-81050000D02*
X117100000Y-82575000D01*
X117100000Y-77445000D02*
X117100000Y-78970000D01*
X117060000Y-81050000D02*
X117060000Y-82579000D01*
X117060000Y-77441000D02*
X117060000Y-78970000D01*
X117020000Y-77437000D02*
X117020000Y-82583000D01*
X116980000Y-77434000D02*
X116980000Y-82586000D01*
X116940000Y-77432000D02*
X116940000Y-82588000D01*
X116900000Y-77431000D02*
X116900000Y-82589000D01*
X116860000Y-77430000D02*
X116860000Y-82590000D01*
X116820000Y-77430000D02*
X116820000Y-82590000D01*
X119440000Y-80010000D02*
G75*
G03*
X119440000Y-80010000I-2620000J0D01*
G01*
%TO.C,U2*%
D12*
X121793095Y-101052380D02*
X121793095Y-101861904D01*
X121840714Y-101957142D01*
X121888333Y-102004761D01*
X121983571Y-102052380D01*
X122174047Y-102052380D01*
X122269285Y-102004761D01*
X122316904Y-101957142D01*
X122364523Y-101861904D01*
X122364523Y-101052380D01*
X122793095Y-101147619D02*
X122840714Y-101100000D01*
X122935952Y-101052380D01*
X123174047Y-101052380D01*
X123269285Y-101100000D01*
X123316904Y-101147619D01*
X123364523Y-101242857D01*
X123364523Y-101338095D01*
X123316904Y-101480952D01*
X122745476Y-102052380D01*
X123364523Y-102052380D01*
X120023095Y-86764761D02*
X120165952Y-86812380D01*
X120404047Y-86812380D01*
X120499285Y-86764761D01*
X120546904Y-86717142D01*
X120594523Y-86621904D01*
X120594523Y-86526666D01*
X120546904Y-86431428D01*
X120499285Y-86383809D01*
X120404047Y-86336190D01*
X120213571Y-86288571D01*
X120118333Y-86240952D01*
X120070714Y-86193333D01*
X120023095Y-86098095D01*
X120023095Y-86002857D01*
X120070714Y-85907619D01*
X120118333Y-85860000D01*
X120213571Y-85812380D01*
X120451666Y-85812380D01*
X120594523Y-85860000D01*
X121023095Y-86812380D02*
X121023095Y-85812380D01*
X121261190Y-85812380D01*
X121404047Y-85860000D01*
X121499285Y-85955238D01*
X121546904Y-86050476D01*
X121594523Y-86240952D01*
X121594523Y-86383809D01*
X121546904Y-86574285D01*
X121499285Y-86669523D01*
X121404047Y-86764761D01*
X121261190Y-86812380D01*
X121023095Y-86812380D01*
X122213571Y-85812380D02*
X122308809Y-85812380D01*
X122404047Y-85860000D01*
X122451666Y-85907619D01*
X122499285Y-86002857D01*
X122546904Y-86193333D01*
X122546904Y-86431428D01*
X122499285Y-86621904D01*
X122451666Y-86717142D01*
X122404047Y-86764761D01*
X122308809Y-86812380D01*
X122213571Y-86812380D01*
X122118333Y-86764761D01*
X122070714Y-86717142D01*
X122023095Y-86621904D01*
X121975476Y-86431428D01*
X121975476Y-86193333D01*
X122023095Y-86002857D01*
X122070714Y-85907619D01*
X122118333Y-85860000D01*
X122213571Y-85812380D01*
X120618333Y-89257142D02*
X120570714Y-89304761D01*
X120427857Y-89352380D01*
X120332619Y-89352380D01*
X120189761Y-89304761D01*
X120094523Y-89209523D01*
X120046904Y-89114285D01*
X119999285Y-88923809D01*
X119999285Y-88780952D01*
X120046904Y-88590476D01*
X120094523Y-88495238D01*
X120189761Y-88400000D01*
X120332619Y-88352380D01*
X120427857Y-88352380D01*
X120570714Y-88400000D01*
X120618333Y-88447619D01*
X120999285Y-89304761D02*
X121142142Y-89352380D01*
X121380238Y-89352380D01*
X121475476Y-89304761D01*
X121523095Y-89257142D01*
X121570714Y-89161904D01*
X121570714Y-89066666D01*
X121523095Y-88971428D01*
X121475476Y-88923809D01*
X121380238Y-88876190D01*
X121189761Y-88828571D01*
X121094523Y-88780952D01*
X121046904Y-88733333D01*
X120999285Y-88638095D01*
X120999285Y-88542857D01*
X121046904Y-88447619D01*
X121094523Y-88400000D01*
X121189761Y-88352380D01*
X121427857Y-88352380D01*
X121570714Y-88400000D01*
X122332619Y-88828571D02*
X122475476Y-88876190D01*
X122523095Y-88923809D01*
X122570714Y-89019047D01*
X122570714Y-89161904D01*
X122523095Y-89257142D01*
X122475476Y-89304761D01*
X122380238Y-89352380D01*
X121999285Y-89352380D01*
X121999285Y-88352380D01*
X122332619Y-88352380D01*
X122427857Y-88400000D01*
X122475476Y-88447619D01*
X122523095Y-88542857D01*
X122523095Y-88638095D01*
X122475476Y-88733333D01*
X122427857Y-88780952D01*
X122332619Y-88828571D01*
X121999285Y-88828571D01*
X120070714Y-91844761D02*
X120213571Y-91892380D01*
X120451666Y-91892380D01*
X120546904Y-91844761D01*
X120594523Y-91797142D01*
X120642142Y-91701904D01*
X120642142Y-91606666D01*
X120594523Y-91511428D01*
X120546904Y-91463809D01*
X120451666Y-91416190D01*
X120261190Y-91368571D01*
X120165952Y-91320952D01*
X120118333Y-91273333D01*
X120070714Y-91178095D01*
X120070714Y-91082857D01*
X120118333Y-90987619D01*
X120165952Y-90940000D01*
X120261190Y-90892380D01*
X120499285Y-90892380D01*
X120642142Y-90940000D01*
X121070714Y-91892380D02*
X121070714Y-90892380D01*
X121308809Y-90892380D01*
X121451666Y-90940000D01*
X121546904Y-91035238D01*
X121594523Y-91130476D01*
X121642142Y-91320952D01*
X121642142Y-91463809D01*
X121594523Y-91654285D01*
X121546904Y-91749523D01*
X121451666Y-91844761D01*
X121308809Y-91892380D01*
X121070714Y-91892380D01*
X122023095Y-91606666D02*
X122499285Y-91606666D01*
X121927857Y-91892380D02*
X122261190Y-90892380D01*
X122594523Y-91892380D01*
X120094523Y-94384761D02*
X120237380Y-94432380D01*
X120475476Y-94432380D01*
X120570714Y-94384761D01*
X120618333Y-94337142D01*
X120665952Y-94241904D01*
X120665952Y-94146666D01*
X120618333Y-94051428D01*
X120570714Y-94003809D01*
X120475476Y-93956190D01*
X120285000Y-93908571D01*
X120189761Y-93860952D01*
X120142142Y-93813333D01*
X120094523Y-93718095D01*
X120094523Y-93622857D01*
X120142142Y-93527619D01*
X120189761Y-93480000D01*
X120285000Y-93432380D01*
X120523095Y-93432380D01*
X120665952Y-93480000D01*
X121665952Y-94337142D02*
X121618333Y-94384761D01*
X121475476Y-94432380D01*
X121380238Y-94432380D01*
X121237380Y-94384761D01*
X121142142Y-94289523D01*
X121094523Y-94194285D01*
X121046904Y-94003809D01*
X121046904Y-93860952D01*
X121094523Y-93670476D01*
X121142142Y-93575238D01*
X121237380Y-93480000D01*
X121380238Y-93432380D01*
X121475476Y-93432380D01*
X121618333Y-93480000D01*
X121665952Y-93527619D01*
X122570714Y-94432380D02*
X122094523Y-94432380D01*
X122094523Y-93432380D01*
X120523095Y-96020000D02*
X120427857Y-95972380D01*
X120285000Y-95972380D01*
X120142142Y-96020000D01*
X120046904Y-96115238D01*
X119999285Y-96210476D01*
X119951666Y-96400952D01*
X119951666Y-96543809D01*
X119999285Y-96734285D01*
X120046904Y-96829523D01*
X120142142Y-96924761D01*
X120285000Y-96972380D01*
X120380238Y-96972380D01*
X120523095Y-96924761D01*
X120570714Y-96877142D01*
X120570714Y-96543809D01*
X120380238Y-96543809D01*
X120999285Y-96972380D02*
X120999285Y-95972380D01*
X121570714Y-96972380D01*
X121570714Y-95972380D01*
X122046904Y-96972380D02*
X122046904Y-95972380D01*
X122285000Y-95972380D01*
X122427857Y-96020000D01*
X122523095Y-96115238D01*
X122570714Y-96210476D01*
X122618333Y-96400952D01*
X122618333Y-96543809D01*
X122570714Y-96734285D01*
X122523095Y-96829523D01*
X122427857Y-96924761D01*
X122285000Y-96972380D01*
X122046904Y-96972380D01*
X119951666Y-98512380D02*
X120285000Y-99512380D01*
X120618333Y-98512380D01*
X121523095Y-99417142D02*
X121475476Y-99464761D01*
X121332619Y-99512380D01*
X121237380Y-99512380D01*
X121094523Y-99464761D01*
X120999285Y-99369523D01*
X120951666Y-99274285D01*
X120904047Y-99083809D01*
X120904047Y-98940952D01*
X120951666Y-98750476D01*
X120999285Y-98655238D01*
X121094523Y-98560000D01*
X121237380Y-98512380D01*
X121332619Y-98512380D01*
X121475476Y-98560000D01*
X121523095Y-98607619D01*
X122523095Y-99417142D02*
X122475476Y-99464761D01*
X122332619Y-99512380D01*
X122237380Y-99512380D01*
X122094523Y-99464761D01*
X121999285Y-99369523D01*
X121951666Y-99274285D01*
X121904047Y-99083809D01*
X121904047Y-98940952D01*
X121951666Y-98750476D01*
X121999285Y-98655238D01*
X122094523Y-98560000D01*
X122237380Y-98512380D01*
X122332619Y-98512380D01*
X122475476Y-98560000D01*
X122523095Y-98607619D01*
X126293571Y-95090952D02*
X126341190Y-94948095D01*
X126388809Y-94900476D01*
X126484047Y-94852857D01*
X126626904Y-94852857D01*
X126722142Y-94900476D01*
X126769761Y-94948095D01*
X126817380Y-95043333D01*
X126817380Y-95424285D01*
X125817380Y-95424285D01*
X125817380Y-95090952D01*
X125865000Y-94995714D01*
X125912619Y-94948095D01*
X126007857Y-94900476D01*
X126103095Y-94900476D01*
X126198333Y-94948095D01*
X126245952Y-94995714D01*
X126293571Y-95090952D01*
X126293571Y-95424285D01*
X126817380Y-94424285D02*
X125817380Y-94424285D01*
X126531666Y-94090952D01*
X125817380Y-93757619D01*
X126817380Y-93757619D01*
X126293571Y-93281428D02*
X126293571Y-92948095D01*
X126817380Y-92805238D02*
X126817380Y-93281428D01*
X125817380Y-93281428D01*
X125817380Y-92805238D01*
X125912619Y-92424285D02*
X125865000Y-92376666D01*
X125817380Y-92281428D01*
X125817380Y-92043333D01*
X125865000Y-91948095D01*
X125912619Y-91900476D01*
X126007857Y-91852857D01*
X126103095Y-91852857D01*
X126245952Y-91900476D01*
X126817380Y-92471904D01*
X126817380Y-91852857D01*
X126245952Y-91281428D02*
X126198333Y-91376666D01*
X126150714Y-91424285D01*
X126055476Y-91471904D01*
X126007857Y-91471904D01*
X125912619Y-91424285D01*
X125865000Y-91376666D01*
X125817380Y-91281428D01*
X125817380Y-91090952D01*
X125865000Y-90995714D01*
X125912619Y-90948095D01*
X126007857Y-90900476D01*
X126055476Y-90900476D01*
X126150714Y-90948095D01*
X126198333Y-90995714D01*
X126245952Y-91090952D01*
X126245952Y-91281428D01*
X126293571Y-91376666D01*
X126341190Y-91424285D01*
X126436428Y-91471904D01*
X126626904Y-91471904D01*
X126722142Y-91424285D01*
X126769761Y-91376666D01*
X126817380Y-91281428D01*
X126817380Y-91090952D01*
X126769761Y-90995714D01*
X126722142Y-90948095D01*
X126626904Y-90900476D01*
X126436428Y-90900476D01*
X126341190Y-90948095D01*
X126293571Y-90995714D01*
X126245952Y-91090952D01*
X125817380Y-90281428D02*
X125817380Y-90186190D01*
X125865000Y-90090952D01*
X125912619Y-90043333D01*
X126007857Y-89995714D01*
X126198333Y-89948095D01*
X126436428Y-89948095D01*
X126626904Y-89995714D01*
X126722142Y-90043333D01*
X126769761Y-90090952D01*
X126817380Y-90186190D01*
X126817380Y-90281428D01*
X126769761Y-90376666D01*
X126722142Y-90424285D01*
X126626904Y-90471904D01*
X126436428Y-90519523D01*
X126198333Y-90519523D01*
X126007857Y-90471904D01*
X125912619Y-90424285D01*
X125865000Y-90376666D01*
X125817380Y-90281428D01*
%TO.C,U1*%
X101052126Y-89662259D02*
X101862026Y-89662259D01*
X101957308Y-89614617D01*
X102004950Y-89566976D01*
X102052591Y-89471694D01*
X102052591Y-89281129D01*
X102004950Y-89185847D01*
X101957308Y-89138205D01*
X101862026Y-89090564D01*
X101052126Y-89090564D01*
X102052591Y-88090099D02*
X102052591Y-88661794D01*
X102052591Y-88375946D02*
X101052126Y-88375946D01*
X101195049Y-88471229D01*
X101290332Y-88566511D01*
X101337973Y-88661794D01*
%TO.C,R1*%
X113482380Y-99861666D02*
X113006190Y-100195000D01*
X113482380Y-100433095D02*
X112482380Y-100433095D01*
X112482380Y-100052142D01*
X112530000Y-99956904D01*
X112577619Y-99909285D01*
X112672857Y-99861666D01*
X112815714Y-99861666D01*
X112910952Y-99909285D01*
X112958571Y-99956904D01*
X113006190Y-100052142D01*
X113006190Y-100433095D01*
X113482380Y-98909285D02*
X113482380Y-99480714D01*
X113482380Y-99195000D02*
X112482380Y-99195000D01*
X112625238Y-99290238D01*
X112720476Y-99385476D01*
X112768095Y-99480714D01*
%TO.C,PS1*%
X115625714Y-53792380D02*
X115625714Y-52792380D01*
X116006666Y-52792380D01*
X116101904Y-52840000D01*
X116149523Y-52887619D01*
X116197142Y-52982857D01*
X116197142Y-53125714D01*
X116149523Y-53220952D01*
X116101904Y-53268571D01*
X116006666Y-53316190D01*
X115625714Y-53316190D01*
X116578095Y-53744761D02*
X116720952Y-53792380D01*
X116959047Y-53792380D01*
X117054285Y-53744761D01*
X117101904Y-53697142D01*
X117149523Y-53601904D01*
X117149523Y-53506666D01*
X117101904Y-53411428D01*
X117054285Y-53363809D01*
X116959047Y-53316190D01*
X116768571Y-53268571D01*
X116673333Y-53220952D01*
X116625714Y-53173333D01*
X116578095Y-53078095D01*
X116578095Y-52982857D01*
X116625714Y-52887619D01*
X116673333Y-52840000D01*
X116768571Y-52792380D01*
X117006666Y-52792380D01*
X117149523Y-52840000D01*
X118101904Y-53792380D02*
X117530476Y-53792380D01*
X117816190Y-53792380D02*
X117816190Y-52792380D01*
X117720952Y-52935238D01*
X117625714Y-53030476D01*
X117530476Y-53078095D01*
%TO.C,J1*%
X99996666Y-42632380D02*
X99996666Y-43346666D01*
X99949047Y-43489523D01*
X99853809Y-43584761D01*
X99710952Y-43632380D01*
X99615714Y-43632380D01*
X100996666Y-43632380D02*
X100425238Y-43632380D01*
X100710952Y-43632380D02*
X100710952Y-42632380D01*
X100615714Y-42775238D01*
X100520476Y-42870476D01*
X100425238Y-42918095D01*
%TO.C,F1*%
X100258571Y-63833333D02*
X100258571Y-64166666D01*
X100782380Y-64166666D02*
X99782380Y-64166666D01*
X99782380Y-63690476D01*
X100782380Y-62785714D02*
X100782380Y-63357142D01*
X100782380Y-63071428D02*
X99782380Y-63071428D01*
X99925238Y-63166666D01*
X100020476Y-63261904D01*
X100068095Y-63357142D01*
%TO.C,C1*%
X116673333Y-84177142D02*
X116625714Y-84224761D01*
X116482857Y-84272380D01*
X116387619Y-84272380D01*
X116244761Y-84224761D01*
X116149523Y-84129523D01*
X116101904Y-84034285D01*
X116054285Y-83843809D01*
X116054285Y-83700952D01*
X116101904Y-83510476D01*
X116149523Y-83415238D01*
X116244761Y-83320000D01*
X116387619Y-83272380D01*
X116482857Y-83272380D01*
X116625714Y-83320000D01*
X116673333Y-83367619D01*
X117625714Y-84272380D02*
X117054285Y-84272380D01*
X117340000Y-84272380D02*
X117340000Y-83272380D01*
X117244761Y-83415238D01*
X117149523Y-83510476D01*
X117054285Y-83558095D01*
%TD*%
M02*
