M48
INCH,TZ
T1C0.0276
T2C0.0300
T3C0.0315
T4C0.0394
T5C0.0413
T6C0.0591
T7C0.0598
%
G90
G05
T1
X44500Y-38250
X44500Y-40250
T2
X46750Y-34000
X46750Y-35000
X46750Y-36000
X46750Y-37000
X46750Y-38000
X46750Y-39000
T3
X45500Y-31500
X46484Y-31500
T4
X42984Y-29325
X45031Y-17750
X47000Y-17750
X49047Y-29325
T5
X38500Y-39000
X38500Y-40000
X39500Y-39000
X39500Y-40000
X40500Y-39000
X40500Y-40000
X41500Y-39000
X41500Y-40000
T6
X39250Y-20996
X39250Y-29618
T7
X38500Y-18250
X40500Y-18250
T0
M30
