%TF.GenerationSoftware,KiCad,Pcbnew,(5.1.9)-1*%
%TF.CreationDate,2021-08-24T10:41:20+02:00*%
%TF.ProjectId,PCB,5043422e-6b69-4636-9164-5f7063625858,rev?*%
%TF.SameCoordinates,Original*%
%TF.FileFunction,Copper,L1,Top*%
%TF.FilePolarity,Positive*%
%FSLAX46Y46*%
G04 Gerber Fmt 4.6, Leading zero omitted, Abs format (unit mm)*
G04 Created by KiCad (PCBNEW (5.1.9)-1) date 2021-08-24 10:41:20*
%MOMM*%
%LPD*%
G01*
G04 APERTURE LIST*
%TA.AperFunction,ComponentPad*%
%ADD10C,1.524000*%
%TD*%
%TA.AperFunction,ComponentPad*%
%ADD11C,1.575000*%
%TD*%
%TA.AperFunction,ComponentPad*%
%ADD12R,1.575000X1.575000*%
%TD*%
%TA.AperFunction,ComponentPad*%
%ADD13O,1.400000X1.400000*%
%TD*%
%TA.AperFunction,ComponentPad*%
%ADD14C,1.400000*%
%TD*%
%TA.AperFunction,ComponentPad*%
%ADD15C,2.300000*%
%TD*%
%TA.AperFunction,ComponentPad*%
%ADD16R,2.000000X2.300000*%
%TD*%
%TA.AperFunction,ComponentPad*%
%ADD17C,3.000000*%
%TD*%
%TA.AperFunction,ComponentPad*%
%ADD18R,3.000000X3.000000*%
%TD*%
%TA.AperFunction,ComponentPad*%
%ADD19C,2.000000*%
%TD*%
%TA.AperFunction,ComponentPad*%
%ADD20C,1.600000*%
%TD*%
%TA.AperFunction,ComponentPad*%
%ADD21R,1.600000X1.600000*%
%TD*%
%TA.AperFunction,Conductor*%
%ADD22C,0.250000*%
%TD*%
G04 APERTURE END LIST*
D10*
%TO.P,U2,6*%
%TO.N,Net-(U2-Pad6)*%
X118745000Y-86360000D03*
%TO.P,U2,5*%
%TO.N,Net-(U2-Pad5)*%
X118745000Y-88900000D03*
%TO.P,U2,4*%
%TO.N,Net-(U1-Pad2)*%
X118745000Y-91440000D03*
%TO.P,U2,3*%
%TO.N,Net-(U1-Pad3)*%
X118745000Y-93980000D03*
%TO.P,U2,2*%
%TO.N,Net-(C1-Pad2)*%
X118745000Y-96520000D03*
%TO.P,U2,1*%
%TO.N,Net-(C1-Pad1)*%
X118745000Y-99060000D03*
%TD*%
D11*
%TO.P,U1,8*%
%TO.N,Net-(C1-Pad1)*%
X105410000Y-101600000D03*
%TO.P,U1,7*%
%TO.N,Net-(U1-Pad7)*%
X102870000Y-101600000D03*
%TO.P,U1,6*%
%TO.N,Net-(R1-Pad1)*%
X100330000Y-101600000D03*
%TO.P,U1,5*%
%TO.N,Net-(U1-Pad5)*%
X97790000Y-101600000D03*
D12*
%TO.P,U1,4*%
%TO.N,Net-(C1-Pad2)*%
X97790000Y-99060000D03*
D11*
%TO.P,U1,3*%
%TO.N,Net-(U1-Pad3)*%
X100330000Y-99060000D03*
%TO.P,U1,2*%
%TO.N,Net-(U1-Pad2)*%
X102870000Y-99060000D03*
D12*
%TO.P,U1,1*%
%TO.N,Net-(U1-Pad1)*%
X105410000Y-99060000D03*
%TD*%
D13*
%TO.P,R1,2*%
%TO.N,Net-(C1-Pad1)*%
X113030000Y-97155000D03*
D14*
%TO.P,R1,1*%
%TO.N,Net-(R1-Pad1)*%
X113030000Y-102235000D03*
%TD*%
D15*
%TO.P,PS1,4*%
%TO.N,Net-(C1-Pad1)*%
X109180000Y-74485000D03*
%TO.P,PS1,2*%
%TO.N,Net-(J1-Pad2)*%
X114380000Y-45085000D03*
D16*
%TO.P,PS1,1*%
%TO.N,Net-(F1-Pad1)*%
X119380000Y-45085000D03*
D15*
%TO.P,PS1,3*%
%TO.N,Net-(C1-Pad2)*%
X124580000Y-74485000D03*
%TD*%
D17*
%TO.P,J1,2*%
%TO.N,Net-(J1-Pad2)*%
X102870000Y-46355000D03*
D18*
%TO.P,J1,1*%
%TO.N,Net-(F1-Pad2)*%
X97790000Y-46355000D03*
%TD*%
D19*
%TO.P,F1,2*%
%TO.N,Net-(F1-Pad2)*%
X99695000Y-53330000D03*
%TO.P,F1,1*%
%TO.N,Net-(F1-Pad1)*%
X99695000Y-75230000D03*
%TD*%
D20*
%TO.P,C1,2*%
%TO.N,Net-(C1-Pad2)*%
X118070000Y-80010000D03*
D21*
%TO.P,C1,1*%
%TO.N,Net-(C1-Pad1)*%
X115570000Y-80010000D03*
%TD*%
D22*
%TO.N,Net-(F1-Pad2)*%
X97790000Y-51425000D02*
X99695000Y-53330000D01*
X97790000Y-46355000D02*
X97790000Y-51425000D01*
%TO.N,Net-(F1-Pad1)*%
X119380000Y-55545000D02*
X99695000Y-75230000D01*
X119380000Y-45085000D02*
X119380000Y-55545000D01*
%TO.N,Net-(J1-Pad2)*%
X104140000Y-45085000D02*
X102870000Y-46355000D01*
X114380000Y-45085000D02*
X104140000Y-45085000D01*
%TO.N,Net-(C1-Pad1)*%
X114705000Y-80010000D02*
X115570000Y-80010000D01*
X109180000Y-74485000D02*
X114705000Y-80010000D01*
X115570000Y-94615000D02*
X113030000Y-97155000D01*
X115570000Y-80010000D02*
X115570000Y-94615000D01*
X115570000Y-95885000D02*
X118745000Y-99060000D01*
X115570000Y-94615000D02*
X115570000Y-95885000D01*
X113030000Y-97155000D02*
X109855000Y-100330000D01*
X106680000Y-100330000D02*
X105410000Y-101600000D01*
X109855000Y-100330000D02*
X106680000Y-100330000D01*
%TO.N,Net-(R1-Pad1)*%
X113030000Y-102235000D02*
X111125000Y-104140000D01*
X111125000Y-104140000D02*
X100965000Y-104140000D01*
X100965000Y-102235000D02*
X100330000Y-101600000D01*
X100965000Y-104140000D02*
X100965000Y-102235000D01*
%TD*%
M02*
