M48
INCH,TZ
T1C0.0157
T2C0.0236
T3C0.0295
T4C0.0394
T5C0.0433
T6C0.0472
T7C0.0591
T8C0.0598
%
G90
G05
T1
X26442Y-39573
X26442Y-42601
X32828Y-38016
X34142Y-39285
X34395Y-39951
X34750Y-39061
X35000Y-38548
X37034Y-37584
X39533Y-36106
T2
X46500Y-38500
X46500Y-39287
T3
X31200Y-46200
X31700Y-46200
X32200Y-46200
X36800Y-46200
X37300Y-46200
X37800Y-46200
T4
X25754Y-33744
X25754Y-34744
X25754Y-35744
X25754Y-36744
X30000Y-50500
X33000Y-50500
X34500Y-34000
X35500Y-34000
X36000Y-50500
X36500Y-34000
X37500Y-34000
X38500Y-34000
X39000Y-50500
X39700Y-41100
X39700Y-42100
X39700Y-43100
X40700Y-41100
X40700Y-42100
X40700Y-43100
X43953Y-41325
X46000Y-52900
X47969Y-52900
X50016Y-41325
X50200Y-37700
X50200Y-38700
T5
X31500Y-48600
X32500Y-48600
X37300Y-48700
X38300Y-48700
X41941Y-34928
X41941Y-36700
X44500Y-34928
X44500Y-36700
T6
X30000Y-54500
X30000Y-57500
X36000Y-54500
X36000Y-57500
T7
X42132Y-56100
X50754Y-56100
T8
X23000Y-60400
X25000Y-60400
X27000Y-60400
X29500Y-60400
X31500Y-60400
X33500Y-60400
X36400Y-60400
X38400Y-60400
X43600Y-60400
X45600Y-60400
X47600Y-60400
T0
M30
