%TF.GenerationSoftware,KiCad,Pcbnew,(5.1.9)-1*%
%TF.CreationDate,2021-09-13T17:44:50+02:00*%
%TF.ProjectId,Sterownik,53746572-6f77-46e6-996b-2e6b69636164,rev?*%
%TF.SameCoordinates,Original*%
%TF.FileFunction,Soldermask,Bot*%
%TF.FilePolarity,Negative*%
%FSLAX46Y46*%
G04 Gerber Fmt 4.6, Leading zero omitted, Abs format (unit mm)*
G04 Created by KiCad (PCBNEW (5.1.9)-1) date 2021-09-13 17:44:50*
%MOMM*%
%LPD*%
G01*
G04 APERTURE LIST*
%ADD10O,2.200000X2.200000*%
%ADD11R,2.200000X2.200000*%
%ADD12O,1.700000X1.700000*%
%ADD13R,1.700000X1.700000*%
%ADD14C,3.200000*%
%ADD15C,2.000000*%
%ADD16R,1.050000X1.500000*%
%ADD17O,1.050000X1.500000*%
%ADD18C,2.300000*%
%ADD19R,2.000000X2.300000*%
%ADD20C,2.200000*%
%ADD21C,1.800000*%
%ADD22R,1.800000X1.800000*%
%ADD23C,3.000000*%
%ADD24R,3.000000X3.000000*%
%ADD25C,1.200000*%
%ADD26R,1.200000X1.200000*%
G04 APERTURE END LIST*
D10*
%TO.C,D2*%
X97282000Y-123698000D03*
D11*
X94742000Y-123698000D03*
%TD*%
D10*
%TO.C,D1*%
X82550000Y-123444000D03*
D11*
X80010000Y-123444000D03*
%TD*%
D12*
%TO.C,J8*%
X127508000Y-98298000D03*
D13*
X127508000Y-95758000D03*
%TD*%
D14*
%TO.C,M4*%
X128016000Y-155702000D03*
%TD*%
%TO.C,M3*%
X127762000Y-87884000D03*
%TD*%
%TO.C,M1*%
X51562000Y-87884000D03*
%TD*%
%TO.C,M2*%
X51562000Y-155702000D03*
%TD*%
D15*
%TO.C,SW1*%
X106530000Y-93218000D03*
X106530000Y-88718000D03*
X113030000Y-93218000D03*
X113030000Y-88718000D03*
%TD*%
D16*
%TO.C,Q2*%
X96012000Y-117348000D03*
D17*
X93472000Y-117348000D03*
X94742000Y-117348000D03*
%TD*%
D16*
%TO.C,Q1*%
X81788000Y-117348000D03*
D17*
X79248000Y-117348000D03*
X80518000Y-117348000D03*
%TD*%
D18*
%TO.C,PS1*%
X127040000Y-104966000D03*
X121840000Y-134366000D03*
D19*
X116840000Y-134366000D03*
D18*
X111640000Y-104966000D03*
%TD*%
D20*
%TO.C,K2*%
X91440000Y-146050000D03*
X91440000Y-138430000D03*
D21*
X99060000Y-128270000D03*
D22*
X91440000Y-128270000D03*
%TD*%
D20*
%TO.C,K1*%
X76200000Y-146050000D03*
X76200000Y-138430000D03*
D21*
X83820000Y-128270000D03*
D22*
X76200000Y-128270000D03*
%TD*%
D23*
%TO.C,J7*%
X97536000Y-153416000D03*
D24*
X92456000Y-153416000D03*
%TD*%
D12*
%TO.C,J6*%
X97790000Y-86360000D03*
X95250000Y-86360000D03*
X92710000Y-86360000D03*
X90170000Y-86360000D03*
D13*
X87630000Y-86360000D03*
%TD*%
D12*
%TO.C,J5*%
X65415000Y-93330000D03*
X65415000Y-90790000D03*
X65415000Y-88250000D03*
D13*
X65415000Y-85710000D03*
%TD*%
D23*
%TO.C,J4*%
X85090000Y-153416000D03*
X80010000Y-153416000D03*
D24*
X74930000Y-153416000D03*
%TD*%
D12*
%TO.C,J3*%
X103378000Y-109474000D03*
X100838000Y-109474000D03*
X103378000Y-106934000D03*
X100838000Y-106934000D03*
X103378000Y-104394000D03*
D13*
X100838000Y-104394000D03*
%TD*%
D23*
%TO.C,J2*%
X68580000Y-153416000D03*
X63500000Y-153416000D03*
D24*
X58420000Y-153416000D03*
%TD*%
D23*
%TO.C,J1*%
X120904000Y-153416000D03*
X115824000Y-153416000D03*
D24*
X110744000Y-153416000D03*
%TD*%
D15*
%TO.C,F1*%
X128915000Y-142494000D03*
X107015000Y-142494000D03*
%TD*%
D25*
%TO.C,C3*%
X118110000Y-99790000D03*
D26*
X118110000Y-97790000D03*
%TD*%
M02*
