%TF.GenerationSoftware,KiCad,Pcbnew,(5.1.9)-1*%
%TF.CreationDate,2021-09-13T17:44:50+02:00*%
%TF.ProjectId,Sterownik,53746572-6f77-46e6-996b-2e6b69636164,rev?*%
%TF.SameCoordinates,Original*%
%TF.FileFunction,Legend,Top*%
%TF.FilePolarity,Positive*%
%FSLAX46Y46*%
G04 Gerber Fmt 4.6, Leading zero omitted, Abs format (unit mm)*
G04 Created by KiCad (PCBNEW (5.1.9)-1) date 2021-09-13 17:44:50*
%MOMM*%
%LPD*%
G01*
G04 APERTURE LIST*
%ADD10C,0.300000*%
%ADD11C,0.150000*%
%ADD12C,0.120000*%
G04 APERTURE END LIST*
D10*
X54907714Y-130126000D02*
X54836285Y-130268857D01*
X54836285Y-130554571D01*
X54907714Y-130697428D01*
X55050571Y-130840285D01*
X55193428Y-130911714D01*
X55479142Y-130911714D01*
X55622000Y-130840285D01*
X55764857Y-130697428D01*
X55836285Y-130554571D01*
X55836285Y-130268857D01*
X55764857Y-130126000D01*
X54336285Y-130411714D02*
X54407714Y-130768857D01*
X54622000Y-131126000D01*
X54979142Y-131340285D01*
X55336285Y-131411714D01*
X55693428Y-131340285D01*
X56050571Y-131126000D01*
X56264857Y-130768857D01*
X56336285Y-130411714D01*
X56264857Y-130054571D01*
X56050571Y-129697428D01*
X55693428Y-129483142D01*
X55336285Y-129411714D01*
X54979142Y-129483142D01*
X54622000Y-129697428D01*
X54407714Y-130054571D01*
X54336285Y-130411714D01*
X56050571Y-127626000D02*
X54550571Y-127626000D01*
X54550571Y-127054571D01*
X54622000Y-126911714D01*
X54693428Y-126840285D01*
X54836285Y-126768857D01*
X55050571Y-126768857D01*
X55193428Y-126840285D01*
X55264857Y-126911714D01*
X55336285Y-127054571D01*
X55336285Y-127626000D01*
X56050571Y-126126000D02*
X55050571Y-126126000D01*
X55336285Y-126126000D02*
X55193428Y-126054571D01*
X55122000Y-125983142D01*
X55050571Y-125840285D01*
X55050571Y-125697428D01*
X55050571Y-125340285D02*
X55050571Y-124554571D01*
X56050571Y-125340285D01*
X56050571Y-124554571D01*
X55979142Y-123411714D02*
X56050571Y-123554571D01*
X56050571Y-123840285D01*
X55979142Y-123983142D01*
X55836285Y-124054571D01*
X55264857Y-124054571D01*
X55122000Y-123983142D01*
X55050571Y-123840285D01*
X55050571Y-123554571D01*
X55122000Y-123411714D01*
X55264857Y-123340285D01*
X55407714Y-123340285D01*
X55550571Y-124054571D01*
X56050571Y-122697428D02*
X55050571Y-122697428D01*
X55193428Y-122697428D02*
X55122000Y-122626000D01*
X55050571Y-122483142D01*
X55050571Y-122268857D01*
X55122000Y-122126000D01*
X55264857Y-122054571D01*
X56050571Y-122054571D01*
X55264857Y-122054571D02*
X55122000Y-121983142D01*
X55050571Y-121840285D01*
X55050571Y-121626000D01*
X55122000Y-121483142D01*
X55264857Y-121411714D01*
X56050571Y-121411714D01*
X55050571Y-120840285D02*
X56050571Y-120483142D01*
X55050571Y-120126000D02*
X56050571Y-120483142D01*
X56407714Y-120626000D01*
X56479142Y-120697428D01*
X56550571Y-120840285D01*
X55979142Y-119626000D02*
X56050571Y-119483142D01*
X56050571Y-119197428D01*
X55979142Y-119054571D01*
X55836285Y-118983142D01*
X55764857Y-118983142D01*
X55622000Y-119054571D01*
X55550571Y-119197428D01*
X55550571Y-119411714D01*
X55479142Y-119554571D01*
X55336285Y-119626000D01*
X55264857Y-119626000D01*
X55122000Y-119554571D01*
X55050571Y-119411714D01*
X55050571Y-119197428D01*
X55122000Y-119054571D01*
X56050571Y-118126000D02*
X55979142Y-118268857D01*
X55836285Y-118340285D01*
X54550571Y-118340285D01*
X55336285Y-118554571D02*
X55050571Y-118126000D01*
X56050571Y-116911714D02*
X55264857Y-116911714D01*
X55122000Y-116983142D01*
X55050571Y-117126000D01*
X55050571Y-117411714D01*
X55122000Y-117554571D01*
X55979142Y-116911714D02*
X56050571Y-117054571D01*
X56050571Y-117411714D01*
X55979142Y-117554571D01*
X55836285Y-117626000D01*
X55693428Y-117626000D01*
X55550571Y-117554571D01*
X55479142Y-117411714D01*
X55479142Y-117054571D01*
X55407714Y-116911714D01*
X55050571Y-116340285D02*
X56050571Y-116054571D01*
X55336285Y-115768857D01*
X56050571Y-115483142D01*
X55050571Y-115197428D01*
X56050571Y-113483142D02*
X54550571Y-113483142D01*
X55622000Y-112983142D01*
X54550571Y-112483142D01*
X56050571Y-112483142D01*
X56050571Y-111554571D02*
X55979142Y-111697428D01*
X55907714Y-111768857D01*
X55764857Y-111840285D01*
X55336285Y-111840285D01*
X55193428Y-111768857D01*
X55122000Y-111697428D01*
X55050571Y-111554571D01*
X55050571Y-111340285D01*
X55122000Y-111197428D01*
X55193428Y-111126000D01*
X55336285Y-111054571D01*
X55764857Y-111054571D01*
X55907714Y-111126000D01*
X55979142Y-111197428D01*
X56050571Y-111340285D01*
X56050571Y-111554571D01*
X56050571Y-110411714D02*
X55050571Y-110411714D01*
X55336285Y-110411714D02*
X55193428Y-110340285D01*
X55122000Y-110268857D01*
X55050571Y-110126000D01*
X55050571Y-109983142D01*
X56050571Y-108840285D02*
X54550571Y-108840285D01*
X55979142Y-108840285D02*
X56050571Y-108983142D01*
X56050571Y-109268857D01*
X55979142Y-109411714D01*
X55907714Y-109483142D01*
X55764857Y-109554571D01*
X55336285Y-109554571D01*
X55193428Y-109483142D01*
X55122000Y-109411714D01*
X55050571Y-109268857D01*
X55050571Y-108983142D01*
X55122000Y-108840285D01*
X55050571Y-108268857D02*
X56050571Y-107911714D01*
X55050571Y-107554571D02*
X56050571Y-107911714D01*
X56407714Y-108054571D01*
X56479142Y-108126000D01*
X56550571Y-108268857D01*
X56050571Y-106768857D02*
X55979142Y-106911714D01*
X55836285Y-106983142D01*
X54550571Y-106983142D01*
X52423142Y-131693428D02*
X52494571Y-131479142D01*
X52494571Y-131122000D01*
X52423142Y-130979142D01*
X52351714Y-130907714D01*
X52208857Y-130836285D01*
X52066000Y-130836285D01*
X51923142Y-130907714D01*
X51851714Y-130979142D01*
X51780285Y-131122000D01*
X51708857Y-131407714D01*
X51637428Y-131550571D01*
X51566000Y-131622000D01*
X51423142Y-131693428D01*
X51280285Y-131693428D01*
X51137428Y-131622000D01*
X51066000Y-131550571D01*
X50994571Y-131407714D01*
X50994571Y-131050571D01*
X51066000Y-130836285D01*
X51494571Y-130407714D02*
X51494571Y-129836285D01*
X50994571Y-130193428D02*
X52280285Y-130193428D01*
X52423142Y-130122000D01*
X52494571Y-129979142D01*
X52494571Y-129836285D01*
X52423142Y-128764857D02*
X52494571Y-128907714D01*
X52494571Y-129193428D01*
X52423142Y-129336285D01*
X52280285Y-129407714D01*
X51708857Y-129407714D01*
X51566000Y-129336285D01*
X51494571Y-129193428D01*
X51494571Y-128907714D01*
X51566000Y-128764857D01*
X51708857Y-128693428D01*
X51851714Y-128693428D01*
X51994571Y-129407714D01*
X52494571Y-128050571D02*
X51494571Y-128050571D01*
X51780285Y-128050571D02*
X51637428Y-127979142D01*
X51566000Y-127907714D01*
X51494571Y-127764857D01*
X51494571Y-127622000D01*
X52494571Y-126907714D02*
X52423142Y-127050571D01*
X52351714Y-127122000D01*
X52208857Y-127193428D01*
X51780285Y-127193428D01*
X51637428Y-127122000D01*
X51566000Y-127050571D01*
X51494571Y-126907714D01*
X51494571Y-126693428D01*
X51566000Y-126550571D01*
X51637428Y-126479142D01*
X51780285Y-126407714D01*
X52208857Y-126407714D01*
X52351714Y-126479142D01*
X52423142Y-126550571D01*
X52494571Y-126693428D01*
X52494571Y-126907714D01*
X51494571Y-125907714D02*
X52494571Y-125622000D01*
X51780285Y-125336285D01*
X52494571Y-125050571D01*
X51494571Y-124764857D01*
X51494571Y-124193428D02*
X52494571Y-124193428D01*
X51637428Y-124193428D02*
X51566000Y-124122000D01*
X51494571Y-123979142D01*
X51494571Y-123764857D01*
X51566000Y-123622000D01*
X51708857Y-123550571D01*
X52494571Y-123550571D01*
X52494571Y-122836285D02*
X51494571Y-122836285D01*
X50994571Y-122836285D02*
X51066000Y-122907714D01*
X51137428Y-122836285D01*
X51066000Y-122764857D01*
X50994571Y-122836285D01*
X51137428Y-122836285D01*
X52494571Y-122122000D02*
X50994571Y-122122000D01*
X51923142Y-121979142D02*
X52494571Y-121550571D01*
X51494571Y-121550571D02*
X52066000Y-122122000D01*
X51494571Y-119764857D02*
X52994571Y-119764857D01*
X51566000Y-119764857D02*
X51494571Y-119622000D01*
X51494571Y-119336285D01*
X51566000Y-119193428D01*
X51637428Y-119122000D01*
X51780285Y-119050571D01*
X52208857Y-119050571D01*
X52351714Y-119122000D01*
X52423142Y-119193428D01*
X52494571Y-119336285D01*
X52494571Y-119622000D01*
X52423142Y-119764857D01*
X52494571Y-118193428D02*
X52423142Y-118336285D01*
X52351714Y-118407714D01*
X52208857Y-118479142D01*
X51780285Y-118479142D01*
X51637428Y-118407714D01*
X51566000Y-118336285D01*
X51494571Y-118193428D01*
X51494571Y-117979142D01*
X51566000Y-117836285D01*
X51637428Y-117764857D01*
X51780285Y-117693428D01*
X52208857Y-117693428D01*
X52351714Y-117764857D01*
X52423142Y-117836285D01*
X52494571Y-117979142D01*
X52494571Y-118193428D01*
X52494571Y-117050571D02*
X51494571Y-117050571D01*
X51637428Y-117050571D02*
X51566000Y-116979142D01*
X51494571Y-116836285D01*
X51494571Y-116622000D01*
X51566000Y-116479142D01*
X51708857Y-116407714D01*
X52494571Y-116407714D01*
X51708857Y-116407714D02*
X51566000Y-116336285D01*
X51494571Y-116193428D01*
X51494571Y-115979142D01*
X51566000Y-115836285D01*
X51708857Y-115764857D01*
X52494571Y-115764857D01*
X51494571Y-115050571D02*
X52994571Y-115050571D01*
X51566000Y-115050571D02*
X51494571Y-114907714D01*
X51494571Y-114622000D01*
X51566000Y-114479142D01*
X51637428Y-114407714D01*
X51780285Y-114336285D01*
X52208857Y-114336285D01*
X52351714Y-114407714D01*
X52423142Y-114479142D01*
X52494571Y-114622000D01*
X52494571Y-114907714D01*
X52423142Y-115050571D01*
X51494571Y-113836285D02*
X52494571Y-113479142D01*
X51494571Y-113122000D02*
X52494571Y-113479142D01*
X52851714Y-113622000D01*
X52923142Y-113693428D01*
X52994571Y-113836285D01*
X51494571Y-111407714D02*
X52994571Y-111407714D01*
X51566000Y-111407714D02*
X51494571Y-111264857D01*
X51494571Y-110979142D01*
X51566000Y-110836285D01*
X51637428Y-110764857D01*
X51780285Y-110693428D01*
X52208857Y-110693428D01*
X52351714Y-110764857D01*
X52423142Y-110836285D01*
X52494571Y-110979142D01*
X52494571Y-111264857D01*
X52423142Y-111407714D01*
X52494571Y-110050571D02*
X51494571Y-110050571D01*
X50994571Y-110050571D02*
X51066000Y-110122000D01*
X51137428Y-110050571D01*
X51066000Y-109979142D01*
X50994571Y-110050571D01*
X51137428Y-110050571D01*
X52423142Y-108764857D02*
X52494571Y-108907714D01*
X52494571Y-109193428D01*
X52423142Y-109336285D01*
X52280285Y-109407714D01*
X51708857Y-109407714D01*
X51566000Y-109336285D01*
X51494571Y-109193428D01*
X51494571Y-108907714D01*
X51566000Y-108764857D01*
X51708857Y-108693428D01*
X51851714Y-108693428D01*
X51994571Y-109407714D01*
X52423142Y-107407714D02*
X52494571Y-107550571D01*
X52494571Y-107836285D01*
X52423142Y-107979142D01*
X52351714Y-108050571D01*
X52208857Y-108122000D01*
X51780285Y-108122000D01*
X51637428Y-108050571D01*
X51566000Y-107979142D01*
X51494571Y-107836285D01*
X51494571Y-107550571D01*
X51566000Y-107407714D01*
X52494571Y-106122000D02*
X51708857Y-106122000D01*
X51566000Y-106193428D01*
X51494571Y-106336285D01*
X51494571Y-106622000D01*
X51566000Y-106764857D01*
X52423142Y-106122000D02*
X52494571Y-106264857D01*
X52494571Y-106622000D01*
X52423142Y-106764857D01*
X52280285Y-106836285D01*
X52137428Y-106836285D01*
X51994571Y-106764857D01*
X51923142Y-106622000D01*
X51923142Y-106264857D01*
X51851714Y-106122000D01*
D11*
X124230190Y-101258666D02*
X124706380Y-101258666D01*
X124134952Y-101544380D02*
X124468285Y-100544380D01*
X124801619Y-101544380D01*
X125611142Y-101544380D02*
X125134952Y-101544380D01*
X125134952Y-100544380D01*
X125944476Y-101544380D02*
X125944476Y-100544380D01*
X126277809Y-101258666D01*
X126611142Y-100544380D01*
X126611142Y-101544380D01*
X126849238Y-101639619D02*
X127611142Y-101639619D01*
X128420666Y-101544380D02*
X128087333Y-101068190D01*
X127849238Y-101544380D02*
X127849238Y-100544380D01*
X128230190Y-100544380D01*
X128325428Y-100592000D01*
X128373047Y-100639619D01*
X128420666Y-100734857D01*
X128420666Y-100877714D01*
X128373047Y-100972952D01*
X128325428Y-101020571D01*
X128230190Y-101068190D01*
X127849238Y-101068190D01*
X128849238Y-101020571D02*
X129182571Y-101020571D01*
X129325428Y-101544380D02*
X128849238Y-101544380D01*
X128849238Y-100544380D01*
X129325428Y-100544380D01*
X129706380Y-101496761D02*
X129849238Y-101544380D01*
X130087333Y-101544380D01*
X130182571Y-101496761D01*
X130230190Y-101449142D01*
X130277809Y-101353904D01*
X130277809Y-101258666D01*
X130230190Y-101163428D01*
X130182571Y-101115809D01*
X130087333Y-101068190D01*
X129896857Y-101020571D01*
X129801619Y-100972952D01*
X129754000Y-100925333D01*
X129706380Y-100830095D01*
X129706380Y-100734857D01*
X129754000Y-100639619D01*
X129801619Y-100592000D01*
X129896857Y-100544380D01*
X130134952Y-100544380D01*
X130277809Y-100592000D01*
X67818095Y-157742000D02*
X67722857Y-157694380D01*
X67580000Y-157694380D01*
X67437142Y-157742000D01*
X67341904Y-157837238D01*
X67294285Y-157932476D01*
X67246666Y-158122952D01*
X67246666Y-158265809D01*
X67294285Y-158456285D01*
X67341904Y-158551523D01*
X67437142Y-158646761D01*
X67580000Y-158694380D01*
X67675238Y-158694380D01*
X67818095Y-158646761D01*
X67865714Y-158599142D01*
X67865714Y-158265809D01*
X67675238Y-158265809D01*
X68294285Y-158694380D02*
X68294285Y-157694380D01*
X68865714Y-158694380D01*
X68865714Y-157694380D01*
X69341904Y-158694380D02*
X69341904Y-157694380D01*
X69580000Y-157694380D01*
X69722857Y-157742000D01*
X69818095Y-157837238D01*
X69865714Y-157932476D01*
X69913333Y-158122952D01*
X69913333Y-158265809D01*
X69865714Y-158456285D01*
X69818095Y-158551523D01*
X69722857Y-158646761D01*
X69580000Y-158694380D01*
X69341904Y-158694380D01*
X62507904Y-158694380D02*
X62507904Y-157694380D01*
X62746000Y-157694380D01*
X62888857Y-157742000D01*
X62984095Y-157837238D01*
X63031714Y-157932476D01*
X63079333Y-158122952D01*
X63079333Y-158265809D01*
X63031714Y-158456285D01*
X62984095Y-158551523D01*
X62888857Y-158646761D01*
X62746000Y-158694380D01*
X62507904Y-158694380D01*
X63650761Y-158122952D02*
X63555523Y-158075333D01*
X63507904Y-158027714D01*
X63460285Y-157932476D01*
X63460285Y-157884857D01*
X63507904Y-157789619D01*
X63555523Y-157742000D01*
X63650761Y-157694380D01*
X63841238Y-157694380D01*
X63936476Y-157742000D01*
X63984095Y-157789619D01*
X64031714Y-157884857D01*
X64031714Y-157932476D01*
X63984095Y-158027714D01*
X63936476Y-158075333D01*
X63841238Y-158122952D01*
X63650761Y-158122952D01*
X63555523Y-158170571D01*
X63507904Y-158218190D01*
X63460285Y-158313428D01*
X63460285Y-158503904D01*
X63507904Y-158599142D01*
X63555523Y-158646761D01*
X63650761Y-158694380D01*
X63841238Y-158694380D01*
X63936476Y-158646761D01*
X63984095Y-158599142D01*
X64031714Y-158503904D01*
X64031714Y-158313428D01*
X63984095Y-158218190D01*
X63936476Y-158170571D01*
X63841238Y-158122952D01*
X56832666Y-157694380D02*
X57166000Y-158694380D01*
X57499333Y-157694380D01*
X58404095Y-158599142D02*
X58356476Y-158646761D01*
X58213619Y-158694380D01*
X58118380Y-158694380D01*
X57975523Y-158646761D01*
X57880285Y-158551523D01*
X57832666Y-158456285D01*
X57785047Y-158265809D01*
X57785047Y-158122952D01*
X57832666Y-157932476D01*
X57880285Y-157837238D01*
X57975523Y-157742000D01*
X58118380Y-157694380D01*
X58213619Y-157694380D01*
X58356476Y-157742000D01*
X58404095Y-157789619D01*
X59404095Y-158599142D02*
X59356476Y-158646761D01*
X59213619Y-158694380D01*
X59118380Y-158694380D01*
X58975523Y-158646761D01*
X58880285Y-158551523D01*
X58832666Y-158456285D01*
X58785047Y-158265809D01*
X58785047Y-158122952D01*
X58832666Y-157932476D01*
X58880285Y-157837238D01*
X58975523Y-157742000D01*
X59118380Y-157694380D01*
X59213619Y-157694380D01*
X59356476Y-157742000D01*
X59404095Y-157789619D01*
X84375714Y-158694380D02*
X84375714Y-157694380D01*
X84756666Y-157694380D01*
X84851904Y-157742000D01*
X84899523Y-157789619D01*
X84947142Y-157884857D01*
X84947142Y-158027714D01*
X84899523Y-158122952D01*
X84851904Y-158170571D01*
X84756666Y-158218190D01*
X84375714Y-158218190D01*
X85375714Y-158170571D02*
X85709047Y-158170571D01*
X85851904Y-158694380D02*
X85375714Y-158694380D01*
X85375714Y-157694380D01*
X85851904Y-157694380D01*
X79470285Y-158694380D02*
X79470285Y-157694380D01*
X80041714Y-158694380D01*
X80041714Y-157694380D01*
X74985523Y-158694380D02*
X74509333Y-158694380D01*
X74509333Y-157694380D01*
X91178190Y-158646761D02*
X91321047Y-158694380D01*
X91559142Y-158694380D01*
X91654380Y-158646761D01*
X91702000Y-158599142D01*
X91749619Y-158503904D01*
X91749619Y-158408666D01*
X91702000Y-158313428D01*
X91654380Y-158265809D01*
X91559142Y-158218190D01*
X91368666Y-158170571D01*
X91273428Y-158122952D01*
X91225809Y-158075333D01*
X91178190Y-157980095D01*
X91178190Y-157884857D01*
X91225809Y-157789619D01*
X91273428Y-157742000D01*
X91368666Y-157694380D01*
X91606761Y-157694380D01*
X91749619Y-157742000D01*
X92178190Y-158694380D02*
X92178190Y-157694380D01*
X93178190Y-157742000D02*
X93082952Y-157694380D01*
X92940095Y-157694380D01*
X92797238Y-157742000D01*
X92702000Y-157837238D01*
X92654380Y-157932476D01*
X92606761Y-158122952D01*
X92606761Y-158265809D01*
X92654380Y-158456285D01*
X92702000Y-158551523D01*
X92797238Y-158646761D01*
X92940095Y-158694380D01*
X93035333Y-158694380D01*
X93178190Y-158646761D01*
X93225809Y-158599142D01*
X93225809Y-158265809D01*
X93035333Y-158265809D01*
X97250285Y-158694380D02*
X97250285Y-157694380D01*
X97821714Y-158694380D01*
X97821714Y-157694380D01*
X110029714Y-158694380D02*
X110029714Y-157694380D01*
X110410666Y-157694380D01*
X110505904Y-157742000D01*
X110553523Y-157789619D01*
X110601142Y-157884857D01*
X110601142Y-158027714D01*
X110553523Y-158122952D01*
X110505904Y-158170571D01*
X110410666Y-158218190D01*
X110029714Y-158218190D01*
X111029714Y-158170571D02*
X111363047Y-158170571D01*
X111505904Y-158694380D02*
X111029714Y-158694380D01*
X111029714Y-157694380D01*
X111505904Y-157694380D01*
X115538285Y-158694380D02*
X115538285Y-157694380D01*
X116109714Y-158694380D01*
X116109714Y-157694380D01*
X121213523Y-158694380D02*
X120737333Y-158694380D01*
X120737333Y-157694380D01*
X108021619Y-96210380D02*
X107688285Y-95734190D01*
X107450190Y-96210380D02*
X107450190Y-95210380D01*
X107831142Y-95210380D01*
X107926380Y-95258000D01*
X107974000Y-95305619D01*
X108021619Y-95400857D01*
X108021619Y-95543714D01*
X107974000Y-95638952D01*
X107926380Y-95686571D01*
X107831142Y-95734190D01*
X107450190Y-95734190D01*
X108450190Y-95686571D02*
X108783523Y-95686571D01*
X108926380Y-96210380D02*
X108450190Y-96210380D01*
X108450190Y-95210380D01*
X108926380Y-95210380D01*
X109307333Y-96162761D02*
X109450190Y-96210380D01*
X109688285Y-96210380D01*
X109783523Y-96162761D01*
X109831142Y-96115142D01*
X109878761Y-96019904D01*
X109878761Y-95924666D01*
X109831142Y-95829428D01*
X109783523Y-95781809D01*
X109688285Y-95734190D01*
X109497809Y-95686571D01*
X109402571Y-95638952D01*
X109354952Y-95591333D01*
X109307333Y-95496095D01*
X109307333Y-95400857D01*
X109354952Y-95305619D01*
X109402571Y-95258000D01*
X109497809Y-95210380D01*
X109735904Y-95210380D01*
X109878761Y-95258000D01*
X110307333Y-95686571D02*
X110640666Y-95686571D01*
X110783523Y-96210380D02*
X110307333Y-96210380D01*
X110307333Y-95210380D01*
X110783523Y-95210380D01*
X111069238Y-95210380D02*
X111640666Y-95210380D01*
X111354952Y-96210380D02*
X111354952Y-95210380D01*
X113514476Y-149296380D02*
X113514476Y-148296380D01*
X113895428Y-148296380D01*
X113990666Y-148344000D01*
X114038285Y-148391619D01*
X114085904Y-148486857D01*
X114085904Y-148629714D01*
X114038285Y-148724952D01*
X113990666Y-148772571D01*
X113895428Y-148820190D01*
X113514476Y-148820190D01*
X114704952Y-148296380D02*
X114895428Y-148296380D01*
X114990666Y-148344000D01*
X115085904Y-148439238D01*
X115133523Y-148629714D01*
X115133523Y-148963047D01*
X115085904Y-149153523D01*
X114990666Y-149248761D01*
X114895428Y-149296380D01*
X114704952Y-149296380D01*
X114609714Y-149248761D01*
X114514476Y-149153523D01*
X114466857Y-148963047D01*
X114466857Y-148629714D01*
X114514476Y-148439238D01*
X114609714Y-148344000D01*
X114704952Y-148296380D01*
X115466857Y-148296380D02*
X115704952Y-149296380D01*
X115895428Y-148582095D01*
X116085904Y-149296380D01*
X116324000Y-148296380D01*
X116704952Y-148772571D02*
X117038285Y-148772571D01*
X117181142Y-149296380D02*
X116704952Y-149296380D01*
X116704952Y-148296380D01*
X117181142Y-148296380D01*
X118181142Y-149296380D02*
X117847809Y-148820190D01*
X117609714Y-149296380D02*
X117609714Y-148296380D01*
X117990666Y-148296380D01*
X118085904Y-148344000D01*
X118133523Y-148391619D01*
X118181142Y-148486857D01*
X118181142Y-148629714D01*
X118133523Y-148724952D01*
X118085904Y-148772571D01*
X117990666Y-148820190D01*
X117609714Y-148820190D01*
X92757904Y-148756666D02*
X93234095Y-148756666D01*
X92662666Y-149042380D02*
X92996000Y-148042380D01*
X93329333Y-149042380D01*
X94138857Y-149042380D02*
X93662666Y-149042380D01*
X93662666Y-148042380D01*
X94234095Y-149137619D02*
X94996000Y-149137619D01*
X95186476Y-148994761D02*
X95329333Y-149042380D01*
X95567428Y-149042380D01*
X95662666Y-148994761D01*
X95710285Y-148947142D01*
X95757904Y-148851904D01*
X95757904Y-148756666D01*
X95710285Y-148661428D01*
X95662666Y-148613809D01*
X95567428Y-148566190D01*
X95376952Y-148518571D01*
X95281714Y-148470952D01*
X95234095Y-148423333D01*
X95186476Y-148328095D01*
X95186476Y-148232857D01*
X95234095Y-148137619D01*
X95281714Y-148090000D01*
X95376952Y-148042380D01*
X95615047Y-148042380D01*
X95757904Y-148090000D01*
X96186476Y-149042380D02*
X96186476Y-148042380D01*
X97186476Y-148090000D02*
X97091238Y-148042380D01*
X96948380Y-148042380D01*
X96805523Y-148090000D01*
X96710285Y-148185238D01*
X96662666Y-148280476D01*
X96615047Y-148470952D01*
X96615047Y-148613809D01*
X96662666Y-148804285D01*
X96710285Y-148899523D01*
X96805523Y-148994761D01*
X96948380Y-149042380D01*
X97043619Y-149042380D01*
X97186476Y-148994761D01*
X97234095Y-148947142D01*
X97234095Y-148613809D01*
X97043619Y-148613809D01*
X78152857Y-149042380D02*
X78152857Y-148042380D01*
X78533809Y-148042380D01*
X78629047Y-148090000D01*
X78676666Y-148137619D01*
X78724285Y-148232857D01*
X78724285Y-148375714D01*
X78676666Y-148470952D01*
X78629047Y-148518571D01*
X78533809Y-148566190D01*
X78152857Y-148566190D01*
X79152857Y-148042380D02*
X79152857Y-148851904D01*
X79200476Y-148947142D01*
X79248095Y-148994761D01*
X79343333Y-149042380D01*
X79533809Y-149042380D01*
X79629047Y-148994761D01*
X79676666Y-148947142D01*
X79724285Y-148851904D01*
X79724285Y-148042380D01*
X80200476Y-149042380D02*
X80200476Y-148042380D01*
X80533809Y-148756666D01*
X80867142Y-148042380D01*
X80867142Y-149042380D01*
X81343333Y-149042380D02*
X81343333Y-148042380D01*
X81724285Y-148042380D01*
X81819523Y-148090000D01*
X81867142Y-148137619D01*
X81914761Y-148232857D01*
X81914761Y-148375714D01*
X81867142Y-148470952D01*
X81819523Y-148518571D01*
X81724285Y-148566190D01*
X81343333Y-148566190D01*
X60230095Y-148994761D02*
X60372952Y-149042380D01*
X60611047Y-149042380D01*
X60706285Y-148994761D01*
X60753904Y-148947142D01*
X60801523Y-148851904D01*
X60801523Y-148756666D01*
X60753904Y-148661428D01*
X60706285Y-148613809D01*
X60611047Y-148566190D01*
X60420571Y-148518571D01*
X60325333Y-148470952D01*
X60277714Y-148423333D01*
X60230095Y-148328095D01*
X60230095Y-148232857D01*
X60277714Y-148137619D01*
X60325333Y-148090000D01*
X60420571Y-148042380D01*
X60658666Y-148042380D01*
X60801523Y-148090000D01*
X61230095Y-148518571D02*
X61563428Y-148518571D01*
X61706285Y-149042380D02*
X61230095Y-149042380D01*
X61230095Y-148042380D01*
X61706285Y-148042380D01*
X62134857Y-149042380D02*
X62134857Y-148042380D01*
X62706285Y-149042380D01*
X62706285Y-148042380D01*
X63134857Y-148994761D02*
X63277714Y-149042380D01*
X63515809Y-149042380D01*
X63611047Y-148994761D01*
X63658666Y-148947142D01*
X63706285Y-148851904D01*
X63706285Y-148756666D01*
X63658666Y-148661428D01*
X63611047Y-148613809D01*
X63515809Y-148566190D01*
X63325333Y-148518571D01*
X63230095Y-148470952D01*
X63182476Y-148423333D01*
X63134857Y-148328095D01*
X63134857Y-148232857D01*
X63182476Y-148137619D01*
X63230095Y-148090000D01*
X63325333Y-148042380D01*
X63563428Y-148042380D01*
X63706285Y-148090000D01*
X64325333Y-148042380D02*
X64515809Y-148042380D01*
X64611047Y-148090000D01*
X64706285Y-148185238D01*
X64753904Y-148375714D01*
X64753904Y-148709047D01*
X64706285Y-148899523D01*
X64611047Y-148994761D01*
X64515809Y-149042380D01*
X64325333Y-149042380D01*
X64230095Y-148994761D01*
X64134857Y-148899523D01*
X64087238Y-148709047D01*
X64087238Y-148375714D01*
X64134857Y-148185238D01*
X64230095Y-148090000D01*
X64325333Y-148042380D01*
X65753904Y-149042380D02*
X65420571Y-148566190D01*
X65182476Y-149042380D02*
X65182476Y-148042380D01*
X65563428Y-148042380D01*
X65658666Y-148090000D01*
X65706285Y-148137619D01*
X65753904Y-148232857D01*
X65753904Y-148375714D01*
X65706285Y-148470952D01*
X65658666Y-148518571D01*
X65563428Y-148566190D01*
X65182476Y-148566190D01*
X96662952Y-110942380D02*
X96329619Y-110466190D01*
X96091523Y-110942380D02*
X96091523Y-109942380D01*
X96472476Y-109942380D01*
X96567714Y-109990000D01*
X96615333Y-110037619D01*
X96662952Y-110132857D01*
X96662952Y-110275714D01*
X96615333Y-110370952D01*
X96567714Y-110418571D01*
X96472476Y-110466190D01*
X96091523Y-110466190D01*
X97091523Y-110418571D02*
X97424857Y-110418571D01*
X97567714Y-110942380D02*
X97091523Y-110942380D01*
X97091523Y-109942380D01*
X97567714Y-109942380D01*
X97948666Y-110894761D02*
X98091523Y-110942380D01*
X98329619Y-110942380D01*
X98424857Y-110894761D01*
X98472476Y-110847142D01*
X98520095Y-110751904D01*
X98520095Y-110656666D01*
X98472476Y-110561428D01*
X98424857Y-110513809D01*
X98329619Y-110466190D01*
X98139142Y-110418571D01*
X98043904Y-110370952D01*
X97996285Y-110323333D01*
X97948666Y-110228095D01*
X97948666Y-110132857D01*
X97996285Y-110037619D01*
X98043904Y-109990000D01*
X98139142Y-109942380D01*
X98377238Y-109942380D01*
X98520095Y-109990000D01*
X95456571Y-105862380D02*
X95456571Y-104862380D01*
X95789904Y-105576666D01*
X96123238Y-104862380D01*
X96123238Y-105862380D01*
X96599428Y-105862380D02*
X96599428Y-104862380D01*
X97028000Y-105814761D02*
X97170857Y-105862380D01*
X97408952Y-105862380D01*
X97504190Y-105814761D01*
X97551809Y-105767142D01*
X97599428Y-105671904D01*
X97599428Y-105576666D01*
X97551809Y-105481428D01*
X97504190Y-105433809D01*
X97408952Y-105386190D01*
X97218476Y-105338571D01*
X97123238Y-105290952D01*
X97075619Y-105243333D01*
X97028000Y-105148095D01*
X97028000Y-105052857D01*
X97075619Y-104957619D01*
X97123238Y-104910000D01*
X97218476Y-104862380D01*
X97456571Y-104862380D01*
X97599428Y-104910000D01*
X98218476Y-104862380D02*
X98408952Y-104862380D01*
X98504190Y-104910000D01*
X98599428Y-105005238D01*
X98647047Y-105195714D01*
X98647047Y-105529047D01*
X98599428Y-105719523D01*
X98504190Y-105814761D01*
X98408952Y-105862380D01*
X98218476Y-105862380D01*
X98123238Y-105814761D01*
X98028000Y-105719523D01*
X97980380Y-105529047D01*
X97980380Y-105195714D01*
X98028000Y-105005238D01*
X98123238Y-104910000D01*
X98218476Y-104862380D01*
X95996285Y-108354761D02*
X96139142Y-108402380D01*
X96377238Y-108402380D01*
X96472476Y-108354761D01*
X96520095Y-108307142D01*
X96567714Y-108211904D01*
X96567714Y-108116666D01*
X96520095Y-108021428D01*
X96472476Y-107973809D01*
X96377238Y-107926190D01*
X96186761Y-107878571D01*
X96091523Y-107830952D01*
X96043904Y-107783333D01*
X95996285Y-107688095D01*
X95996285Y-107592857D01*
X96043904Y-107497619D01*
X96091523Y-107450000D01*
X96186761Y-107402380D01*
X96424857Y-107402380D01*
X96567714Y-107450000D01*
X97567714Y-108307142D02*
X97520095Y-108354761D01*
X97377238Y-108402380D01*
X97282000Y-108402380D01*
X97139142Y-108354761D01*
X97043904Y-108259523D01*
X96996285Y-108164285D01*
X96948666Y-107973809D01*
X96948666Y-107830952D01*
X96996285Y-107640476D01*
X97043904Y-107545238D01*
X97139142Y-107450000D01*
X97282000Y-107402380D01*
X97377238Y-107402380D01*
X97520095Y-107450000D01*
X97567714Y-107497619D01*
X97996285Y-108402380D02*
X97996285Y-107402380D01*
X98567714Y-108402380D02*
X98139142Y-107830952D01*
X98567714Y-107402380D02*
X97996285Y-107973809D01*
X105108571Y-108402380D02*
X105108571Y-107402380D01*
X105441904Y-108116666D01*
X105775238Y-107402380D01*
X105775238Y-108402380D01*
X106441904Y-107402380D02*
X106632380Y-107402380D01*
X106727619Y-107450000D01*
X106822857Y-107545238D01*
X106870476Y-107735714D01*
X106870476Y-108069047D01*
X106822857Y-108259523D01*
X106727619Y-108354761D01*
X106632380Y-108402380D01*
X106441904Y-108402380D01*
X106346666Y-108354761D01*
X106251428Y-108259523D01*
X106203809Y-108069047D01*
X106203809Y-107735714D01*
X106251428Y-107545238D01*
X106346666Y-107450000D01*
X106441904Y-107402380D01*
X107251428Y-108354761D02*
X107394285Y-108402380D01*
X107632380Y-108402380D01*
X107727619Y-108354761D01*
X107775238Y-108307142D01*
X107822857Y-108211904D01*
X107822857Y-108116666D01*
X107775238Y-108021428D01*
X107727619Y-107973809D01*
X107632380Y-107926190D01*
X107441904Y-107878571D01*
X107346666Y-107830952D01*
X107299047Y-107783333D01*
X107251428Y-107688095D01*
X107251428Y-107592857D01*
X107299047Y-107497619D01*
X107346666Y-107450000D01*
X107441904Y-107402380D01*
X107680000Y-107402380D01*
X107822857Y-107450000D01*
X108251428Y-108402380D02*
X108251428Y-107402380D01*
X105664095Y-109990000D02*
X105568857Y-109942380D01*
X105426000Y-109942380D01*
X105283142Y-109990000D01*
X105187904Y-110085238D01*
X105140285Y-110180476D01*
X105092666Y-110370952D01*
X105092666Y-110513809D01*
X105140285Y-110704285D01*
X105187904Y-110799523D01*
X105283142Y-110894761D01*
X105426000Y-110942380D01*
X105521238Y-110942380D01*
X105664095Y-110894761D01*
X105711714Y-110847142D01*
X105711714Y-110513809D01*
X105521238Y-110513809D01*
X106140285Y-110942380D02*
X106140285Y-109942380D01*
X106711714Y-110942380D01*
X106711714Y-109942380D01*
X107187904Y-110942380D02*
X107187904Y-109942380D01*
X107426000Y-109942380D01*
X107568857Y-109990000D01*
X107664095Y-110085238D01*
X107711714Y-110180476D01*
X107759333Y-110370952D01*
X107759333Y-110513809D01*
X107711714Y-110704285D01*
X107664095Y-110799523D01*
X107568857Y-110894761D01*
X107426000Y-110942380D01*
X107187904Y-110942380D01*
X105092666Y-104862380D02*
X105426000Y-105862380D01*
X105759333Y-104862380D01*
X106664095Y-105767142D02*
X106616476Y-105814761D01*
X106473619Y-105862380D01*
X106378380Y-105862380D01*
X106235523Y-105814761D01*
X106140285Y-105719523D01*
X106092666Y-105624285D01*
X106045047Y-105433809D01*
X106045047Y-105290952D01*
X106092666Y-105100476D01*
X106140285Y-105005238D01*
X106235523Y-104910000D01*
X106378380Y-104862380D01*
X106473619Y-104862380D01*
X106616476Y-104910000D01*
X106664095Y-104957619D01*
X107664095Y-105767142D02*
X107616476Y-105814761D01*
X107473619Y-105862380D01*
X107378380Y-105862380D01*
X107235523Y-105814761D01*
X107140285Y-105719523D01*
X107092666Y-105624285D01*
X107045047Y-105433809D01*
X107045047Y-105290952D01*
X107092666Y-105100476D01*
X107140285Y-105005238D01*
X107235523Y-104910000D01*
X107378380Y-104862380D01*
X107473619Y-104862380D01*
X107616476Y-104910000D01*
X107664095Y-104957619D01*
X93114761Y-90011142D02*
X93162380Y-89868285D01*
X93162380Y-89630190D01*
X93114761Y-89534952D01*
X93067142Y-89487333D01*
X92971904Y-89439714D01*
X92876666Y-89439714D01*
X92781428Y-89487333D01*
X92733809Y-89534952D01*
X92686190Y-89630190D01*
X92638571Y-89820666D01*
X92590952Y-89915904D01*
X92543333Y-89963523D01*
X92448095Y-90011142D01*
X92352857Y-90011142D01*
X92257619Y-89963523D01*
X92210000Y-89915904D01*
X92162380Y-89820666D01*
X92162380Y-89582571D01*
X92210000Y-89439714D01*
X92162380Y-89106380D02*
X93162380Y-88868285D01*
X92448095Y-88677809D01*
X93162380Y-88487333D01*
X92162380Y-88249238D01*
X90622380Y-89542857D02*
X89622380Y-89542857D01*
X89622380Y-89304761D01*
X89670000Y-89161904D01*
X89765238Y-89066666D01*
X89860476Y-89019047D01*
X90050952Y-88971428D01*
X90193809Y-88971428D01*
X90384285Y-89019047D01*
X90479523Y-89066666D01*
X90574761Y-89161904D01*
X90622380Y-89304761D01*
X90622380Y-89542857D01*
X89622380Y-88685714D02*
X89622380Y-88114285D01*
X90622380Y-88400000D02*
X89622380Y-88400000D01*
X87987142Y-89749238D02*
X88034761Y-89796857D01*
X88082380Y-89939714D01*
X88082380Y-90034952D01*
X88034761Y-90177809D01*
X87939523Y-90273047D01*
X87844285Y-90320666D01*
X87653809Y-90368285D01*
X87510952Y-90368285D01*
X87320476Y-90320666D01*
X87225238Y-90273047D01*
X87130000Y-90177809D01*
X87082380Y-90034952D01*
X87082380Y-89939714D01*
X87130000Y-89796857D01*
X87177619Y-89749238D01*
X88082380Y-88844476D02*
X88082380Y-89320666D01*
X87082380Y-89320666D01*
X88082380Y-88511142D02*
X87082380Y-88511142D01*
X88082380Y-87939714D02*
X87510952Y-88368285D01*
X87082380Y-87939714D02*
X87653809Y-88511142D01*
X94702380Y-90995333D02*
X95702380Y-90662000D01*
X94702380Y-90328666D01*
X95607142Y-89423904D02*
X95654761Y-89471523D01*
X95702380Y-89614380D01*
X95702380Y-89709619D01*
X95654761Y-89852476D01*
X95559523Y-89947714D01*
X95464285Y-89995333D01*
X95273809Y-90042952D01*
X95130952Y-90042952D01*
X94940476Y-89995333D01*
X94845238Y-89947714D01*
X94750000Y-89852476D01*
X94702380Y-89709619D01*
X94702380Y-89614380D01*
X94750000Y-89471523D01*
X94797619Y-89423904D01*
X95607142Y-88423904D02*
X95654761Y-88471523D01*
X95702380Y-88614380D01*
X95702380Y-88709619D01*
X95654761Y-88852476D01*
X95559523Y-88947714D01*
X95464285Y-88995333D01*
X95273809Y-89042952D01*
X95130952Y-89042952D01*
X94940476Y-88995333D01*
X94845238Y-88947714D01*
X94750000Y-88852476D01*
X94702380Y-88709619D01*
X94702380Y-88614380D01*
X94750000Y-88471523D01*
X94797619Y-88423904D01*
X97290000Y-90423904D02*
X97242380Y-90519142D01*
X97242380Y-90662000D01*
X97290000Y-90804857D01*
X97385238Y-90900095D01*
X97480476Y-90947714D01*
X97670952Y-90995333D01*
X97813809Y-90995333D01*
X98004285Y-90947714D01*
X98099523Y-90900095D01*
X98194761Y-90804857D01*
X98242380Y-90662000D01*
X98242380Y-90566761D01*
X98194761Y-90423904D01*
X98147142Y-90376285D01*
X97813809Y-90376285D01*
X97813809Y-90566761D01*
X98242380Y-89947714D02*
X97242380Y-89947714D01*
X98242380Y-89376285D01*
X97242380Y-89376285D01*
X98242380Y-88900095D02*
X97242380Y-88900095D01*
X97242380Y-88662000D01*
X97290000Y-88519142D01*
X97385238Y-88423904D01*
X97480476Y-88376285D01*
X97670952Y-88328666D01*
X97813809Y-88328666D01*
X98004285Y-88376285D01*
X98099523Y-88423904D01*
X98194761Y-88519142D01*
X98242380Y-88662000D01*
X98242380Y-88900095D01*
X61468095Y-93226000D02*
X61372857Y-93178380D01*
X61230000Y-93178380D01*
X61087142Y-93226000D01*
X60991904Y-93321238D01*
X60944285Y-93416476D01*
X60896666Y-93606952D01*
X60896666Y-93749809D01*
X60944285Y-93940285D01*
X60991904Y-94035523D01*
X61087142Y-94130761D01*
X61230000Y-94178380D01*
X61325238Y-94178380D01*
X61468095Y-94130761D01*
X61515714Y-94083142D01*
X61515714Y-93749809D01*
X61325238Y-93749809D01*
X61944285Y-94178380D02*
X61944285Y-93178380D01*
X62515714Y-94178380D01*
X62515714Y-93178380D01*
X62991904Y-94178380D02*
X62991904Y-93178380D01*
X63230000Y-93178380D01*
X63372857Y-93226000D01*
X63468095Y-93321238D01*
X63515714Y-93416476D01*
X63563333Y-93606952D01*
X63563333Y-93749809D01*
X63515714Y-93940285D01*
X63468095Y-94035523D01*
X63372857Y-94130761D01*
X63230000Y-94178380D01*
X62991904Y-94178380D01*
X61039523Y-91336761D02*
X61182380Y-91384380D01*
X61420476Y-91384380D01*
X61515714Y-91336761D01*
X61563333Y-91289142D01*
X61610952Y-91193904D01*
X61610952Y-91098666D01*
X61563333Y-91003428D01*
X61515714Y-90955809D01*
X61420476Y-90908190D01*
X61230000Y-90860571D01*
X61134761Y-90812952D01*
X61087142Y-90765333D01*
X61039523Y-90670095D01*
X61039523Y-90574857D01*
X61087142Y-90479619D01*
X61134761Y-90432000D01*
X61230000Y-90384380D01*
X61468095Y-90384380D01*
X61610952Y-90432000D01*
X62610952Y-91289142D02*
X62563333Y-91336761D01*
X62420476Y-91384380D01*
X62325238Y-91384380D01*
X62182380Y-91336761D01*
X62087142Y-91241523D01*
X62039523Y-91146285D01*
X61991904Y-90955809D01*
X61991904Y-90812952D01*
X62039523Y-90622476D01*
X62087142Y-90527238D01*
X62182380Y-90432000D01*
X62325238Y-90384380D01*
X62420476Y-90384380D01*
X62563333Y-90432000D01*
X62610952Y-90479619D01*
X63515714Y-91384380D02*
X63039523Y-91384380D01*
X63039523Y-90384380D01*
X61015714Y-88542761D02*
X61158571Y-88590380D01*
X61396666Y-88590380D01*
X61491904Y-88542761D01*
X61539523Y-88495142D01*
X61587142Y-88399904D01*
X61587142Y-88304666D01*
X61539523Y-88209428D01*
X61491904Y-88161809D01*
X61396666Y-88114190D01*
X61206190Y-88066571D01*
X61110952Y-88018952D01*
X61063333Y-87971333D01*
X61015714Y-87876095D01*
X61015714Y-87780857D01*
X61063333Y-87685619D01*
X61110952Y-87638000D01*
X61206190Y-87590380D01*
X61444285Y-87590380D01*
X61587142Y-87638000D01*
X62015714Y-88590380D02*
X62015714Y-87590380D01*
X62253809Y-87590380D01*
X62396666Y-87638000D01*
X62491904Y-87733238D01*
X62539523Y-87828476D01*
X62587142Y-88018952D01*
X62587142Y-88161809D01*
X62539523Y-88352285D01*
X62491904Y-88447523D01*
X62396666Y-88542761D01*
X62253809Y-88590380D01*
X62015714Y-88590380D01*
X62968095Y-88304666D02*
X63444285Y-88304666D01*
X62872857Y-88590380D02*
X63206190Y-87590380D01*
X63539523Y-88590380D01*
X60896666Y-85050380D02*
X61230000Y-86050380D01*
X61563333Y-85050380D01*
X62468095Y-85955142D02*
X62420476Y-86002761D01*
X62277619Y-86050380D01*
X62182380Y-86050380D01*
X62039523Y-86002761D01*
X61944285Y-85907523D01*
X61896666Y-85812285D01*
X61849047Y-85621809D01*
X61849047Y-85478952D01*
X61896666Y-85288476D01*
X61944285Y-85193238D01*
X62039523Y-85098000D01*
X62182380Y-85050380D01*
X62277619Y-85050380D01*
X62420476Y-85098000D01*
X62468095Y-85145619D01*
X63468095Y-85955142D02*
X63420476Y-86002761D01*
X63277619Y-86050380D01*
X63182380Y-86050380D01*
X63039523Y-86002761D01*
X62944285Y-85907523D01*
X62896666Y-85812285D01*
X62849047Y-85621809D01*
X62849047Y-85478952D01*
X62896666Y-85288476D01*
X62944285Y-85193238D01*
X63039523Y-85098000D01*
X63182380Y-85050380D01*
X63277619Y-85050380D01*
X63420476Y-85098000D01*
X63468095Y-85145619D01*
D12*
%TO.C,D2*%
X96030449Y-124865366D02*
G75*
G03*
X95970847Y-122598000I1251551J1167366D01*
G01*
%TO.C,D1*%
X81298449Y-124611366D02*
G75*
G03*
X81238847Y-122344000I1251551J1167366D01*
G01*
%TO.C,R4*%
X95477000Y-111479064D02*
X95477000Y-111024936D01*
X94007000Y-111479064D02*
X94007000Y-111024936D01*
%TO.C,R3*%
X81507000Y-111987064D02*
X81507000Y-111532936D01*
X80037000Y-111987064D02*
X80037000Y-111532936D01*
%TO.C,R2*%
X62256936Y-146277000D02*
X62711064Y-146277000D01*
X62256936Y-144807000D02*
X62711064Y-144807000D01*
%TO.C,R1*%
X118845000Y-90651064D02*
X118845000Y-90196936D01*
X117375000Y-90651064D02*
X117375000Y-90196936D01*
%TO.C,J8*%
X126178000Y-94428000D02*
X127508000Y-94428000D01*
X126178000Y-95758000D02*
X126178000Y-94428000D01*
X126178000Y-97028000D02*
X128838000Y-97028000D01*
X128838000Y-97028000D02*
X128838000Y-99628000D01*
X126178000Y-97028000D02*
X126178000Y-99628000D01*
X126178000Y-99628000D02*
X128838000Y-99628000D01*
%TO.C,C4*%
X101494000Y-95453252D02*
X101494000Y-94030748D01*
X99674000Y-95453252D02*
X99674000Y-94030748D01*
%TO.C,C2*%
X69900748Y-110130000D02*
X71323252Y-110130000D01*
X69900748Y-108310000D02*
X71323252Y-108310000D01*
%TO.C,C1*%
X69900748Y-100478000D02*
X71323252Y-100478000D01*
X69900748Y-98658000D02*
X71323252Y-98658000D01*
%TO.C,Y1*%
X77846000Y-98694000D02*
X74046000Y-98694000D01*
X74046000Y-98694000D02*
X74046000Y-110094000D01*
X77846000Y-98694000D02*
X77846000Y-110094000D01*
X77846000Y-110094000D02*
X74046000Y-110094000D01*
D11*
%TO.C,U1*%
X85043476Y-100330000D02*
X85202575Y-100489099D01*
X90170000Y-95203476D02*
X90399810Y-95433286D01*
X95296524Y-100330000D02*
X95066714Y-100100190D01*
X90170000Y-105456524D02*
X89940190Y-105226714D01*
X85043476Y-100330000D02*
X85273286Y-100100190D01*
X90170000Y-105456524D02*
X90399810Y-105226714D01*
X95296524Y-100330000D02*
X95066714Y-100559810D01*
X90170000Y-95203476D02*
X89940190Y-95433286D01*
X85202575Y-100489099D02*
X84194948Y-101496726D01*
D12*
%TO.C,SW1*%
X112030000Y-87718000D02*
X107530000Y-87718000D01*
X113280000Y-91718000D02*
X113280000Y-90218000D01*
X107530000Y-94218000D02*
X112030000Y-94218000D01*
X106280000Y-90218000D02*
X106280000Y-91718000D01*
%TO.C,Q2*%
X96542000Y-115498000D02*
X92942000Y-115498000D01*
X92903522Y-115509522D02*
G75*
G03*
X94742000Y-119948000I1838478J-1838478D01*
G01*
X96580478Y-115509522D02*
G75*
G02*
X94742000Y-119948000I-1838478J-1838478D01*
G01*
%TO.C,Q1*%
X82318000Y-115498000D02*
X78718000Y-115498000D01*
X78679522Y-115509522D02*
G75*
G03*
X80518000Y-119948000I1838478J-1838478D01*
G01*
X82356478Y-115509522D02*
G75*
G02*
X80518000Y-119948000I-1838478J-1838478D01*
G01*
%TO.C,PS1*%
X109240000Y-136766000D02*
X129440000Y-136766000D01*
X129440000Y-136766000D02*
X129440000Y-102566000D01*
X129440000Y-102566000D02*
X109240000Y-102566000D01*
X109240000Y-102566000D02*
X109240000Y-136766000D01*
X115840000Y-137156000D02*
X117850000Y-137156000D01*
%TO.C,K2*%
X100435556Y-146549214D02*
X99935556Y-147049214D01*
X100035556Y-147049214D02*
X100435556Y-146649214D01*
X100435556Y-146749214D02*
X100135556Y-147049214D01*
X100235556Y-147049214D02*
X100435556Y-146849214D01*
X100435556Y-146949214D02*
X100335556Y-147049214D01*
X89940000Y-128270000D02*
X89940000Y-126570000D01*
X89940000Y-126570000D02*
X91440000Y-126570000D01*
X90640000Y-147070000D02*
X90040000Y-147070000D01*
X90040000Y-147070000D02*
X90040000Y-126670000D01*
X90040000Y-126670000D02*
X100440000Y-126670000D01*
X100440000Y-126670000D02*
X100440000Y-147070000D01*
X100440000Y-147070000D02*
X92235556Y-147070000D01*
X94840000Y-128270000D02*
X93740000Y-128270000D01*
X95540000Y-128270000D02*
X96640000Y-128270000D01*
X94840000Y-128470000D02*
X95540000Y-128070000D01*
X94840000Y-127670000D02*
X94840000Y-128870000D01*
X94840000Y-128870000D02*
X95540000Y-128870000D01*
X95540000Y-128870000D02*
X95540000Y-127670000D01*
X95540000Y-127670000D02*
X94840000Y-127670000D01*
%TO.C,K1*%
X85195556Y-146549214D02*
X84695556Y-147049214D01*
X84795556Y-147049214D02*
X85195556Y-146649214D01*
X85195556Y-146749214D02*
X84895556Y-147049214D01*
X84995556Y-147049214D02*
X85195556Y-146849214D01*
X85195556Y-146949214D02*
X85095556Y-147049214D01*
X74700000Y-128270000D02*
X74700000Y-126570000D01*
X74700000Y-126570000D02*
X76200000Y-126570000D01*
X75400000Y-147070000D02*
X74800000Y-147070000D01*
X74800000Y-147070000D02*
X74800000Y-126670000D01*
X74800000Y-126670000D02*
X85200000Y-126670000D01*
X85200000Y-126670000D02*
X85200000Y-147070000D01*
X85200000Y-147070000D02*
X76995556Y-147070000D01*
X79600000Y-128270000D02*
X78500000Y-128270000D01*
X80300000Y-128270000D02*
X81400000Y-128270000D01*
X79600000Y-128470000D02*
X80300000Y-128070000D01*
X79600000Y-127670000D02*
X79600000Y-128870000D01*
X79600000Y-128870000D02*
X80300000Y-128870000D01*
X80300000Y-128870000D02*
X80300000Y-127670000D01*
X80300000Y-127670000D02*
X79600000Y-127670000D01*
%TO.C,J7*%
X100076000Y-155956000D02*
X89916000Y-155956000D01*
X100076000Y-157226000D02*
X100076000Y-149606000D01*
X100076000Y-149606000D02*
X89916000Y-149606000D01*
X89916000Y-149606000D02*
X89916000Y-157226000D01*
X89916000Y-157226000D02*
X100076000Y-157226000D01*
%TO.C,J6*%
X99120000Y-87690000D02*
X99120000Y-85030000D01*
X88900000Y-87690000D02*
X99120000Y-87690000D01*
X88900000Y-85030000D02*
X99120000Y-85030000D01*
X88900000Y-87690000D02*
X88900000Y-85030000D01*
X87630000Y-87690000D02*
X86300000Y-87690000D01*
X86300000Y-87690000D02*
X86300000Y-86360000D01*
%TO.C,J5*%
X64085000Y-94660000D02*
X66745000Y-94660000D01*
X64085000Y-86980000D02*
X64085000Y-94660000D01*
X66745000Y-86980000D02*
X66745000Y-94660000D01*
X64085000Y-86980000D02*
X66745000Y-86980000D01*
X64085000Y-85710000D02*
X64085000Y-84380000D01*
X64085000Y-84380000D02*
X65415000Y-84380000D01*
%TO.C,J4*%
X72390000Y-157226000D02*
X72390000Y-149606000D01*
X87630000Y-157226000D02*
X87630000Y-149606000D01*
X72390000Y-155956000D02*
X87630000Y-155956000D01*
X72390000Y-149606000D02*
X87630000Y-149606000D01*
X72390000Y-157226000D02*
X87630000Y-157226000D01*
%TO.C,J3*%
X99508000Y-110804000D02*
X104708000Y-110804000D01*
X99508000Y-105664000D02*
X99508000Y-110804000D01*
X104708000Y-103064000D02*
X104708000Y-110804000D01*
X99508000Y-105664000D02*
X102108000Y-105664000D01*
X102108000Y-105664000D02*
X102108000Y-103064000D01*
X102108000Y-103064000D02*
X104708000Y-103064000D01*
X99508000Y-104394000D02*
X99508000Y-103064000D01*
X99508000Y-103064000D02*
X100838000Y-103064000D01*
%TO.C,J2*%
X55880000Y-157226000D02*
X55880000Y-149606000D01*
X71120000Y-157226000D02*
X71120000Y-149606000D01*
X55880000Y-155956000D02*
X71120000Y-155956000D01*
X55880000Y-149606000D02*
X71120000Y-149606000D01*
X55880000Y-157226000D02*
X71120000Y-157226000D01*
%TO.C,J1*%
X108204000Y-157226000D02*
X108204000Y-149606000D01*
X123444000Y-157226000D02*
X123444000Y-149606000D01*
X108204000Y-155956000D02*
X123444000Y-155956000D01*
X108204000Y-149606000D02*
X123444000Y-149606000D01*
X108204000Y-157226000D02*
X123444000Y-157226000D01*
%TO.C,F1*%
X105775000Y-138049000D02*
X105775000Y-147449000D01*
X130175000Y-138049000D02*
X130175000Y-147449000D01*
X105775000Y-138049000D02*
X130175000Y-138049000D01*
X105775000Y-147449000D02*
X130175000Y-147449000D01*
%TO.C,C3*%
X120230000Y-98790000D02*
G75*
G03*
X120230000Y-98790000I-2120000J0D01*
G01*
X120190000Y-98790000D02*
X116030000Y-98790000D01*
X120190000Y-98830000D02*
X116030000Y-98830000D01*
X120189000Y-98870000D02*
X116031000Y-98870000D01*
X120187000Y-98910000D02*
X116033000Y-98910000D01*
X120184000Y-98950000D02*
X116036000Y-98950000D01*
X120181000Y-98990000D02*
X118950000Y-98990000D01*
X117270000Y-98990000D02*
X116039000Y-98990000D01*
X120177000Y-99030000D02*
X118950000Y-99030000D01*
X117270000Y-99030000D02*
X116043000Y-99030000D01*
X120172000Y-99070000D02*
X118950000Y-99070000D01*
X117270000Y-99070000D02*
X116048000Y-99070000D01*
X120166000Y-99110000D02*
X118950000Y-99110000D01*
X117270000Y-99110000D02*
X116054000Y-99110000D01*
X120160000Y-99150000D02*
X118950000Y-99150000D01*
X117270000Y-99150000D02*
X116060000Y-99150000D01*
X120152000Y-99190000D02*
X118950000Y-99190000D01*
X117270000Y-99190000D02*
X116068000Y-99190000D01*
X120144000Y-99230000D02*
X118950000Y-99230000D01*
X117270000Y-99230000D02*
X116076000Y-99230000D01*
X120135000Y-99270000D02*
X118950000Y-99270000D01*
X117270000Y-99270000D02*
X116085000Y-99270000D01*
X120126000Y-99310000D02*
X118950000Y-99310000D01*
X117270000Y-99310000D02*
X116094000Y-99310000D01*
X120115000Y-99350000D02*
X118950000Y-99350000D01*
X117270000Y-99350000D02*
X116105000Y-99350000D01*
X120104000Y-99390000D02*
X118950000Y-99390000D01*
X117270000Y-99390000D02*
X116116000Y-99390000D01*
X120092000Y-99430000D02*
X118950000Y-99430000D01*
X117270000Y-99430000D02*
X116128000Y-99430000D01*
X120078000Y-99470000D02*
X118950000Y-99470000D01*
X117270000Y-99470000D02*
X116142000Y-99470000D01*
X120064000Y-99511000D02*
X118950000Y-99511000D01*
X117270000Y-99511000D02*
X116156000Y-99511000D01*
X120050000Y-99551000D02*
X118950000Y-99551000D01*
X117270000Y-99551000D02*
X116170000Y-99551000D01*
X120034000Y-99591000D02*
X118950000Y-99591000D01*
X117270000Y-99591000D02*
X116186000Y-99591000D01*
X120017000Y-99631000D02*
X118950000Y-99631000D01*
X117270000Y-99631000D02*
X116203000Y-99631000D01*
X119999000Y-99671000D02*
X118950000Y-99671000D01*
X117270000Y-99671000D02*
X116221000Y-99671000D01*
X119980000Y-99711000D02*
X118950000Y-99711000D01*
X117270000Y-99711000D02*
X116240000Y-99711000D01*
X119961000Y-99751000D02*
X118950000Y-99751000D01*
X117270000Y-99751000D02*
X116259000Y-99751000D01*
X119940000Y-99791000D02*
X118950000Y-99791000D01*
X117270000Y-99791000D02*
X116280000Y-99791000D01*
X119918000Y-99831000D02*
X118950000Y-99831000D01*
X117270000Y-99831000D02*
X116302000Y-99831000D01*
X119895000Y-99871000D02*
X118950000Y-99871000D01*
X117270000Y-99871000D02*
X116325000Y-99871000D01*
X119870000Y-99911000D02*
X118950000Y-99911000D01*
X117270000Y-99911000D02*
X116350000Y-99911000D01*
X119845000Y-99951000D02*
X118950000Y-99951000D01*
X117270000Y-99951000D02*
X116375000Y-99951000D01*
X119818000Y-99991000D02*
X118950000Y-99991000D01*
X117270000Y-99991000D02*
X116402000Y-99991000D01*
X119790000Y-100031000D02*
X118950000Y-100031000D01*
X117270000Y-100031000D02*
X116430000Y-100031000D01*
X119760000Y-100071000D02*
X118950000Y-100071000D01*
X117270000Y-100071000D02*
X116460000Y-100071000D01*
X119729000Y-100111000D02*
X118950000Y-100111000D01*
X117270000Y-100111000D02*
X116491000Y-100111000D01*
X119697000Y-100151000D02*
X118950000Y-100151000D01*
X117270000Y-100151000D02*
X116523000Y-100151000D01*
X119662000Y-100191000D02*
X118950000Y-100191000D01*
X117270000Y-100191000D02*
X116558000Y-100191000D01*
X119626000Y-100231000D02*
X118950000Y-100231000D01*
X117270000Y-100231000D02*
X116594000Y-100231000D01*
X119588000Y-100271000D02*
X118950000Y-100271000D01*
X117270000Y-100271000D02*
X116632000Y-100271000D01*
X119548000Y-100311000D02*
X118950000Y-100311000D01*
X117270000Y-100311000D02*
X116672000Y-100311000D01*
X119506000Y-100351000D02*
X118950000Y-100351000D01*
X117270000Y-100351000D02*
X116714000Y-100351000D01*
X119461000Y-100391000D02*
X118950000Y-100391000D01*
X117270000Y-100391000D02*
X116759000Y-100391000D01*
X119414000Y-100431000D02*
X118950000Y-100431000D01*
X117270000Y-100431000D02*
X116806000Y-100431000D01*
X119364000Y-100471000D02*
X118950000Y-100471000D01*
X117270000Y-100471000D02*
X116856000Y-100471000D01*
X119310000Y-100511000D02*
X118950000Y-100511000D01*
X117270000Y-100511000D02*
X116910000Y-100511000D01*
X119252000Y-100551000D02*
X118950000Y-100551000D01*
X117270000Y-100551000D02*
X116968000Y-100551000D01*
X119190000Y-100591000D02*
X118950000Y-100591000D01*
X117270000Y-100591000D02*
X117030000Y-100591000D01*
X119123000Y-100631000D02*
X117097000Y-100631000D01*
X119050000Y-100671000D02*
X117170000Y-100671000D01*
X118969000Y-100711000D02*
X117251000Y-100711000D01*
X118878000Y-100751000D02*
X117342000Y-100751000D01*
X118774000Y-100791000D02*
X117446000Y-100791000D01*
X118647000Y-100831000D02*
X117573000Y-100831000D01*
X118480000Y-100871000D02*
X117740000Y-100871000D01*
X119305000Y-96520199D02*
X119305000Y-96920199D01*
X119505000Y-96720199D02*
X119105000Y-96720199D01*
%TO.C,D2*%
D11*
X95273904Y-121399745D02*
X95273904Y-120399745D01*
X95512000Y-120399745D01*
X95654857Y-120447365D01*
X95750095Y-120542603D01*
X95797714Y-120637841D01*
X95845333Y-120828317D01*
X95845333Y-120971174D01*
X95797714Y-121161650D01*
X95750095Y-121256888D01*
X95654857Y-121352126D01*
X95512000Y-121399745D01*
X95273904Y-121399745D01*
X96226285Y-120494984D02*
X96273904Y-120447365D01*
X96369142Y-120399745D01*
X96607238Y-120399745D01*
X96702476Y-120447365D01*
X96750095Y-120494984D01*
X96797714Y-120590222D01*
X96797714Y-120685460D01*
X96750095Y-120828317D01*
X96178666Y-121399745D01*
X96797714Y-121399745D01*
X92380095Y-124150380D02*
X92380095Y-123150380D01*
X92951523Y-124150380D02*
X92522952Y-123578952D01*
X92951523Y-123150380D02*
X92380095Y-123721809D01*
%TO.C,D1*%
X80541904Y-121145745D02*
X80541904Y-120145745D01*
X80780000Y-120145745D01*
X80922857Y-120193365D01*
X81018095Y-120288603D01*
X81065714Y-120383841D01*
X81113333Y-120574317D01*
X81113333Y-120717174D01*
X81065714Y-120907650D01*
X81018095Y-121002888D01*
X80922857Y-121098126D01*
X80780000Y-121145745D01*
X80541904Y-121145745D01*
X82065714Y-121145745D02*
X81494285Y-121145745D01*
X81780000Y-121145745D02*
X81780000Y-120145745D01*
X81684761Y-120288603D01*
X81589523Y-120383841D01*
X81494285Y-120431460D01*
X77648095Y-123896380D02*
X77648095Y-122896380D01*
X78219523Y-123896380D02*
X77790952Y-123324952D01*
X78219523Y-122896380D02*
X77648095Y-123467809D01*
%TO.C,R4*%
X93544380Y-111418666D02*
X93068190Y-111752000D01*
X93544380Y-111990095D02*
X92544380Y-111990095D01*
X92544380Y-111609142D01*
X92592000Y-111513904D01*
X92639619Y-111466285D01*
X92734857Y-111418666D01*
X92877714Y-111418666D01*
X92972952Y-111466285D01*
X93020571Y-111513904D01*
X93068190Y-111609142D01*
X93068190Y-111990095D01*
X92877714Y-110561523D02*
X93544380Y-110561523D01*
X92496761Y-110799619D02*
X93211047Y-111037714D01*
X93211047Y-110418666D01*
%TO.C,R3*%
X79574380Y-111926666D02*
X79098190Y-112260000D01*
X79574380Y-112498095D02*
X78574380Y-112498095D01*
X78574380Y-112117142D01*
X78622000Y-112021904D01*
X78669619Y-111974285D01*
X78764857Y-111926666D01*
X78907714Y-111926666D01*
X79002952Y-111974285D01*
X79050571Y-112021904D01*
X79098190Y-112117142D01*
X79098190Y-112498095D01*
X78574380Y-111593333D02*
X78574380Y-110974285D01*
X78955333Y-111307619D01*
X78955333Y-111164761D01*
X79002952Y-111069523D01*
X79050571Y-111021904D01*
X79145809Y-110974285D01*
X79383904Y-110974285D01*
X79479142Y-111021904D01*
X79526761Y-111069523D01*
X79574380Y-111164761D01*
X79574380Y-111450476D01*
X79526761Y-111545714D01*
X79479142Y-111593333D01*
%TO.C,R2*%
X62317333Y-144344380D02*
X61984000Y-143868190D01*
X61745904Y-144344380D02*
X61745904Y-143344380D01*
X62126857Y-143344380D01*
X62222095Y-143392000D01*
X62269714Y-143439619D01*
X62317333Y-143534857D01*
X62317333Y-143677714D01*
X62269714Y-143772952D01*
X62222095Y-143820571D01*
X62126857Y-143868190D01*
X61745904Y-143868190D01*
X62698285Y-143439619D02*
X62745904Y-143392000D01*
X62841142Y-143344380D01*
X63079238Y-143344380D01*
X63174476Y-143392000D01*
X63222095Y-143439619D01*
X63269714Y-143534857D01*
X63269714Y-143630095D01*
X63222095Y-143772952D01*
X62650666Y-144344380D01*
X63269714Y-144344380D01*
%TO.C,R1*%
X116912380Y-90590666D02*
X116436190Y-90924000D01*
X116912380Y-91162095D02*
X115912380Y-91162095D01*
X115912380Y-90781142D01*
X115960000Y-90685904D01*
X116007619Y-90638285D01*
X116102857Y-90590666D01*
X116245714Y-90590666D01*
X116340952Y-90638285D01*
X116388571Y-90685904D01*
X116436190Y-90781142D01*
X116436190Y-91162095D01*
X116912380Y-89638285D02*
X116912380Y-90209714D01*
X116912380Y-89924000D02*
X115912380Y-89924000D01*
X116055238Y-90019238D01*
X116150476Y-90114476D01*
X116198095Y-90209714D01*
%TO.C,J8*%
X124380666Y-96988380D02*
X124380666Y-97702666D01*
X124333047Y-97845523D01*
X124237809Y-97940761D01*
X124094952Y-97988380D01*
X123999714Y-97988380D01*
X124999714Y-97416952D02*
X124904476Y-97369333D01*
X124856857Y-97321714D01*
X124809238Y-97226476D01*
X124809238Y-97178857D01*
X124856857Y-97083619D01*
X124904476Y-97036000D01*
X124999714Y-96988380D01*
X125190190Y-96988380D01*
X125285428Y-97036000D01*
X125333047Y-97083619D01*
X125380666Y-97178857D01*
X125380666Y-97226476D01*
X125333047Y-97321714D01*
X125285428Y-97369333D01*
X125190190Y-97416952D01*
X124999714Y-97416952D01*
X124904476Y-97464571D01*
X124856857Y-97512190D01*
X124809238Y-97607428D01*
X124809238Y-97797904D01*
X124856857Y-97893142D01*
X124904476Y-97940761D01*
X124999714Y-97988380D01*
X125190190Y-97988380D01*
X125285428Y-97940761D01*
X125333047Y-97893142D01*
X125380666Y-97797904D01*
X125380666Y-97607428D01*
X125333047Y-97512190D01*
X125285428Y-97464571D01*
X125190190Y-97416952D01*
%TO.C,C4*%
X99091142Y-94908666D02*
X99138761Y-94956285D01*
X99186380Y-95099142D01*
X99186380Y-95194380D01*
X99138761Y-95337238D01*
X99043523Y-95432476D01*
X98948285Y-95480095D01*
X98757809Y-95527714D01*
X98614952Y-95527714D01*
X98424476Y-95480095D01*
X98329238Y-95432476D01*
X98234000Y-95337238D01*
X98186380Y-95194380D01*
X98186380Y-95099142D01*
X98234000Y-94956285D01*
X98281619Y-94908666D01*
X98519714Y-94051523D02*
X99186380Y-94051523D01*
X98138761Y-94289619D02*
X98853047Y-94527714D01*
X98853047Y-93908666D01*
%TO.C,C2*%
X70445333Y-107727142D02*
X70397714Y-107774761D01*
X70254857Y-107822380D01*
X70159619Y-107822380D01*
X70016761Y-107774761D01*
X69921523Y-107679523D01*
X69873904Y-107584285D01*
X69826285Y-107393809D01*
X69826285Y-107250952D01*
X69873904Y-107060476D01*
X69921523Y-106965238D01*
X70016761Y-106870000D01*
X70159619Y-106822380D01*
X70254857Y-106822380D01*
X70397714Y-106870000D01*
X70445333Y-106917619D01*
X70826285Y-106917619D02*
X70873904Y-106870000D01*
X70969142Y-106822380D01*
X71207238Y-106822380D01*
X71302476Y-106870000D01*
X71350095Y-106917619D01*
X71397714Y-107012857D01*
X71397714Y-107108095D01*
X71350095Y-107250952D01*
X70778666Y-107822380D01*
X71397714Y-107822380D01*
%TO.C,C1*%
X70445333Y-98075142D02*
X70397714Y-98122761D01*
X70254857Y-98170380D01*
X70159619Y-98170380D01*
X70016761Y-98122761D01*
X69921523Y-98027523D01*
X69873904Y-97932285D01*
X69826285Y-97741809D01*
X69826285Y-97598952D01*
X69873904Y-97408476D01*
X69921523Y-97313238D01*
X70016761Y-97218000D01*
X70159619Y-97170380D01*
X70254857Y-97170380D01*
X70397714Y-97218000D01*
X70445333Y-97265619D01*
X71397714Y-98170380D02*
X70826285Y-98170380D01*
X71112000Y-98170380D02*
X71112000Y-97170380D01*
X71016761Y-97313238D01*
X70921523Y-97408476D01*
X70826285Y-97456095D01*
%TO.C,Y1*%
X78922190Y-104870190D02*
X79398380Y-104870190D01*
X78398380Y-105203523D02*
X78922190Y-104870190D01*
X78398380Y-104536857D01*
X79398380Y-103679714D02*
X79398380Y-104251142D01*
X79398380Y-103965428D02*
X78398380Y-103965428D01*
X78541238Y-104060666D01*
X78636476Y-104155904D01*
X78684095Y-104251142D01*
%TO.C,M4*%
X127206476Y-152090380D02*
X127206476Y-151090380D01*
X127539809Y-151804666D01*
X127873142Y-151090380D01*
X127873142Y-152090380D01*
X128777904Y-151423714D02*
X128777904Y-152090380D01*
X128539809Y-151042761D02*
X128301714Y-151757047D01*
X128920761Y-151757047D01*
%TO.C,M3*%
X126952476Y-92400380D02*
X126952476Y-91400380D01*
X127285809Y-92114666D01*
X127619142Y-91400380D01*
X127619142Y-92400380D01*
X128000095Y-91400380D02*
X128619142Y-91400380D01*
X128285809Y-91781333D01*
X128428666Y-91781333D01*
X128523904Y-91828952D01*
X128571523Y-91876571D01*
X128619142Y-91971809D01*
X128619142Y-92209904D01*
X128571523Y-92305142D01*
X128523904Y-92352761D01*
X128428666Y-92400380D01*
X128142952Y-92400380D01*
X128047714Y-92352761D01*
X128000095Y-92305142D01*
%TO.C,M1*%
X50752476Y-92400380D02*
X50752476Y-91400380D01*
X51085809Y-92114666D01*
X51419142Y-91400380D01*
X51419142Y-92400380D01*
X52419142Y-92400380D02*
X51847714Y-92400380D01*
X52133428Y-92400380D02*
X52133428Y-91400380D01*
X52038190Y-91543238D01*
X51942952Y-91638476D01*
X51847714Y-91686095D01*
%TO.C,M2*%
X50752476Y-152354380D02*
X50752476Y-151354380D01*
X51085809Y-152068666D01*
X51419142Y-151354380D01*
X51419142Y-152354380D01*
X51847714Y-151449619D02*
X51895333Y-151402000D01*
X51990571Y-151354380D01*
X52228666Y-151354380D01*
X52323904Y-151402000D01*
X52371523Y-151449619D01*
X52419142Y-151544857D01*
X52419142Y-151640095D01*
X52371523Y-151782952D01*
X51800095Y-152354380D01*
X52419142Y-152354380D01*
%TO.C,U1*%
X84966030Y-96203526D02*
X85538450Y-96775946D01*
X85639465Y-96809618D01*
X85706809Y-96809618D01*
X85807824Y-96775946D01*
X85942511Y-96641259D01*
X85976183Y-96540244D01*
X85976183Y-96472900D01*
X85942511Y-96371885D01*
X85370091Y-95799465D01*
X86784305Y-95799465D02*
X86380244Y-96203526D01*
X86582274Y-96001496D02*
X85875168Y-95294389D01*
X85908839Y-95462748D01*
X85908839Y-95597435D01*
X85875168Y-95698450D01*
%TO.C,SW1*%
X108446666Y-86510761D02*
X108589523Y-86558380D01*
X108827619Y-86558380D01*
X108922857Y-86510761D01*
X108970476Y-86463142D01*
X109018095Y-86367904D01*
X109018095Y-86272666D01*
X108970476Y-86177428D01*
X108922857Y-86129809D01*
X108827619Y-86082190D01*
X108637142Y-86034571D01*
X108541904Y-85986952D01*
X108494285Y-85939333D01*
X108446666Y-85844095D01*
X108446666Y-85748857D01*
X108494285Y-85653619D01*
X108541904Y-85606000D01*
X108637142Y-85558380D01*
X108875238Y-85558380D01*
X109018095Y-85606000D01*
X109351428Y-85558380D02*
X109589523Y-86558380D01*
X109780000Y-85844095D01*
X109970476Y-86558380D01*
X110208571Y-85558380D01*
X111113333Y-86558380D02*
X110541904Y-86558380D01*
X110827619Y-86558380D02*
X110827619Y-85558380D01*
X110732380Y-85701238D01*
X110637142Y-85796476D01*
X110541904Y-85844095D01*
%TO.C,Q2*%
X98456761Y-117895619D02*
X98361523Y-117848000D01*
X98266285Y-117752761D01*
X98123428Y-117609904D01*
X98028190Y-117562285D01*
X97932952Y-117562285D01*
X97980571Y-117800380D02*
X97885333Y-117752761D01*
X97790095Y-117657523D01*
X97742476Y-117467047D01*
X97742476Y-117133714D01*
X97790095Y-116943238D01*
X97885333Y-116848000D01*
X97980571Y-116800380D01*
X98171047Y-116800380D01*
X98266285Y-116848000D01*
X98361523Y-116943238D01*
X98409142Y-117133714D01*
X98409142Y-117467047D01*
X98361523Y-117657523D01*
X98266285Y-117752761D01*
X98171047Y-117800380D01*
X97980571Y-117800380D01*
X98790095Y-116895619D02*
X98837714Y-116848000D01*
X98932952Y-116800380D01*
X99171047Y-116800380D01*
X99266285Y-116848000D01*
X99313904Y-116895619D01*
X99361523Y-116990857D01*
X99361523Y-117086095D01*
X99313904Y-117228952D01*
X98742476Y-117800380D01*
X99361523Y-117800380D01*
%TO.C,Q1*%
X84232761Y-117895619D02*
X84137523Y-117848000D01*
X84042285Y-117752761D01*
X83899428Y-117609904D01*
X83804190Y-117562285D01*
X83708952Y-117562285D01*
X83756571Y-117800380D02*
X83661333Y-117752761D01*
X83566095Y-117657523D01*
X83518476Y-117467047D01*
X83518476Y-117133714D01*
X83566095Y-116943238D01*
X83661333Y-116848000D01*
X83756571Y-116800380D01*
X83947047Y-116800380D01*
X84042285Y-116848000D01*
X84137523Y-116943238D01*
X84185142Y-117133714D01*
X84185142Y-117467047D01*
X84137523Y-117657523D01*
X84042285Y-117752761D01*
X83947047Y-117800380D01*
X83756571Y-117800380D01*
X85137523Y-117800380D02*
X84566095Y-117800380D01*
X84851809Y-117800380D02*
X84851809Y-116800380D01*
X84756571Y-116943238D01*
X84661333Y-117038476D01*
X84566095Y-117086095D01*
%TO.C,PS1*%
X117149714Y-122880380D02*
X117149714Y-121880380D01*
X117530666Y-121880380D01*
X117625904Y-121928000D01*
X117673523Y-121975619D01*
X117721142Y-122070857D01*
X117721142Y-122213714D01*
X117673523Y-122308952D01*
X117625904Y-122356571D01*
X117530666Y-122404190D01*
X117149714Y-122404190D01*
X118102095Y-122832761D02*
X118244952Y-122880380D01*
X118483047Y-122880380D01*
X118578285Y-122832761D01*
X118625904Y-122785142D01*
X118673523Y-122689904D01*
X118673523Y-122594666D01*
X118625904Y-122499428D01*
X118578285Y-122451809D01*
X118483047Y-122404190D01*
X118292571Y-122356571D01*
X118197333Y-122308952D01*
X118149714Y-122261333D01*
X118102095Y-122166095D01*
X118102095Y-122070857D01*
X118149714Y-121975619D01*
X118197333Y-121928000D01*
X118292571Y-121880380D01*
X118530666Y-121880380D01*
X118673523Y-121928000D01*
X119625904Y-122880380D02*
X119054476Y-122880380D01*
X119340190Y-122880380D02*
X119340190Y-121880380D01*
X119244952Y-122023238D01*
X119149714Y-122118476D01*
X119054476Y-122166095D01*
%TO.C,K2*%
X94511904Y-137358380D02*
X94511904Y-136358380D01*
X95083333Y-137358380D02*
X94654761Y-136786952D01*
X95083333Y-136358380D02*
X94511904Y-136929809D01*
X95464285Y-136453619D02*
X95511904Y-136406000D01*
X95607142Y-136358380D01*
X95845238Y-136358380D01*
X95940476Y-136406000D01*
X95988095Y-136453619D01*
X96035714Y-136548857D01*
X96035714Y-136644095D01*
X95988095Y-136786952D01*
X95416666Y-137358380D01*
X96035714Y-137358380D01*
%TO.C,K1*%
X79525904Y-137358380D02*
X79525904Y-136358380D01*
X80097333Y-137358380D02*
X79668761Y-136786952D01*
X80097333Y-136358380D02*
X79525904Y-136929809D01*
X81049714Y-137358380D02*
X80478285Y-137358380D01*
X80764000Y-137358380D02*
X80764000Y-136358380D01*
X80668761Y-136501238D01*
X80573523Y-136596476D01*
X80478285Y-136644095D01*
%TO.C,J7*%
X94662666Y-150074380D02*
X94662666Y-150788666D01*
X94615047Y-150931523D01*
X94519809Y-151026761D01*
X94376952Y-151074380D01*
X94281714Y-151074380D01*
X95043619Y-150074380D02*
X95710285Y-150074380D01*
X95281714Y-151074380D01*
%TO.C,J6*%
X84248666Y-85812380D02*
X84248666Y-86526666D01*
X84201047Y-86669523D01*
X84105809Y-86764761D01*
X83962952Y-86812380D01*
X83867714Y-86812380D01*
X85153428Y-85812380D02*
X84962952Y-85812380D01*
X84867714Y-85860000D01*
X84820095Y-85907619D01*
X84724857Y-86050476D01*
X84677238Y-86240952D01*
X84677238Y-86621904D01*
X84724857Y-86717142D01*
X84772476Y-86764761D01*
X84867714Y-86812380D01*
X85058190Y-86812380D01*
X85153428Y-86764761D01*
X85201047Y-86717142D01*
X85248666Y-86621904D01*
X85248666Y-86383809D01*
X85201047Y-86288571D01*
X85153428Y-86240952D01*
X85058190Y-86193333D01*
X84867714Y-86193333D01*
X84772476Y-86240952D01*
X84724857Y-86288571D01*
X84677238Y-86383809D01*
%TO.C,J5*%
X67738666Y-88860380D02*
X67738666Y-89574666D01*
X67691047Y-89717523D01*
X67595809Y-89812761D01*
X67452952Y-89860380D01*
X67357714Y-89860380D01*
X68691047Y-88860380D02*
X68214857Y-88860380D01*
X68167238Y-89336571D01*
X68214857Y-89288952D01*
X68310095Y-89241333D01*
X68548190Y-89241333D01*
X68643428Y-89288952D01*
X68691047Y-89336571D01*
X68738666Y-89431809D01*
X68738666Y-89669904D01*
X68691047Y-89765142D01*
X68643428Y-89812761D01*
X68548190Y-89860380D01*
X68310095Y-89860380D01*
X68214857Y-89812761D01*
X68167238Y-89765142D01*
%TO.C,J4*%
X79646666Y-150074380D02*
X79646666Y-150788666D01*
X79599047Y-150931523D01*
X79503809Y-151026761D01*
X79360952Y-151074380D01*
X79265714Y-151074380D01*
X80551428Y-150407714D02*
X80551428Y-151074380D01*
X80313333Y-150026761D02*
X80075238Y-150741047D01*
X80694285Y-150741047D01*
%TO.C,J3*%
X101774666Y-101516380D02*
X101774666Y-102230666D01*
X101727047Y-102373523D01*
X101631809Y-102468761D01*
X101488952Y-102516380D01*
X101393714Y-102516380D01*
X102155619Y-101516380D02*
X102774666Y-101516380D01*
X102441333Y-101897333D01*
X102584190Y-101897333D01*
X102679428Y-101944952D01*
X102727047Y-101992571D01*
X102774666Y-102087809D01*
X102774666Y-102325904D01*
X102727047Y-102421142D01*
X102679428Y-102468761D01*
X102584190Y-102516380D01*
X102298476Y-102516380D01*
X102203238Y-102468761D01*
X102155619Y-102421142D01*
%TO.C,J2*%
X62658666Y-150074380D02*
X62658666Y-150788666D01*
X62611047Y-150931523D01*
X62515809Y-151026761D01*
X62372952Y-151074380D01*
X62277714Y-151074380D01*
X63087238Y-150169619D02*
X63134857Y-150122000D01*
X63230095Y-150074380D01*
X63468190Y-150074380D01*
X63563428Y-150122000D01*
X63611047Y-150169619D01*
X63658666Y-150264857D01*
X63658666Y-150360095D01*
X63611047Y-150502952D01*
X63039619Y-151074380D01*
X63658666Y-151074380D01*
%TO.C,J1*%
X115490666Y-150074380D02*
X115490666Y-150788666D01*
X115443047Y-150931523D01*
X115347809Y-151026761D01*
X115204952Y-151074380D01*
X115109714Y-151074380D01*
X116490666Y-151074380D02*
X115919238Y-151074380D01*
X116204952Y-151074380D02*
X116204952Y-150074380D01*
X116109714Y-150217238D01*
X116014476Y-150312476D01*
X115919238Y-150360095D01*
%TO.C,F1*%
X117776666Y-142676571D02*
X117443333Y-142676571D01*
X117443333Y-143200380D02*
X117443333Y-142200380D01*
X117919523Y-142200380D01*
X118824285Y-143200380D02*
X118252857Y-143200380D01*
X118538571Y-143200380D02*
X118538571Y-142200380D01*
X118443333Y-142343238D01*
X118348095Y-142438476D01*
X118252857Y-142486095D01*
%TO.C,C3*%
X121193333Y-99147142D02*
X121145714Y-99194761D01*
X121002857Y-99242380D01*
X120907619Y-99242380D01*
X120764761Y-99194761D01*
X120669523Y-99099523D01*
X120621904Y-99004285D01*
X120574285Y-98813809D01*
X120574285Y-98670952D01*
X120621904Y-98480476D01*
X120669523Y-98385238D01*
X120764761Y-98290000D01*
X120907619Y-98242380D01*
X121002857Y-98242380D01*
X121145714Y-98290000D01*
X121193333Y-98337619D01*
X121526666Y-98242380D02*
X122145714Y-98242380D01*
X121812380Y-98623333D01*
X121955238Y-98623333D01*
X122050476Y-98670952D01*
X122098095Y-98718571D01*
X122145714Y-98813809D01*
X122145714Y-99051904D01*
X122098095Y-99147142D01*
X122050476Y-99194761D01*
X121955238Y-99242380D01*
X121669523Y-99242380D01*
X121574285Y-99194761D01*
X121526666Y-99147142D01*
%TD*%
M02*
