%TF.GenerationSoftware,KiCad,Pcbnew,(5.1.9)-1*%
%TF.CreationDate,2021-09-13T17:44:50+02:00*%
%TF.ProjectId,Sterownik,53746572-6f77-46e6-996b-2e6b69636164,rev?*%
%TF.SameCoordinates,Original*%
%TF.FileFunction,Copper,L2,Bot*%
%TF.FilePolarity,Positive*%
%FSLAX46Y46*%
G04 Gerber Fmt 4.6, Leading zero omitted, Abs format (unit mm)*
G04 Created by KiCad (PCBNEW (5.1.9)-1) date 2021-09-13 17:44:50*
%MOMM*%
%LPD*%
G01*
G04 APERTURE LIST*
%TA.AperFunction,ComponentPad*%
%ADD10O,2.200000X2.200000*%
%TD*%
%TA.AperFunction,ComponentPad*%
%ADD11R,2.200000X2.200000*%
%TD*%
%TA.AperFunction,ComponentPad*%
%ADD12O,1.700000X1.700000*%
%TD*%
%TA.AperFunction,ComponentPad*%
%ADD13R,1.700000X1.700000*%
%TD*%
%TA.AperFunction,ComponentPad*%
%ADD14C,2.000000*%
%TD*%
%TA.AperFunction,ComponentPad*%
%ADD15R,1.050000X1.500000*%
%TD*%
%TA.AperFunction,ComponentPad*%
%ADD16O,1.050000X1.500000*%
%TD*%
%TA.AperFunction,ComponentPad*%
%ADD17C,2.300000*%
%TD*%
%TA.AperFunction,ComponentPad*%
%ADD18R,2.000000X2.300000*%
%TD*%
%TA.AperFunction,ComponentPad*%
%ADD19C,2.200000*%
%TD*%
%TA.AperFunction,ComponentPad*%
%ADD20C,1.800000*%
%TD*%
%TA.AperFunction,ComponentPad*%
%ADD21R,1.800000X1.800000*%
%TD*%
%TA.AperFunction,ComponentPad*%
%ADD22C,3.000000*%
%TD*%
%TA.AperFunction,ComponentPad*%
%ADD23R,3.000000X3.000000*%
%TD*%
%TA.AperFunction,ComponentPad*%
%ADD24C,1.200000*%
%TD*%
%TA.AperFunction,ComponentPad*%
%ADD25R,1.200000X1.200000*%
%TD*%
%TA.AperFunction,ViaPad*%
%ADD26C,0.800000*%
%TD*%
%TA.AperFunction,Conductor*%
%ADD27C,0.250000*%
%TD*%
%TA.AperFunction,Conductor*%
%ADD28C,0.500000*%
%TD*%
%TA.AperFunction,Conductor*%
%ADD29C,0.254000*%
%TD*%
%TA.AperFunction,Conductor*%
%ADD30C,0.100000*%
%TD*%
G04 APERTURE END LIST*
D10*
%TO.P,D2,2*%
%TO.N,Net-(D2-Pad2)*%
X97282000Y-123698000D03*
D11*
%TO.P,D2,1*%
%TO.N,VCC*%
X94742000Y-123698000D03*
%TD*%
D10*
%TO.P,D1,2*%
%TO.N,Net-(D1-Pad2)*%
X82550000Y-123444000D03*
D11*
%TO.P,D1,1*%
%TO.N,VCC*%
X80010000Y-123444000D03*
%TD*%
D12*
%TO.P,J8,2*%
%TO.N,GND*%
X127508000Y-98298000D03*
D13*
%TO.P,J8,1*%
%TO.N,D10*%
X127508000Y-95758000D03*
%TD*%
D14*
%TO.P,SW1,1*%
%TO.N,GND*%
X106530000Y-93218000D03*
%TO.P,SW1,2*%
%TO.N,RESET*%
X106530000Y-88718000D03*
%TO.P,SW1,1*%
%TO.N,GND*%
X113030000Y-93218000D03*
%TO.P,SW1,2*%
%TO.N,RESET*%
X113030000Y-88718000D03*
%TD*%
D15*
%TO.P,Q2,1*%
%TO.N,Net-(D2-Pad2)*%
X96012000Y-117348000D03*
D16*
%TO.P,Q2,3*%
%TO.N,GND*%
X93472000Y-117348000D03*
%TO.P,Q2,2*%
%TO.N,Net-(Q2-Pad2)*%
X94742000Y-117348000D03*
%TD*%
D15*
%TO.P,Q1,1*%
%TO.N,Net-(D1-Pad2)*%
X81788000Y-117348000D03*
D16*
%TO.P,Q1,3*%
%TO.N,GND*%
X79248000Y-117348000D03*
%TO.P,Q1,2*%
%TO.N,Net-(Q1-Pad2)*%
X80518000Y-117348000D03*
%TD*%
D17*
%TO.P,PS1,4*%
%TO.N,VCC*%
X127040000Y-104966000D03*
%TO.P,PS1,2*%
%TO.N,/N*%
X121840000Y-134366000D03*
D18*
%TO.P,PS1,1*%
%TO.N,Net-(F1-Pad1)*%
X116840000Y-134366000D03*
D17*
%TO.P,PS1,3*%
%TO.N,GND*%
X111640000Y-104966000D03*
%TD*%
D19*
%TO.P,K2,14*%
%TO.N,Net-(J7-Pad1)*%
X91440000Y-146050000D03*
%TO.P,K2,11*%
%TO.N,Net-(F1-Pad1)*%
X91440000Y-138430000D03*
D20*
%TO.P,K2,A2*%
%TO.N,Net-(D2-Pad2)*%
X99060000Y-128270000D03*
D21*
%TO.P,K2,A1*%
%TO.N,VCC*%
X91440000Y-128270000D03*
%TD*%
D19*
%TO.P,K1,14*%
%TO.N,Net-(J4-Pad1)*%
X76200000Y-146050000D03*
%TO.P,K1,11*%
%TO.N,Net-(F1-Pad1)*%
X76200000Y-138430000D03*
D20*
%TO.P,K1,A2*%
%TO.N,Net-(D1-Pad2)*%
X83820000Y-128270000D03*
D21*
%TO.P,K1,A1*%
%TO.N,VCC*%
X76200000Y-128270000D03*
%TD*%
D22*
%TO.P,J7,2*%
%TO.N,/N*%
X97536000Y-153416000D03*
D23*
%TO.P,J7,1*%
%TO.N,Net-(J7-Pad1)*%
X92456000Y-153416000D03*
%TD*%
D12*
%TO.P,J6,5*%
%TO.N,GND*%
X97790000Y-86360000D03*
%TO.P,J6,4*%
%TO.N,VCC*%
X95250000Y-86360000D03*
%TO.P,J6,3*%
%TO.N,D4*%
X92710000Y-86360000D03*
%TO.P,J6,2*%
%TO.N,D3*%
X90170000Y-86360000D03*
D13*
%TO.P,J6,1*%
%TO.N,D2*%
X87630000Y-86360000D03*
%TD*%
D12*
%TO.P,J5,4*%
%TO.N,GND*%
X65415000Y-93330000D03*
%TO.P,J5,3*%
%TO.N,A5*%
X65415000Y-90790000D03*
%TO.P,J5,2*%
%TO.N,A4*%
X65415000Y-88250000D03*
D13*
%TO.P,J5,1*%
%TO.N,VCC*%
X65415000Y-85710000D03*
%TD*%
D22*
%TO.P,J4,3*%
%TO.N,/PE*%
X85090000Y-153416000D03*
%TO.P,J4,2*%
%TO.N,/N*%
X80010000Y-153416000D03*
D23*
%TO.P,J4,1*%
%TO.N,Net-(J4-Pad1)*%
X74930000Y-153416000D03*
%TD*%
D12*
%TO.P,J3,6*%
%TO.N,GND*%
X103378000Y-109474000D03*
%TO.P,J3,5*%
%TO.N,RESET*%
X100838000Y-109474000D03*
%TO.P,J3,4*%
%TO.N,D11\u005CMOSI*%
X103378000Y-106934000D03*
%TO.P,J3,3*%
%TO.N,D13\u005CSCK*%
X100838000Y-106934000D03*
%TO.P,J3,2*%
%TO.N,VCC*%
X103378000Y-104394000D03*
D13*
%TO.P,J3,1*%
%TO.N,D12\u005CMISO*%
X100838000Y-104394000D03*
%TD*%
D22*
%TO.P,J2,3*%
%TO.N,GND*%
X68580000Y-153416000D03*
%TO.P,J2,2*%
%TO.N,D8*%
X63500000Y-153416000D03*
D23*
%TO.P,J2,1*%
%TO.N,VCC*%
X58420000Y-153416000D03*
%TD*%
D22*
%TO.P,J1,3*%
%TO.N,/L*%
X120904000Y-153416000D03*
%TO.P,J1,2*%
%TO.N,/N*%
X115824000Y-153416000D03*
D23*
%TO.P,J1,1*%
%TO.N,/PE*%
X110744000Y-153416000D03*
%TD*%
D14*
%TO.P,F1,2*%
%TO.N,/L*%
X128915000Y-142494000D03*
%TO.P,F1,1*%
%TO.N,Net-(F1-Pad1)*%
X107015000Y-142494000D03*
%TD*%
D24*
%TO.P,C3,2*%
%TO.N,GND*%
X118110000Y-99790000D03*
D25*
%TO.P,C3,1*%
%TO.N,VCC*%
X118110000Y-97790000D03*
%TD*%
D26*
%TO.N,D2*%
X83383500Y-96559700D03*
%TO.N,RESET*%
X88899000Y-97912600D03*
%TO.N,D4*%
X88264400Y-99214100D03*
%TO.N,D3*%
X86720200Y-99782800D03*
%TO.N,GND*%
X100413000Y-91709400D03*
X87363300Y-101476100D03*
X67162800Y-108207100D03*
X67162800Y-100516300D03*
X94066500Y-95463800D03*
%TD*%
D27*
%TO.N,D2*%
X87630000Y-86360000D02*
X87630000Y-87535300D01*
X87630000Y-87535300D02*
X83383500Y-91781800D01*
X83383500Y-91781800D02*
X83383500Y-96559700D01*
%TO.N,RESET*%
X102013300Y-97912600D02*
X102013300Y-93234700D01*
X102013300Y-93234700D02*
X106530000Y-88718000D01*
X100838000Y-108298700D02*
X101205400Y-108298700D01*
X101205400Y-108298700D02*
X102013300Y-107490800D01*
X102013300Y-107490800D02*
X102013300Y-97912600D01*
X102013300Y-97912600D02*
X88899000Y-97912600D01*
X100838000Y-109474000D02*
X100838000Y-108298700D01*
%TO.N,D4*%
X92710000Y-87535300D02*
X88173700Y-92071600D01*
X88173700Y-92071600D02*
X88173700Y-99123400D01*
X88173700Y-99123400D02*
X88264400Y-99214100D01*
X92710000Y-86360000D02*
X92710000Y-87535300D01*
%TO.N,D3*%
X90170000Y-86360000D02*
X90170000Y-87535300D01*
X90170000Y-87535300D02*
X86720200Y-90985100D01*
X86720200Y-90985100D02*
X86720200Y-99782800D01*
D28*
%TO.N,Net-(J4-Pad1)*%
X74930000Y-153416000D02*
X74930000Y-151590700D01*
X74930000Y-151590700D02*
X76200000Y-150320700D01*
X76200000Y-150320700D02*
X76200000Y-146050000D01*
%TO.N,Net-(J7-Pad1)*%
X92456000Y-153416000D02*
X92456000Y-151590700D01*
X92456000Y-151590700D02*
X91440000Y-150574700D01*
X91440000Y-150574700D02*
X91440000Y-146050000D01*
D27*
%TO.N,Net-(D1-Pad2)*%
X82550000Y-123444000D02*
X82550000Y-125169300D01*
X82550000Y-125169300D02*
X83820000Y-126439300D01*
X83820000Y-126439300D02*
X83820000Y-128270000D01*
%TO.N,Net-(D2-Pad2)*%
X97536000Y-123444000D02*
X97536000Y-124306600D01*
X97282000Y-118618000D02*
X97282000Y-123698000D01*
X96012000Y-117348000D02*
X97282000Y-118618000D01*
X97282000Y-126492000D02*
X99060000Y-128270000D01*
X97282000Y-123698000D02*
X97282000Y-126492000D01*
%TD*%
D29*
%TO.N,GND*%
X131674000Y-158877455D02*
X47142000Y-159130545D01*
X47142000Y-155481872D01*
X49327000Y-155481872D01*
X49327000Y-155922128D01*
X49412890Y-156353925D01*
X49581369Y-156760669D01*
X49825962Y-157126729D01*
X50137271Y-157438038D01*
X50503331Y-157682631D01*
X50910075Y-157851110D01*
X51341872Y-157937000D01*
X51782128Y-157937000D01*
X52213925Y-157851110D01*
X52620669Y-157682631D01*
X52986729Y-157438038D01*
X53298038Y-157126729D01*
X53542631Y-156760669D01*
X53711110Y-156353925D01*
X53797000Y-155922128D01*
X53797000Y-155481872D01*
X53711110Y-155050075D01*
X53542631Y-154643331D01*
X53298038Y-154277271D01*
X52986729Y-153965962D01*
X52620669Y-153721369D01*
X52213925Y-153552890D01*
X51782128Y-153467000D01*
X51341872Y-153467000D01*
X50910075Y-153552890D01*
X50503331Y-153721369D01*
X50137271Y-153965962D01*
X49825962Y-154277271D01*
X49581369Y-154643331D01*
X49412890Y-155050075D01*
X49327000Y-155481872D01*
X47142000Y-155481872D01*
X47142000Y-151916000D01*
X56281928Y-151916000D01*
X56281928Y-154916000D01*
X56294188Y-155040482D01*
X56330498Y-155160180D01*
X56389463Y-155270494D01*
X56468815Y-155367185D01*
X56565506Y-155446537D01*
X56675820Y-155505502D01*
X56795518Y-155541812D01*
X56920000Y-155554072D01*
X59920000Y-155554072D01*
X60044482Y-155541812D01*
X60164180Y-155505502D01*
X60274494Y-155446537D01*
X60371185Y-155367185D01*
X60450537Y-155270494D01*
X60509502Y-155160180D01*
X60545812Y-155040482D01*
X60558072Y-154916000D01*
X60558072Y-153205721D01*
X61365000Y-153205721D01*
X61365000Y-153626279D01*
X61447047Y-154038756D01*
X61607988Y-154427302D01*
X61841637Y-154776983D01*
X62139017Y-155074363D01*
X62488698Y-155308012D01*
X62877244Y-155468953D01*
X63289721Y-155551000D01*
X63710279Y-155551000D01*
X64122756Y-155468953D01*
X64511302Y-155308012D01*
X64860983Y-155074363D01*
X65027693Y-154907653D01*
X67267952Y-154907653D01*
X67423962Y-155223214D01*
X67798745Y-155414020D01*
X68203551Y-155528044D01*
X68622824Y-155560902D01*
X69040451Y-155511334D01*
X69440383Y-155381243D01*
X69736038Y-155223214D01*
X69892048Y-154907653D01*
X68580000Y-153595605D01*
X67267952Y-154907653D01*
X65027693Y-154907653D01*
X65158363Y-154776983D01*
X65392012Y-154427302D01*
X65552953Y-154038756D01*
X65635000Y-153626279D01*
X65635000Y-153458824D01*
X66435098Y-153458824D01*
X66484666Y-153876451D01*
X66614757Y-154276383D01*
X66772786Y-154572038D01*
X67088347Y-154728048D01*
X68400395Y-153416000D01*
X68759605Y-153416000D01*
X70071653Y-154728048D01*
X70387214Y-154572038D01*
X70578020Y-154197255D01*
X70692044Y-153792449D01*
X70724902Y-153373176D01*
X70675334Y-152955549D01*
X70545243Y-152555617D01*
X70387214Y-152259962D01*
X70071653Y-152103952D01*
X68759605Y-153416000D01*
X68400395Y-153416000D01*
X67088347Y-152103952D01*
X66772786Y-152259962D01*
X66581980Y-152634745D01*
X66467956Y-153039551D01*
X66435098Y-153458824D01*
X65635000Y-153458824D01*
X65635000Y-153205721D01*
X65552953Y-152793244D01*
X65392012Y-152404698D01*
X65158363Y-152055017D01*
X65027693Y-151924347D01*
X67267952Y-151924347D01*
X68580000Y-153236395D01*
X69892048Y-151924347D01*
X69887922Y-151916000D01*
X72791928Y-151916000D01*
X72791928Y-154916000D01*
X72804188Y-155040482D01*
X72840498Y-155160180D01*
X72899463Y-155270494D01*
X72978815Y-155367185D01*
X73075506Y-155446537D01*
X73185820Y-155505502D01*
X73305518Y-155541812D01*
X73430000Y-155554072D01*
X76430000Y-155554072D01*
X76554482Y-155541812D01*
X76674180Y-155505502D01*
X76784494Y-155446537D01*
X76881185Y-155367185D01*
X76960537Y-155270494D01*
X77019502Y-155160180D01*
X77055812Y-155040482D01*
X77068072Y-154916000D01*
X77068072Y-153205721D01*
X77875000Y-153205721D01*
X77875000Y-153626279D01*
X77957047Y-154038756D01*
X78117988Y-154427302D01*
X78351637Y-154776983D01*
X78649017Y-155074363D01*
X78998698Y-155308012D01*
X79387244Y-155468953D01*
X79799721Y-155551000D01*
X80220279Y-155551000D01*
X80632756Y-155468953D01*
X81021302Y-155308012D01*
X81370983Y-155074363D01*
X81668363Y-154776983D01*
X81902012Y-154427302D01*
X82062953Y-154038756D01*
X82145000Y-153626279D01*
X82145000Y-153205721D01*
X82955000Y-153205721D01*
X82955000Y-153626279D01*
X83037047Y-154038756D01*
X83197988Y-154427302D01*
X83431637Y-154776983D01*
X83729017Y-155074363D01*
X84078698Y-155308012D01*
X84467244Y-155468953D01*
X84879721Y-155551000D01*
X85300279Y-155551000D01*
X85712756Y-155468953D01*
X86101302Y-155308012D01*
X86450983Y-155074363D01*
X86748363Y-154776983D01*
X86982012Y-154427302D01*
X87142953Y-154038756D01*
X87225000Y-153626279D01*
X87225000Y-153205721D01*
X87142953Y-152793244D01*
X86982012Y-152404698D01*
X86748363Y-152055017D01*
X86450983Y-151757637D01*
X86101302Y-151523988D01*
X85712756Y-151363047D01*
X85300279Y-151281000D01*
X84879721Y-151281000D01*
X84467244Y-151363047D01*
X84078698Y-151523988D01*
X83729017Y-151757637D01*
X83431637Y-152055017D01*
X83197988Y-152404698D01*
X83037047Y-152793244D01*
X82955000Y-153205721D01*
X82145000Y-153205721D01*
X82062953Y-152793244D01*
X81902012Y-152404698D01*
X81668363Y-152055017D01*
X81370983Y-151757637D01*
X81021302Y-151523988D01*
X80632756Y-151363047D01*
X80220279Y-151281000D01*
X79799721Y-151281000D01*
X79387244Y-151363047D01*
X78998698Y-151523988D01*
X78649017Y-151757637D01*
X78351637Y-152055017D01*
X78117988Y-152404698D01*
X77957047Y-152793244D01*
X77875000Y-153205721D01*
X77068072Y-153205721D01*
X77068072Y-151916000D01*
X77055812Y-151791518D01*
X77019502Y-151671820D01*
X76960537Y-151561506D01*
X76881185Y-151464815D01*
X76784494Y-151385463D01*
X76674180Y-151326498D01*
X76554482Y-151290188D01*
X76488581Y-151283698D01*
X76795050Y-150977229D01*
X76828817Y-150949517D01*
X76939411Y-150814759D01*
X77021589Y-150661013D01*
X77072195Y-150494190D01*
X77085000Y-150364177D01*
X77085000Y-150364167D01*
X77089281Y-150320701D01*
X77085000Y-150277235D01*
X77085000Y-147545329D01*
X77305998Y-147397663D01*
X77547663Y-147155998D01*
X77737537Y-146871831D01*
X77868325Y-146556081D01*
X77935000Y-146220883D01*
X77935000Y-145879117D01*
X89705000Y-145879117D01*
X89705000Y-146220883D01*
X89771675Y-146556081D01*
X89902463Y-146871831D01*
X90092337Y-147155998D01*
X90334002Y-147397663D01*
X90555001Y-147545329D01*
X90555000Y-150531231D01*
X90550719Y-150574700D01*
X90555000Y-150618169D01*
X90555000Y-150618176D01*
X90567805Y-150748189D01*
X90618411Y-150915012D01*
X90700589Y-151068758D01*
X90811183Y-151203517D01*
X90844956Y-151231234D01*
X90897419Y-151283697D01*
X90831518Y-151290188D01*
X90711820Y-151326498D01*
X90601506Y-151385463D01*
X90504815Y-151464815D01*
X90425463Y-151561506D01*
X90366498Y-151671820D01*
X90330188Y-151791518D01*
X90317928Y-151916000D01*
X90317928Y-154916000D01*
X90330188Y-155040482D01*
X90366498Y-155160180D01*
X90425463Y-155270494D01*
X90504815Y-155367185D01*
X90601506Y-155446537D01*
X90711820Y-155505502D01*
X90831518Y-155541812D01*
X90956000Y-155554072D01*
X93956000Y-155554072D01*
X94080482Y-155541812D01*
X94200180Y-155505502D01*
X94310494Y-155446537D01*
X94407185Y-155367185D01*
X94486537Y-155270494D01*
X94545502Y-155160180D01*
X94581812Y-155040482D01*
X94594072Y-154916000D01*
X94594072Y-153205721D01*
X95401000Y-153205721D01*
X95401000Y-153626279D01*
X95483047Y-154038756D01*
X95643988Y-154427302D01*
X95877637Y-154776983D01*
X96175017Y-155074363D01*
X96524698Y-155308012D01*
X96913244Y-155468953D01*
X97325721Y-155551000D01*
X97746279Y-155551000D01*
X98158756Y-155468953D01*
X98547302Y-155308012D01*
X98896983Y-155074363D01*
X99194363Y-154776983D01*
X99428012Y-154427302D01*
X99588953Y-154038756D01*
X99671000Y-153626279D01*
X99671000Y-153205721D01*
X99588953Y-152793244D01*
X99428012Y-152404698D01*
X99194363Y-152055017D01*
X99055346Y-151916000D01*
X108605928Y-151916000D01*
X108605928Y-154916000D01*
X108618188Y-155040482D01*
X108654498Y-155160180D01*
X108713463Y-155270494D01*
X108792815Y-155367185D01*
X108889506Y-155446537D01*
X108999820Y-155505502D01*
X109119518Y-155541812D01*
X109244000Y-155554072D01*
X112244000Y-155554072D01*
X112368482Y-155541812D01*
X112488180Y-155505502D01*
X112598494Y-155446537D01*
X112695185Y-155367185D01*
X112774537Y-155270494D01*
X112833502Y-155160180D01*
X112869812Y-155040482D01*
X112882072Y-154916000D01*
X112882072Y-153205721D01*
X113689000Y-153205721D01*
X113689000Y-153626279D01*
X113771047Y-154038756D01*
X113931988Y-154427302D01*
X114165637Y-154776983D01*
X114463017Y-155074363D01*
X114812698Y-155308012D01*
X115201244Y-155468953D01*
X115613721Y-155551000D01*
X116034279Y-155551000D01*
X116446756Y-155468953D01*
X116835302Y-155308012D01*
X117184983Y-155074363D01*
X117482363Y-154776983D01*
X117716012Y-154427302D01*
X117876953Y-154038756D01*
X117959000Y-153626279D01*
X117959000Y-153205721D01*
X118769000Y-153205721D01*
X118769000Y-153626279D01*
X118851047Y-154038756D01*
X119011988Y-154427302D01*
X119245637Y-154776983D01*
X119543017Y-155074363D01*
X119892698Y-155308012D01*
X120281244Y-155468953D01*
X120693721Y-155551000D01*
X121114279Y-155551000D01*
X121461807Y-155481872D01*
X125781000Y-155481872D01*
X125781000Y-155922128D01*
X125866890Y-156353925D01*
X126035369Y-156760669D01*
X126279962Y-157126729D01*
X126591271Y-157438038D01*
X126957331Y-157682631D01*
X127364075Y-157851110D01*
X127795872Y-157937000D01*
X128236128Y-157937000D01*
X128667925Y-157851110D01*
X129074669Y-157682631D01*
X129440729Y-157438038D01*
X129752038Y-157126729D01*
X129996631Y-156760669D01*
X130165110Y-156353925D01*
X130251000Y-155922128D01*
X130251000Y-155481872D01*
X130165110Y-155050075D01*
X129996631Y-154643331D01*
X129752038Y-154277271D01*
X129440729Y-153965962D01*
X129074669Y-153721369D01*
X128667925Y-153552890D01*
X128236128Y-153467000D01*
X127795872Y-153467000D01*
X127364075Y-153552890D01*
X126957331Y-153721369D01*
X126591271Y-153965962D01*
X126279962Y-154277271D01*
X126035369Y-154643331D01*
X125866890Y-155050075D01*
X125781000Y-155481872D01*
X121461807Y-155481872D01*
X121526756Y-155468953D01*
X121915302Y-155308012D01*
X122264983Y-155074363D01*
X122562363Y-154776983D01*
X122796012Y-154427302D01*
X122956953Y-154038756D01*
X123039000Y-153626279D01*
X123039000Y-153205721D01*
X122956953Y-152793244D01*
X122796012Y-152404698D01*
X122562363Y-152055017D01*
X122264983Y-151757637D01*
X121915302Y-151523988D01*
X121526756Y-151363047D01*
X121114279Y-151281000D01*
X120693721Y-151281000D01*
X120281244Y-151363047D01*
X119892698Y-151523988D01*
X119543017Y-151757637D01*
X119245637Y-152055017D01*
X119011988Y-152404698D01*
X118851047Y-152793244D01*
X118769000Y-153205721D01*
X117959000Y-153205721D01*
X117876953Y-152793244D01*
X117716012Y-152404698D01*
X117482363Y-152055017D01*
X117184983Y-151757637D01*
X116835302Y-151523988D01*
X116446756Y-151363047D01*
X116034279Y-151281000D01*
X115613721Y-151281000D01*
X115201244Y-151363047D01*
X114812698Y-151523988D01*
X114463017Y-151757637D01*
X114165637Y-152055017D01*
X113931988Y-152404698D01*
X113771047Y-152793244D01*
X113689000Y-153205721D01*
X112882072Y-153205721D01*
X112882072Y-151916000D01*
X112869812Y-151791518D01*
X112833502Y-151671820D01*
X112774537Y-151561506D01*
X112695185Y-151464815D01*
X112598494Y-151385463D01*
X112488180Y-151326498D01*
X112368482Y-151290188D01*
X112244000Y-151277928D01*
X109244000Y-151277928D01*
X109119518Y-151290188D01*
X108999820Y-151326498D01*
X108889506Y-151385463D01*
X108792815Y-151464815D01*
X108713463Y-151561506D01*
X108654498Y-151671820D01*
X108618188Y-151791518D01*
X108605928Y-151916000D01*
X99055346Y-151916000D01*
X98896983Y-151757637D01*
X98547302Y-151523988D01*
X98158756Y-151363047D01*
X97746279Y-151281000D01*
X97325721Y-151281000D01*
X96913244Y-151363047D01*
X96524698Y-151523988D01*
X96175017Y-151757637D01*
X95877637Y-152055017D01*
X95643988Y-152404698D01*
X95483047Y-152793244D01*
X95401000Y-153205721D01*
X94594072Y-153205721D01*
X94594072Y-151916000D01*
X94581812Y-151791518D01*
X94545502Y-151671820D01*
X94486537Y-151561506D01*
X94407185Y-151464815D01*
X94310494Y-151385463D01*
X94200180Y-151326498D01*
X94080482Y-151290188D01*
X93956000Y-151277928D01*
X93285944Y-151277928D01*
X93277589Y-151250387D01*
X93195411Y-151096641D01*
X93165431Y-151060111D01*
X93112532Y-150995653D01*
X93112530Y-150995651D01*
X93084817Y-150961883D01*
X93051049Y-150934170D01*
X92325000Y-150208122D01*
X92325000Y-147545329D01*
X92545998Y-147397663D01*
X92787663Y-147155998D01*
X92977537Y-146871831D01*
X93108325Y-146556081D01*
X93175000Y-146220883D01*
X93175000Y-145879117D01*
X93108325Y-145543919D01*
X92977537Y-145228169D01*
X92787663Y-144944002D01*
X92545998Y-144702337D01*
X92261831Y-144512463D01*
X91946081Y-144381675D01*
X91610883Y-144315000D01*
X91269117Y-144315000D01*
X90933919Y-144381675D01*
X90618169Y-144512463D01*
X90334002Y-144702337D01*
X90092337Y-144944002D01*
X89902463Y-145228169D01*
X89771675Y-145543919D01*
X89705000Y-145879117D01*
X77935000Y-145879117D01*
X77868325Y-145543919D01*
X77737537Y-145228169D01*
X77547663Y-144944002D01*
X77305998Y-144702337D01*
X77021831Y-144512463D01*
X76706081Y-144381675D01*
X76370883Y-144315000D01*
X76029117Y-144315000D01*
X75693919Y-144381675D01*
X75378169Y-144512463D01*
X75094002Y-144702337D01*
X74852337Y-144944002D01*
X74662463Y-145228169D01*
X74531675Y-145543919D01*
X74465000Y-145879117D01*
X74465000Y-146220883D01*
X74531675Y-146556081D01*
X74662463Y-146871831D01*
X74852337Y-147155998D01*
X75094002Y-147397663D01*
X75315001Y-147545329D01*
X75315000Y-149954121D01*
X74334951Y-150934171D01*
X74301184Y-150961883D01*
X74273471Y-150995651D01*
X74273468Y-150995654D01*
X74190590Y-151096641D01*
X74108412Y-151250387D01*
X74100057Y-151277928D01*
X73430000Y-151277928D01*
X73305518Y-151290188D01*
X73185820Y-151326498D01*
X73075506Y-151385463D01*
X72978815Y-151464815D01*
X72899463Y-151561506D01*
X72840498Y-151671820D01*
X72804188Y-151791518D01*
X72791928Y-151916000D01*
X69887922Y-151916000D01*
X69736038Y-151608786D01*
X69361255Y-151417980D01*
X68956449Y-151303956D01*
X68537176Y-151271098D01*
X68119549Y-151320666D01*
X67719617Y-151450757D01*
X67423962Y-151608786D01*
X67267952Y-151924347D01*
X65027693Y-151924347D01*
X64860983Y-151757637D01*
X64511302Y-151523988D01*
X64122756Y-151363047D01*
X63710279Y-151281000D01*
X63289721Y-151281000D01*
X62877244Y-151363047D01*
X62488698Y-151523988D01*
X62139017Y-151757637D01*
X61841637Y-152055017D01*
X61607988Y-152404698D01*
X61447047Y-152793244D01*
X61365000Y-153205721D01*
X60558072Y-153205721D01*
X60558072Y-151916000D01*
X60545812Y-151791518D01*
X60509502Y-151671820D01*
X60450537Y-151561506D01*
X60371185Y-151464815D01*
X60274494Y-151385463D01*
X60164180Y-151326498D01*
X60044482Y-151290188D01*
X59920000Y-151277928D01*
X56920000Y-151277928D01*
X56795518Y-151290188D01*
X56675820Y-151326498D01*
X56565506Y-151385463D01*
X56468815Y-151464815D01*
X56389463Y-151561506D01*
X56330498Y-151671820D01*
X56294188Y-151791518D01*
X56281928Y-151916000D01*
X47142000Y-151916000D01*
X47142000Y-142332967D01*
X105380000Y-142332967D01*
X105380000Y-142655033D01*
X105442832Y-142970912D01*
X105566082Y-143268463D01*
X105745013Y-143536252D01*
X105972748Y-143763987D01*
X106240537Y-143942918D01*
X106538088Y-144066168D01*
X106853967Y-144129000D01*
X107176033Y-144129000D01*
X107491912Y-144066168D01*
X107789463Y-143942918D01*
X108057252Y-143763987D01*
X108284987Y-143536252D01*
X108463918Y-143268463D01*
X108587168Y-142970912D01*
X108650000Y-142655033D01*
X108650000Y-142332967D01*
X127280000Y-142332967D01*
X127280000Y-142655033D01*
X127342832Y-142970912D01*
X127466082Y-143268463D01*
X127645013Y-143536252D01*
X127872748Y-143763987D01*
X128140537Y-143942918D01*
X128438088Y-144066168D01*
X128753967Y-144129000D01*
X129076033Y-144129000D01*
X129391912Y-144066168D01*
X129689463Y-143942918D01*
X129957252Y-143763987D01*
X130184987Y-143536252D01*
X130363918Y-143268463D01*
X130487168Y-142970912D01*
X130550000Y-142655033D01*
X130550000Y-142332967D01*
X130487168Y-142017088D01*
X130363918Y-141719537D01*
X130184987Y-141451748D01*
X129957252Y-141224013D01*
X129689463Y-141045082D01*
X129391912Y-140921832D01*
X129076033Y-140859000D01*
X128753967Y-140859000D01*
X128438088Y-140921832D01*
X128140537Y-141045082D01*
X127872748Y-141224013D01*
X127645013Y-141451748D01*
X127466082Y-141719537D01*
X127342832Y-142017088D01*
X127280000Y-142332967D01*
X108650000Y-142332967D01*
X108587168Y-142017088D01*
X108463918Y-141719537D01*
X108284987Y-141451748D01*
X108057252Y-141224013D01*
X107789463Y-141045082D01*
X107491912Y-140921832D01*
X107176033Y-140859000D01*
X106853967Y-140859000D01*
X106538088Y-140921832D01*
X106240537Y-141045082D01*
X105972748Y-141224013D01*
X105745013Y-141451748D01*
X105566082Y-141719537D01*
X105442832Y-142017088D01*
X105380000Y-142332967D01*
X47142000Y-142332967D01*
X47142000Y-138259117D01*
X74465000Y-138259117D01*
X74465000Y-138600883D01*
X74531675Y-138936081D01*
X74662463Y-139251831D01*
X74852337Y-139535998D01*
X75094002Y-139777663D01*
X75378169Y-139967537D01*
X75693919Y-140098325D01*
X76029117Y-140165000D01*
X76370883Y-140165000D01*
X76706081Y-140098325D01*
X77021831Y-139967537D01*
X77305998Y-139777663D01*
X77547663Y-139535998D01*
X77737537Y-139251831D01*
X77868325Y-138936081D01*
X77935000Y-138600883D01*
X77935000Y-138259117D01*
X89705000Y-138259117D01*
X89705000Y-138600883D01*
X89771675Y-138936081D01*
X89902463Y-139251831D01*
X90092337Y-139535998D01*
X90334002Y-139777663D01*
X90618169Y-139967537D01*
X90933919Y-140098325D01*
X91269117Y-140165000D01*
X91610883Y-140165000D01*
X91946081Y-140098325D01*
X92261831Y-139967537D01*
X92545998Y-139777663D01*
X92787663Y-139535998D01*
X92977537Y-139251831D01*
X93108325Y-138936081D01*
X93175000Y-138600883D01*
X93175000Y-138259117D01*
X93108325Y-137923919D01*
X92977537Y-137608169D01*
X92787663Y-137324002D01*
X92545998Y-137082337D01*
X92261831Y-136892463D01*
X91946081Y-136761675D01*
X91610883Y-136695000D01*
X91269117Y-136695000D01*
X90933919Y-136761675D01*
X90618169Y-136892463D01*
X90334002Y-137082337D01*
X90092337Y-137324002D01*
X89902463Y-137608169D01*
X89771675Y-137923919D01*
X89705000Y-138259117D01*
X77935000Y-138259117D01*
X77868325Y-137923919D01*
X77737537Y-137608169D01*
X77547663Y-137324002D01*
X77305998Y-137082337D01*
X77021831Y-136892463D01*
X76706081Y-136761675D01*
X76370883Y-136695000D01*
X76029117Y-136695000D01*
X75693919Y-136761675D01*
X75378169Y-136892463D01*
X75094002Y-137082337D01*
X74852337Y-137324002D01*
X74662463Y-137608169D01*
X74531675Y-137923919D01*
X74465000Y-138259117D01*
X47142000Y-138259117D01*
X47142000Y-133216000D01*
X115201928Y-133216000D01*
X115201928Y-135516000D01*
X115214188Y-135640482D01*
X115250498Y-135760180D01*
X115309463Y-135870494D01*
X115388815Y-135967185D01*
X115485506Y-136046537D01*
X115595820Y-136105502D01*
X115715518Y-136141812D01*
X115840000Y-136154072D01*
X117840000Y-136154072D01*
X117964482Y-136141812D01*
X118084180Y-136105502D01*
X118194494Y-136046537D01*
X118291185Y-135967185D01*
X118370537Y-135870494D01*
X118429502Y-135760180D01*
X118465812Y-135640482D01*
X118478072Y-135516000D01*
X118478072Y-134190193D01*
X120055000Y-134190193D01*
X120055000Y-134541807D01*
X120123596Y-134886665D01*
X120258153Y-135211515D01*
X120453500Y-135503871D01*
X120702129Y-135752500D01*
X120994485Y-135947847D01*
X121319335Y-136082404D01*
X121664193Y-136151000D01*
X122015807Y-136151000D01*
X122360665Y-136082404D01*
X122685515Y-135947847D01*
X122977871Y-135752500D01*
X123226500Y-135503871D01*
X123421847Y-135211515D01*
X123556404Y-134886665D01*
X123625000Y-134541807D01*
X123625000Y-134190193D01*
X123556404Y-133845335D01*
X123421847Y-133520485D01*
X123226500Y-133228129D01*
X122977871Y-132979500D01*
X122685515Y-132784153D01*
X122360665Y-132649596D01*
X122015807Y-132581000D01*
X121664193Y-132581000D01*
X121319335Y-132649596D01*
X120994485Y-132784153D01*
X120702129Y-132979500D01*
X120453500Y-133228129D01*
X120258153Y-133520485D01*
X120123596Y-133845335D01*
X120055000Y-134190193D01*
X118478072Y-134190193D01*
X118478072Y-133216000D01*
X118465812Y-133091518D01*
X118429502Y-132971820D01*
X118370537Y-132861506D01*
X118291185Y-132764815D01*
X118194494Y-132685463D01*
X118084180Y-132626498D01*
X117964482Y-132590188D01*
X117840000Y-132577928D01*
X115840000Y-132577928D01*
X115715518Y-132590188D01*
X115595820Y-132626498D01*
X115485506Y-132685463D01*
X115388815Y-132764815D01*
X115309463Y-132861506D01*
X115250498Y-132971820D01*
X115214188Y-133091518D01*
X115201928Y-133216000D01*
X47142000Y-133216000D01*
X47142000Y-127370000D01*
X74661928Y-127370000D01*
X74661928Y-129170000D01*
X74674188Y-129294482D01*
X74710498Y-129414180D01*
X74769463Y-129524494D01*
X74848815Y-129621185D01*
X74945506Y-129700537D01*
X75055820Y-129759502D01*
X75175518Y-129795812D01*
X75300000Y-129808072D01*
X77100000Y-129808072D01*
X77224482Y-129795812D01*
X77344180Y-129759502D01*
X77454494Y-129700537D01*
X77551185Y-129621185D01*
X77630537Y-129524494D01*
X77689502Y-129414180D01*
X77725812Y-129294482D01*
X77738072Y-129170000D01*
X77738072Y-127370000D01*
X77725812Y-127245518D01*
X77689502Y-127125820D01*
X77630537Y-127015506D01*
X77551185Y-126918815D01*
X77454494Y-126839463D01*
X77344180Y-126780498D01*
X77224482Y-126744188D01*
X77100000Y-126731928D01*
X75300000Y-126731928D01*
X75175518Y-126744188D01*
X75055820Y-126780498D01*
X74945506Y-126839463D01*
X74848815Y-126918815D01*
X74769463Y-127015506D01*
X74710498Y-127125820D01*
X74674188Y-127245518D01*
X74661928Y-127370000D01*
X47142000Y-127370000D01*
X47142000Y-122344000D01*
X78271928Y-122344000D01*
X78271928Y-124544000D01*
X78284188Y-124668482D01*
X78320498Y-124788180D01*
X78379463Y-124898494D01*
X78458815Y-124995185D01*
X78555506Y-125074537D01*
X78665820Y-125133502D01*
X78785518Y-125169812D01*
X78910000Y-125182072D01*
X81110000Y-125182072D01*
X81234482Y-125169812D01*
X81354180Y-125133502D01*
X81464494Y-125074537D01*
X81561185Y-124995185D01*
X81627557Y-124914310D01*
X81728169Y-124981537D01*
X81790001Y-125007149D01*
X81790001Y-125131968D01*
X81786324Y-125169300D01*
X81800998Y-125318285D01*
X81844454Y-125461546D01*
X81915026Y-125593576D01*
X81982361Y-125675623D01*
X82010000Y-125709301D01*
X82038998Y-125733099D01*
X83060000Y-126754102D01*
X83060000Y-126931687D01*
X82841495Y-127077688D01*
X82627688Y-127291495D01*
X82459701Y-127542905D01*
X82343989Y-127822257D01*
X82285000Y-128118816D01*
X82285000Y-128421184D01*
X82343989Y-128717743D01*
X82459701Y-128997095D01*
X82627688Y-129248505D01*
X82841495Y-129462312D01*
X83092905Y-129630299D01*
X83372257Y-129746011D01*
X83668816Y-129805000D01*
X83971184Y-129805000D01*
X84267743Y-129746011D01*
X84547095Y-129630299D01*
X84798505Y-129462312D01*
X85012312Y-129248505D01*
X85180299Y-128997095D01*
X85296011Y-128717743D01*
X85355000Y-128421184D01*
X85355000Y-128118816D01*
X85296011Y-127822257D01*
X85180299Y-127542905D01*
X85064768Y-127370000D01*
X89901928Y-127370000D01*
X89901928Y-129170000D01*
X89914188Y-129294482D01*
X89950498Y-129414180D01*
X90009463Y-129524494D01*
X90088815Y-129621185D01*
X90185506Y-129700537D01*
X90295820Y-129759502D01*
X90415518Y-129795812D01*
X90540000Y-129808072D01*
X92340000Y-129808072D01*
X92464482Y-129795812D01*
X92584180Y-129759502D01*
X92694494Y-129700537D01*
X92791185Y-129621185D01*
X92870537Y-129524494D01*
X92929502Y-129414180D01*
X92965812Y-129294482D01*
X92978072Y-129170000D01*
X92978072Y-127370000D01*
X92965812Y-127245518D01*
X92929502Y-127125820D01*
X92870537Y-127015506D01*
X92791185Y-126918815D01*
X92694494Y-126839463D01*
X92584180Y-126780498D01*
X92464482Y-126744188D01*
X92340000Y-126731928D01*
X90540000Y-126731928D01*
X90415518Y-126744188D01*
X90295820Y-126780498D01*
X90185506Y-126839463D01*
X90088815Y-126918815D01*
X90009463Y-127015506D01*
X89950498Y-127125820D01*
X89914188Y-127245518D01*
X89901928Y-127370000D01*
X85064768Y-127370000D01*
X85012312Y-127291495D01*
X84798505Y-127077688D01*
X84580000Y-126931687D01*
X84580000Y-126476622D01*
X84583676Y-126439299D01*
X84580000Y-126401976D01*
X84580000Y-126401967D01*
X84569003Y-126290314D01*
X84525546Y-126147053D01*
X84454974Y-126015024D01*
X84360001Y-125899299D01*
X84331004Y-125875502D01*
X83410920Y-124955419D01*
X83655998Y-124791663D01*
X83897663Y-124549998D01*
X84087537Y-124265831D01*
X84218325Y-123950081D01*
X84285000Y-123614883D01*
X84285000Y-123273117D01*
X84218325Y-122937919D01*
X84087537Y-122622169D01*
X84071388Y-122598000D01*
X93003928Y-122598000D01*
X93003928Y-124798000D01*
X93016188Y-124922482D01*
X93052498Y-125042180D01*
X93111463Y-125152494D01*
X93190815Y-125249185D01*
X93287506Y-125328537D01*
X93397820Y-125387502D01*
X93517518Y-125423812D01*
X93642000Y-125436072D01*
X95842000Y-125436072D01*
X95966482Y-125423812D01*
X96086180Y-125387502D01*
X96196494Y-125328537D01*
X96293185Y-125249185D01*
X96359557Y-125168310D01*
X96460169Y-125235537D01*
X96522001Y-125261148D01*
X96522001Y-126454668D01*
X96518324Y-126492000D01*
X96532998Y-126640985D01*
X96576454Y-126784246D01*
X96647026Y-126916276D01*
X96698750Y-126979301D01*
X96742000Y-127032001D01*
X96770998Y-127055799D01*
X97576269Y-127861070D01*
X97525000Y-128118816D01*
X97525000Y-128421184D01*
X97583989Y-128717743D01*
X97699701Y-128997095D01*
X97867688Y-129248505D01*
X98081495Y-129462312D01*
X98332905Y-129630299D01*
X98612257Y-129746011D01*
X98908816Y-129805000D01*
X99211184Y-129805000D01*
X99507743Y-129746011D01*
X99787095Y-129630299D01*
X100038505Y-129462312D01*
X100252312Y-129248505D01*
X100420299Y-128997095D01*
X100536011Y-128717743D01*
X100595000Y-128421184D01*
X100595000Y-128118816D01*
X100536011Y-127822257D01*
X100420299Y-127542905D01*
X100252312Y-127291495D01*
X100038505Y-127077688D01*
X99787095Y-126909701D01*
X99507743Y-126793989D01*
X99211184Y-126735000D01*
X98908816Y-126735000D01*
X98651070Y-126786269D01*
X98042000Y-126177199D01*
X98042000Y-125261148D01*
X98103831Y-125235537D01*
X98387998Y-125045663D01*
X98629663Y-124803998D01*
X98819537Y-124519831D01*
X98950325Y-124204081D01*
X99017000Y-123868883D01*
X99017000Y-123527117D01*
X98950325Y-123191919D01*
X98819537Y-122876169D01*
X98629663Y-122592002D01*
X98387998Y-122350337D01*
X98103831Y-122160463D01*
X98042000Y-122134852D01*
X98042000Y-118655322D01*
X98045676Y-118617999D01*
X98042000Y-118580676D01*
X98042000Y-118580667D01*
X98031003Y-118469014D01*
X97987546Y-118325753D01*
X97916974Y-118193724D01*
X97822001Y-118077999D01*
X97793004Y-118054202D01*
X97175072Y-117436271D01*
X97175072Y-116598000D01*
X97162812Y-116473518D01*
X97126502Y-116353820D01*
X97067537Y-116243506D01*
X96988185Y-116146815D01*
X96891494Y-116067463D01*
X96781180Y-116008498D01*
X96661482Y-115972188D01*
X96537000Y-115959928D01*
X95487000Y-115959928D01*
X95362518Y-115972188D01*
X95242820Y-116008498D01*
X95178098Y-116043093D01*
X94969400Y-115979785D01*
X94742000Y-115957388D01*
X94514601Y-115979785D01*
X94295941Y-116046115D01*
X94107331Y-116146929D01*
X94048882Y-116105725D01*
X93839337Y-116012728D01*
X93777810Y-116004036D01*
X93599000Y-116129837D01*
X93599000Y-116894891D01*
X93598785Y-116895600D01*
X93582000Y-117066021D01*
X93582000Y-117629978D01*
X93598785Y-117800399D01*
X93599000Y-117801108D01*
X93599000Y-118566163D01*
X93777810Y-118691964D01*
X93839337Y-118683272D01*
X94048882Y-118590275D01*
X94107331Y-118549071D01*
X94295940Y-118649885D01*
X94514600Y-118716215D01*
X94742000Y-118738612D01*
X94969399Y-118716215D01*
X95178098Y-118652907D01*
X95242820Y-118687502D01*
X95362518Y-118723812D01*
X95487000Y-118736072D01*
X96325270Y-118736072D01*
X96522000Y-118932802D01*
X96522001Y-122134851D01*
X96460169Y-122160463D01*
X96359557Y-122227690D01*
X96293185Y-122146815D01*
X96196494Y-122067463D01*
X96086180Y-122008498D01*
X95966482Y-121972188D01*
X95842000Y-121959928D01*
X93642000Y-121959928D01*
X93517518Y-121972188D01*
X93397820Y-122008498D01*
X93287506Y-122067463D01*
X93190815Y-122146815D01*
X93111463Y-122243506D01*
X93052498Y-122353820D01*
X93016188Y-122473518D01*
X93003928Y-122598000D01*
X84071388Y-122598000D01*
X83897663Y-122338002D01*
X83655998Y-122096337D01*
X83371831Y-121906463D01*
X83056081Y-121775675D01*
X82720883Y-121709000D01*
X82379117Y-121709000D01*
X82043919Y-121775675D01*
X81728169Y-121906463D01*
X81627557Y-121973690D01*
X81561185Y-121892815D01*
X81464494Y-121813463D01*
X81354180Y-121754498D01*
X81234482Y-121718188D01*
X81110000Y-121705928D01*
X78910000Y-121705928D01*
X78785518Y-121718188D01*
X78665820Y-121754498D01*
X78555506Y-121813463D01*
X78458815Y-121892815D01*
X78379463Y-121989506D01*
X78320498Y-122099820D01*
X78284188Y-122219518D01*
X78271928Y-122344000D01*
X47142000Y-122344000D01*
X47142000Y-117658507D01*
X78081669Y-117658507D01*
X78120761Y-117884404D01*
X78203172Y-118098334D01*
X78325736Y-118292076D01*
X78483742Y-118458184D01*
X78671118Y-118590275D01*
X78880663Y-118683272D01*
X78942190Y-118691964D01*
X79121000Y-118566163D01*
X79121000Y-117475000D01*
X78241402Y-117475000D01*
X78081669Y-117658507D01*
X47142000Y-117658507D01*
X47142000Y-117037493D01*
X78081669Y-117037493D01*
X78241402Y-117221000D01*
X79121000Y-117221000D01*
X79121000Y-117066021D01*
X79358000Y-117066021D01*
X79358000Y-117629978D01*
X79374785Y-117800399D01*
X79375000Y-117801108D01*
X79375000Y-118566163D01*
X79553810Y-118691964D01*
X79615337Y-118683272D01*
X79824882Y-118590275D01*
X79883331Y-118549071D01*
X80071940Y-118649885D01*
X80290600Y-118716215D01*
X80518000Y-118738612D01*
X80745399Y-118716215D01*
X80954098Y-118652907D01*
X81018820Y-118687502D01*
X81138518Y-118723812D01*
X81263000Y-118736072D01*
X82313000Y-118736072D01*
X82437482Y-118723812D01*
X82557180Y-118687502D01*
X82667494Y-118628537D01*
X82764185Y-118549185D01*
X82843537Y-118452494D01*
X82902502Y-118342180D01*
X82938812Y-118222482D01*
X82951072Y-118098000D01*
X82951072Y-117658507D01*
X92305669Y-117658507D01*
X92344761Y-117884404D01*
X92427172Y-118098334D01*
X92549736Y-118292076D01*
X92707742Y-118458184D01*
X92895118Y-118590275D01*
X93104663Y-118683272D01*
X93166190Y-118691964D01*
X93345000Y-118566163D01*
X93345000Y-117475000D01*
X92465402Y-117475000D01*
X92305669Y-117658507D01*
X82951072Y-117658507D01*
X82951072Y-117037493D01*
X92305669Y-117037493D01*
X92465402Y-117221000D01*
X93345000Y-117221000D01*
X93345000Y-116129837D01*
X93166190Y-116004036D01*
X93104663Y-116012728D01*
X92895118Y-116105725D01*
X92707742Y-116237816D01*
X92549736Y-116403924D01*
X92427172Y-116597666D01*
X92344761Y-116811596D01*
X92305669Y-117037493D01*
X82951072Y-117037493D01*
X82951072Y-116598000D01*
X82938812Y-116473518D01*
X82902502Y-116353820D01*
X82843537Y-116243506D01*
X82764185Y-116146815D01*
X82667494Y-116067463D01*
X82557180Y-116008498D01*
X82437482Y-115972188D01*
X82313000Y-115959928D01*
X81263000Y-115959928D01*
X81138518Y-115972188D01*
X81018820Y-116008498D01*
X80954098Y-116043093D01*
X80745400Y-115979785D01*
X80518000Y-115957388D01*
X80290601Y-115979785D01*
X80071941Y-116046115D01*
X79883331Y-116146929D01*
X79824882Y-116105725D01*
X79615337Y-116012728D01*
X79553810Y-116004036D01*
X79375000Y-116129837D01*
X79375000Y-116894891D01*
X79374785Y-116895600D01*
X79358000Y-117066021D01*
X79121000Y-117066021D01*
X79121000Y-116129837D01*
X78942190Y-116004036D01*
X78880663Y-116012728D01*
X78671118Y-116105725D01*
X78483742Y-116237816D01*
X78325736Y-116403924D01*
X78203172Y-116597666D01*
X78120761Y-116811596D01*
X78081669Y-117037493D01*
X47142000Y-117037493D01*
X47142000Y-96457761D01*
X82348500Y-96457761D01*
X82348500Y-96661639D01*
X82388274Y-96861598D01*
X82466295Y-97049956D01*
X82579563Y-97219474D01*
X82723726Y-97363637D01*
X82893244Y-97476905D01*
X83081602Y-97554926D01*
X83281561Y-97594700D01*
X83485439Y-97594700D01*
X83685398Y-97554926D01*
X83873756Y-97476905D01*
X84043274Y-97363637D01*
X84187437Y-97219474D01*
X84300705Y-97049956D01*
X84378726Y-96861598D01*
X84418500Y-96661639D01*
X84418500Y-96457761D01*
X84378726Y-96257802D01*
X84300705Y-96069444D01*
X84187437Y-95899926D01*
X84143500Y-95855989D01*
X84143500Y-92096601D01*
X88141003Y-88099099D01*
X88170001Y-88075301D01*
X88196332Y-88043217D01*
X88264974Y-87959577D01*
X88324575Y-87848072D01*
X88480000Y-87848072D01*
X88604482Y-87835812D01*
X88724180Y-87799502D01*
X88834494Y-87740537D01*
X88931185Y-87661185D01*
X89010537Y-87564494D01*
X89069502Y-87454180D01*
X89091513Y-87381620D01*
X89170196Y-87460303D01*
X86209203Y-90421296D01*
X86180199Y-90445099D01*
X86125071Y-90512274D01*
X86085226Y-90560824D01*
X86040906Y-90643740D01*
X86014654Y-90692854D01*
X85971197Y-90836115D01*
X85960200Y-90947768D01*
X85960200Y-90947778D01*
X85956524Y-90985100D01*
X85960200Y-91022422D01*
X85960201Y-99079088D01*
X85916263Y-99123026D01*
X85802995Y-99292544D01*
X85724974Y-99480902D01*
X85685200Y-99680861D01*
X85685200Y-99884739D01*
X85724974Y-100084698D01*
X85802995Y-100273056D01*
X85916263Y-100442574D01*
X86060426Y-100586737D01*
X86229944Y-100700005D01*
X86418302Y-100778026D01*
X86618261Y-100817800D01*
X86822139Y-100817800D01*
X87022098Y-100778026D01*
X87210456Y-100700005D01*
X87379974Y-100586737D01*
X87524137Y-100442574D01*
X87637405Y-100273056D01*
X87713034Y-100090473D01*
X87774144Y-100131305D01*
X87962502Y-100209326D01*
X88162461Y-100249100D01*
X88366339Y-100249100D01*
X88566298Y-100209326D01*
X88754656Y-100131305D01*
X88924174Y-100018037D01*
X89068337Y-99873874D01*
X89181605Y-99704356D01*
X89259626Y-99515998D01*
X89299400Y-99316039D01*
X89299400Y-99112161D01*
X89259626Y-98912202D01*
X89249478Y-98887703D01*
X89389256Y-98829805D01*
X89558774Y-98716537D01*
X89602711Y-98672600D01*
X101253301Y-98672600D01*
X101253300Y-102905928D01*
X99988000Y-102905928D01*
X99863518Y-102918188D01*
X99743820Y-102954498D01*
X99633506Y-103013463D01*
X99536815Y-103092815D01*
X99457463Y-103189506D01*
X99398498Y-103299820D01*
X99362188Y-103419518D01*
X99349928Y-103544000D01*
X99349928Y-105244000D01*
X99362188Y-105368482D01*
X99398498Y-105488180D01*
X99457463Y-105598494D01*
X99536815Y-105695185D01*
X99633506Y-105774537D01*
X99743820Y-105833502D01*
X99816380Y-105855513D01*
X99684525Y-105987368D01*
X99522010Y-106230589D01*
X99410068Y-106500842D01*
X99353000Y-106787740D01*
X99353000Y-107080260D01*
X99410068Y-107367158D01*
X99522010Y-107637411D01*
X99684525Y-107880632D01*
X99891368Y-108087475D01*
X100065760Y-108204000D01*
X99891368Y-108320525D01*
X99684525Y-108527368D01*
X99522010Y-108770589D01*
X99410068Y-109040842D01*
X99353000Y-109327740D01*
X99353000Y-109620260D01*
X99410068Y-109907158D01*
X99522010Y-110177411D01*
X99684525Y-110420632D01*
X99891368Y-110627475D01*
X100134589Y-110789990D01*
X100404842Y-110901932D01*
X100691740Y-110959000D01*
X100984260Y-110959000D01*
X101271158Y-110901932D01*
X101541411Y-110789990D01*
X101784632Y-110627475D01*
X101991475Y-110420632D01*
X102109100Y-110244594D01*
X102280412Y-110474269D01*
X102496645Y-110669178D01*
X102746748Y-110818157D01*
X103021109Y-110915481D01*
X103251000Y-110794814D01*
X103251000Y-109601000D01*
X103505000Y-109601000D01*
X103505000Y-110794814D01*
X103734891Y-110915481D01*
X104009252Y-110818157D01*
X104259355Y-110669178D01*
X104475588Y-110474269D01*
X104649641Y-110240920D01*
X104774825Y-109978099D01*
X104819476Y-109830890D01*
X104698155Y-109601000D01*
X103505000Y-109601000D01*
X103251000Y-109601000D01*
X103231000Y-109601000D01*
X103231000Y-109347000D01*
X103251000Y-109347000D01*
X103251000Y-109327000D01*
X103505000Y-109327000D01*
X103505000Y-109347000D01*
X104698155Y-109347000D01*
X104819476Y-109117110D01*
X104774825Y-108969901D01*
X104649641Y-108707080D01*
X104475588Y-108473731D01*
X104259355Y-108278822D01*
X104142466Y-108209195D01*
X104324632Y-108087475D01*
X104531475Y-107880632D01*
X104693990Y-107637411D01*
X104805932Y-107367158D01*
X104863000Y-107080260D01*
X104863000Y-106787740D01*
X104805932Y-106500842D01*
X104693990Y-106230589D01*
X104679130Y-106208349D01*
X110577256Y-106208349D01*
X110691118Y-106488090D01*
X111006296Y-106643961D01*
X111345826Y-106735349D01*
X111696661Y-106758741D01*
X112045319Y-106713240D01*
X112378400Y-106600594D01*
X112588882Y-106488090D01*
X112702744Y-106208349D01*
X111640000Y-105145605D01*
X110577256Y-106208349D01*
X104679130Y-106208349D01*
X104531475Y-105987368D01*
X104324632Y-105780525D01*
X104150240Y-105664000D01*
X104324632Y-105547475D01*
X104531475Y-105340632D01*
X104693990Y-105097411D01*
X104724952Y-105022661D01*
X109847259Y-105022661D01*
X109892760Y-105371319D01*
X110005406Y-105704400D01*
X110117910Y-105914882D01*
X110397651Y-106028744D01*
X111460395Y-104966000D01*
X111819605Y-104966000D01*
X112882349Y-106028744D01*
X113162090Y-105914882D01*
X113317961Y-105599704D01*
X113409349Y-105260174D01*
X113432741Y-104909339D01*
X113417193Y-104790193D01*
X125255000Y-104790193D01*
X125255000Y-105141807D01*
X125323596Y-105486665D01*
X125458153Y-105811515D01*
X125653500Y-106103871D01*
X125902129Y-106352500D01*
X126194485Y-106547847D01*
X126519335Y-106682404D01*
X126864193Y-106751000D01*
X127215807Y-106751000D01*
X127560665Y-106682404D01*
X127885515Y-106547847D01*
X128177871Y-106352500D01*
X128426500Y-106103871D01*
X128621847Y-105811515D01*
X128756404Y-105486665D01*
X128825000Y-105141807D01*
X128825000Y-104790193D01*
X128756404Y-104445335D01*
X128621847Y-104120485D01*
X128426500Y-103828129D01*
X128177871Y-103579500D01*
X127885515Y-103384153D01*
X127560665Y-103249596D01*
X127215807Y-103181000D01*
X126864193Y-103181000D01*
X126519335Y-103249596D01*
X126194485Y-103384153D01*
X125902129Y-103579500D01*
X125653500Y-103828129D01*
X125458153Y-104120485D01*
X125323596Y-104445335D01*
X125255000Y-104790193D01*
X113417193Y-104790193D01*
X113387240Y-104560681D01*
X113274594Y-104227600D01*
X113162090Y-104017118D01*
X112882349Y-103903256D01*
X111819605Y-104966000D01*
X111460395Y-104966000D01*
X110397651Y-103903256D01*
X110117910Y-104017118D01*
X109962039Y-104332296D01*
X109870651Y-104671826D01*
X109847259Y-105022661D01*
X104724952Y-105022661D01*
X104805932Y-104827158D01*
X104863000Y-104540260D01*
X104863000Y-104247740D01*
X104805932Y-103960842D01*
X104707685Y-103723651D01*
X110577256Y-103723651D01*
X111640000Y-104786395D01*
X112702744Y-103723651D01*
X112588882Y-103443910D01*
X112273704Y-103288039D01*
X111934174Y-103196651D01*
X111583339Y-103173259D01*
X111234681Y-103218760D01*
X110901600Y-103331406D01*
X110691118Y-103443910D01*
X110577256Y-103723651D01*
X104707685Y-103723651D01*
X104693990Y-103690589D01*
X104531475Y-103447368D01*
X104324632Y-103240525D01*
X104081411Y-103078010D01*
X103811158Y-102966068D01*
X103524260Y-102909000D01*
X103231740Y-102909000D01*
X102944842Y-102966068D01*
X102773300Y-103037123D01*
X102773300Y-100639764D01*
X117439841Y-100639764D01*
X117487148Y-100863348D01*
X117708516Y-100964237D01*
X117945313Y-101020000D01*
X118188438Y-101028495D01*
X118428549Y-100989395D01*
X118656418Y-100904202D01*
X118732852Y-100863348D01*
X118780159Y-100639764D01*
X118110000Y-99969605D01*
X117439841Y-100639764D01*
X102773300Y-100639764D01*
X102773300Y-99868438D01*
X116871505Y-99868438D01*
X116910605Y-100108549D01*
X116995798Y-100336418D01*
X117036652Y-100412852D01*
X117260236Y-100460159D01*
X117930395Y-99790000D01*
X117916253Y-99775858D01*
X118095858Y-99596253D01*
X118110000Y-99610395D01*
X118124143Y-99596253D01*
X118303748Y-99775858D01*
X118289605Y-99790000D01*
X118959764Y-100460159D01*
X119183348Y-100412852D01*
X119284237Y-100191484D01*
X119340000Y-99954687D01*
X119348495Y-99711562D01*
X119309395Y-99471451D01*
X119224202Y-99243582D01*
X119183348Y-99167148D01*
X118959766Y-99119842D01*
X119076872Y-99002736D01*
X119018994Y-98944858D01*
X119064494Y-98920537D01*
X119161185Y-98841185D01*
X119240537Y-98744494D01*
X119288432Y-98654890D01*
X126066524Y-98654890D01*
X126111175Y-98802099D01*
X126236359Y-99064920D01*
X126410412Y-99298269D01*
X126626645Y-99493178D01*
X126876748Y-99642157D01*
X127151109Y-99739481D01*
X127381000Y-99618814D01*
X127381000Y-98425000D01*
X127635000Y-98425000D01*
X127635000Y-99618814D01*
X127864891Y-99739481D01*
X128139252Y-99642157D01*
X128389355Y-99493178D01*
X128605588Y-99298269D01*
X128779641Y-99064920D01*
X128904825Y-98802099D01*
X128949476Y-98654890D01*
X128828155Y-98425000D01*
X127635000Y-98425000D01*
X127381000Y-98425000D01*
X126187845Y-98425000D01*
X126066524Y-98654890D01*
X119288432Y-98654890D01*
X119299502Y-98634180D01*
X119335812Y-98514482D01*
X119348072Y-98390000D01*
X119348072Y-97190000D01*
X119335812Y-97065518D01*
X119299502Y-96945820D01*
X119240537Y-96835506D01*
X119161185Y-96738815D01*
X119064494Y-96659463D01*
X118954180Y-96600498D01*
X118834482Y-96564188D01*
X118710000Y-96551928D01*
X117510000Y-96551928D01*
X117385518Y-96564188D01*
X117265820Y-96600498D01*
X117155506Y-96659463D01*
X117058815Y-96738815D01*
X116979463Y-96835506D01*
X116920498Y-96945820D01*
X116884188Y-97065518D01*
X116871928Y-97190000D01*
X116871928Y-98390000D01*
X116884188Y-98514482D01*
X116920498Y-98634180D01*
X116979463Y-98744494D01*
X117058815Y-98841185D01*
X117155506Y-98920537D01*
X117201006Y-98944858D01*
X117143128Y-99002736D01*
X117260234Y-99119842D01*
X117036652Y-99167148D01*
X116935763Y-99388516D01*
X116880000Y-99625313D01*
X116871505Y-99868438D01*
X102773300Y-99868438D01*
X102773300Y-97949932D01*
X102776977Y-97912600D01*
X102773300Y-97875267D01*
X102773300Y-94908000D01*
X126019928Y-94908000D01*
X126019928Y-96608000D01*
X126032188Y-96732482D01*
X126068498Y-96852180D01*
X126127463Y-96962494D01*
X126206815Y-97059185D01*
X126303506Y-97138537D01*
X126413820Y-97197502D01*
X126494466Y-97221966D01*
X126410412Y-97297731D01*
X126236359Y-97531080D01*
X126111175Y-97793901D01*
X126066524Y-97941110D01*
X126187845Y-98171000D01*
X127381000Y-98171000D01*
X127381000Y-98151000D01*
X127635000Y-98151000D01*
X127635000Y-98171000D01*
X128828155Y-98171000D01*
X128949476Y-97941110D01*
X128904825Y-97793901D01*
X128779641Y-97531080D01*
X128605588Y-97297731D01*
X128521534Y-97221966D01*
X128602180Y-97197502D01*
X128712494Y-97138537D01*
X128809185Y-97059185D01*
X128888537Y-96962494D01*
X128947502Y-96852180D01*
X128983812Y-96732482D01*
X128996072Y-96608000D01*
X128996072Y-94908000D01*
X128983812Y-94783518D01*
X128947502Y-94663820D01*
X128888537Y-94553506D01*
X128809185Y-94456815D01*
X128712494Y-94377463D01*
X128602180Y-94318498D01*
X128482482Y-94282188D01*
X128358000Y-94269928D01*
X126658000Y-94269928D01*
X126533518Y-94282188D01*
X126413820Y-94318498D01*
X126303506Y-94377463D01*
X126206815Y-94456815D01*
X126127463Y-94553506D01*
X126068498Y-94663820D01*
X126032188Y-94783518D01*
X126019928Y-94908000D01*
X102773300Y-94908000D01*
X102773300Y-94353413D01*
X105574192Y-94353413D01*
X105669956Y-94617814D01*
X105959571Y-94758704D01*
X106271108Y-94840384D01*
X106592595Y-94859718D01*
X106911675Y-94815961D01*
X107216088Y-94710795D01*
X107390044Y-94617814D01*
X107485808Y-94353413D01*
X112074192Y-94353413D01*
X112169956Y-94617814D01*
X112459571Y-94758704D01*
X112771108Y-94840384D01*
X113092595Y-94859718D01*
X113411675Y-94815961D01*
X113716088Y-94710795D01*
X113890044Y-94617814D01*
X113985808Y-94353413D01*
X113030000Y-93397605D01*
X112074192Y-94353413D01*
X107485808Y-94353413D01*
X106530000Y-93397605D01*
X105574192Y-94353413D01*
X102773300Y-94353413D01*
X102773300Y-93549501D01*
X103042206Y-93280595D01*
X104888282Y-93280595D01*
X104932039Y-93599675D01*
X105037205Y-93904088D01*
X105130186Y-94078044D01*
X105394587Y-94173808D01*
X106350395Y-93218000D01*
X106709605Y-93218000D01*
X107665413Y-94173808D01*
X107929814Y-94078044D01*
X108070704Y-93788429D01*
X108152384Y-93476892D01*
X108164189Y-93280595D01*
X111388282Y-93280595D01*
X111432039Y-93599675D01*
X111537205Y-93904088D01*
X111630186Y-94078044D01*
X111894587Y-94173808D01*
X112850395Y-93218000D01*
X113209605Y-93218000D01*
X114165413Y-94173808D01*
X114429814Y-94078044D01*
X114570704Y-93788429D01*
X114652384Y-93476892D01*
X114671718Y-93155405D01*
X114627961Y-92836325D01*
X114522795Y-92531912D01*
X114429814Y-92357956D01*
X114165413Y-92262192D01*
X113209605Y-93218000D01*
X112850395Y-93218000D01*
X111894587Y-92262192D01*
X111630186Y-92357956D01*
X111489296Y-92647571D01*
X111407616Y-92959108D01*
X111388282Y-93280595D01*
X108164189Y-93280595D01*
X108171718Y-93155405D01*
X108127961Y-92836325D01*
X108022795Y-92531912D01*
X107929814Y-92357956D01*
X107665413Y-92262192D01*
X106709605Y-93218000D01*
X106350395Y-93218000D01*
X105394587Y-92262192D01*
X105130186Y-92357956D01*
X104989296Y-92647571D01*
X104907616Y-92959108D01*
X104888282Y-93280595D01*
X103042206Y-93280595D01*
X104240214Y-92082587D01*
X105574192Y-92082587D01*
X106530000Y-93038395D01*
X107485808Y-92082587D01*
X112074192Y-92082587D01*
X113030000Y-93038395D01*
X113985808Y-92082587D01*
X113890044Y-91818186D01*
X113600429Y-91677296D01*
X113288892Y-91595616D01*
X112967405Y-91576282D01*
X112648325Y-91620039D01*
X112343912Y-91725205D01*
X112169956Y-91818186D01*
X112074192Y-92082587D01*
X107485808Y-92082587D01*
X107390044Y-91818186D01*
X107100429Y-91677296D01*
X106788892Y-91595616D01*
X106467405Y-91576282D01*
X106148325Y-91620039D01*
X105843912Y-91725205D01*
X105669956Y-91818186D01*
X105574192Y-92082587D01*
X104240214Y-92082587D01*
X106038625Y-90284177D01*
X106053088Y-90290168D01*
X106368967Y-90353000D01*
X106691033Y-90353000D01*
X107006912Y-90290168D01*
X107304463Y-90166918D01*
X107572252Y-89987987D01*
X107799987Y-89760252D01*
X107978918Y-89492463D01*
X108102168Y-89194912D01*
X108165000Y-88879033D01*
X108165000Y-88556967D01*
X111395000Y-88556967D01*
X111395000Y-88879033D01*
X111457832Y-89194912D01*
X111581082Y-89492463D01*
X111760013Y-89760252D01*
X111987748Y-89987987D01*
X112255537Y-90166918D01*
X112553088Y-90290168D01*
X112868967Y-90353000D01*
X113191033Y-90353000D01*
X113506912Y-90290168D01*
X113804463Y-90166918D01*
X114072252Y-89987987D01*
X114299987Y-89760252D01*
X114478918Y-89492463D01*
X114602168Y-89194912D01*
X114665000Y-88879033D01*
X114665000Y-88556967D01*
X114602168Y-88241088D01*
X114478918Y-87943537D01*
X114299987Y-87675748D01*
X114288111Y-87663872D01*
X125527000Y-87663872D01*
X125527000Y-88104128D01*
X125612890Y-88535925D01*
X125781369Y-88942669D01*
X126025962Y-89308729D01*
X126337271Y-89620038D01*
X126703331Y-89864631D01*
X127110075Y-90033110D01*
X127541872Y-90119000D01*
X127982128Y-90119000D01*
X128413925Y-90033110D01*
X128820669Y-89864631D01*
X129186729Y-89620038D01*
X129498038Y-89308729D01*
X129742631Y-88942669D01*
X129911110Y-88535925D01*
X129997000Y-88104128D01*
X129997000Y-87663872D01*
X129911110Y-87232075D01*
X129742631Y-86825331D01*
X129498038Y-86459271D01*
X129186729Y-86147962D01*
X128820669Y-85903369D01*
X128413925Y-85734890D01*
X127982128Y-85649000D01*
X127541872Y-85649000D01*
X127110075Y-85734890D01*
X126703331Y-85903369D01*
X126337271Y-86147962D01*
X126025962Y-86459271D01*
X125781369Y-86825331D01*
X125612890Y-87232075D01*
X125527000Y-87663872D01*
X114288111Y-87663872D01*
X114072252Y-87448013D01*
X113804463Y-87269082D01*
X113506912Y-87145832D01*
X113191033Y-87083000D01*
X112868967Y-87083000D01*
X112553088Y-87145832D01*
X112255537Y-87269082D01*
X111987748Y-87448013D01*
X111760013Y-87675748D01*
X111581082Y-87943537D01*
X111457832Y-88241088D01*
X111395000Y-88556967D01*
X108165000Y-88556967D01*
X108102168Y-88241088D01*
X107978918Y-87943537D01*
X107799987Y-87675748D01*
X107572252Y-87448013D01*
X107304463Y-87269082D01*
X107006912Y-87145832D01*
X106691033Y-87083000D01*
X106368967Y-87083000D01*
X106053088Y-87145832D01*
X105755537Y-87269082D01*
X105487748Y-87448013D01*
X105260013Y-87675748D01*
X105081082Y-87943537D01*
X104957832Y-88241088D01*
X104895000Y-88556967D01*
X104895000Y-88879033D01*
X104957832Y-89194912D01*
X104963823Y-89209375D01*
X101502298Y-92670901D01*
X101473300Y-92694699D01*
X101449502Y-92723697D01*
X101449501Y-92723698D01*
X101378326Y-92810424D01*
X101307754Y-92942454D01*
X101264298Y-93085715D01*
X101249624Y-93234700D01*
X101253301Y-93272032D01*
X101253300Y-97152600D01*
X89602711Y-97152600D01*
X89558774Y-97108663D01*
X89389256Y-96995395D01*
X89200898Y-96917374D01*
X89000939Y-96877600D01*
X88933700Y-96877600D01*
X88933700Y-92386401D01*
X93221003Y-88099099D01*
X93250001Y-88075301D01*
X93276332Y-88043217D01*
X93344974Y-87959577D01*
X93415546Y-87827547D01*
X93427563Y-87787932D01*
X93459003Y-87684286D01*
X93463089Y-87642796D01*
X93656632Y-87513475D01*
X93863475Y-87306632D01*
X93980000Y-87132240D01*
X94096525Y-87306632D01*
X94303368Y-87513475D01*
X94546589Y-87675990D01*
X94816842Y-87787932D01*
X95103740Y-87845000D01*
X95396260Y-87845000D01*
X95683158Y-87787932D01*
X95953411Y-87675990D01*
X96196632Y-87513475D01*
X96403475Y-87306632D01*
X96525195Y-87124466D01*
X96594822Y-87241355D01*
X96789731Y-87457588D01*
X97023080Y-87631641D01*
X97285901Y-87756825D01*
X97433110Y-87801476D01*
X97663000Y-87680155D01*
X97663000Y-86487000D01*
X97917000Y-86487000D01*
X97917000Y-87680155D01*
X98146890Y-87801476D01*
X98294099Y-87756825D01*
X98556920Y-87631641D01*
X98790269Y-87457588D01*
X98985178Y-87241355D01*
X99134157Y-86991252D01*
X99231481Y-86716891D01*
X99110814Y-86487000D01*
X97917000Y-86487000D01*
X97663000Y-86487000D01*
X97643000Y-86487000D01*
X97643000Y-86233000D01*
X97663000Y-86233000D01*
X97663000Y-85039845D01*
X97917000Y-85039845D01*
X97917000Y-86233000D01*
X99110814Y-86233000D01*
X99231481Y-86003109D01*
X99134157Y-85728748D01*
X98985178Y-85478645D01*
X98790269Y-85262412D01*
X98556920Y-85088359D01*
X98294099Y-84963175D01*
X98146890Y-84918524D01*
X97917000Y-85039845D01*
X97663000Y-85039845D01*
X97433110Y-84918524D01*
X97285901Y-84963175D01*
X97023080Y-85088359D01*
X96789731Y-85262412D01*
X96594822Y-85478645D01*
X96525195Y-85595534D01*
X96403475Y-85413368D01*
X96196632Y-85206525D01*
X95953411Y-85044010D01*
X95683158Y-84932068D01*
X95396260Y-84875000D01*
X95103740Y-84875000D01*
X94816842Y-84932068D01*
X94546589Y-85044010D01*
X94303368Y-85206525D01*
X94096525Y-85413368D01*
X93980000Y-85587760D01*
X93863475Y-85413368D01*
X93656632Y-85206525D01*
X93413411Y-85044010D01*
X93143158Y-84932068D01*
X92856260Y-84875000D01*
X92563740Y-84875000D01*
X92276842Y-84932068D01*
X92006589Y-85044010D01*
X91763368Y-85206525D01*
X91556525Y-85413368D01*
X91440000Y-85587760D01*
X91323475Y-85413368D01*
X91116632Y-85206525D01*
X90873411Y-85044010D01*
X90603158Y-84932068D01*
X90316260Y-84875000D01*
X90023740Y-84875000D01*
X89736842Y-84932068D01*
X89466589Y-85044010D01*
X89223368Y-85206525D01*
X89091513Y-85338380D01*
X89069502Y-85265820D01*
X89010537Y-85155506D01*
X88931185Y-85058815D01*
X88834494Y-84979463D01*
X88724180Y-84920498D01*
X88604482Y-84884188D01*
X88480000Y-84871928D01*
X86780000Y-84871928D01*
X86655518Y-84884188D01*
X86535820Y-84920498D01*
X86425506Y-84979463D01*
X86328815Y-85058815D01*
X86249463Y-85155506D01*
X86190498Y-85265820D01*
X86154188Y-85385518D01*
X86141928Y-85510000D01*
X86141928Y-87210000D01*
X86154188Y-87334482D01*
X86190498Y-87454180D01*
X86249463Y-87564494D01*
X86328815Y-87661185D01*
X86384013Y-87706485D01*
X82872503Y-91217996D01*
X82843499Y-91241799D01*
X82814327Y-91277346D01*
X82748526Y-91357524D01*
X82706245Y-91436626D01*
X82677954Y-91489554D01*
X82634497Y-91632815D01*
X82623500Y-91744468D01*
X82623500Y-91744478D01*
X82619824Y-91781800D01*
X82623500Y-91819123D01*
X82623501Y-95855988D01*
X82579563Y-95899926D01*
X82466295Y-96069444D01*
X82388274Y-96257802D01*
X82348500Y-96457761D01*
X47142000Y-96457761D01*
X47142000Y-93686890D01*
X63973524Y-93686890D01*
X64018175Y-93834099D01*
X64143359Y-94096920D01*
X64317412Y-94330269D01*
X64533645Y-94525178D01*
X64783748Y-94674157D01*
X65058109Y-94771481D01*
X65288000Y-94650814D01*
X65288000Y-93457000D01*
X65542000Y-93457000D01*
X65542000Y-94650814D01*
X65771891Y-94771481D01*
X66046252Y-94674157D01*
X66296355Y-94525178D01*
X66512588Y-94330269D01*
X66686641Y-94096920D01*
X66811825Y-93834099D01*
X66856476Y-93686890D01*
X66735155Y-93457000D01*
X65542000Y-93457000D01*
X65288000Y-93457000D01*
X64094845Y-93457000D01*
X63973524Y-93686890D01*
X47142000Y-93686890D01*
X47142000Y-87663872D01*
X49327000Y-87663872D01*
X49327000Y-88104128D01*
X49412890Y-88535925D01*
X49581369Y-88942669D01*
X49825962Y-89308729D01*
X50137271Y-89620038D01*
X50503331Y-89864631D01*
X50910075Y-90033110D01*
X51341872Y-90119000D01*
X51782128Y-90119000D01*
X52213925Y-90033110D01*
X52620669Y-89864631D01*
X52986729Y-89620038D01*
X53298038Y-89308729D01*
X53542631Y-88942669D01*
X53711110Y-88535925D01*
X53797000Y-88104128D01*
X53797000Y-87663872D01*
X53711110Y-87232075D01*
X53542631Y-86825331D01*
X53298038Y-86459271D01*
X52986729Y-86147962D01*
X52620669Y-85903369D01*
X52213925Y-85734890D01*
X51782128Y-85649000D01*
X51341872Y-85649000D01*
X50910075Y-85734890D01*
X50503331Y-85903369D01*
X50137271Y-86147962D01*
X49825962Y-86459271D01*
X49581369Y-86825331D01*
X49412890Y-87232075D01*
X49327000Y-87663872D01*
X47142000Y-87663872D01*
X47142000Y-84860000D01*
X63926928Y-84860000D01*
X63926928Y-86560000D01*
X63939188Y-86684482D01*
X63975498Y-86804180D01*
X64034463Y-86914494D01*
X64113815Y-87011185D01*
X64210506Y-87090537D01*
X64320820Y-87149502D01*
X64393380Y-87171513D01*
X64261525Y-87303368D01*
X64099010Y-87546589D01*
X63987068Y-87816842D01*
X63930000Y-88103740D01*
X63930000Y-88396260D01*
X63987068Y-88683158D01*
X64099010Y-88953411D01*
X64261525Y-89196632D01*
X64468368Y-89403475D01*
X64642760Y-89520000D01*
X64468368Y-89636525D01*
X64261525Y-89843368D01*
X64099010Y-90086589D01*
X63987068Y-90356842D01*
X63930000Y-90643740D01*
X63930000Y-90936260D01*
X63987068Y-91223158D01*
X64099010Y-91493411D01*
X64261525Y-91736632D01*
X64468368Y-91943475D01*
X64650534Y-92065195D01*
X64533645Y-92134822D01*
X64317412Y-92329731D01*
X64143359Y-92563080D01*
X64018175Y-92825901D01*
X63973524Y-92973110D01*
X64094845Y-93203000D01*
X65288000Y-93203000D01*
X65288000Y-93183000D01*
X65542000Y-93183000D01*
X65542000Y-93203000D01*
X66735155Y-93203000D01*
X66856476Y-92973110D01*
X66811825Y-92825901D01*
X66686641Y-92563080D01*
X66512588Y-92329731D01*
X66296355Y-92134822D01*
X66179466Y-92065195D01*
X66361632Y-91943475D01*
X66568475Y-91736632D01*
X66730990Y-91493411D01*
X66842932Y-91223158D01*
X66900000Y-90936260D01*
X66900000Y-90643740D01*
X66842932Y-90356842D01*
X66730990Y-90086589D01*
X66568475Y-89843368D01*
X66361632Y-89636525D01*
X66187240Y-89520000D01*
X66361632Y-89403475D01*
X66568475Y-89196632D01*
X66730990Y-88953411D01*
X66842932Y-88683158D01*
X66900000Y-88396260D01*
X66900000Y-88103740D01*
X66842932Y-87816842D01*
X66730990Y-87546589D01*
X66568475Y-87303368D01*
X66436620Y-87171513D01*
X66509180Y-87149502D01*
X66619494Y-87090537D01*
X66716185Y-87011185D01*
X66795537Y-86914494D01*
X66854502Y-86804180D01*
X66890812Y-86684482D01*
X66903072Y-86560000D01*
X66903072Y-84860000D01*
X66890812Y-84735518D01*
X66854502Y-84615820D01*
X66795537Y-84505506D01*
X66716185Y-84408815D01*
X66619494Y-84329463D01*
X66509180Y-84270498D01*
X66389482Y-84234188D01*
X66265000Y-84221928D01*
X64565000Y-84221928D01*
X64440518Y-84234188D01*
X64320820Y-84270498D01*
X64210506Y-84329463D01*
X64113815Y-84408815D01*
X64034463Y-84505506D01*
X63975498Y-84615820D01*
X63939188Y-84735518D01*
X63926928Y-84860000D01*
X47142000Y-84860000D01*
X47142000Y-84201000D01*
X131674001Y-84201000D01*
X131674000Y-158877455D01*
%TA.AperFunction,Conductor*%
D30*
G36*
X131674000Y-158877455D02*
G01*
X47142000Y-159130545D01*
X47142000Y-155481872D01*
X49327000Y-155481872D01*
X49327000Y-155922128D01*
X49412890Y-156353925D01*
X49581369Y-156760669D01*
X49825962Y-157126729D01*
X50137271Y-157438038D01*
X50503331Y-157682631D01*
X50910075Y-157851110D01*
X51341872Y-157937000D01*
X51782128Y-157937000D01*
X52213925Y-157851110D01*
X52620669Y-157682631D01*
X52986729Y-157438038D01*
X53298038Y-157126729D01*
X53542631Y-156760669D01*
X53711110Y-156353925D01*
X53797000Y-155922128D01*
X53797000Y-155481872D01*
X53711110Y-155050075D01*
X53542631Y-154643331D01*
X53298038Y-154277271D01*
X52986729Y-153965962D01*
X52620669Y-153721369D01*
X52213925Y-153552890D01*
X51782128Y-153467000D01*
X51341872Y-153467000D01*
X50910075Y-153552890D01*
X50503331Y-153721369D01*
X50137271Y-153965962D01*
X49825962Y-154277271D01*
X49581369Y-154643331D01*
X49412890Y-155050075D01*
X49327000Y-155481872D01*
X47142000Y-155481872D01*
X47142000Y-151916000D01*
X56281928Y-151916000D01*
X56281928Y-154916000D01*
X56294188Y-155040482D01*
X56330498Y-155160180D01*
X56389463Y-155270494D01*
X56468815Y-155367185D01*
X56565506Y-155446537D01*
X56675820Y-155505502D01*
X56795518Y-155541812D01*
X56920000Y-155554072D01*
X59920000Y-155554072D01*
X60044482Y-155541812D01*
X60164180Y-155505502D01*
X60274494Y-155446537D01*
X60371185Y-155367185D01*
X60450537Y-155270494D01*
X60509502Y-155160180D01*
X60545812Y-155040482D01*
X60558072Y-154916000D01*
X60558072Y-153205721D01*
X61365000Y-153205721D01*
X61365000Y-153626279D01*
X61447047Y-154038756D01*
X61607988Y-154427302D01*
X61841637Y-154776983D01*
X62139017Y-155074363D01*
X62488698Y-155308012D01*
X62877244Y-155468953D01*
X63289721Y-155551000D01*
X63710279Y-155551000D01*
X64122756Y-155468953D01*
X64511302Y-155308012D01*
X64860983Y-155074363D01*
X65027693Y-154907653D01*
X67267952Y-154907653D01*
X67423962Y-155223214D01*
X67798745Y-155414020D01*
X68203551Y-155528044D01*
X68622824Y-155560902D01*
X69040451Y-155511334D01*
X69440383Y-155381243D01*
X69736038Y-155223214D01*
X69892048Y-154907653D01*
X68580000Y-153595605D01*
X67267952Y-154907653D01*
X65027693Y-154907653D01*
X65158363Y-154776983D01*
X65392012Y-154427302D01*
X65552953Y-154038756D01*
X65635000Y-153626279D01*
X65635000Y-153458824D01*
X66435098Y-153458824D01*
X66484666Y-153876451D01*
X66614757Y-154276383D01*
X66772786Y-154572038D01*
X67088347Y-154728048D01*
X68400395Y-153416000D01*
X68759605Y-153416000D01*
X70071653Y-154728048D01*
X70387214Y-154572038D01*
X70578020Y-154197255D01*
X70692044Y-153792449D01*
X70724902Y-153373176D01*
X70675334Y-152955549D01*
X70545243Y-152555617D01*
X70387214Y-152259962D01*
X70071653Y-152103952D01*
X68759605Y-153416000D01*
X68400395Y-153416000D01*
X67088347Y-152103952D01*
X66772786Y-152259962D01*
X66581980Y-152634745D01*
X66467956Y-153039551D01*
X66435098Y-153458824D01*
X65635000Y-153458824D01*
X65635000Y-153205721D01*
X65552953Y-152793244D01*
X65392012Y-152404698D01*
X65158363Y-152055017D01*
X65027693Y-151924347D01*
X67267952Y-151924347D01*
X68580000Y-153236395D01*
X69892048Y-151924347D01*
X69887922Y-151916000D01*
X72791928Y-151916000D01*
X72791928Y-154916000D01*
X72804188Y-155040482D01*
X72840498Y-155160180D01*
X72899463Y-155270494D01*
X72978815Y-155367185D01*
X73075506Y-155446537D01*
X73185820Y-155505502D01*
X73305518Y-155541812D01*
X73430000Y-155554072D01*
X76430000Y-155554072D01*
X76554482Y-155541812D01*
X76674180Y-155505502D01*
X76784494Y-155446537D01*
X76881185Y-155367185D01*
X76960537Y-155270494D01*
X77019502Y-155160180D01*
X77055812Y-155040482D01*
X77068072Y-154916000D01*
X77068072Y-153205721D01*
X77875000Y-153205721D01*
X77875000Y-153626279D01*
X77957047Y-154038756D01*
X78117988Y-154427302D01*
X78351637Y-154776983D01*
X78649017Y-155074363D01*
X78998698Y-155308012D01*
X79387244Y-155468953D01*
X79799721Y-155551000D01*
X80220279Y-155551000D01*
X80632756Y-155468953D01*
X81021302Y-155308012D01*
X81370983Y-155074363D01*
X81668363Y-154776983D01*
X81902012Y-154427302D01*
X82062953Y-154038756D01*
X82145000Y-153626279D01*
X82145000Y-153205721D01*
X82955000Y-153205721D01*
X82955000Y-153626279D01*
X83037047Y-154038756D01*
X83197988Y-154427302D01*
X83431637Y-154776983D01*
X83729017Y-155074363D01*
X84078698Y-155308012D01*
X84467244Y-155468953D01*
X84879721Y-155551000D01*
X85300279Y-155551000D01*
X85712756Y-155468953D01*
X86101302Y-155308012D01*
X86450983Y-155074363D01*
X86748363Y-154776983D01*
X86982012Y-154427302D01*
X87142953Y-154038756D01*
X87225000Y-153626279D01*
X87225000Y-153205721D01*
X87142953Y-152793244D01*
X86982012Y-152404698D01*
X86748363Y-152055017D01*
X86450983Y-151757637D01*
X86101302Y-151523988D01*
X85712756Y-151363047D01*
X85300279Y-151281000D01*
X84879721Y-151281000D01*
X84467244Y-151363047D01*
X84078698Y-151523988D01*
X83729017Y-151757637D01*
X83431637Y-152055017D01*
X83197988Y-152404698D01*
X83037047Y-152793244D01*
X82955000Y-153205721D01*
X82145000Y-153205721D01*
X82062953Y-152793244D01*
X81902012Y-152404698D01*
X81668363Y-152055017D01*
X81370983Y-151757637D01*
X81021302Y-151523988D01*
X80632756Y-151363047D01*
X80220279Y-151281000D01*
X79799721Y-151281000D01*
X79387244Y-151363047D01*
X78998698Y-151523988D01*
X78649017Y-151757637D01*
X78351637Y-152055017D01*
X78117988Y-152404698D01*
X77957047Y-152793244D01*
X77875000Y-153205721D01*
X77068072Y-153205721D01*
X77068072Y-151916000D01*
X77055812Y-151791518D01*
X77019502Y-151671820D01*
X76960537Y-151561506D01*
X76881185Y-151464815D01*
X76784494Y-151385463D01*
X76674180Y-151326498D01*
X76554482Y-151290188D01*
X76488581Y-151283698D01*
X76795050Y-150977229D01*
X76828817Y-150949517D01*
X76939411Y-150814759D01*
X77021589Y-150661013D01*
X77072195Y-150494190D01*
X77085000Y-150364177D01*
X77085000Y-150364167D01*
X77089281Y-150320701D01*
X77085000Y-150277235D01*
X77085000Y-147545329D01*
X77305998Y-147397663D01*
X77547663Y-147155998D01*
X77737537Y-146871831D01*
X77868325Y-146556081D01*
X77935000Y-146220883D01*
X77935000Y-145879117D01*
X89705000Y-145879117D01*
X89705000Y-146220883D01*
X89771675Y-146556081D01*
X89902463Y-146871831D01*
X90092337Y-147155998D01*
X90334002Y-147397663D01*
X90555001Y-147545329D01*
X90555000Y-150531231D01*
X90550719Y-150574700D01*
X90555000Y-150618169D01*
X90555000Y-150618176D01*
X90567805Y-150748189D01*
X90618411Y-150915012D01*
X90700589Y-151068758D01*
X90811183Y-151203517D01*
X90844956Y-151231234D01*
X90897419Y-151283697D01*
X90831518Y-151290188D01*
X90711820Y-151326498D01*
X90601506Y-151385463D01*
X90504815Y-151464815D01*
X90425463Y-151561506D01*
X90366498Y-151671820D01*
X90330188Y-151791518D01*
X90317928Y-151916000D01*
X90317928Y-154916000D01*
X90330188Y-155040482D01*
X90366498Y-155160180D01*
X90425463Y-155270494D01*
X90504815Y-155367185D01*
X90601506Y-155446537D01*
X90711820Y-155505502D01*
X90831518Y-155541812D01*
X90956000Y-155554072D01*
X93956000Y-155554072D01*
X94080482Y-155541812D01*
X94200180Y-155505502D01*
X94310494Y-155446537D01*
X94407185Y-155367185D01*
X94486537Y-155270494D01*
X94545502Y-155160180D01*
X94581812Y-155040482D01*
X94594072Y-154916000D01*
X94594072Y-153205721D01*
X95401000Y-153205721D01*
X95401000Y-153626279D01*
X95483047Y-154038756D01*
X95643988Y-154427302D01*
X95877637Y-154776983D01*
X96175017Y-155074363D01*
X96524698Y-155308012D01*
X96913244Y-155468953D01*
X97325721Y-155551000D01*
X97746279Y-155551000D01*
X98158756Y-155468953D01*
X98547302Y-155308012D01*
X98896983Y-155074363D01*
X99194363Y-154776983D01*
X99428012Y-154427302D01*
X99588953Y-154038756D01*
X99671000Y-153626279D01*
X99671000Y-153205721D01*
X99588953Y-152793244D01*
X99428012Y-152404698D01*
X99194363Y-152055017D01*
X99055346Y-151916000D01*
X108605928Y-151916000D01*
X108605928Y-154916000D01*
X108618188Y-155040482D01*
X108654498Y-155160180D01*
X108713463Y-155270494D01*
X108792815Y-155367185D01*
X108889506Y-155446537D01*
X108999820Y-155505502D01*
X109119518Y-155541812D01*
X109244000Y-155554072D01*
X112244000Y-155554072D01*
X112368482Y-155541812D01*
X112488180Y-155505502D01*
X112598494Y-155446537D01*
X112695185Y-155367185D01*
X112774537Y-155270494D01*
X112833502Y-155160180D01*
X112869812Y-155040482D01*
X112882072Y-154916000D01*
X112882072Y-153205721D01*
X113689000Y-153205721D01*
X113689000Y-153626279D01*
X113771047Y-154038756D01*
X113931988Y-154427302D01*
X114165637Y-154776983D01*
X114463017Y-155074363D01*
X114812698Y-155308012D01*
X115201244Y-155468953D01*
X115613721Y-155551000D01*
X116034279Y-155551000D01*
X116446756Y-155468953D01*
X116835302Y-155308012D01*
X117184983Y-155074363D01*
X117482363Y-154776983D01*
X117716012Y-154427302D01*
X117876953Y-154038756D01*
X117959000Y-153626279D01*
X117959000Y-153205721D01*
X118769000Y-153205721D01*
X118769000Y-153626279D01*
X118851047Y-154038756D01*
X119011988Y-154427302D01*
X119245637Y-154776983D01*
X119543017Y-155074363D01*
X119892698Y-155308012D01*
X120281244Y-155468953D01*
X120693721Y-155551000D01*
X121114279Y-155551000D01*
X121461807Y-155481872D01*
X125781000Y-155481872D01*
X125781000Y-155922128D01*
X125866890Y-156353925D01*
X126035369Y-156760669D01*
X126279962Y-157126729D01*
X126591271Y-157438038D01*
X126957331Y-157682631D01*
X127364075Y-157851110D01*
X127795872Y-157937000D01*
X128236128Y-157937000D01*
X128667925Y-157851110D01*
X129074669Y-157682631D01*
X129440729Y-157438038D01*
X129752038Y-157126729D01*
X129996631Y-156760669D01*
X130165110Y-156353925D01*
X130251000Y-155922128D01*
X130251000Y-155481872D01*
X130165110Y-155050075D01*
X129996631Y-154643331D01*
X129752038Y-154277271D01*
X129440729Y-153965962D01*
X129074669Y-153721369D01*
X128667925Y-153552890D01*
X128236128Y-153467000D01*
X127795872Y-153467000D01*
X127364075Y-153552890D01*
X126957331Y-153721369D01*
X126591271Y-153965962D01*
X126279962Y-154277271D01*
X126035369Y-154643331D01*
X125866890Y-155050075D01*
X125781000Y-155481872D01*
X121461807Y-155481872D01*
X121526756Y-155468953D01*
X121915302Y-155308012D01*
X122264983Y-155074363D01*
X122562363Y-154776983D01*
X122796012Y-154427302D01*
X122956953Y-154038756D01*
X123039000Y-153626279D01*
X123039000Y-153205721D01*
X122956953Y-152793244D01*
X122796012Y-152404698D01*
X122562363Y-152055017D01*
X122264983Y-151757637D01*
X121915302Y-151523988D01*
X121526756Y-151363047D01*
X121114279Y-151281000D01*
X120693721Y-151281000D01*
X120281244Y-151363047D01*
X119892698Y-151523988D01*
X119543017Y-151757637D01*
X119245637Y-152055017D01*
X119011988Y-152404698D01*
X118851047Y-152793244D01*
X118769000Y-153205721D01*
X117959000Y-153205721D01*
X117876953Y-152793244D01*
X117716012Y-152404698D01*
X117482363Y-152055017D01*
X117184983Y-151757637D01*
X116835302Y-151523988D01*
X116446756Y-151363047D01*
X116034279Y-151281000D01*
X115613721Y-151281000D01*
X115201244Y-151363047D01*
X114812698Y-151523988D01*
X114463017Y-151757637D01*
X114165637Y-152055017D01*
X113931988Y-152404698D01*
X113771047Y-152793244D01*
X113689000Y-153205721D01*
X112882072Y-153205721D01*
X112882072Y-151916000D01*
X112869812Y-151791518D01*
X112833502Y-151671820D01*
X112774537Y-151561506D01*
X112695185Y-151464815D01*
X112598494Y-151385463D01*
X112488180Y-151326498D01*
X112368482Y-151290188D01*
X112244000Y-151277928D01*
X109244000Y-151277928D01*
X109119518Y-151290188D01*
X108999820Y-151326498D01*
X108889506Y-151385463D01*
X108792815Y-151464815D01*
X108713463Y-151561506D01*
X108654498Y-151671820D01*
X108618188Y-151791518D01*
X108605928Y-151916000D01*
X99055346Y-151916000D01*
X98896983Y-151757637D01*
X98547302Y-151523988D01*
X98158756Y-151363047D01*
X97746279Y-151281000D01*
X97325721Y-151281000D01*
X96913244Y-151363047D01*
X96524698Y-151523988D01*
X96175017Y-151757637D01*
X95877637Y-152055017D01*
X95643988Y-152404698D01*
X95483047Y-152793244D01*
X95401000Y-153205721D01*
X94594072Y-153205721D01*
X94594072Y-151916000D01*
X94581812Y-151791518D01*
X94545502Y-151671820D01*
X94486537Y-151561506D01*
X94407185Y-151464815D01*
X94310494Y-151385463D01*
X94200180Y-151326498D01*
X94080482Y-151290188D01*
X93956000Y-151277928D01*
X93285944Y-151277928D01*
X93277589Y-151250387D01*
X93195411Y-151096641D01*
X93165431Y-151060111D01*
X93112532Y-150995653D01*
X93112530Y-150995651D01*
X93084817Y-150961883D01*
X93051049Y-150934170D01*
X92325000Y-150208122D01*
X92325000Y-147545329D01*
X92545998Y-147397663D01*
X92787663Y-147155998D01*
X92977537Y-146871831D01*
X93108325Y-146556081D01*
X93175000Y-146220883D01*
X93175000Y-145879117D01*
X93108325Y-145543919D01*
X92977537Y-145228169D01*
X92787663Y-144944002D01*
X92545998Y-144702337D01*
X92261831Y-144512463D01*
X91946081Y-144381675D01*
X91610883Y-144315000D01*
X91269117Y-144315000D01*
X90933919Y-144381675D01*
X90618169Y-144512463D01*
X90334002Y-144702337D01*
X90092337Y-144944002D01*
X89902463Y-145228169D01*
X89771675Y-145543919D01*
X89705000Y-145879117D01*
X77935000Y-145879117D01*
X77868325Y-145543919D01*
X77737537Y-145228169D01*
X77547663Y-144944002D01*
X77305998Y-144702337D01*
X77021831Y-144512463D01*
X76706081Y-144381675D01*
X76370883Y-144315000D01*
X76029117Y-144315000D01*
X75693919Y-144381675D01*
X75378169Y-144512463D01*
X75094002Y-144702337D01*
X74852337Y-144944002D01*
X74662463Y-145228169D01*
X74531675Y-145543919D01*
X74465000Y-145879117D01*
X74465000Y-146220883D01*
X74531675Y-146556081D01*
X74662463Y-146871831D01*
X74852337Y-147155998D01*
X75094002Y-147397663D01*
X75315001Y-147545329D01*
X75315000Y-149954121D01*
X74334951Y-150934171D01*
X74301184Y-150961883D01*
X74273471Y-150995651D01*
X74273468Y-150995654D01*
X74190590Y-151096641D01*
X74108412Y-151250387D01*
X74100057Y-151277928D01*
X73430000Y-151277928D01*
X73305518Y-151290188D01*
X73185820Y-151326498D01*
X73075506Y-151385463D01*
X72978815Y-151464815D01*
X72899463Y-151561506D01*
X72840498Y-151671820D01*
X72804188Y-151791518D01*
X72791928Y-151916000D01*
X69887922Y-151916000D01*
X69736038Y-151608786D01*
X69361255Y-151417980D01*
X68956449Y-151303956D01*
X68537176Y-151271098D01*
X68119549Y-151320666D01*
X67719617Y-151450757D01*
X67423962Y-151608786D01*
X67267952Y-151924347D01*
X65027693Y-151924347D01*
X64860983Y-151757637D01*
X64511302Y-151523988D01*
X64122756Y-151363047D01*
X63710279Y-151281000D01*
X63289721Y-151281000D01*
X62877244Y-151363047D01*
X62488698Y-151523988D01*
X62139017Y-151757637D01*
X61841637Y-152055017D01*
X61607988Y-152404698D01*
X61447047Y-152793244D01*
X61365000Y-153205721D01*
X60558072Y-153205721D01*
X60558072Y-151916000D01*
X60545812Y-151791518D01*
X60509502Y-151671820D01*
X60450537Y-151561506D01*
X60371185Y-151464815D01*
X60274494Y-151385463D01*
X60164180Y-151326498D01*
X60044482Y-151290188D01*
X59920000Y-151277928D01*
X56920000Y-151277928D01*
X56795518Y-151290188D01*
X56675820Y-151326498D01*
X56565506Y-151385463D01*
X56468815Y-151464815D01*
X56389463Y-151561506D01*
X56330498Y-151671820D01*
X56294188Y-151791518D01*
X56281928Y-151916000D01*
X47142000Y-151916000D01*
X47142000Y-142332967D01*
X105380000Y-142332967D01*
X105380000Y-142655033D01*
X105442832Y-142970912D01*
X105566082Y-143268463D01*
X105745013Y-143536252D01*
X105972748Y-143763987D01*
X106240537Y-143942918D01*
X106538088Y-144066168D01*
X106853967Y-144129000D01*
X107176033Y-144129000D01*
X107491912Y-144066168D01*
X107789463Y-143942918D01*
X108057252Y-143763987D01*
X108284987Y-143536252D01*
X108463918Y-143268463D01*
X108587168Y-142970912D01*
X108650000Y-142655033D01*
X108650000Y-142332967D01*
X127280000Y-142332967D01*
X127280000Y-142655033D01*
X127342832Y-142970912D01*
X127466082Y-143268463D01*
X127645013Y-143536252D01*
X127872748Y-143763987D01*
X128140537Y-143942918D01*
X128438088Y-144066168D01*
X128753967Y-144129000D01*
X129076033Y-144129000D01*
X129391912Y-144066168D01*
X129689463Y-143942918D01*
X129957252Y-143763987D01*
X130184987Y-143536252D01*
X130363918Y-143268463D01*
X130487168Y-142970912D01*
X130550000Y-142655033D01*
X130550000Y-142332967D01*
X130487168Y-142017088D01*
X130363918Y-141719537D01*
X130184987Y-141451748D01*
X129957252Y-141224013D01*
X129689463Y-141045082D01*
X129391912Y-140921832D01*
X129076033Y-140859000D01*
X128753967Y-140859000D01*
X128438088Y-140921832D01*
X128140537Y-141045082D01*
X127872748Y-141224013D01*
X127645013Y-141451748D01*
X127466082Y-141719537D01*
X127342832Y-142017088D01*
X127280000Y-142332967D01*
X108650000Y-142332967D01*
X108587168Y-142017088D01*
X108463918Y-141719537D01*
X108284987Y-141451748D01*
X108057252Y-141224013D01*
X107789463Y-141045082D01*
X107491912Y-140921832D01*
X107176033Y-140859000D01*
X106853967Y-140859000D01*
X106538088Y-140921832D01*
X106240537Y-141045082D01*
X105972748Y-141224013D01*
X105745013Y-141451748D01*
X105566082Y-141719537D01*
X105442832Y-142017088D01*
X105380000Y-142332967D01*
X47142000Y-142332967D01*
X47142000Y-138259117D01*
X74465000Y-138259117D01*
X74465000Y-138600883D01*
X74531675Y-138936081D01*
X74662463Y-139251831D01*
X74852337Y-139535998D01*
X75094002Y-139777663D01*
X75378169Y-139967537D01*
X75693919Y-140098325D01*
X76029117Y-140165000D01*
X76370883Y-140165000D01*
X76706081Y-140098325D01*
X77021831Y-139967537D01*
X77305998Y-139777663D01*
X77547663Y-139535998D01*
X77737537Y-139251831D01*
X77868325Y-138936081D01*
X77935000Y-138600883D01*
X77935000Y-138259117D01*
X89705000Y-138259117D01*
X89705000Y-138600883D01*
X89771675Y-138936081D01*
X89902463Y-139251831D01*
X90092337Y-139535998D01*
X90334002Y-139777663D01*
X90618169Y-139967537D01*
X90933919Y-140098325D01*
X91269117Y-140165000D01*
X91610883Y-140165000D01*
X91946081Y-140098325D01*
X92261831Y-139967537D01*
X92545998Y-139777663D01*
X92787663Y-139535998D01*
X92977537Y-139251831D01*
X93108325Y-138936081D01*
X93175000Y-138600883D01*
X93175000Y-138259117D01*
X93108325Y-137923919D01*
X92977537Y-137608169D01*
X92787663Y-137324002D01*
X92545998Y-137082337D01*
X92261831Y-136892463D01*
X91946081Y-136761675D01*
X91610883Y-136695000D01*
X91269117Y-136695000D01*
X90933919Y-136761675D01*
X90618169Y-136892463D01*
X90334002Y-137082337D01*
X90092337Y-137324002D01*
X89902463Y-137608169D01*
X89771675Y-137923919D01*
X89705000Y-138259117D01*
X77935000Y-138259117D01*
X77868325Y-137923919D01*
X77737537Y-137608169D01*
X77547663Y-137324002D01*
X77305998Y-137082337D01*
X77021831Y-136892463D01*
X76706081Y-136761675D01*
X76370883Y-136695000D01*
X76029117Y-136695000D01*
X75693919Y-136761675D01*
X75378169Y-136892463D01*
X75094002Y-137082337D01*
X74852337Y-137324002D01*
X74662463Y-137608169D01*
X74531675Y-137923919D01*
X74465000Y-138259117D01*
X47142000Y-138259117D01*
X47142000Y-133216000D01*
X115201928Y-133216000D01*
X115201928Y-135516000D01*
X115214188Y-135640482D01*
X115250498Y-135760180D01*
X115309463Y-135870494D01*
X115388815Y-135967185D01*
X115485506Y-136046537D01*
X115595820Y-136105502D01*
X115715518Y-136141812D01*
X115840000Y-136154072D01*
X117840000Y-136154072D01*
X117964482Y-136141812D01*
X118084180Y-136105502D01*
X118194494Y-136046537D01*
X118291185Y-135967185D01*
X118370537Y-135870494D01*
X118429502Y-135760180D01*
X118465812Y-135640482D01*
X118478072Y-135516000D01*
X118478072Y-134190193D01*
X120055000Y-134190193D01*
X120055000Y-134541807D01*
X120123596Y-134886665D01*
X120258153Y-135211515D01*
X120453500Y-135503871D01*
X120702129Y-135752500D01*
X120994485Y-135947847D01*
X121319335Y-136082404D01*
X121664193Y-136151000D01*
X122015807Y-136151000D01*
X122360665Y-136082404D01*
X122685515Y-135947847D01*
X122977871Y-135752500D01*
X123226500Y-135503871D01*
X123421847Y-135211515D01*
X123556404Y-134886665D01*
X123625000Y-134541807D01*
X123625000Y-134190193D01*
X123556404Y-133845335D01*
X123421847Y-133520485D01*
X123226500Y-133228129D01*
X122977871Y-132979500D01*
X122685515Y-132784153D01*
X122360665Y-132649596D01*
X122015807Y-132581000D01*
X121664193Y-132581000D01*
X121319335Y-132649596D01*
X120994485Y-132784153D01*
X120702129Y-132979500D01*
X120453500Y-133228129D01*
X120258153Y-133520485D01*
X120123596Y-133845335D01*
X120055000Y-134190193D01*
X118478072Y-134190193D01*
X118478072Y-133216000D01*
X118465812Y-133091518D01*
X118429502Y-132971820D01*
X118370537Y-132861506D01*
X118291185Y-132764815D01*
X118194494Y-132685463D01*
X118084180Y-132626498D01*
X117964482Y-132590188D01*
X117840000Y-132577928D01*
X115840000Y-132577928D01*
X115715518Y-132590188D01*
X115595820Y-132626498D01*
X115485506Y-132685463D01*
X115388815Y-132764815D01*
X115309463Y-132861506D01*
X115250498Y-132971820D01*
X115214188Y-133091518D01*
X115201928Y-133216000D01*
X47142000Y-133216000D01*
X47142000Y-127370000D01*
X74661928Y-127370000D01*
X74661928Y-129170000D01*
X74674188Y-129294482D01*
X74710498Y-129414180D01*
X74769463Y-129524494D01*
X74848815Y-129621185D01*
X74945506Y-129700537D01*
X75055820Y-129759502D01*
X75175518Y-129795812D01*
X75300000Y-129808072D01*
X77100000Y-129808072D01*
X77224482Y-129795812D01*
X77344180Y-129759502D01*
X77454494Y-129700537D01*
X77551185Y-129621185D01*
X77630537Y-129524494D01*
X77689502Y-129414180D01*
X77725812Y-129294482D01*
X77738072Y-129170000D01*
X77738072Y-127370000D01*
X77725812Y-127245518D01*
X77689502Y-127125820D01*
X77630537Y-127015506D01*
X77551185Y-126918815D01*
X77454494Y-126839463D01*
X77344180Y-126780498D01*
X77224482Y-126744188D01*
X77100000Y-126731928D01*
X75300000Y-126731928D01*
X75175518Y-126744188D01*
X75055820Y-126780498D01*
X74945506Y-126839463D01*
X74848815Y-126918815D01*
X74769463Y-127015506D01*
X74710498Y-127125820D01*
X74674188Y-127245518D01*
X74661928Y-127370000D01*
X47142000Y-127370000D01*
X47142000Y-122344000D01*
X78271928Y-122344000D01*
X78271928Y-124544000D01*
X78284188Y-124668482D01*
X78320498Y-124788180D01*
X78379463Y-124898494D01*
X78458815Y-124995185D01*
X78555506Y-125074537D01*
X78665820Y-125133502D01*
X78785518Y-125169812D01*
X78910000Y-125182072D01*
X81110000Y-125182072D01*
X81234482Y-125169812D01*
X81354180Y-125133502D01*
X81464494Y-125074537D01*
X81561185Y-124995185D01*
X81627557Y-124914310D01*
X81728169Y-124981537D01*
X81790001Y-125007149D01*
X81790001Y-125131968D01*
X81786324Y-125169300D01*
X81800998Y-125318285D01*
X81844454Y-125461546D01*
X81915026Y-125593576D01*
X81982361Y-125675623D01*
X82010000Y-125709301D01*
X82038998Y-125733099D01*
X83060000Y-126754102D01*
X83060000Y-126931687D01*
X82841495Y-127077688D01*
X82627688Y-127291495D01*
X82459701Y-127542905D01*
X82343989Y-127822257D01*
X82285000Y-128118816D01*
X82285000Y-128421184D01*
X82343989Y-128717743D01*
X82459701Y-128997095D01*
X82627688Y-129248505D01*
X82841495Y-129462312D01*
X83092905Y-129630299D01*
X83372257Y-129746011D01*
X83668816Y-129805000D01*
X83971184Y-129805000D01*
X84267743Y-129746011D01*
X84547095Y-129630299D01*
X84798505Y-129462312D01*
X85012312Y-129248505D01*
X85180299Y-128997095D01*
X85296011Y-128717743D01*
X85355000Y-128421184D01*
X85355000Y-128118816D01*
X85296011Y-127822257D01*
X85180299Y-127542905D01*
X85064768Y-127370000D01*
X89901928Y-127370000D01*
X89901928Y-129170000D01*
X89914188Y-129294482D01*
X89950498Y-129414180D01*
X90009463Y-129524494D01*
X90088815Y-129621185D01*
X90185506Y-129700537D01*
X90295820Y-129759502D01*
X90415518Y-129795812D01*
X90540000Y-129808072D01*
X92340000Y-129808072D01*
X92464482Y-129795812D01*
X92584180Y-129759502D01*
X92694494Y-129700537D01*
X92791185Y-129621185D01*
X92870537Y-129524494D01*
X92929502Y-129414180D01*
X92965812Y-129294482D01*
X92978072Y-129170000D01*
X92978072Y-127370000D01*
X92965812Y-127245518D01*
X92929502Y-127125820D01*
X92870537Y-127015506D01*
X92791185Y-126918815D01*
X92694494Y-126839463D01*
X92584180Y-126780498D01*
X92464482Y-126744188D01*
X92340000Y-126731928D01*
X90540000Y-126731928D01*
X90415518Y-126744188D01*
X90295820Y-126780498D01*
X90185506Y-126839463D01*
X90088815Y-126918815D01*
X90009463Y-127015506D01*
X89950498Y-127125820D01*
X89914188Y-127245518D01*
X89901928Y-127370000D01*
X85064768Y-127370000D01*
X85012312Y-127291495D01*
X84798505Y-127077688D01*
X84580000Y-126931687D01*
X84580000Y-126476622D01*
X84583676Y-126439299D01*
X84580000Y-126401976D01*
X84580000Y-126401967D01*
X84569003Y-126290314D01*
X84525546Y-126147053D01*
X84454974Y-126015024D01*
X84360001Y-125899299D01*
X84331004Y-125875502D01*
X83410920Y-124955419D01*
X83655998Y-124791663D01*
X83897663Y-124549998D01*
X84087537Y-124265831D01*
X84218325Y-123950081D01*
X84285000Y-123614883D01*
X84285000Y-123273117D01*
X84218325Y-122937919D01*
X84087537Y-122622169D01*
X84071388Y-122598000D01*
X93003928Y-122598000D01*
X93003928Y-124798000D01*
X93016188Y-124922482D01*
X93052498Y-125042180D01*
X93111463Y-125152494D01*
X93190815Y-125249185D01*
X93287506Y-125328537D01*
X93397820Y-125387502D01*
X93517518Y-125423812D01*
X93642000Y-125436072D01*
X95842000Y-125436072D01*
X95966482Y-125423812D01*
X96086180Y-125387502D01*
X96196494Y-125328537D01*
X96293185Y-125249185D01*
X96359557Y-125168310D01*
X96460169Y-125235537D01*
X96522001Y-125261148D01*
X96522001Y-126454668D01*
X96518324Y-126492000D01*
X96532998Y-126640985D01*
X96576454Y-126784246D01*
X96647026Y-126916276D01*
X96698750Y-126979301D01*
X96742000Y-127032001D01*
X96770998Y-127055799D01*
X97576269Y-127861070D01*
X97525000Y-128118816D01*
X97525000Y-128421184D01*
X97583989Y-128717743D01*
X97699701Y-128997095D01*
X97867688Y-129248505D01*
X98081495Y-129462312D01*
X98332905Y-129630299D01*
X98612257Y-129746011D01*
X98908816Y-129805000D01*
X99211184Y-129805000D01*
X99507743Y-129746011D01*
X99787095Y-129630299D01*
X100038505Y-129462312D01*
X100252312Y-129248505D01*
X100420299Y-128997095D01*
X100536011Y-128717743D01*
X100595000Y-128421184D01*
X100595000Y-128118816D01*
X100536011Y-127822257D01*
X100420299Y-127542905D01*
X100252312Y-127291495D01*
X100038505Y-127077688D01*
X99787095Y-126909701D01*
X99507743Y-126793989D01*
X99211184Y-126735000D01*
X98908816Y-126735000D01*
X98651070Y-126786269D01*
X98042000Y-126177199D01*
X98042000Y-125261148D01*
X98103831Y-125235537D01*
X98387998Y-125045663D01*
X98629663Y-124803998D01*
X98819537Y-124519831D01*
X98950325Y-124204081D01*
X99017000Y-123868883D01*
X99017000Y-123527117D01*
X98950325Y-123191919D01*
X98819537Y-122876169D01*
X98629663Y-122592002D01*
X98387998Y-122350337D01*
X98103831Y-122160463D01*
X98042000Y-122134852D01*
X98042000Y-118655322D01*
X98045676Y-118617999D01*
X98042000Y-118580676D01*
X98042000Y-118580667D01*
X98031003Y-118469014D01*
X97987546Y-118325753D01*
X97916974Y-118193724D01*
X97822001Y-118077999D01*
X97793004Y-118054202D01*
X97175072Y-117436271D01*
X97175072Y-116598000D01*
X97162812Y-116473518D01*
X97126502Y-116353820D01*
X97067537Y-116243506D01*
X96988185Y-116146815D01*
X96891494Y-116067463D01*
X96781180Y-116008498D01*
X96661482Y-115972188D01*
X96537000Y-115959928D01*
X95487000Y-115959928D01*
X95362518Y-115972188D01*
X95242820Y-116008498D01*
X95178098Y-116043093D01*
X94969400Y-115979785D01*
X94742000Y-115957388D01*
X94514601Y-115979785D01*
X94295941Y-116046115D01*
X94107331Y-116146929D01*
X94048882Y-116105725D01*
X93839337Y-116012728D01*
X93777810Y-116004036D01*
X93599000Y-116129837D01*
X93599000Y-116894891D01*
X93598785Y-116895600D01*
X93582000Y-117066021D01*
X93582000Y-117629978D01*
X93598785Y-117800399D01*
X93599000Y-117801108D01*
X93599000Y-118566163D01*
X93777810Y-118691964D01*
X93839337Y-118683272D01*
X94048882Y-118590275D01*
X94107331Y-118549071D01*
X94295940Y-118649885D01*
X94514600Y-118716215D01*
X94742000Y-118738612D01*
X94969399Y-118716215D01*
X95178098Y-118652907D01*
X95242820Y-118687502D01*
X95362518Y-118723812D01*
X95487000Y-118736072D01*
X96325270Y-118736072D01*
X96522000Y-118932802D01*
X96522001Y-122134851D01*
X96460169Y-122160463D01*
X96359557Y-122227690D01*
X96293185Y-122146815D01*
X96196494Y-122067463D01*
X96086180Y-122008498D01*
X95966482Y-121972188D01*
X95842000Y-121959928D01*
X93642000Y-121959928D01*
X93517518Y-121972188D01*
X93397820Y-122008498D01*
X93287506Y-122067463D01*
X93190815Y-122146815D01*
X93111463Y-122243506D01*
X93052498Y-122353820D01*
X93016188Y-122473518D01*
X93003928Y-122598000D01*
X84071388Y-122598000D01*
X83897663Y-122338002D01*
X83655998Y-122096337D01*
X83371831Y-121906463D01*
X83056081Y-121775675D01*
X82720883Y-121709000D01*
X82379117Y-121709000D01*
X82043919Y-121775675D01*
X81728169Y-121906463D01*
X81627557Y-121973690D01*
X81561185Y-121892815D01*
X81464494Y-121813463D01*
X81354180Y-121754498D01*
X81234482Y-121718188D01*
X81110000Y-121705928D01*
X78910000Y-121705928D01*
X78785518Y-121718188D01*
X78665820Y-121754498D01*
X78555506Y-121813463D01*
X78458815Y-121892815D01*
X78379463Y-121989506D01*
X78320498Y-122099820D01*
X78284188Y-122219518D01*
X78271928Y-122344000D01*
X47142000Y-122344000D01*
X47142000Y-117658507D01*
X78081669Y-117658507D01*
X78120761Y-117884404D01*
X78203172Y-118098334D01*
X78325736Y-118292076D01*
X78483742Y-118458184D01*
X78671118Y-118590275D01*
X78880663Y-118683272D01*
X78942190Y-118691964D01*
X79121000Y-118566163D01*
X79121000Y-117475000D01*
X78241402Y-117475000D01*
X78081669Y-117658507D01*
X47142000Y-117658507D01*
X47142000Y-117037493D01*
X78081669Y-117037493D01*
X78241402Y-117221000D01*
X79121000Y-117221000D01*
X79121000Y-117066021D01*
X79358000Y-117066021D01*
X79358000Y-117629978D01*
X79374785Y-117800399D01*
X79375000Y-117801108D01*
X79375000Y-118566163D01*
X79553810Y-118691964D01*
X79615337Y-118683272D01*
X79824882Y-118590275D01*
X79883331Y-118549071D01*
X80071940Y-118649885D01*
X80290600Y-118716215D01*
X80518000Y-118738612D01*
X80745399Y-118716215D01*
X80954098Y-118652907D01*
X81018820Y-118687502D01*
X81138518Y-118723812D01*
X81263000Y-118736072D01*
X82313000Y-118736072D01*
X82437482Y-118723812D01*
X82557180Y-118687502D01*
X82667494Y-118628537D01*
X82764185Y-118549185D01*
X82843537Y-118452494D01*
X82902502Y-118342180D01*
X82938812Y-118222482D01*
X82951072Y-118098000D01*
X82951072Y-117658507D01*
X92305669Y-117658507D01*
X92344761Y-117884404D01*
X92427172Y-118098334D01*
X92549736Y-118292076D01*
X92707742Y-118458184D01*
X92895118Y-118590275D01*
X93104663Y-118683272D01*
X93166190Y-118691964D01*
X93345000Y-118566163D01*
X93345000Y-117475000D01*
X92465402Y-117475000D01*
X92305669Y-117658507D01*
X82951072Y-117658507D01*
X82951072Y-117037493D01*
X92305669Y-117037493D01*
X92465402Y-117221000D01*
X93345000Y-117221000D01*
X93345000Y-116129837D01*
X93166190Y-116004036D01*
X93104663Y-116012728D01*
X92895118Y-116105725D01*
X92707742Y-116237816D01*
X92549736Y-116403924D01*
X92427172Y-116597666D01*
X92344761Y-116811596D01*
X92305669Y-117037493D01*
X82951072Y-117037493D01*
X82951072Y-116598000D01*
X82938812Y-116473518D01*
X82902502Y-116353820D01*
X82843537Y-116243506D01*
X82764185Y-116146815D01*
X82667494Y-116067463D01*
X82557180Y-116008498D01*
X82437482Y-115972188D01*
X82313000Y-115959928D01*
X81263000Y-115959928D01*
X81138518Y-115972188D01*
X81018820Y-116008498D01*
X80954098Y-116043093D01*
X80745400Y-115979785D01*
X80518000Y-115957388D01*
X80290601Y-115979785D01*
X80071941Y-116046115D01*
X79883331Y-116146929D01*
X79824882Y-116105725D01*
X79615337Y-116012728D01*
X79553810Y-116004036D01*
X79375000Y-116129837D01*
X79375000Y-116894891D01*
X79374785Y-116895600D01*
X79358000Y-117066021D01*
X79121000Y-117066021D01*
X79121000Y-116129837D01*
X78942190Y-116004036D01*
X78880663Y-116012728D01*
X78671118Y-116105725D01*
X78483742Y-116237816D01*
X78325736Y-116403924D01*
X78203172Y-116597666D01*
X78120761Y-116811596D01*
X78081669Y-117037493D01*
X47142000Y-117037493D01*
X47142000Y-96457761D01*
X82348500Y-96457761D01*
X82348500Y-96661639D01*
X82388274Y-96861598D01*
X82466295Y-97049956D01*
X82579563Y-97219474D01*
X82723726Y-97363637D01*
X82893244Y-97476905D01*
X83081602Y-97554926D01*
X83281561Y-97594700D01*
X83485439Y-97594700D01*
X83685398Y-97554926D01*
X83873756Y-97476905D01*
X84043274Y-97363637D01*
X84187437Y-97219474D01*
X84300705Y-97049956D01*
X84378726Y-96861598D01*
X84418500Y-96661639D01*
X84418500Y-96457761D01*
X84378726Y-96257802D01*
X84300705Y-96069444D01*
X84187437Y-95899926D01*
X84143500Y-95855989D01*
X84143500Y-92096601D01*
X88141003Y-88099099D01*
X88170001Y-88075301D01*
X88196332Y-88043217D01*
X88264974Y-87959577D01*
X88324575Y-87848072D01*
X88480000Y-87848072D01*
X88604482Y-87835812D01*
X88724180Y-87799502D01*
X88834494Y-87740537D01*
X88931185Y-87661185D01*
X89010537Y-87564494D01*
X89069502Y-87454180D01*
X89091513Y-87381620D01*
X89170196Y-87460303D01*
X86209203Y-90421296D01*
X86180199Y-90445099D01*
X86125071Y-90512274D01*
X86085226Y-90560824D01*
X86040906Y-90643740D01*
X86014654Y-90692854D01*
X85971197Y-90836115D01*
X85960200Y-90947768D01*
X85960200Y-90947778D01*
X85956524Y-90985100D01*
X85960200Y-91022422D01*
X85960201Y-99079088D01*
X85916263Y-99123026D01*
X85802995Y-99292544D01*
X85724974Y-99480902D01*
X85685200Y-99680861D01*
X85685200Y-99884739D01*
X85724974Y-100084698D01*
X85802995Y-100273056D01*
X85916263Y-100442574D01*
X86060426Y-100586737D01*
X86229944Y-100700005D01*
X86418302Y-100778026D01*
X86618261Y-100817800D01*
X86822139Y-100817800D01*
X87022098Y-100778026D01*
X87210456Y-100700005D01*
X87379974Y-100586737D01*
X87524137Y-100442574D01*
X87637405Y-100273056D01*
X87713034Y-100090473D01*
X87774144Y-100131305D01*
X87962502Y-100209326D01*
X88162461Y-100249100D01*
X88366339Y-100249100D01*
X88566298Y-100209326D01*
X88754656Y-100131305D01*
X88924174Y-100018037D01*
X89068337Y-99873874D01*
X89181605Y-99704356D01*
X89259626Y-99515998D01*
X89299400Y-99316039D01*
X89299400Y-99112161D01*
X89259626Y-98912202D01*
X89249478Y-98887703D01*
X89389256Y-98829805D01*
X89558774Y-98716537D01*
X89602711Y-98672600D01*
X101253301Y-98672600D01*
X101253300Y-102905928D01*
X99988000Y-102905928D01*
X99863518Y-102918188D01*
X99743820Y-102954498D01*
X99633506Y-103013463D01*
X99536815Y-103092815D01*
X99457463Y-103189506D01*
X99398498Y-103299820D01*
X99362188Y-103419518D01*
X99349928Y-103544000D01*
X99349928Y-105244000D01*
X99362188Y-105368482D01*
X99398498Y-105488180D01*
X99457463Y-105598494D01*
X99536815Y-105695185D01*
X99633506Y-105774537D01*
X99743820Y-105833502D01*
X99816380Y-105855513D01*
X99684525Y-105987368D01*
X99522010Y-106230589D01*
X99410068Y-106500842D01*
X99353000Y-106787740D01*
X99353000Y-107080260D01*
X99410068Y-107367158D01*
X99522010Y-107637411D01*
X99684525Y-107880632D01*
X99891368Y-108087475D01*
X100065760Y-108204000D01*
X99891368Y-108320525D01*
X99684525Y-108527368D01*
X99522010Y-108770589D01*
X99410068Y-109040842D01*
X99353000Y-109327740D01*
X99353000Y-109620260D01*
X99410068Y-109907158D01*
X99522010Y-110177411D01*
X99684525Y-110420632D01*
X99891368Y-110627475D01*
X100134589Y-110789990D01*
X100404842Y-110901932D01*
X100691740Y-110959000D01*
X100984260Y-110959000D01*
X101271158Y-110901932D01*
X101541411Y-110789990D01*
X101784632Y-110627475D01*
X101991475Y-110420632D01*
X102109100Y-110244594D01*
X102280412Y-110474269D01*
X102496645Y-110669178D01*
X102746748Y-110818157D01*
X103021109Y-110915481D01*
X103251000Y-110794814D01*
X103251000Y-109601000D01*
X103505000Y-109601000D01*
X103505000Y-110794814D01*
X103734891Y-110915481D01*
X104009252Y-110818157D01*
X104259355Y-110669178D01*
X104475588Y-110474269D01*
X104649641Y-110240920D01*
X104774825Y-109978099D01*
X104819476Y-109830890D01*
X104698155Y-109601000D01*
X103505000Y-109601000D01*
X103251000Y-109601000D01*
X103231000Y-109601000D01*
X103231000Y-109347000D01*
X103251000Y-109347000D01*
X103251000Y-109327000D01*
X103505000Y-109327000D01*
X103505000Y-109347000D01*
X104698155Y-109347000D01*
X104819476Y-109117110D01*
X104774825Y-108969901D01*
X104649641Y-108707080D01*
X104475588Y-108473731D01*
X104259355Y-108278822D01*
X104142466Y-108209195D01*
X104324632Y-108087475D01*
X104531475Y-107880632D01*
X104693990Y-107637411D01*
X104805932Y-107367158D01*
X104863000Y-107080260D01*
X104863000Y-106787740D01*
X104805932Y-106500842D01*
X104693990Y-106230589D01*
X104679130Y-106208349D01*
X110577256Y-106208349D01*
X110691118Y-106488090D01*
X111006296Y-106643961D01*
X111345826Y-106735349D01*
X111696661Y-106758741D01*
X112045319Y-106713240D01*
X112378400Y-106600594D01*
X112588882Y-106488090D01*
X112702744Y-106208349D01*
X111640000Y-105145605D01*
X110577256Y-106208349D01*
X104679130Y-106208349D01*
X104531475Y-105987368D01*
X104324632Y-105780525D01*
X104150240Y-105664000D01*
X104324632Y-105547475D01*
X104531475Y-105340632D01*
X104693990Y-105097411D01*
X104724952Y-105022661D01*
X109847259Y-105022661D01*
X109892760Y-105371319D01*
X110005406Y-105704400D01*
X110117910Y-105914882D01*
X110397651Y-106028744D01*
X111460395Y-104966000D01*
X111819605Y-104966000D01*
X112882349Y-106028744D01*
X113162090Y-105914882D01*
X113317961Y-105599704D01*
X113409349Y-105260174D01*
X113432741Y-104909339D01*
X113417193Y-104790193D01*
X125255000Y-104790193D01*
X125255000Y-105141807D01*
X125323596Y-105486665D01*
X125458153Y-105811515D01*
X125653500Y-106103871D01*
X125902129Y-106352500D01*
X126194485Y-106547847D01*
X126519335Y-106682404D01*
X126864193Y-106751000D01*
X127215807Y-106751000D01*
X127560665Y-106682404D01*
X127885515Y-106547847D01*
X128177871Y-106352500D01*
X128426500Y-106103871D01*
X128621847Y-105811515D01*
X128756404Y-105486665D01*
X128825000Y-105141807D01*
X128825000Y-104790193D01*
X128756404Y-104445335D01*
X128621847Y-104120485D01*
X128426500Y-103828129D01*
X128177871Y-103579500D01*
X127885515Y-103384153D01*
X127560665Y-103249596D01*
X127215807Y-103181000D01*
X126864193Y-103181000D01*
X126519335Y-103249596D01*
X126194485Y-103384153D01*
X125902129Y-103579500D01*
X125653500Y-103828129D01*
X125458153Y-104120485D01*
X125323596Y-104445335D01*
X125255000Y-104790193D01*
X113417193Y-104790193D01*
X113387240Y-104560681D01*
X113274594Y-104227600D01*
X113162090Y-104017118D01*
X112882349Y-103903256D01*
X111819605Y-104966000D01*
X111460395Y-104966000D01*
X110397651Y-103903256D01*
X110117910Y-104017118D01*
X109962039Y-104332296D01*
X109870651Y-104671826D01*
X109847259Y-105022661D01*
X104724952Y-105022661D01*
X104805932Y-104827158D01*
X104863000Y-104540260D01*
X104863000Y-104247740D01*
X104805932Y-103960842D01*
X104707685Y-103723651D01*
X110577256Y-103723651D01*
X111640000Y-104786395D01*
X112702744Y-103723651D01*
X112588882Y-103443910D01*
X112273704Y-103288039D01*
X111934174Y-103196651D01*
X111583339Y-103173259D01*
X111234681Y-103218760D01*
X110901600Y-103331406D01*
X110691118Y-103443910D01*
X110577256Y-103723651D01*
X104707685Y-103723651D01*
X104693990Y-103690589D01*
X104531475Y-103447368D01*
X104324632Y-103240525D01*
X104081411Y-103078010D01*
X103811158Y-102966068D01*
X103524260Y-102909000D01*
X103231740Y-102909000D01*
X102944842Y-102966068D01*
X102773300Y-103037123D01*
X102773300Y-100639764D01*
X117439841Y-100639764D01*
X117487148Y-100863348D01*
X117708516Y-100964237D01*
X117945313Y-101020000D01*
X118188438Y-101028495D01*
X118428549Y-100989395D01*
X118656418Y-100904202D01*
X118732852Y-100863348D01*
X118780159Y-100639764D01*
X118110000Y-99969605D01*
X117439841Y-100639764D01*
X102773300Y-100639764D01*
X102773300Y-99868438D01*
X116871505Y-99868438D01*
X116910605Y-100108549D01*
X116995798Y-100336418D01*
X117036652Y-100412852D01*
X117260236Y-100460159D01*
X117930395Y-99790000D01*
X117916253Y-99775858D01*
X118095858Y-99596253D01*
X118110000Y-99610395D01*
X118124143Y-99596253D01*
X118303748Y-99775858D01*
X118289605Y-99790000D01*
X118959764Y-100460159D01*
X119183348Y-100412852D01*
X119284237Y-100191484D01*
X119340000Y-99954687D01*
X119348495Y-99711562D01*
X119309395Y-99471451D01*
X119224202Y-99243582D01*
X119183348Y-99167148D01*
X118959766Y-99119842D01*
X119076872Y-99002736D01*
X119018994Y-98944858D01*
X119064494Y-98920537D01*
X119161185Y-98841185D01*
X119240537Y-98744494D01*
X119288432Y-98654890D01*
X126066524Y-98654890D01*
X126111175Y-98802099D01*
X126236359Y-99064920D01*
X126410412Y-99298269D01*
X126626645Y-99493178D01*
X126876748Y-99642157D01*
X127151109Y-99739481D01*
X127381000Y-99618814D01*
X127381000Y-98425000D01*
X127635000Y-98425000D01*
X127635000Y-99618814D01*
X127864891Y-99739481D01*
X128139252Y-99642157D01*
X128389355Y-99493178D01*
X128605588Y-99298269D01*
X128779641Y-99064920D01*
X128904825Y-98802099D01*
X128949476Y-98654890D01*
X128828155Y-98425000D01*
X127635000Y-98425000D01*
X127381000Y-98425000D01*
X126187845Y-98425000D01*
X126066524Y-98654890D01*
X119288432Y-98654890D01*
X119299502Y-98634180D01*
X119335812Y-98514482D01*
X119348072Y-98390000D01*
X119348072Y-97190000D01*
X119335812Y-97065518D01*
X119299502Y-96945820D01*
X119240537Y-96835506D01*
X119161185Y-96738815D01*
X119064494Y-96659463D01*
X118954180Y-96600498D01*
X118834482Y-96564188D01*
X118710000Y-96551928D01*
X117510000Y-96551928D01*
X117385518Y-96564188D01*
X117265820Y-96600498D01*
X117155506Y-96659463D01*
X117058815Y-96738815D01*
X116979463Y-96835506D01*
X116920498Y-96945820D01*
X116884188Y-97065518D01*
X116871928Y-97190000D01*
X116871928Y-98390000D01*
X116884188Y-98514482D01*
X116920498Y-98634180D01*
X116979463Y-98744494D01*
X117058815Y-98841185D01*
X117155506Y-98920537D01*
X117201006Y-98944858D01*
X117143128Y-99002736D01*
X117260234Y-99119842D01*
X117036652Y-99167148D01*
X116935763Y-99388516D01*
X116880000Y-99625313D01*
X116871505Y-99868438D01*
X102773300Y-99868438D01*
X102773300Y-97949932D01*
X102776977Y-97912600D01*
X102773300Y-97875267D01*
X102773300Y-94908000D01*
X126019928Y-94908000D01*
X126019928Y-96608000D01*
X126032188Y-96732482D01*
X126068498Y-96852180D01*
X126127463Y-96962494D01*
X126206815Y-97059185D01*
X126303506Y-97138537D01*
X126413820Y-97197502D01*
X126494466Y-97221966D01*
X126410412Y-97297731D01*
X126236359Y-97531080D01*
X126111175Y-97793901D01*
X126066524Y-97941110D01*
X126187845Y-98171000D01*
X127381000Y-98171000D01*
X127381000Y-98151000D01*
X127635000Y-98151000D01*
X127635000Y-98171000D01*
X128828155Y-98171000D01*
X128949476Y-97941110D01*
X128904825Y-97793901D01*
X128779641Y-97531080D01*
X128605588Y-97297731D01*
X128521534Y-97221966D01*
X128602180Y-97197502D01*
X128712494Y-97138537D01*
X128809185Y-97059185D01*
X128888537Y-96962494D01*
X128947502Y-96852180D01*
X128983812Y-96732482D01*
X128996072Y-96608000D01*
X128996072Y-94908000D01*
X128983812Y-94783518D01*
X128947502Y-94663820D01*
X128888537Y-94553506D01*
X128809185Y-94456815D01*
X128712494Y-94377463D01*
X128602180Y-94318498D01*
X128482482Y-94282188D01*
X128358000Y-94269928D01*
X126658000Y-94269928D01*
X126533518Y-94282188D01*
X126413820Y-94318498D01*
X126303506Y-94377463D01*
X126206815Y-94456815D01*
X126127463Y-94553506D01*
X126068498Y-94663820D01*
X126032188Y-94783518D01*
X126019928Y-94908000D01*
X102773300Y-94908000D01*
X102773300Y-94353413D01*
X105574192Y-94353413D01*
X105669956Y-94617814D01*
X105959571Y-94758704D01*
X106271108Y-94840384D01*
X106592595Y-94859718D01*
X106911675Y-94815961D01*
X107216088Y-94710795D01*
X107390044Y-94617814D01*
X107485808Y-94353413D01*
X112074192Y-94353413D01*
X112169956Y-94617814D01*
X112459571Y-94758704D01*
X112771108Y-94840384D01*
X113092595Y-94859718D01*
X113411675Y-94815961D01*
X113716088Y-94710795D01*
X113890044Y-94617814D01*
X113985808Y-94353413D01*
X113030000Y-93397605D01*
X112074192Y-94353413D01*
X107485808Y-94353413D01*
X106530000Y-93397605D01*
X105574192Y-94353413D01*
X102773300Y-94353413D01*
X102773300Y-93549501D01*
X103042206Y-93280595D01*
X104888282Y-93280595D01*
X104932039Y-93599675D01*
X105037205Y-93904088D01*
X105130186Y-94078044D01*
X105394587Y-94173808D01*
X106350395Y-93218000D01*
X106709605Y-93218000D01*
X107665413Y-94173808D01*
X107929814Y-94078044D01*
X108070704Y-93788429D01*
X108152384Y-93476892D01*
X108164189Y-93280595D01*
X111388282Y-93280595D01*
X111432039Y-93599675D01*
X111537205Y-93904088D01*
X111630186Y-94078044D01*
X111894587Y-94173808D01*
X112850395Y-93218000D01*
X113209605Y-93218000D01*
X114165413Y-94173808D01*
X114429814Y-94078044D01*
X114570704Y-93788429D01*
X114652384Y-93476892D01*
X114671718Y-93155405D01*
X114627961Y-92836325D01*
X114522795Y-92531912D01*
X114429814Y-92357956D01*
X114165413Y-92262192D01*
X113209605Y-93218000D01*
X112850395Y-93218000D01*
X111894587Y-92262192D01*
X111630186Y-92357956D01*
X111489296Y-92647571D01*
X111407616Y-92959108D01*
X111388282Y-93280595D01*
X108164189Y-93280595D01*
X108171718Y-93155405D01*
X108127961Y-92836325D01*
X108022795Y-92531912D01*
X107929814Y-92357956D01*
X107665413Y-92262192D01*
X106709605Y-93218000D01*
X106350395Y-93218000D01*
X105394587Y-92262192D01*
X105130186Y-92357956D01*
X104989296Y-92647571D01*
X104907616Y-92959108D01*
X104888282Y-93280595D01*
X103042206Y-93280595D01*
X104240214Y-92082587D01*
X105574192Y-92082587D01*
X106530000Y-93038395D01*
X107485808Y-92082587D01*
X112074192Y-92082587D01*
X113030000Y-93038395D01*
X113985808Y-92082587D01*
X113890044Y-91818186D01*
X113600429Y-91677296D01*
X113288892Y-91595616D01*
X112967405Y-91576282D01*
X112648325Y-91620039D01*
X112343912Y-91725205D01*
X112169956Y-91818186D01*
X112074192Y-92082587D01*
X107485808Y-92082587D01*
X107390044Y-91818186D01*
X107100429Y-91677296D01*
X106788892Y-91595616D01*
X106467405Y-91576282D01*
X106148325Y-91620039D01*
X105843912Y-91725205D01*
X105669956Y-91818186D01*
X105574192Y-92082587D01*
X104240214Y-92082587D01*
X106038625Y-90284177D01*
X106053088Y-90290168D01*
X106368967Y-90353000D01*
X106691033Y-90353000D01*
X107006912Y-90290168D01*
X107304463Y-90166918D01*
X107572252Y-89987987D01*
X107799987Y-89760252D01*
X107978918Y-89492463D01*
X108102168Y-89194912D01*
X108165000Y-88879033D01*
X108165000Y-88556967D01*
X111395000Y-88556967D01*
X111395000Y-88879033D01*
X111457832Y-89194912D01*
X111581082Y-89492463D01*
X111760013Y-89760252D01*
X111987748Y-89987987D01*
X112255537Y-90166918D01*
X112553088Y-90290168D01*
X112868967Y-90353000D01*
X113191033Y-90353000D01*
X113506912Y-90290168D01*
X113804463Y-90166918D01*
X114072252Y-89987987D01*
X114299987Y-89760252D01*
X114478918Y-89492463D01*
X114602168Y-89194912D01*
X114665000Y-88879033D01*
X114665000Y-88556967D01*
X114602168Y-88241088D01*
X114478918Y-87943537D01*
X114299987Y-87675748D01*
X114288111Y-87663872D01*
X125527000Y-87663872D01*
X125527000Y-88104128D01*
X125612890Y-88535925D01*
X125781369Y-88942669D01*
X126025962Y-89308729D01*
X126337271Y-89620038D01*
X126703331Y-89864631D01*
X127110075Y-90033110D01*
X127541872Y-90119000D01*
X127982128Y-90119000D01*
X128413925Y-90033110D01*
X128820669Y-89864631D01*
X129186729Y-89620038D01*
X129498038Y-89308729D01*
X129742631Y-88942669D01*
X129911110Y-88535925D01*
X129997000Y-88104128D01*
X129997000Y-87663872D01*
X129911110Y-87232075D01*
X129742631Y-86825331D01*
X129498038Y-86459271D01*
X129186729Y-86147962D01*
X128820669Y-85903369D01*
X128413925Y-85734890D01*
X127982128Y-85649000D01*
X127541872Y-85649000D01*
X127110075Y-85734890D01*
X126703331Y-85903369D01*
X126337271Y-86147962D01*
X126025962Y-86459271D01*
X125781369Y-86825331D01*
X125612890Y-87232075D01*
X125527000Y-87663872D01*
X114288111Y-87663872D01*
X114072252Y-87448013D01*
X113804463Y-87269082D01*
X113506912Y-87145832D01*
X113191033Y-87083000D01*
X112868967Y-87083000D01*
X112553088Y-87145832D01*
X112255537Y-87269082D01*
X111987748Y-87448013D01*
X111760013Y-87675748D01*
X111581082Y-87943537D01*
X111457832Y-88241088D01*
X111395000Y-88556967D01*
X108165000Y-88556967D01*
X108102168Y-88241088D01*
X107978918Y-87943537D01*
X107799987Y-87675748D01*
X107572252Y-87448013D01*
X107304463Y-87269082D01*
X107006912Y-87145832D01*
X106691033Y-87083000D01*
X106368967Y-87083000D01*
X106053088Y-87145832D01*
X105755537Y-87269082D01*
X105487748Y-87448013D01*
X105260013Y-87675748D01*
X105081082Y-87943537D01*
X104957832Y-88241088D01*
X104895000Y-88556967D01*
X104895000Y-88879033D01*
X104957832Y-89194912D01*
X104963823Y-89209375D01*
X101502298Y-92670901D01*
X101473300Y-92694699D01*
X101449502Y-92723697D01*
X101449501Y-92723698D01*
X101378326Y-92810424D01*
X101307754Y-92942454D01*
X101264298Y-93085715D01*
X101249624Y-93234700D01*
X101253301Y-93272032D01*
X101253300Y-97152600D01*
X89602711Y-97152600D01*
X89558774Y-97108663D01*
X89389256Y-96995395D01*
X89200898Y-96917374D01*
X89000939Y-96877600D01*
X88933700Y-96877600D01*
X88933700Y-92386401D01*
X93221003Y-88099099D01*
X93250001Y-88075301D01*
X93276332Y-88043217D01*
X93344974Y-87959577D01*
X93415546Y-87827547D01*
X93427563Y-87787932D01*
X93459003Y-87684286D01*
X93463089Y-87642796D01*
X93656632Y-87513475D01*
X93863475Y-87306632D01*
X93980000Y-87132240D01*
X94096525Y-87306632D01*
X94303368Y-87513475D01*
X94546589Y-87675990D01*
X94816842Y-87787932D01*
X95103740Y-87845000D01*
X95396260Y-87845000D01*
X95683158Y-87787932D01*
X95953411Y-87675990D01*
X96196632Y-87513475D01*
X96403475Y-87306632D01*
X96525195Y-87124466D01*
X96594822Y-87241355D01*
X96789731Y-87457588D01*
X97023080Y-87631641D01*
X97285901Y-87756825D01*
X97433110Y-87801476D01*
X97663000Y-87680155D01*
X97663000Y-86487000D01*
X97917000Y-86487000D01*
X97917000Y-87680155D01*
X98146890Y-87801476D01*
X98294099Y-87756825D01*
X98556920Y-87631641D01*
X98790269Y-87457588D01*
X98985178Y-87241355D01*
X99134157Y-86991252D01*
X99231481Y-86716891D01*
X99110814Y-86487000D01*
X97917000Y-86487000D01*
X97663000Y-86487000D01*
X97643000Y-86487000D01*
X97643000Y-86233000D01*
X97663000Y-86233000D01*
X97663000Y-85039845D01*
X97917000Y-85039845D01*
X97917000Y-86233000D01*
X99110814Y-86233000D01*
X99231481Y-86003109D01*
X99134157Y-85728748D01*
X98985178Y-85478645D01*
X98790269Y-85262412D01*
X98556920Y-85088359D01*
X98294099Y-84963175D01*
X98146890Y-84918524D01*
X97917000Y-85039845D01*
X97663000Y-85039845D01*
X97433110Y-84918524D01*
X97285901Y-84963175D01*
X97023080Y-85088359D01*
X96789731Y-85262412D01*
X96594822Y-85478645D01*
X96525195Y-85595534D01*
X96403475Y-85413368D01*
X96196632Y-85206525D01*
X95953411Y-85044010D01*
X95683158Y-84932068D01*
X95396260Y-84875000D01*
X95103740Y-84875000D01*
X94816842Y-84932068D01*
X94546589Y-85044010D01*
X94303368Y-85206525D01*
X94096525Y-85413368D01*
X93980000Y-85587760D01*
X93863475Y-85413368D01*
X93656632Y-85206525D01*
X93413411Y-85044010D01*
X93143158Y-84932068D01*
X92856260Y-84875000D01*
X92563740Y-84875000D01*
X92276842Y-84932068D01*
X92006589Y-85044010D01*
X91763368Y-85206525D01*
X91556525Y-85413368D01*
X91440000Y-85587760D01*
X91323475Y-85413368D01*
X91116632Y-85206525D01*
X90873411Y-85044010D01*
X90603158Y-84932068D01*
X90316260Y-84875000D01*
X90023740Y-84875000D01*
X89736842Y-84932068D01*
X89466589Y-85044010D01*
X89223368Y-85206525D01*
X89091513Y-85338380D01*
X89069502Y-85265820D01*
X89010537Y-85155506D01*
X88931185Y-85058815D01*
X88834494Y-84979463D01*
X88724180Y-84920498D01*
X88604482Y-84884188D01*
X88480000Y-84871928D01*
X86780000Y-84871928D01*
X86655518Y-84884188D01*
X86535820Y-84920498D01*
X86425506Y-84979463D01*
X86328815Y-85058815D01*
X86249463Y-85155506D01*
X86190498Y-85265820D01*
X86154188Y-85385518D01*
X86141928Y-85510000D01*
X86141928Y-87210000D01*
X86154188Y-87334482D01*
X86190498Y-87454180D01*
X86249463Y-87564494D01*
X86328815Y-87661185D01*
X86384013Y-87706485D01*
X82872503Y-91217996D01*
X82843499Y-91241799D01*
X82814327Y-91277346D01*
X82748526Y-91357524D01*
X82706245Y-91436626D01*
X82677954Y-91489554D01*
X82634497Y-91632815D01*
X82623500Y-91744468D01*
X82623500Y-91744478D01*
X82619824Y-91781800D01*
X82623500Y-91819123D01*
X82623501Y-95855988D01*
X82579563Y-95899926D01*
X82466295Y-96069444D01*
X82388274Y-96257802D01*
X82348500Y-96457761D01*
X47142000Y-96457761D01*
X47142000Y-93686890D01*
X63973524Y-93686890D01*
X64018175Y-93834099D01*
X64143359Y-94096920D01*
X64317412Y-94330269D01*
X64533645Y-94525178D01*
X64783748Y-94674157D01*
X65058109Y-94771481D01*
X65288000Y-94650814D01*
X65288000Y-93457000D01*
X65542000Y-93457000D01*
X65542000Y-94650814D01*
X65771891Y-94771481D01*
X66046252Y-94674157D01*
X66296355Y-94525178D01*
X66512588Y-94330269D01*
X66686641Y-94096920D01*
X66811825Y-93834099D01*
X66856476Y-93686890D01*
X66735155Y-93457000D01*
X65542000Y-93457000D01*
X65288000Y-93457000D01*
X64094845Y-93457000D01*
X63973524Y-93686890D01*
X47142000Y-93686890D01*
X47142000Y-87663872D01*
X49327000Y-87663872D01*
X49327000Y-88104128D01*
X49412890Y-88535925D01*
X49581369Y-88942669D01*
X49825962Y-89308729D01*
X50137271Y-89620038D01*
X50503331Y-89864631D01*
X50910075Y-90033110D01*
X51341872Y-90119000D01*
X51782128Y-90119000D01*
X52213925Y-90033110D01*
X52620669Y-89864631D01*
X52986729Y-89620038D01*
X53298038Y-89308729D01*
X53542631Y-88942669D01*
X53711110Y-88535925D01*
X53797000Y-88104128D01*
X53797000Y-87663872D01*
X53711110Y-87232075D01*
X53542631Y-86825331D01*
X53298038Y-86459271D01*
X52986729Y-86147962D01*
X52620669Y-85903369D01*
X52213925Y-85734890D01*
X51782128Y-85649000D01*
X51341872Y-85649000D01*
X50910075Y-85734890D01*
X50503331Y-85903369D01*
X50137271Y-86147962D01*
X49825962Y-86459271D01*
X49581369Y-86825331D01*
X49412890Y-87232075D01*
X49327000Y-87663872D01*
X47142000Y-87663872D01*
X47142000Y-84860000D01*
X63926928Y-84860000D01*
X63926928Y-86560000D01*
X63939188Y-86684482D01*
X63975498Y-86804180D01*
X64034463Y-86914494D01*
X64113815Y-87011185D01*
X64210506Y-87090537D01*
X64320820Y-87149502D01*
X64393380Y-87171513D01*
X64261525Y-87303368D01*
X64099010Y-87546589D01*
X63987068Y-87816842D01*
X63930000Y-88103740D01*
X63930000Y-88396260D01*
X63987068Y-88683158D01*
X64099010Y-88953411D01*
X64261525Y-89196632D01*
X64468368Y-89403475D01*
X64642760Y-89520000D01*
X64468368Y-89636525D01*
X64261525Y-89843368D01*
X64099010Y-90086589D01*
X63987068Y-90356842D01*
X63930000Y-90643740D01*
X63930000Y-90936260D01*
X63987068Y-91223158D01*
X64099010Y-91493411D01*
X64261525Y-91736632D01*
X64468368Y-91943475D01*
X64650534Y-92065195D01*
X64533645Y-92134822D01*
X64317412Y-92329731D01*
X64143359Y-92563080D01*
X64018175Y-92825901D01*
X63973524Y-92973110D01*
X64094845Y-93203000D01*
X65288000Y-93203000D01*
X65288000Y-93183000D01*
X65542000Y-93183000D01*
X65542000Y-93203000D01*
X66735155Y-93203000D01*
X66856476Y-92973110D01*
X66811825Y-92825901D01*
X66686641Y-92563080D01*
X66512588Y-92329731D01*
X66296355Y-92134822D01*
X66179466Y-92065195D01*
X66361632Y-91943475D01*
X66568475Y-91736632D01*
X66730990Y-91493411D01*
X66842932Y-91223158D01*
X66900000Y-90936260D01*
X66900000Y-90643740D01*
X66842932Y-90356842D01*
X66730990Y-90086589D01*
X66568475Y-89843368D01*
X66361632Y-89636525D01*
X66187240Y-89520000D01*
X66361632Y-89403475D01*
X66568475Y-89196632D01*
X66730990Y-88953411D01*
X66842932Y-88683158D01*
X66900000Y-88396260D01*
X66900000Y-88103740D01*
X66842932Y-87816842D01*
X66730990Y-87546589D01*
X66568475Y-87303368D01*
X66436620Y-87171513D01*
X66509180Y-87149502D01*
X66619494Y-87090537D01*
X66716185Y-87011185D01*
X66795537Y-86914494D01*
X66854502Y-86804180D01*
X66890812Y-86684482D01*
X66903072Y-86560000D01*
X66903072Y-84860000D01*
X66890812Y-84735518D01*
X66854502Y-84615820D01*
X66795537Y-84505506D01*
X66716185Y-84408815D01*
X66619494Y-84329463D01*
X66509180Y-84270498D01*
X66389482Y-84234188D01*
X66265000Y-84221928D01*
X64565000Y-84221928D01*
X64440518Y-84234188D01*
X64320820Y-84270498D01*
X64210506Y-84329463D01*
X64113815Y-84408815D01*
X64034463Y-84505506D01*
X63975498Y-84615820D01*
X63939188Y-84735518D01*
X63926928Y-84860000D01*
X47142000Y-84860000D01*
X47142000Y-84201000D01*
X131674001Y-84201000D01*
X131674000Y-158877455D01*
G37*
%TD.AperFunction*%
%TD*%
M02*
