<?xml version="1.0" standalone="no"?>
 <!DOCTYPE svg PUBLIC "-//W3C//DTD SVG 1.1//EN" 
 "http://www.w3.org/Graphics/SVG/1.1/DTD/svg11.dtd"> 
<svg
  xmlns:svg="http://www.w3.org/2000/svg"
  xmlns="http://www.w3.org/2000/svg"
  xmlns:xlink="http://www.w3.org/1999/xlink"
  version="1.1"
  width="29.700220cm" height="21.000720cm" viewBox="0 0 116930 82680">
<title>SVG Picture created as Sterownik-F_SilkS.svg date 2021/10/06 23:34:57 </title>
  <desc>Picture generated by PCBNEW </desc>
<g style="fill:#000000; fill-opacity:1;stroke:#000000; stroke-opacity:1;
stroke-linecap:round; stroke-linejoin:round;"
 transform="translate(0 0) scale(1 1)">
</g>
<g style="fill:#000000; fill-opacity:0.0; 
stroke:#000000; stroke-width:-0.000393701; stroke-opacity:1; 
stroke-linecap:round; stroke-linejoin:round;">
</g>
<g style="fill:#000000; fill-opacity:0.0; 
stroke:#000000; stroke-width:39.3701; stroke-opacity:1; 
stroke-linecap:round; stroke-linejoin:round;">
</g>
<g style="fill:#000000; fill-opacity:0.0; 
stroke:#000000; stroke-width:59.0551; stroke-opacity:1; 
stroke-linecap:round; stroke-linejoin:round;">
<rect x="69685.9" y="65357.2" width="42519.7" height="12598.4" rx="0" />
</g>
<g style="fill:#000000; fill-opacity:0.0; 
stroke:#000000; stroke-width:39.3701; stroke-opacity:1; 
stroke-linecap:round; stroke-linejoin:round;">
</g>
<g style="fill:#000000; fill-opacity:0.0; 
stroke:#000000; stroke-width:59.0551; stroke-opacity:1; 
stroke-linecap:round; stroke-linejoin:round;">
<rect x="3937.01" y="3937.01" width="109056" height="74806" rx="0" />
</g>
<g style="fill:#000000; fill-opacity:0.0; 
stroke:#000000; stroke-width:39.3701; stroke-opacity:1; 
stroke-linecap:round; stroke-linejoin:round;">
</g>
<g style="fill:#000000; fill-opacity:0.0; 
stroke:#000000; stroke-width:59.0551; stroke-opacity:1; 
stroke-linecap:round; stroke-linejoin:round;">
<rect x="4724.41" y="4724.41" width="107481" height="73231.2" rx="0" />
</g>
<g style="fill:#000000; fill-opacity:0.0; 
stroke:#000000; stroke-width:39.3701; stroke-opacity:1; 
stroke-linecap:round; stroke-linejoin:round;">
</g>
<g style="fill:#000000; fill-opacity:0.0; 
stroke:#000000; stroke-width:59.0551; stroke-opacity:1; 
stroke-linecap:round; stroke-linejoin:round;">
<path d="M23622 4724
L23622 3937
" />
</g>
<g style="fill:#000000; fill-opacity:0.0; 
stroke:#000000; stroke-width:39.3701; stroke-opacity:1; 
stroke-linecap:round; stroke-linejoin:round;">
</g>
<g style="fill:#000000; fill-opacity:0.0; 
stroke:#000000; stroke-width:59.0551; stroke-opacity:1; 
stroke-linecap:round; stroke-linejoin:round;">
<path d="M43307 4724
L43307 3937
" />
</g>
<g style="fill:#000000; fill-opacity:0.0; 
stroke:#000000; stroke-width:39.3701; stroke-opacity:1; 
stroke-linecap:round; stroke-linejoin:round;">
</g>
<g style="fill:#000000; fill-opacity:0.0; 
stroke:#000000; stroke-width:59.0551; stroke-opacity:1; 
stroke-linecap:round; stroke-linejoin:round;">
<path d="M62992 4724
L62992 3937
" />
</g>
<g style="fill:#000000; fill-opacity:0.0; 
stroke:#000000; stroke-width:39.3701; stroke-opacity:1; 
stroke-linecap:round; stroke-linejoin:round;">
</g>
<g style="fill:#000000; fill-opacity:0.0; 
stroke:#000000; stroke-width:59.0551; stroke-opacity:1; 
stroke-linecap:round; stroke-linejoin:round;">
<path d="M82677 4724
L82677 3937
" />
</g>
<g style="fill:#000000; fill-opacity:0.0; 
stroke:#000000; stroke-width:39.3701; stroke-opacity:1; 
stroke-linecap:round; stroke-linejoin:round;">
</g>
<g style="fill:#000000; fill-opacity:0.0; 
stroke:#000000; stroke-width:59.0551; stroke-opacity:1; 
stroke-linecap:round; stroke-linejoin:round;">
<path d="M102362 4724
L102362 3937
" />
</g>
<g style="fill:#000000; fill-opacity:0.0; 
stroke:#000000; stroke-width:39.3701; stroke-opacity:1; 
stroke-linecap:round; stroke-linejoin:round;">
</g>
<g style="fill:#000000; fill-opacity:0.0; 
stroke:#000000; stroke-width:59.0551; stroke-opacity:1; 
stroke-linecap:round; stroke-linejoin:round;">
<text x="13779.5" y="4586.61"
textLength="546.494" font-size="682.415" lengthAdjust="spacingAndGlyphs"
text-anchor="start" opacity="0">1</text>
<path d="M14199 4562
L13906 4562
" />
<path d="M14052 4562
L14052 4050
L14004 4123
L13955 4172
L13906 4196
" />
</g>
<g style="fill:#000000; fill-opacity:0.0; 
stroke:#000000; stroke-width:39.3701; stroke-opacity:1; 
stroke-linecap:round; stroke-linejoin:round;">
</g>
<g style="fill:#000000; fill-opacity:0.0; 
stroke:#000000; stroke-width:59.0551; stroke-opacity:1; 
stroke-linecap:round; stroke-linejoin:round;">
<text x="33464.6" y="4586.61"
textLength="546.494" font-size="682.415" lengthAdjust="spacingAndGlyphs"
text-anchor="start" opacity="0">2</text>
<path d="M33591 4099
L33615 4074
L33664 4050
L33786 4050
L33835 4074
L33859 4099
L33884 4147
L33884 4196
L33859 4269
L33567 4562
L33884 4562
" />
</g>
<g style="fill:#000000; fill-opacity:0.0; 
stroke:#000000; stroke-width:39.3701; stroke-opacity:1; 
stroke-linecap:round; stroke-linejoin:round;">
</g>
<g style="fill:#000000; fill-opacity:0.0; 
stroke:#000000; stroke-width:59.0551; stroke-opacity:1; 
stroke-linecap:round; stroke-linejoin:round;">
<text x="53149.6" y="4586.61"
textLength="546.494" font-size="682.415" lengthAdjust="spacingAndGlyphs"
text-anchor="start" opacity="0">3</text>
<path d="M53252 4050
L53569 4050
L53398 4245
L53471 4245
L53520 4269
L53544 4294
L53569 4342
L53569 4464
L53544 4513
L53520 4537
L53471 4562
L53325 4562
L53276 4537
L53252 4513
" />
</g>
<g style="fill:#000000; fill-opacity:0.0; 
stroke:#000000; stroke-width:39.3701; stroke-opacity:1; 
stroke-linecap:round; stroke-linejoin:round;">
</g>
<g style="fill:#000000; fill-opacity:0.0; 
stroke:#000000; stroke-width:59.0551; stroke-opacity:1; 
stroke-linecap:round; stroke-linejoin:round;">
<text x="72834.6" y="4586.61"
textLength="546.494" font-size="682.415" lengthAdjust="spacingAndGlyphs"
text-anchor="start" opacity="0">4</text>
<path d="M73205 4221
L73205 4562
" />
<path d="M73083 4026
L72961 4391
L73278 4391
" />
</g>
<g style="fill:#000000; fill-opacity:0.0; 
stroke:#000000; stroke-width:39.3701; stroke-opacity:1; 
stroke-linecap:round; stroke-linejoin:round;">
</g>
<g style="fill:#000000; fill-opacity:0.0; 
stroke:#000000; stroke-width:59.0551; stroke-opacity:1; 
stroke-linecap:round; stroke-linejoin:round;">
<text x="92519.7" y="4586.61"
textLength="546.494" font-size="682.415" lengthAdjust="spacingAndGlyphs"
text-anchor="start" opacity="0">5</text>
<path d="M92914 4050
L92671 4050
L92646 4294
L92671 4269
L92719 4245
L92841 4245
L92890 4269
L92914 4294
L92939 4342
L92939 4464
L92914 4513
L92890 4537
L92841 4562
L92719 4562
L92671 4537
L92646 4513
" />
</g>
<g style="fill:#000000; fill-opacity:0.0; 
stroke:#000000; stroke-width:39.3701; stroke-opacity:1; 
stroke-linecap:round; stroke-linejoin:round;">
</g>
<g style="fill:#000000; fill-opacity:0.0; 
stroke:#000000; stroke-width:59.0551; stroke-opacity:1; 
stroke-linecap:round; stroke-linejoin:round;">
<text x="112205" y="4586.61"
textLength="546.494" font-size="682.415" lengthAdjust="spacingAndGlyphs"
text-anchor="start" opacity="0">6</text>
<path d="M112575 4050
L112477 4050
L112429 4074
L112404 4099
L112356 4172
L112331 4269
L112331 4464
L112356 4513
L112380 4537
L112429 4562
L112526 4562
L112575 4537
L112599 4513
L112624 4464
L112624 4342
L112599 4294
L112575 4269
L112526 4245
L112429 4245
L112380 4269
L112356 4294
L112331 4342
" />
</g>
<g style="fill:#000000; fill-opacity:0.0; 
stroke:#000000; stroke-width:39.3701; stroke-opacity:1; 
stroke-linecap:round; stroke-linejoin:round;">
</g>
<g style="fill:#000000; fill-opacity:0.0; 
stroke:#000000; stroke-width:59.0551; stroke-opacity:1; 
stroke-linecap:round; stroke-linejoin:round;">
<path d="M23622 77955
L23622 78742
" />
</g>
<g style="fill:#000000; fill-opacity:0.0; 
stroke:#000000; stroke-width:39.3701; stroke-opacity:1; 
stroke-linecap:round; stroke-linejoin:round;">
</g>
<g style="fill:#000000; fill-opacity:0.0; 
stroke:#000000; stroke-width:59.0551; stroke-opacity:1; 
stroke-linecap:round; stroke-linejoin:round;">
<path d="M43307 77955
L43307 78742
" />
</g>
<g style="fill:#000000; fill-opacity:0.0; 
stroke:#000000; stroke-width:39.3701; stroke-opacity:1; 
stroke-linecap:round; stroke-linejoin:round;">
</g>
<g style="fill:#000000; fill-opacity:0.0; 
stroke:#000000; stroke-width:59.0551; stroke-opacity:1; 
stroke-linecap:round; stroke-linejoin:round;">
<path d="M62992 77955
L62992 78742
" />
</g>
<g style="fill:#000000; fill-opacity:0.0; 
stroke:#000000; stroke-width:39.3701; stroke-opacity:1; 
stroke-linecap:round; stroke-linejoin:round;">
</g>
<g style="fill:#000000; fill-opacity:0.0; 
stroke:#000000; stroke-width:59.0551; stroke-opacity:1; 
stroke-linecap:round; stroke-linejoin:round;">
<path d="M82677 77955
L82677 78742
" />
</g>
<g style="fill:#000000; fill-opacity:0.0; 
stroke:#000000; stroke-width:39.3701; stroke-opacity:1; 
stroke-linecap:round; stroke-linejoin:round;">
</g>
<g style="fill:#000000; fill-opacity:0.0; 
stroke:#000000; stroke-width:59.0551; stroke-opacity:1; 
stroke-linecap:round; stroke-linejoin:round;">
<path d="M102362 77955
L102362 78742
" />
</g>
<g style="fill:#000000; fill-opacity:0.0; 
stroke:#000000; stroke-width:39.3701; stroke-opacity:1; 
stroke-linecap:round; stroke-linejoin:round;">
</g>
<g style="fill:#000000; fill-opacity:0.0; 
stroke:#000000; stroke-width:59.0551; stroke-opacity:1; 
stroke-linecap:round; stroke-linejoin:round;">
<text x="13779.5" y="78605.2"
textLength="546.494" font-size="682.415" lengthAdjust="spacingAndGlyphs"
text-anchor="start" opacity="0">1</text>
<path d="M14199 78580
L13906 78580
" />
<path d="M14052 78580
L14052 78069
L14004 78142
L13955 78190
L13906 78215
" />
</g>
<g style="fill:#000000; fill-opacity:0.0; 
stroke:#000000; stroke-width:39.3701; stroke-opacity:1; 
stroke-linecap:round; stroke-linejoin:round;">
</g>
<g style="fill:#000000; fill-opacity:0.0; 
stroke:#000000; stroke-width:59.0551; stroke-opacity:1; 
stroke-linecap:round; stroke-linejoin:round;">
<text x="33464.6" y="78605.2"
textLength="546.494" font-size="682.415" lengthAdjust="spacingAndGlyphs"
text-anchor="start" opacity="0">2</text>
<path d="M33591 78117
L33615 78093
L33664 78069
L33786 78069
L33835 78093
L33859 78117
L33884 78166
L33884 78215
L33859 78288
L33567 78580
L33884 78580
" />
</g>
<g style="fill:#000000; fill-opacity:0.0; 
stroke:#000000; stroke-width:39.3701; stroke-opacity:1; 
stroke-linecap:round; stroke-linejoin:round;">
</g>
<g style="fill:#000000; fill-opacity:0.0; 
stroke:#000000; stroke-width:59.0551; stroke-opacity:1; 
stroke-linecap:round; stroke-linejoin:round;">
<text x="53149.6" y="78605.2"
textLength="546.494" font-size="682.415" lengthAdjust="spacingAndGlyphs"
text-anchor="start" opacity="0">3</text>
<path d="M53252 78069
L53569 78069
L53398 78263
L53471 78263
L53520 78288
L53544 78312
L53569 78361
L53569 78483
L53544 78532
L53520 78556
L53471 78580
L53325 78580
L53276 78556
L53252 78532
" />
</g>
<g style="fill:#000000; fill-opacity:0.0; 
stroke:#000000; stroke-width:39.3701; stroke-opacity:1; 
stroke-linecap:round; stroke-linejoin:round;">
</g>
<g style="fill:#000000; fill-opacity:0.0; 
stroke:#000000; stroke-width:59.0551; stroke-opacity:1; 
stroke-linecap:round; stroke-linejoin:round;">
<text x="72834.6" y="78605.2"
textLength="546.494" font-size="682.415" lengthAdjust="spacingAndGlyphs"
text-anchor="start" opacity="0">4</text>
<path d="M73205 78239
L73205 78580
" />
<path d="M73083 78044
L72961 78410
L73278 78410
" />
</g>
<g style="fill:#000000; fill-opacity:0.0; 
stroke:#000000; stroke-width:39.3701; stroke-opacity:1; 
stroke-linecap:round; stroke-linejoin:round;">
</g>
<g style="fill:#000000; fill-opacity:0.0; 
stroke:#000000; stroke-width:59.0551; stroke-opacity:1; 
stroke-linecap:round; stroke-linejoin:round;">
<text x="92519.7" y="78605.2"
textLength="546.494" font-size="682.415" lengthAdjust="spacingAndGlyphs"
text-anchor="start" opacity="0">5</text>
<path d="M92914 78069
L92671 78069
L92646 78312
L92671 78288
L92719 78263
L92841 78263
L92890 78288
L92914 78312
L92939 78361
L92939 78483
L92914 78532
L92890 78556
L92841 78580
L92719 78580
L92671 78556
L92646 78532
" />
</g>
<g style="fill:#000000; fill-opacity:0.0; 
stroke:#000000; stroke-width:39.3701; stroke-opacity:1; 
stroke-linecap:round; stroke-linejoin:round;">
</g>
<g style="fill:#000000; fill-opacity:0.0; 
stroke:#000000; stroke-width:59.0551; stroke-opacity:1; 
stroke-linecap:round; stroke-linejoin:round;">
<text x="112205" y="78605.2"
textLength="546.494" font-size="682.415" lengthAdjust="spacingAndGlyphs"
text-anchor="start" opacity="0">6</text>
<path d="M112575 78069
L112477 78069
L112429 78093
L112404 78117
L112356 78190
L112331 78288
L112331 78483
L112356 78532
L112380 78556
L112429 78580
L112526 78580
L112575 78556
L112599 78532
L112624 78483
L112624 78361
L112599 78312
L112575 78288
L112526 78263
L112429 78263
L112380 78288
L112356 78312
L112331 78361
" />
</g>
<g style="fill:#000000; fill-opacity:0.0; 
stroke:#000000; stroke-width:39.3701; stroke-opacity:1; 
stroke-linecap:round; stroke-linejoin:round;">
</g>
<g style="fill:#000000; fill-opacity:0.0; 
stroke:#000000; stroke-width:59.0551; stroke-opacity:1; 
stroke-linecap:round; stroke-linejoin:round;">
<path d="M3937 23622
L4724 23622
" />
</g>
<g style="fill:#000000; fill-opacity:0.0; 
stroke:#000000; stroke-width:39.3701; stroke-opacity:1; 
stroke-linecap:round; stroke-linejoin:round;">
</g>
<g style="fill:#000000; fill-opacity:0.0; 
stroke:#000000; stroke-width:59.0551; stroke-opacity:1; 
stroke-linecap:round; stroke-linejoin:round;">
<path d="M3937 43307
L4724 43307
" />
</g>
<g style="fill:#000000; fill-opacity:0.0; 
stroke:#000000; stroke-width:39.3701; stroke-opacity:1; 
stroke-linecap:round; stroke-linejoin:round;">
</g>
<g style="fill:#000000; fill-opacity:0.0; 
stroke:#000000; stroke-width:59.0551; stroke-opacity:1; 
stroke-linecap:round; stroke-linejoin:round;">
<path d="M3937 62992
L4724 62992
" />
</g>
<g style="fill:#000000; fill-opacity:0.0; 
stroke:#000000; stroke-width:39.3701; stroke-opacity:1; 
stroke-linecap:round; stroke-linejoin:round;">
</g>
<g style="fill:#000000; fill-opacity:0.0; 
stroke:#000000; stroke-width:59.0551; stroke-opacity:1; 
stroke-linecap:round; stroke-linejoin:round;">
<text x="4330.71" y="14035.4"
textLength="497.75" font-size="682.415" lengthAdjust="spacingAndGlyphs"
text-anchor="middle" opacity="0">A</text>
<path d="M4208 13864
L4452 13864
" />
<path d="M4160 14011
L4330 13499
L4501 14011
" />
</g>
<g style="fill:#000000; fill-opacity:0.0; 
stroke:#000000; stroke-width:39.3701; stroke-opacity:1; 
stroke-linecap:round; stroke-linejoin:round;">
</g>
<g style="fill:#000000; fill-opacity:0.0; 
stroke:#000000; stroke-width:59.0551; stroke-opacity:1; 
stroke-linecap:round; stroke-linejoin:round;">
<text x="4330.71" y="33720.5"
textLength="570.866" font-size="682.415" lengthAdjust="spacingAndGlyphs"
text-anchor="middle" opacity="0">B</text>
<path d="M4367 33428
L4440 33452
L4464 33476
L4489 33525
L4489 33598
L4464 33647
L4440 33671
L4391 33696
L4196 33696
L4196 33184
L4367 33184
L4416 33208
L4440 33233
L4464 33281
L4464 33330
L4440 33379
L4416 33403
L4367 33428
L4196 33428
" />
</g>
<g style="fill:#000000; fill-opacity:0.0; 
stroke:#000000; stroke-width:39.3701; stroke-opacity:1; 
stroke-linecap:round; stroke-linejoin:round;">
</g>
<g style="fill:#000000; fill-opacity:0.0; 
stroke:#000000; stroke-width:59.0551; stroke-opacity:1; 
stroke-linecap:round; stroke-linejoin:round;">
<text x="4330.71" y="53405.5"
textLength="570.866" font-size="682.415" lengthAdjust="spacingAndGlyphs"
text-anchor="middle" opacity="0">C</text>
<path d="M4489 53332
L4464 53356
L4391 53381
L4342 53381
L4269 53356
L4221 53308
L4196 53259
L4172 53161
L4172 53088
L4196 52991
L4221 52942
L4269 52893
L4342 52869
L4391 52869
L4464 52893
L4489 52918
" />
</g>
<g style="fill:#000000; fill-opacity:0.0; 
stroke:#000000; stroke-width:39.3701; stroke-opacity:1; 
stroke-linecap:round; stroke-linejoin:round;">
</g>
<g style="fill:#000000; fill-opacity:0.0; 
stroke:#000000; stroke-width:59.0551; stroke-opacity:1; 
stroke-linecap:round; stroke-linejoin:round;">
<text x="4330.71" y="73090.6"
textLength="570.866" font-size="682.415" lengthAdjust="spacingAndGlyphs"
text-anchor="middle" opacity="0">D</text>
<path d="M4196 73066
L4196 72554
L4318 72554
L4391 72578
L4440 72627
L4464 72676
L4489 72773
L4489 72846
L4464 72944
L4440 72993
L4391 73041
L4318 73066
L4196 73066
" />
</g>
<g style="fill:#000000; fill-opacity:0.0; 
stroke:#000000; stroke-width:39.3701; stroke-opacity:1; 
stroke-linecap:round; stroke-linejoin:round;">
</g>
<g style="fill:#000000; fill-opacity:0.0; 
stroke:#000000; stroke-width:59.0551; stroke-opacity:1; 
stroke-linecap:round; stroke-linejoin:round;">
<path d="M112992 23622
L112205 23622
" />
</g>
<g style="fill:#000000; fill-opacity:0.0; 
stroke:#000000; stroke-width:39.3701; stroke-opacity:1; 
stroke-linecap:round; stroke-linejoin:round;">
</g>
<g style="fill:#000000; fill-opacity:0.0; 
stroke:#000000; stroke-width:59.0551; stroke-opacity:1; 
stroke-linecap:round; stroke-linejoin:round;">
<path d="M112992 43307
L112205 43307
" />
</g>
<g style="fill:#000000; fill-opacity:0.0; 
stroke:#000000; stroke-width:39.3701; stroke-opacity:1; 
stroke-linecap:round; stroke-linejoin:round;">
</g>
<g style="fill:#000000; fill-opacity:0.0; 
stroke:#000000; stroke-width:59.0551; stroke-opacity:1; 
stroke-linecap:round; stroke-linejoin:round;">
<path d="M112992 62992
L112205 62992
" />
</g>
<g style="fill:#000000; fill-opacity:0.0; 
stroke:#000000; stroke-width:39.3701; stroke-opacity:1; 
stroke-linecap:round; stroke-linejoin:round;">
</g>
<g style="fill:#000000; fill-opacity:0.0; 
stroke:#000000; stroke-width:59.0551; stroke-opacity:1; 
stroke-linecap:round; stroke-linejoin:round;">
<text x="112599" y="14035.4"
textLength="497.75" font-size="682.415" lengthAdjust="spacingAndGlyphs"
text-anchor="middle" opacity="0">A</text>
<path d="M112477 13864
L112721 13864
" />
<path d="M112428 14011
L112599 13499
L112769 14011
" />
</g>
<g style="fill:#000000; fill-opacity:0.0; 
stroke:#000000; stroke-width:39.3701; stroke-opacity:1; 
stroke-linecap:round; stroke-linejoin:round;">
</g>
<g style="fill:#000000; fill-opacity:0.0; 
stroke:#000000; stroke-width:59.0551; stroke-opacity:1; 
stroke-linecap:round; stroke-linejoin:round;">
<text x="112599" y="33720.5"
textLength="570.866" font-size="682.415" lengthAdjust="spacingAndGlyphs"
text-anchor="middle" opacity="0">B</text>
<path d="M112635 33428
L112708 33452
L112733 33476
L112757 33525
L112757 33598
L112733 33647
L112708 33671
L112660 33696
L112465 33696
L112465 33184
L112635 33184
L112684 33208
L112708 33233
L112733 33281
L112733 33330
L112708 33379
L112684 33403
L112635 33428
L112465 33428
" />
</g>
<g style="fill:#000000; fill-opacity:0.0; 
stroke:#000000; stroke-width:39.3701; stroke-opacity:1; 
stroke-linecap:round; stroke-linejoin:round;">
</g>
<g style="fill:#000000; fill-opacity:0.0; 
stroke:#000000; stroke-width:59.0551; stroke-opacity:1; 
stroke-linecap:round; stroke-linejoin:round;">
<text x="112599" y="53405.5"
textLength="570.866" font-size="682.415" lengthAdjust="spacingAndGlyphs"
text-anchor="middle" opacity="0">C</text>
<path d="M112757 53332
L112733 53356
L112660 53381
L112611 53381
L112538 53356
L112489 53308
L112465 53259
L112440 53161
L112440 53088
L112465 52991
L112489 52942
L112538 52893
L112611 52869
L112660 52869
L112733 52893
L112757 52918
" />
</g>
<g style="fill:#000000; fill-opacity:0.0; 
stroke:#000000; stroke-width:39.3701; stroke-opacity:1; 
stroke-linecap:round; stroke-linejoin:round;">
</g>
<g style="fill:#000000; fill-opacity:0.0; 
stroke:#000000; stroke-width:59.0551; stroke-opacity:1; 
stroke-linecap:round; stroke-linejoin:round;">
<text x="112599" y="73090.6"
textLength="570.866" font-size="682.415" lengthAdjust="spacingAndGlyphs"
text-anchor="middle" opacity="0">D</text>
<path d="M112465 73066
L112465 72554
L112587 72554
L112660 72578
L112708 72627
L112733 72676
L112757 72773
L112757 72846
L112733 72944
L112708 72993
L112660 73041
L112587 73066
L112465 73066
" />
</g>
<g style="fill:#000000; fill-opacity:0.0; 
stroke:#000000; stroke-width:39.3701; stroke-opacity:1; 
stroke-linecap:round; stroke-linejoin:round;">
</g>
<g style="fill:#000000; fill-opacity:0.0; 
stroke:#000000; stroke-width:59.0551; stroke-opacity:1; 
stroke-linecap:round; stroke-linejoin:round;">
<text x="78741" y="76321.7"
textLength="2758.72" font-size="787.402" lengthAdjust="spacingAndGlyphs"
text-anchor="start" opacity="0">Date: </text>
<path d="M78911 76293
L78911 75703
L79051 75703
L79136 75731
L79192 75787
L79220 75843
L79248 75956
L79248 76040
L79220 76153
L79192 76209
L79136 76265
L79051 76293
L78911 76293
" />
<path d="M79754 76293
L79754 75984
L79726 75928
L79670 75899
L79557 75899
L79501 75928
" />
<path d="M79754 76265
L79698 76293
L79557 76293
L79501 76265
L79473 76209
L79473 76153
L79501 76096
L79557 76068
L79698 76068
L79754 76040
" />
<path d="M79951 75899
L80176 75899
" />
<path d="M80036 75703
L80036 76209
L80064 76265
L80120 76293
L80176 76293
" />
<path d="M80598 76265
L80542 76293
L80429 76293
L80373 76265
L80345 76209
L80345 75984
L80373 75928
L80429 75899
L80542 75899
L80598 75928
L80626 75984
L80626 76040
L80345 76096
" />
<path d="M80879 76237
L80907 76265
L80879 76293
L80851 76265
L80879 76237
L80879 76293
" />
<path d="M80879 75928
L80907 75956
L80879 75984
L80851 75956
L80879 75928
L80879 75984
" />
</g>
<g style="fill:#000000; fill-opacity:0.0; 
stroke:#000000; stroke-width:39.3701; stroke-opacity:1; 
stroke-linecap:round; stroke-linejoin:round;">
</g>
<g style="fill:#000000; fill-opacity:0.0; 
stroke:#000000; stroke-width:59.0551; stroke-opacity:1; 
stroke-linecap:round; stroke-linejoin:round;">
<path d="M69685 76577
L112205 76577
" />
</g>
<g style="fill:#000000; fill-opacity:0.0; 
stroke:#000000; stroke-width:39.3701; stroke-opacity:1; 
stroke-linecap:round; stroke-linejoin:round;">
</g>
<g style="fill:#000000; fill-opacity:0.0; 
stroke:#000000; stroke-width:59.0551; stroke-opacity:1; 
stroke-linecap:round; stroke-linejoin:round;">
<text x="70079.6" y="77424.1"
textLength="13529.2" font-size="787.402" lengthAdjust="spacingAndGlyphs"
text-anchor="start" opacity="0">KiCad E.D.A.  kicad (5.1.9)-1</text>
<path d="M70249 77395
L70249 76805
" />
<path d="M70587 77395
L70334 77058
" />
<path d="M70587 76805
L70249 77142
" />
<path d="M70840 77395
L70840 77002
" />
<path d="M70840 76805
L70812 76833
L70840 76861
L70868 76833
L70840 76805
L70840 76861
" />
<path d="M71458 77339
L71430 77367
L71346 77395
L71290 77395
L71205 77367
L71149 77311
L71121 77255
L71093 77142
L71093 77058
L71121 76946
L71149 76889
L71205 76833
L71290 76805
L71346 76805
L71430 76833
L71458 76861
" />
<path d="M71965 77395
L71965 77086
L71937 77030
L71880 77002
L71768 77002
L71712 77030
" />
<path d="M71965 77367
L71908 77395
L71768 77395
L71712 77367
L71683 77311
L71683 77255
L71712 77199
L71768 77171
L71908 77171
L71965 77142
" />
<path d="M72499 77395
L72499 76805
" />
<path d="M72499 77367
L72443 77395
L72330 77395
L72274 77367
L72246 77339
L72218 77283
L72218 77114
L72246 77058
L72274 77030
L72330 77002
L72443 77002
L72499 77030
" />
<path d="M73230 77086
L73427 77086
" />
<path d="M73511 77395
L73230 77395
L73230 76805
L73511 76805
" />
<path d="M73764 77339
L73793 77367
L73764 77395
L73736 77367
L73764 77339
L73764 77395
" />
<path d="M74046 77395
L74046 76805
L74186 76805
L74271 76833
L74327 76889
L74355 76946
L74383 77058
L74383 77142
L74355 77255
L74327 77311
L74271 77367
L74186 77395
L74046 77395
" />
<path d="M74636 77339
L74664 77367
L74636 77395
L74608 77367
L74636 77339
L74636 77395
" />
<path d="M74889 77227
L75171 77227
" />
<path d="M74833 77395
L75030 76805
L75227 77395
" />
<path d="M75424 77339
L75452 77367
L75424 77395
L75395 77367
L75424 77339
L75424 77395
" />
<path d="M76605 77395
L76605 76805
" />
<path d="M76661 77171
L76830 77395
" />
<path d="M76830 77002
L76605 77227
" />
<path d="M77083 77395
L77083 77002
" />
<path d="M77083 76805
L77055 76833
L77083 76861
L77111 76833
L77083 76805
L77083 76861
" />
<path d="M77617 77367
L77561 77395
L77448 77395
L77392 77367
L77364 77339
L77336 77283
L77336 77114
L77364 77058
L77392 77030
L77448 77002
L77561 77002
L77617 77030
" />
<path d="M78123 77395
L78123 77086
L78095 77030
L78039 77002
L77926 77002
L77870 77030
" />
<path d="M78123 77367
L78067 77395
L77926 77395
L77870 77367
L77842 77311
L77842 77255
L77870 77199
L77926 77171
L78067 77171
L78123 77142
" />
<path d="M78658 77395
L78658 76805
" />
<path d="M78658 77367
L78601 77395
L78489 77395
L78433 77367
L78404 77339
L78376 77283
L78376 77114
L78404 77058
L78433 77030
L78489 77002
L78601 77002
L78658 77030
" />
<path d="M79557 77620
L79529 77592
L79473 77508
L79445 77452
L79417 77367
L79389 77227
L79389 77114
L79417 76974
L79445 76889
L79473 76833
L79529 76749
L79557 76721
" />
<path d="M80064 76805
L79782 76805
L79754 77086
L79782 77058
L79839 77030
L79979 77030
L80036 77058
L80064 77086
L80092 77142
L80092 77283
L80064 77339
L80036 77367
L79979 77395
L79839 77395
L79782 77367
L79754 77339
" />
<path d="M80345 77339
L80373 77367
L80345 77395
L80317 77367
L80345 77339
L80345 77395
" />
<path d="M80935 77395
L80598 77395
" />
<path d="M80767 77395
L80767 76805
L80710 76889
L80654 76946
L80598 76974
" />
<path d="M81188 77339
L81217 77367
L81188 77395
L81160 77367
L81188 77339
L81188 77395
" />
<path d="M81498 77395
L81610 77395
L81667 77367
L81695 77339
L81751 77255
L81779 77142
L81779 76917
L81751 76861
L81723 76833
L81667 76805
L81554 76805
L81498 76833
L81470 76861
L81442 76917
L81442 77058
L81470 77114
L81498 77142
L81554 77171
L81667 77171
L81723 77142
L81751 77114
L81779 77058
" />
<path d="M81976 77620
L82004 77592
L82060 77508
L82088 77452
L82117 77367
L82145 77227
L82145 77114
L82117 76974
L82088 76889
L82060 76833
L82004 76749
L81976 76721
" />
<path d="M82426 77171
L82876 77171
" />
<path d="M83466 77395
L83129 77395
" />
<path d="M83298 77395
L83298 76805
L83241 76889
L83185 76946
L83129 76974
" />
</g>
<g style="fill:#000000; fill-opacity:0.0; 
stroke:#000000; stroke-width:39.3701; stroke-opacity:1; 
stroke-linecap:round; stroke-linejoin:round;">
</g>
<g style="fill:#000000; fill-opacity:0.0; 
stroke:#000000; stroke-width:59.0551; stroke-opacity:1; 
stroke-linecap:round; stroke-linejoin:round;">
<path d="M69685 75396
L112205 75396
" />
</g>
<g style="fill:#000000; fill-opacity:0.0; 
stroke:#000000; stroke-width:39.3701; stroke-opacity:1; 
stroke-linecap:round; stroke-linejoin:round;">
</g>
<g style="fill:#000000; fill-opacity:0.0; 
stroke:#000000; stroke-width:118.11; stroke-opacity:1; 
stroke-linecap:round; stroke-linejoin:round;">
<text x="103544" y="76321.7"
textLength="2336.9" font-size="787.402" lengthAdjust="spacingAndGlyphs"
text-anchor="start" opacity="0">Rev: </text>
<path d="M104099 76293
L103902 76012
" />
<path d="M103761 76293
L103761 75703
L103986 75703
L104042 75731
L104070 75759
L104099 75815
L104099 75899
L104070 75956
L104042 75984
L103986 76012
L103761 76012
" />
<path d="M104577 76265
L104520 76293
L104408 76293
L104352 76265
L104323 76209
L104323 75984
L104352 75928
L104408 75899
L104520 75899
L104577 75928
L104605 75984
L104605 76040
L104323 76096
" />
<path d="M104802 75899
L104942 76293
L105083 75899
" />
<path d="M105308 76237
L105336 76265
L105308 76293
L105280 76265
L105308 76237
L105308 76293
" />
<path d="M105308 75928
L105336 75956
L105308 75984
L105280 75956
L105308 75928
L105308 75984
" />
</g>
<g style="fill:#000000; fill-opacity:0.0; 
stroke:#000000; stroke-width:39.3701; stroke-opacity:1; 
stroke-linecap:round; stroke-linejoin:round;">
</g>
<g style="fill:#000000; fill-opacity:0.0; 
stroke:#000000; stroke-width:59.0551; stroke-opacity:1; 
stroke-linecap:round; stroke-linejoin:round;">
<text x="70079.6" y="76321.7"
textLength="3781.21" font-size="787.402" lengthAdjust="spacingAndGlyphs"
text-anchor="start" opacity="0">Size: A4</text>
<path d="M70221 76265
L70305 76293
L70446 76293
L70502 76265
L70530 76237
L70559 76181
L70559 76124
L70530 76068
L70502 76040
L70446 76012
L70334 75984
L70277 75956
L70249 75928
L70221 75871
L70221 75815
L70249 75759
L70277 75731
L70334 75703
L70474 75703
L70559 75731
" />
<path d="M70812 76293
L70812 75899
" />
<path d="M70812 75703
L70784 75731
L70812 75759
L70840 75731
L70812 75703
L70812 75759
" />
<path d="M71037 75899
L71346 75899
L71037 76293
L71346 76293
" />
<path d="M71796 76265
L71740 76293
L71627 76293
L71571 76265
L71543 76209
L71543 75984
L71571 75928
L71627 75899
L71740 75899
L71796 75928
L71824 75984
L71824 76040
L71543 76096
" />
<path d="M72077 76237
L72105 76265
L72077 76293
L72049 76265
L72077 76237
L72077 76293
" />
<path d="M72077 75928
L72105 75956
L72077 75984
L72049 75956
L72077 75928
L72077 75984
" />
<path d="M72780 76124
L73061 76124
" />
<path d="M72724 76293
L72921 75703
L73118 76293
" />
<path d="M73568 75899
L73568 76293
" />
<path d="M73427 75674
L73286 76096
L73652 76096
" />
</g>
<g style="fill:#000000; fill-opacity:0.0; 
stroke:#000000; stroke-width:39.3701; stroke-opacity:1; 
stroke-linecap:round; stroke-linejoin:round;">
</g>
<g style="fill:#000000; fill-opacity:0.0; 
stroke:#000000; stroke-width:59.0551; stroke-opacity:1; 
stroke-linecap:round; stroke-linejoin:round;">
<text x="103544" y="77424.1"
textLength="3349.27" font-size="787.402" lengthAdjust="spacingAndGlyphs"
text-anchor="start" opacity="0">Id: 1/1</text>
<path d="M103714 77395
L103714 76805
" />
<path d="M104248 77395
L104248 76805
" />
<path d="M104248 77367
L104192 77395
L104079 77395
L104023 77367
L103995 77339
L103967 77283
L103967 77114
L103995 77058
L104023 77030
L104079 77002
L104192 77002
L104248 77030
" />
<path d="M104529 77339
L104557 77367
L104529 77395
L104501 77367
L104529 77339
L104529 77395
" />
<path d="M104529 77030
L104557 77058
L104529 77086
L104501 77058
L104529 77030
L104529 77086
" />
<path d="M105570 77395
L105232 77395
" />
<path d="M105401 77395
L105401 76805
L105345 76889
L105289 76946
L105232 76974
" />
<path d="M106245 76777
L105739 77536
" />
<path d="M106751 77395
L106413 77395
" />
<path d="M106582 77395
L106582 76805
L106526 76889
L106470 76946
L106413 76974
" />
</g>
<g style="fill:#000000; fill-opacity:0.0; 
stroke:#000000; stroke-width:39.3701; stroke-opacity:1; 
stroke-linecap:round; stroke-linejoin:round;">
</g>
<g style="fill:#000000; fill-opacity:0.0; 
stroke:#000000; stroke-width:59.0551; stroke-opacity:1; 
stroke-linecap:round; stroke-linejoin:round;">
<path d="M69685 73821
L112205 73821
" />
</g>
<g style="fill:#000000; fill-opacity:0.0; 
stroke:#000000; stroke-width:39.3701; stroke-opacity:1; 
stroke-linecap:round; stroke-linejoin:round;">
</g>
<g style="fill:#000000; fill-opacity:0.0; 
stroke:#000000; stroke-width:157.48; stroke-opacity:1; 
stroke-linecap:round; stroke-linejoin:round;">
<text x="70079.6" y="74924.1"
textLength="3701.14" font-size="1049.87" lengthAdjust="spacingAndGlyphs"
text-anchor="start" opacity="0">Title: </text>
<path d="M70360 74099
L70810 74099
" />
<path d="M70486 74886
L70585 74099
" />
<path d="M70974 74886
L71039 74361
" />
<path d="M71072 74099
L71030 74136
L71063 74174
L71105 74136
L71072 74099
L71063 74174
" />
<path d="M71302 74361
L71602 74361
" />
<path d="M71447 74099
L71363 74774
L71391 74849
L71461 74886
L71536 74886
" />
<path d="M71911 74886
L71841 74849
L71813 74774
L71897 74099
" />
<path d="M72516 74849
L72436 74886
L72286 74886
L72216 74849
L72187 74774
L72225 74474
L72272 74399
L72352 74361
L72501 74361
L72572 74399
L72600 74474
L72591 74549
L72206 74624
" />
<path d="M72895 74811
L72928 74849
L72886 74886
L72853 74849
L72895 74811
L72886 74886
" />
<path d="M72947 74399
L72980 74436
L72937 74474
L72905 74436
L72947 74399
L72937 74474
" />
</g>
<g style="fill:#000000; fill-opacity:0.0; 
stroke:#000000; stroke-width:39.3701; stroke-opacity:1; 
stroke-linecap:round; stroke-linejoin:round;">
</g>
<g style="fill:#000000; fill-opacity:0.0; 
stroke:#000000; stroke-width:59.0551; stroke-opacity:1; 
stroke-linecap:round; stroke-linejoin:round;">
<text x="70079.6" y="73408.3"
textLength="11397.1" font-size="787.402" lengthAdjust="spacingAndGlyphs"
text-anchor="start" opacity="0">File: Sterownik.kicad_pcb</text>
<path d="M70446 73070
L70249 73070
" />
<path d="M70249 73380
L70249 72789
L70530 72789
" />
<path d="M70755 73380
L70755 72986
" />
<path d="M70755 72789
L70727 72817
L70755 72845
L70784 72817
L70755 72789
L70755 72845
" />
<path d="M71121 73380
L71065 73352
L71037 73295
L71037 72789
" />
<path d="M71571 73352
L71515 73380
L71402 73380
L71346 73352
L71318 73295
L71318 73070
L71346 73014
L71402 72986
L71515 72986
L71571 73014
L71599 73070
L71599 73127
L71318 73183
" />
<path d="M71852 73323
L71880 73352
L71852 73380
L71824 73352
L71852 73323
L71852 73380
" />
<path d="M71852 73014
L71880 73042
L71852 73070
L71824 73042
L71852 73014
L71852 73070
" />
<path d="M72555 73352
L72640 73380
L72780 73380
L72836 73352
L72865 73323
L72893 73267
L72893 73211
L72865 73155
L72836 73127
L72780 73099
L72668 73070
L72611 73042
L72583 73014
L72555 72958
L72555 72902
L72583 72845
L72611 72817
L72668 72789
L72808 72789
L72893 72817
" />
<path d="M73061 72986
L73286 72986
" />
<path d="M73146 72789
L73146 73295
L73174 73352
L73230 73380
L73286 73380
" />
<path d="M73708 73352
L73652 73380
L73539 73380
L73483 73352
L73455 73295
L73455 73070
L73483 73014
L73539 72986
L73652 72986
L73708 73014
L73736 73070
L73736 73127
L73455 73183
" />
<path d="M73989 73380
L73989 72986
" />
<path d="M73989 73099
L74018 73042
L74046 73014
L74102 72986
L74158 72986
" />
<path d="M74439 73380
L74383 73352
L74355 73323
L74327 73267
L74327 73099
L74355 73042
L74383 73014
L74439 72986
L74524 72986
L74580 73014
L74608 73042
L74636 73099
L74636 73267
L74608 73323
L74580 73352
L74524 73380
L74439 73380
" />
<path d="M74833 72986
L74946 73380
L75058 73099
L75171 73380
L75283 72986
" />
<path d="M75508 72986
L75508 73380
" />
<path d="M75508 73042
L75536 73014
L75592 72986
L75677 72986
L75733 73014
L75761 73070
L75761 73380
" />
<path d="M76042 73380
L76042 72986
" />
<path d="M76042 72789
L76014 72817
L76042 72845
L76070 72817
L76042 72789
L76042 72845
" />
<path d="M76323 73380
L76323 72789
" />
<path d="M76380 73155
L76548 73380
" />
<path d="M76548 72986
L76323 73211
" />
<path d="M76802 73323
L76830 73352
L76802 73380
L76773 73352
L76802 73323
L76802 73380
" />
<path d="M77083 73380
L77083 72789
" />
<path d="M77139 73155
L77308 73380
" />
<path d="M77308 72986
L77083 73211
" />
<path d="M77561 73380
L77561 72986
" />
<path d="M77561 72789
L77533 72817
L77561 72845
L77589 72817
L77561 72789
L77561 72845
" />
<path d="M78095 73352
L78039 73380
L77926 73380
L77870 73352
L77842 73323
L77814 73267
L77814 73099
L77842 73042
L77870 73014
L77926 72986
L78039 72986
L78095 73014
" />
<path d="M78601 73380
L78601 73070
L78573 73014
L78517 72986
L78404 72986
L78348 73014
" />
<path d="M78601 73352
L78545 73380
L78404 73380
L78348 73352
L78320 73295
L78320 73239
L78348 73183
L78404 73155
L78545 73155
L78601 73127
" />
<path d="M79136 73380
L79136 72789
" />
<path d="M79136 73352
L79079 73380
L78967 73380
L78911 73352
L78883 73323
L78854 73267
L78854 73099
L78883 73042
L78911 73014
L78967 72986
L79079 72986
L79136 73014
" />
<path d="M79276 73436
L79726 73436
" />
<path d="M79867 72986
L79867 73577
" />
<path d="M79867 73014
L79923 72986
L80036 72986
L80092 73014
L80120 73042
L80148 73099
L80148 73267
L80120 73323
L80092 73352
L80036 73380
L79923 73380
L79867 73352
" />
<path d="M80654 73352
L80598 73380
L80485 73380
L80429 73352
L80401 73323
L80373 73267
L80373 73099
L80401 73042
L80429 73014
L80485 72986
L80598 72986
L80654 73014
" />
<path d="M80907 73380
L80907 72789
" />
<path d="M80907 73014
L80964 72986
L81076 72986
L81132 73014
L81160 73042
L81188 73099
L81188 73267
L81160 73323
L81132 73352
L81076 73380
L80964 73380
L80907 73352
" />
</g>
<g style="fill:#000000; fill-opacity:0.0; 
stroke:#000000; stroke-width:39.3701; stroke-opacity:1; 
stroke-linecap:round; stroke-linejoin:round;">
</g>
<g style="fill:#000000; fill-opacity:0.0; 
stroke:#000000; stroke-width:59.0551; stroke-opacity:1; 
stroke-linecap:round; stroke-linejoin:round;">
<path d="M69685 71459
L112205 71459
" />
</g>
<g style="fill:#000000; fill-opacity:0.0; 
stroke:#000000; stroke-width:39.3701; stroke-opacity:1; 
stroke-linecap:round; stroke-linejoin:round;">
</g>
<g style="fill:#000000; fill-opacity:0.0; 
stroke:#000000; stroke-width:59.0551; stroke-opacity:1; 
stroke-linecap:round; stroke-linejoin:round;">
<text x="70079.6" y="72345.4"
textLength="3236.78" font-size="787.402" lengthAdjust="spacingAndGlyphs"
text-anchor="start" opacity="0">Sheet: </text>
<path d="M70221 72289
L70305 72317
L70446 72317
L70502 72289
L70530 72260
L70559 72204
L70559 72148
L70530 72092
L70502 72064
L70446 72036
L70334 72007
L70277 71979
L70249 71951
L70221 71895
L70221 71839
L70249 71782
L70277 71754
L70334 71726
L70474 71726
L70559 71754
" />
<path d="M70812 72317
L70812 71726
" />
<path d="M71065 72317
L71065 72007
L71037 71951
L70980 71923
L70896 71923
L70840 71951
L70812 71979
" />
<path d="M71571 72289
L71515 72317
L71402 72317
L71346 72289
L71318 72232
L71318 72007
L71346 71951
L71402 71923
L71515 71923
L71571 71951
L71599 72007
L71599 72064
L71318 72120
" />
<path d="M72077 72289
L72021 72317
L71908 72317
L71852 72289
L71824 72232
L71824 72007
L71852 71951
L71908 71923
L72021 71923
L72077 71951
L72105 72007
L72105 72064
L71824 72120
" />
<path d="M72274 71923
L72499 71923
" />
<path d="M72358 71726
L72358 72232
L72386 72289
L72443 72317
L72499 72317
" />
<path d="M72696 72260
L72724 72289
L72696 72317
L72668 72289
L72696 72260
L72696 72317
" />
<path d="M72696 71951
L72724 71979
L72696 72007
L72668 71979
L72696 71951
L72696 72007
" />
</g>
<g style="fill:#000000; fill-opacity:0.0; 
stroke:#000000; stroke-width:39.3701; stroke-opacity:1; 
stroke-linecap:round; stroke-linejoin:round;">
</g>
<g style="fill:#000000; fill-opacity:0.0; 
stroke:#000000; stroke-width:59.0551; stroke-opacity:1; 
stroke-linecap:round; stroke-linejoin:round;">
<path d="M77559 75396
L77559 76577
" />
</g>
<g style="fill:#000000; fill-opacity:0.0; 
stroke:#000000; stroke-width:39.3701; stroke-opacity:1; 
stroke-linecap:round; stroke-linejoin:round;">
</g>
<g style="fill:#000000; fill-opacity:0.0; 
stroke:#000000; stroke-width:59.0551; stroke-opacity:1; 
stroke-linecap:round; stroke-linejoin:round;">
<path d="M102756 75396
L102756 77955
" />
</g>
<g style="fill:#008484; fill-opacity:0.0; 
stroke:#008484; stroke-width:59.0551; stroke-opacity:1; 
stroke-linecap:round; stroke-linejoin:round;">
</g>
<g style="fill:#008484; fill-opacity:0.0; 
stroke:#008484; stroke-width:118.11; stroke-opacity:1; 
stroke-linecap:round; stroke-linejoin:round;">
<g transform="rotate(-90 21800 46900)">
<text x="21800" y="47195.3"
textLength="9957.82" font-size="787.402" lengthAdjust="spacingAndGlyphs"
text-anchor="middle" opacity="0">© Przemysław Mordyl</text>
</g>
<path d="M21617 51230
L21589 51286
L21589 51399
L21617 51455
L21673 51511
L21729 51540
L21842 51540
L21898 51511
L21954 51455
L21982 51399
L21982 51286
L21954 51230
" />
<path d="M21392 51343
L21420 51483
L21504 51624
L21645 51708
L21785 51736
L21926 51708
L22067 51624
L22151 51483
L22179 51343
L22151 51202
L22067 51061
L21926 50977
L21785 50949
L21645 50977
L21504 51061
L21420 51202
L21392 51343
" />
<path d="M22067 50246
L21476 50246
L21476 50021
L21504 49965
L21532 49937
L21589 49908
L21673 49908
L21729 49937
L21757 49965
L21785 50021
L21785 50246
" />
<path d="M22067 49655
L21673 49655
" />
<path d="M21785 49655
L21729 49627
L21701 49599
L21673 49543
L21673 49487
" />
<path d="M21673 49346
L21673 49037
L22067 49346
L22067 49037
" />
<path d="M22039 48587
L22067 48643
L22067 48756
L22039 48812
L21982 48840
L21757 48840
L21701 48812
L21673 48756
L21673 48643
L21701 48587
L21757 48559
L21814 48559
L21870 48840
" />
<path d="M22067 48306
L21673 48306
" />
<path d="M21729 48306
L21701 48277
L21673 48221
L21673 48137
L21701 48081
L21757 48052
L22067 48052
" />
<path d="M21757 48052
L21701 48024
L21673 47968
L21673 47884
L21701 47828
L21757 47799
L22067 47799
" />
<path d="M21673 47574
L22067 47434
" />
<path d="M21673 47293
L22067 47434
L22207 47490
L22235 47518
L22264 47574
" />
<path d="M22039 47096
L22067 47040
L22067 46928
L22039 46871
L21982 46843
L21954 46843
L21898 46871
L21870 46928
L21870 47012
L21842 47068
L21785 47096
L21757 47096
L21701 47068
L21673 47012
L21673 46928
L21701 46871
" />
<path d="M22067 46506
L22039 46562
L21982 46590
L21476 46590
" />
<path d="M21785 46675
L21673 46506
" />
<path d="M22067 46028
L21757 46028
L21701 46056
L21673 46112
L21673 46225
L21701 46281
" />
<path d="M22039 46028
L22067 46084
L22067 46225
L22039 46281
L21982 46309
L21926 46309
L21870 46281
L21842 46225
L21842 46084
L21814 46028
" />
<path d="M21673 45803
L22067 45690
L21785 45578
L22067 45465
L21673 45353
" />
<path d="M22067 44678
L21476 44678
L21898 44481
L21476 44284
L22067 44284
" />
<path d="M22067 43919
L22039 43975
L22010 44003
L21954 44031
L21785 44031
L21729 44003
L21701 43975
L21673 43919
L21673 43834
L21701 43778
L21729 43750
L21785 43722
L21954 43722
L22010 43750
L22039 43778
L22067 43834
L22067 43919
" />
<path d="M22067 43469
L21673 43469
" />
<path d="M21785 43469
L21729 43441
L21701 43412
L21673 43356
L21673 43300
" />
<path d="M22067 42850
L21476 42850
" />
<path d="M22039 42850
L22067 42906
L22067 43019
L22039 43075
L22010 43103
L21954 43131
L21785 43131
L21729 43103
L21701 43075
L21673 43019
L21673 42906
L21701 42850
" />
<path d="M21673 42625
L22067 42484
" />
<path d="M21673 42344
L22067 42484
L22207 42541
L22235 42569
L22264 42625
" />
<path d="M22067 42034
L22039 42091
L21982 42119
L21476 42119
" />
<g transform="rotate(-90 20400 46800)">
<text x="20400" y="47095.3"
textLength="10474.1" font-size="787.402" lengthAdjust="spacingAndGlyphs"
text-anchor="middle" opacity="0">Sterownik pompy pieca</text>
</g>
<path d="M20639 51847
L20667 51763
L20667 51622
L20639 51566
L20610 51538
L20554 51510
L20498 51510
L20442 51538
L20414 51566
L20385 51622
L20357 51735
L20329 51791
L20301 51819
L20245 51847
L20189 51847
L20132 51819
L20104 51791
L20076 51735
L20076 51594
L20104 51510
" />
<path d="M20273 51341
L20273 51116
" />
<path d="M20076 51257
L20582 51257
L20639 51229
L20667 51172
L20667 51116
" />
<path d="M20639 50694
L20667 50751
L20667 50863
L20639 50919
L20582 50947
L20357 50947
L20301 50919
L20273 50863
L20273 50751
L20301 50694
L20357 50666
L20414 50666
L20470 50947
" />
<path d="M20667 50413
L20273 50413
" />
<path d="M20385 50413
L20329 50385
L20301 50357
L20273 50301
L20273 50244
" />
<path d="M20667 49963
L20639 50019
L20610 50048
L20554 50076
L20385 50076
L20329 50048
L20301 50019
L20273 49963
L20273 49879
L20301 49823
L20329 49794
L20385 49766
L20554 49766
L20610 49794
L20639 49823
L20667 49879
L20667 49963
" />
<path d="M20273 49569
L20667 49457
L20385 49344
L20667 49232
L20273 49120
" />
<path d="M20273 48895
L20667 48895
" />
<path d="M20329 48895
L20301 48866
L20273 48810
L20273 48726
L20301 48670
L20357 48641
L20667 48641
" />
<path d="M20667 48360
L20273 48360
" />
<path d="M20076 48360
L20104 48388
L20132 48360
L20104 48332
L20076 48360
L20132 48360
" />
<path d="M20667 48079
L20076 48079
" />
<path d="M20442 48023
L20667 47854
" />
<path d="M20273 47854
L20498 48079
" />
<path d="M20273 47151
L20864 47151
" />
<path d="M20301 47151
L20273 47095
L20273 46982
L20301 46926
L20329 46898
L20385 46870
L20554 46870
L20610 46898
L20639 46926
L20667 46982
L20667 47095
L20639 47151
" />
<path d="M20667 46532
L20639 46589
L20610 46617
L20554 46645
L20385 46645
L20329 46617
L20301 46589
L20273 46532
L20273 46448
L20301 46392
L20329 46364
L20385 46335
L20554 46335
L20610 46364
L20639 46392
L20667 46448
L20667 46532
" />
<path d="M20667 46082
L20273 46082
" />
<path d="M20329 46082
L20301 46054
L20273 45998
L20273 45914
L20301 45857
L20357 45829
L20667 45829
" />
<path d="M20357 45829
L20301 45801
L20273 45745
L20273 45661
L20301 45604
L20357 45576
L20667 45576
" />
<path d="M20273 45295
L20864 45295
" />
<path d="M20301 45295
L20273 45239
L20273 45126
L20301 45070
L20329 45042
L20385 45014
L20554 45014
L20610 45042
L20639 45070
L20667 45126
L20667 45239
L20639 45295
" />
<path d="M20273 44817
L20667 44676
" />
<path d="M20273 44536
L20667 44676
L20807 44733
L20835 44761
L20864 44817
" />
<path d="M20273 43861
L20864 43861
" />
<path d="M20301 43861
L20273 43805
L20273 43692
L20301 43636
L20329 43608
L20385 43580
L20554 43580
L20610 43608
L20639 43636
L20667 43692
L20667 43805
L20639 43861
" />
<path d="M20667 43326
L20273 43326
" />
<path d="M20076 43326
L20104 43355
L20132 43326
L20104 43298
L20076 43326
L20132 43326
" />
<path d="M20639 42820
L20667 42877
L20667 42989
L20639 43045
L20582 43073
L20357 43073
L20301 43045
L20273 42989
L20273 42877
L20301 42820
L20357 42792
L20414 42792
L20470 43073
" />
<path d="M20639 42286
L20667 42342
L20667 42455
L20639 42511
L20610 42539
L20554 42567
L20385 42567
L20329 42539
L20301 42511
L20273 42455
L20273 42342
L20301 42286
" />
<path d="M20667 41780
L20357 41780
L20301 41808
L20273 41864
L20273 41977
L20301 42033
" />
<path d="M20639 41780
L20667 41836
L20667 41977
L20639 42033
L20582 42061
L20526 42061
L20470 42033
L20442 41977
L20442 41836
L20414 41780
" />
</g>
<g style="fill:#008484; fill-opacity:0.0; 
stroke:#008484; stroke-width:59.0551; stroke-opacity:1; 
stroke-linecap:round; stroke-linejoin:round;">
<text x="50100" y="39996.9"
textLength="2684.48" font-size="524.934" lengthAdjust="spacingAndGlyphs"
text-anchor="middle" opacity="0">ALM_RES</text>
<path d="M48909 39865
L49097 39865
" />
<path d="M48872 39978
L49003 39584
L49134 39978
" />
<path d="M49453 39978
L49265 39978
L49265 39584
" />
<path d="M49584 39978
L49584 39584
L49715 39865
L49846 39584
L49846 39978
" />
<path d="M49940 40015
L50240 40015
" />
<path d="M50559 39978
L50428 39790
" />
<path d="M50334 39978
L50334 39584
L50484 39584
L50521 39603
L50540 39621
L50559 39659
L50559 39715
L50540 39753
L50521 39771
L50484 39790
L50334 39790
" />
<path d="M50728 39771
L50859 39771
" />
<path d="M50915 39978
L50728 39978
L50728 39584
L50915 39584
" />
<path d="M51065 39959
L51121 39978
L51215 39978
L51252 39959
L51271 39940
L51290 39903
L51290 39865
L51271 39828
L51252 39809
L51215 39790
L51140 39771
L51102 39753
L51084 39734
L51065 39696
L51065 39659
L51084 39621
L51102 39603
L51140 39584
L51234 39584
L51290 39603
" />
<text x="27000" y="62496.9"
textLength="1276.62" font-size="524.934" lengthAdjust="spacingAndGlyphs"
text-anchor="middle" opacity="0">GND</text>
<path d="M26700 62103
L26662 62084
L26606 62084
L26550 62103
L26512 62140
L26493 62178
L26475 62253
L26475 62309
L26493 62384
L26512 62421
L26550 62459
L26606 62478
L26643 62478
L26700 62459
L26718 62440
L26718 62309
L26643 62309
" />
<path d="M26887 62478
L26887 62084
L27112 62478
L27112 62084
" />
<path d="M27299 62478
L27299 62084
L27393 62084
L27449 62103
L27487 62140
L27506 62178
L27524 62253
L27524 62309
L27506 62384
L27487 62421
L27449 62459
L27393 62478
L27299 62478
" />
<text x="24900" y="62496.9"
textLength="845.426" font-size="524.934" lengthAdjust="spacingAndGlyphs"
text-anchor="middle" opacity="0">D8</text>
<path d="M24609 62478
L24609 62084
L24703 62084
L24759 62103
L24796 62140
L24815 62178
L24834 62253
L24834 62309
L24815 62384
L24796 62421
L24759 62459
L24703 62478
L24609 62478
" />
<path d="M25059 62253
L25021 62234
L25003 62215
L24984 62178
L24984 62159
L25003 62121
L25021 62103
L25059 62084
L25134 62084
L25171 62103
L25190 62121
L25209 62159
L25209 62178
L25190 62215
L25171 62234
L25134 62253
L25059 62253
L25021 62271
L25003 62290
L24984 62328
L24984 62403
L25003 62440
L25021 62459
L25059 62478
L25134 62478
L25171 62459
L25190 62440
L25209 62403
L25209 62328
L25190 62290
L25171 62271
L25134 62253
" />
<text x="22900" y="62496.9"
textLength="1201.63" font-size="524.934" lengthAdjust="spacingAndGlyphs"
text-anchor="middle" opacity="0">VCC</text>
<path d="M22375 62084
L22506 62478
L22637 62084
" />
<path d="M22993 62440
L22974 62459
L22918 62478
L22881 62478
L22825 62459
L22787 62421
L22768 62384
L22750 62309
L22750 62253
L22768 62178
L22787 62140
L22825 62103
L22881 62084
L22918 62084
L22974 62103
L22993 62121
" />
<path d="M23387 62440
L23368 62459
L23312 62478
L23274 62478
L23218 62459
L23181 62421
L23162 62384
L23143 62309
L23143 62253
L23162 62178
L23181 62140
L23218 62103
L23274 62084
L23312 62084
L23368 62103
L23387 62121
" />
<text x="33500" y="62496.9"
textLength="826.678" font-size="524.934" lengthAdjust="spacingAndGlyphs"
text-anchor="middle" opacity="0">PE</text>
<path d="M33218 62478
L33218 62084
L33368 62084
L33406 62103
L33425 62121
L33443 62159
L33443 62215
L33425 62253
L33406 62271
L33368 62290
L33218 62290
" />
<path d="M33612 62271
L33743 62271
" />
<path d="M33799 62478
L33612 62478
L33612 62084
L33799 62084
" />
<text x="31400" y="62496.9"
textLength="489.22" font-size="524.934" lengthAdjust="spacingAndGlyphs"
text-anchor="middle" opacity="0">N</text>
<path d="M31287 62478
L31287 62084
L31512 62478
L31512 62084
" />
<text x="29400" y="62496.9"
textLength="395.482" font-size="524.934" lengthAdjust="spacingAndGlyphs"
text-anchor="middle" opacity="0">L</text>
<path d="M29521 62478
L29334 62478
L29334 62084
" />
<text x="36300" y="62496.9"
textLength="1032.9" font-size="524.934" lengthAdjust="spacingAndGlyphs"
text-anchor="middle" opacity="0">SIG</text>
<path d="M35896 62459
L35953 62478
L36046 62478
L36084 62459
L36103 62440
L36121 62403
L36121 62365
L36103 62328
L36084 62309
L36046 62290
L35971 62271
L35934 62253
L35915 62234
L35896 62196
L35896 62159
L35915 62121
L35934 62103
L35971 62084
L36065 62084
L36121 62103
" />
<path d="M36290 62478
L36290 62084
" />
<path d="M36684 62103
L36646 62084
L36590 62084
L36534 62103
L36496 62140
L36478 62178
L36459 62253
L36459 62309
L36478 62384
L36496 62421
L36534 62459
L36590 62478
L36628 62478
L36684 62459
L36703 62440
L36703 62309
L36628 62309
" />
<text x="38400" y="62496.9"
textLength="489.22" font-size="524.934" lengthAdjust="spacingAndGlyphs"
text-anchor="middle" opacity="0">N</text>
<path d="M38287 62478
L38287 62084
L38512 62478
L38512 62084
" />
<text x="43600" y="62496.9"
textLength="826.678" font-size="524.934" lengthAdjust="spacingAndGlyphs"
text-anchor="middle" opacity="0">PE</text>
<path d="M43318 62478
L43318 62084
L43468 62084
L43506 62103
L43525 62121
L43543 62159
L43543 62215
L43525 62253
L43506 62271
L43468 62290
L43318 62290
" />
<path d="M43712 62271
L43843 62271
" />
<path d="M43899 62478
L43712 62478
L43712 62084
L43899 62084
" />
<text x="45600" y="62496.9"
textLength="489.22" font-size="524.934" lengthAdjust="spacingAndGlyphs"
text-anchor="middle" opacity="0">N</text>
<path d="M45487 62478
L45487 62084
L45712 62478
L45712 62084
" />
<text x="47600" y="62496.9"
textLength="395.482" font-size="524.934" lengthAdjust="spacingAndGlyphs"
text-anchor="middle" opacity="0">L</text>
<path d="M47721 62478
L47534 62478
L47534 62084
" />
<text x="43100" y="37896.9"
textLength="1857.8" font-size="524.934" lengthAdjust="spacingAndGlyphs"
text-anchor="middle" opacity="0">RESET</text>
<path d="M42528 37878
L42396 37690
" />
<path d="M42303 37878
L42303 37484
L42453 37484
L42490 37503
L42509 37521
L42528 37559
L42528 37615
L42509 37653
L42490 37671
L42453 37690
L42303 37690
" />
<path d="M42696 37671
L42828 37671
" />
<path d="M42884 37878
L42696 37878
L42696 37484
L42884 37484
" />
<path d="M43034 37859
L43090 37878
L43184 37878
L43221 37859
L43240 37840
L43259 37803
L43259 37765
L43240 37728
L43221 37709
L43184 37690
L43109 37671
L43071 37653
L43053 37634
L43034 37596
L43034 37559
L43053 37521
L43071 37503
L43109 37484
L43203 37484
L43259 37503
" />
<path d="M43428 37671
L43559 37671
" />
<path d="M43615 37878
L43428 37878
L43428 37484
L43615 37484
" />
<path d="M43728 37484
L43953 37484
" />
<path d="M43840 37878
L43840 37484
" />
<text x="45600" y="58796.9"
textLength="2082.77" font-size="524.934" lengthAdjust="spacingAndGlyphs"
text-anchor="middle" opacity="0">POWER</text>
<path d="M44690 58778
L44690 58384
L44840 58384
L44878 58403
L44896 58421
L44915 58459
L44915 58515
L44896 58553
L44878 58571
L44840 58590
L44690 58590
" />
<path d="M45159 58384
L45234 58384
L45271 58403
L45309 58440
L45328 58515
L45328 58646
L45309 58721
L45271 58759
L45234 58778
L45159 58778
L45121 58759
L45084 58721
L45065 58646
L45065 58515
L45084 58440
L45121 58403
L45159 58384
" />
<path d="M45459 58384
L45553 58778
L45628 58496
L45703 58778
L45796 58384
" />
<path d="M45946 58571
L46078 58571
" />
<path d="M46134 58778
L45946 58778
L45946 58384
L46134 58384
" />
<path d="M46528 58778
L46396 58590
" />
<path d="M46303 58778
L46303 58384
L46453 58384
L46490 58403
L46509 58421
L46528 58459
L46528 58515
L46509 58553
L46490 58571
L46453 58590
L46303 58590
" />
<text x="37400" y="58696.9"
textLength="1989.03" font-size="524.934" lengthAdjust="spacingAndGlyphs"
text-anchor="middle" opacity="0">AL_SIG</text>
<path d="M36518 58565
L36706 58565
" />
<path d="M36481 58678
L36612 58284
L36743 58678
" />
<path d="M37062 58678
L36875 58678
L36875 58284
" />
<path d="M37100 58715
L37400 58715
" />
<path d="M37474 58659
L37531 58678
L37624 58678
L37662 58659
L37681 58640
L37699 58603
L37699 58565
L37681 58528
L37662 58509
L37624 58490
L37549 58471
L37512 58453
L37493 58434
L37474 58396
L37474 58359
L37493 58321
L37512 58303
L37549 58284
L37643 58284
L37699 58303
" />
<path d="M37868 58678
L37868 58284
" />
<path d="M38262 58303
L38224 58284
L38168 58284
L38112 58303
L38074 58340
L38056 58378
L38037 58453
L38037 58509
L38056 58584
L38074 58621
L38112 58659
L38168 58678
L38206 58678
L38262 58659
L38281 58640
L38281 58509
L38206 58509
" />
<text x="31500" y="58696.9"
textLength="1726.57" font-size="524.934" lengthAdjust="spacingAndGlyphs"
text-anchor="middle" opacity="0">PUMP</text>
<path d="M30768 58678
L30768 58284
L30918 58284
L30956 58303
L30975 58321
L30993 58359
L30993 58415
L30975 58453
L30956 58471
L30918 58490
L30768 58490
" />
<path d="M31162 58284
L31162 58603
L31181 58640
L31200 58659
L31237 58678
L31312 58678
L31350 58659
L31368 58640
L31387 58603
L31387 58284
" />
<path d="M31574 58678
L31574 58284
L31706 58565
L31837 58284
L31837 58678
" />
<path d="M32024 58678
L32024 58284
L32174 58284
L32212 58303
L32231 58321
L32249 58359
L32249 58415
L32231 58453
L32212 58471
L32174 58490
L32024 58490
" />
<text x="24800" y="58696.9"
textLength="2401.48" font-size="524.934" lengthAdjust="spacingAndGlyphs"
text-anchor="middle" opacity="0">SENSOR</text>
<path d="M23712 58659
L23768 58678
L23862 58678
L23900 58659
L23918 58640
L23937 58603
L23937 58565
L23918 58528
L23900 58509
L23862 58490
L23787 58471
L23750 58453
L23731 58434
L23712 58396
L23712 58359
L23731 58321
L23750 58303
L23787 58284
L23881 58284
L23937 58303
" />
<path d="M24106 58471
L24237 58471
" />
<path d="M24293 58678
L24106 58678
L24106 58284
L24293 58284
" />
<path d="M24462 58678
L24462 58284
L24687 58678
L24687 58284
" />
<path d="M24856 58659
L24912 58678
L25006 58678
L25043 58659
L25062 58640
L25081 58603
L25081 58565
L25062 58528
L25043 58509
L25006 58490
L24931 58471
L24893 58453
L24874 58434
L24856 58396
L24856 58359
L24874 58321
L24893 58303
L24931 58284
L25024 58284
L25081 58303
" />
<path d="M25324 58284
L25399 58284
L25437 58303
L25474 58340
L25493 58415
L25493 58546
L25474 58621
L25437 58659
L25399 58678
L25324 58678
L25287 58659
L25249 58621
L25231 58546
L25231 58415
L25249 58340
L25287 58303
L25324 58284
" />
<path d="M25887 58678
L25756 58490
" />
<path d="M25662 58678
L25662 58284
L25812 58284
L25849 58303
L25868 58321
L25887 58359
L25887 58415
L25868 58453
L25849 58471
L25812 58490
L25662 58490
" />
<text x="38300" y="43696.9"
textLength="1201.63" font-size="524.934" lengthAdjust="spacingAndGlyphs"
text-anchor="middle" opacity="0">RES</text>
<path d="M38056 43678
L37925 43490
" />
<path d="M37831 43678
L37831 43284
L37981 43284
L38018 43303
L38037 43321
L38056 43359
L38056 43415
L38037 43453
L38018 43471
L37981 43490
L37831 43490
" />
<path d="M38225 43471
L38356 43471
" />
<path d="M38412 43678
L38225 43678
L38225 43284
L38412 43284
" />
<path d="M38562 43659
L38618 43678
L38712 43678
L38749 43659
L38768 43640
L38787 43603
L38787 43565
L38768 43528
L38749 43509
L38712 43490
L38637 43471
L38599 43453
L38581 43434
L38562 43396
L38562 43359
L38581 43321
L38599 43303
L38637 43284
L38731 43284
L38787 43303
" />
<text x="38200" y="41696.9"
textLength="1501.59" font-size="524.934" lengthAdjust="spacingAndGlyphs"
text-anchor="middle" opacity="0">MISO</text>
<path d="M37581 41678
L37581 41284
L37712 41565
L37843 41284
L37843 41678
" />
<path d="M38031 41678
L38031 41284
" />
<path d="M38200 41659
L38256 41678
L38349 41678
L38387 41659
L38406 41640
L38424 41603
L38424 41565
L38406 41528
L38387 41509
L38349 41490
L38274 41471
L38237 41453
L38218 41434
L38200 41396
L38200 41359
L38218 41321
L38237 41303
L38274 41284
L38368 41284
L38424 41303
" />
<path d="M38668 41284
L38743 41284
L38781 41303
L38818 41340
L38837 41415
L38837 41546
L38818 41621
L38781 41659
L38743 41678
L38668 41678
L38631 41659
L38593 41621
L38574 41546
L38574 41415
L38593 41340
L38631 41303
L38668 41284
" />
<text x="38300" y="42696.9"
textLength="1239.13" font-size="524.934" lengthAdjust="spacingAndGlyphs"
text-anchor="middle" opacity="0">SCK</text>
<path d="M37793 42659
L37850 42678
L37943 42678
L37981 42659
L38000 42640
L38018 42603
L38018 42565
L38000 42528
L37981 42509
L37943 42490
L37868 42471
L37831 42453
L37812 42434
L37793 42396
L37793 42359
L37812 42321
L37831 42303
L37868 42284
L37962 42284
L38018 42303
" />
<path d="M38412 42640
L38393 42659
L38337 42678
L38300 42678
L38243 42659
L38206 42621
L38187 42584
L38168 42509
L38168 42453
L38187 42378
L38206 42340
L38243 42303
L38300 42284
L38337 42284
L38393 42303
L38412 42321
" />
<path d="M38581 42678
L38581 42284
" />
<path d="M38806 42678
L38637 42453
" />
<path d="M38806 42284
L38581 42509
" />
<text x="42000" y="42696.9"
textLength="1501.59" font-size="524.934" lengthAdjust="spacingAndGlyphs"
text-anchor="middle" opacity="0">MOSI</text>
<path d="M41381 42678
L41381 42284
L41512 42565
L41643 42284
L41643 42678
" />
<path d="M41906 42284
L41981 42284
L42018 42303
L42056 42340
L42074 42415
L42074 42546
L42056 42621
L42018 42659
L41981 42678
L41906 42678
L41868 42659
L41831 42621
L41812 42546
L41812 42415
L41831 42340
L41868 42303
L41906 42284
" />
<path d="M42224 42659
L42281 42678
L42374 42678
L42412 42659
L42431 42640
L42449 42603
L42449 42565
L42431 42528
L42412 42509
L42374 42490
L42299 42471
L42262 42453
L42243 42434
L42224 42396
L42224 42359
L42243 42321
L42262 42303
L42299 42284
L42393 42284
L42449 42303
" />
<path d="M42618 42678
L42618 42284
" />
<text x="41900" y="43696.9"
textLength="1276.62" font-size="524.934" lengthAdjust="spacingAndGlyphs"
text-anchor="middle" opacity="0">GND</text>
<path d="M41600 43303
L41562 43284
L41506 43284
L41450 43303
L41412 43340
L41393 43378
L41375 43453
L41375 43509
L41393 43584
L41412 43621
L41450 43659
L41506 43678
L41543 43678
L41600 43659
L41618 43640
L41618 43509
L41543 43509
" />
<path d="M41787 43678
L41787 43284
L42012 43678
L42012 43284
" />
<path d="M42199 43678
L42199 43284
L42293 43284
L42349 43303
L42387 43340
L42406 43378
L42424 43453
L42424 43509
L42406 43584
L42387 43621
L42349 43659
L42293 43678
L42199 43678
" />
<text x="41900" y="41696.9"
textLength="1201.63" font-size="524.934" lengthAdjust="spacingAndGlyphs"
text-anchor="middle" opacity="0">VCC</text>
<path d="M41375 41284
L41506 41678
L41637 41284
" />
<path d="M41993 41640
L41974 41659
L41918 41678
L41881 41678
L41825 41659
L41787 41621
L41768 41584
L41750 41509
L41750 41453
L41768 41378
L41787 41340
L41825 41303
L41881 41284
L41918 41284
L41974 41303
L41993 41321
" />
<path d="M42387 41640
L42368 41659
L42312 41678
L42274 41678
L42218 41659
L42181 41621
L42162 41584
L42143 41509
L42143 41453
L42162 41378
L42181 41340
L42218 41303
L42274 41284
L42312 41284
L42368 41303
L42387 41321
" />
<g transform="rotate(-90 36500 35100)">
<text x="36500" y="35296.9"
textLength="901.669" font-size="524.934" lengthAdjust="spacingAndGlyphs"
text-anchor="middle" opacity="0">SW</text>
</g>
<path d="M36659 35437
L36678 35381
L36678 35287
L36659 35249
L36640 35231
L36603 35212
L36565 35212
L36528 35231
L36509 35249
L36490 35287
L36471 35362
L36453 35399
L36434 35418
L36396 35437
L36359 35437
L36321 35418
L36303 35399
L36284 35362
L36284 35268
L36303 35212
" />
<path d="M36284 35081
L36678 34987
L36396 34912
L36678 34837
L36284 34743
" />
<g transform="rotate(-90 35500 35000)">
<text x="35500" y="35196.9"
textLength="770.435" font-size="524.934" lengthAdjust="spacingAndGlyphs"
text-anchor="middle" opacity="0">DT</text>
</g>
<path d="M35678 35253
L35284 35253
L35284 35159
L35303 35103
L35340 35065
L35378 35046
L35453 35028
L35509 35028
L35584 35046
L35621 35065
L35659 35103
L35678 35159
L35678 35253
" />
<path d="M35284 34915
L35284 34690
" />
<path d="M35678 34803
L35284 34803
" />
<g transform="rotate(-90 34500 35100)">
<text x="34500" y="35296.9"
textLength="1182.88" font-size="524.934" lengthAdjust="spacingAndGlyphs"
text-anchor="middle" opacity="0">CLK</text>
</g>
<path d="M34640 35334
L34659 35353
L34678 35409
L34678 35446
L34659 35503
L34621 35540
L34584 35559
L34509 35578
L34453 35578
L34378 35559
L34340 35540
L34303 35503
L34284 35446
L34284 35409
L34303 35353
L34321 35334
" />
<path d="M34678 34978
L34678 35165
L34284 35165
" />
<path d="M34678 34846
L34284 34846
" />
<path d="M34678 34621
L34453 34790
" />
<path d="M34284 34621
L34509 34846
" />
<g transform="rotate(-90 37500 35300)">
<text x="37500" y="35496.9"
textLength="1201.63" font-size="524.934" lengthAdjust="spacingAndGlyphs"
text-anchor="middle" opacity="0">VCC</text>
</g>
<path d="M37284 35824
L37678 35693
L37284 35562
" />
<path d="M37640 35206
L37659 35225
L37678 35281
L37678 35318
L37659 35374
L37621 35412
L37584 35431
L37509 35449
L37453 35449
L37378 35431
L37340 35412
L37303 35374
L37284 35318
L37284 35281
L37303 35225
L37321 35206
" />
<path d="M37640 34812
L37659 34831
L37678 34887
L37678 34925
L37659 34981
L37621 35018
L37584 35037
L37509 35056
L37453 35056
L37378 35037
L37340 35018
L37303 34981
L37284 34925
L37284 34887
L37303 34831
L37321 34812
" />
<g transform="rotate(-90 38500 35300)">
<text x="38500" y="35496.9"
textLength="1276.62" font-size="524.934" lengthAdjust="spacingAndGlyphs"
text-anchor="middle" opacity="0">GND</text>
</g>
<path d="M38303 35599
L38284 35637
L38284 35693
L38303 35749
L38340 35787
L38378 35806
L38453 35824
L38509 35824
L38584 35806
L38621 35787
L38659 35749
L38678 35693
L38678 35656
L38659 35599
L38640 35581
L38509 35581
L38509 35656
" />
<path d="M38678 35412
L38284 35412
L38678 35187
L38284 35187
" />
<path d="M38678 35000
L38284 35000
L38284 34906
L38303 34850
L38340 34812
L38378 34793
L38453 34775
L38509 34775
L38584 34793
L38621 34812
L38659 34850
L38678 34906
L38678 35000
" />
<text x="24500" y="37096.9"
textLength="1276.62" font-size="524.934" lengthAdjust="spacingAndGlyphs"
text-anchor="middle" opacity="0">GND</text>
<path d="M24200 36703
L24162 36684
L24106 36684
L24050 36703
L24012 36740
L23993 36778
L23975 36853
L23975 36909
L23993 36984
L24012 37021
L24050 37059
L24106 37078
L24143 37078
L24200 37059
L24218 37040
L24218 36909
L24143 36909
" />
<path d="M24387 37078
L24387 36684
L24612 37078
L24612 36684
" />
<path d="M24799 37078
L24799 36684
L24893 36684
L24949 36703
L24987 36740
L25006 36778
L25024 36853
L25024 36909
L25006 36984
L24987 37021
L24949 37059
L24893 37078
L24799 37078
" />
<text x="24500" y="35996.9"
textLength="1164.14" font-size="524.934" lengthAdjust="spacingAndGlyphs"
text-anchor="middle" opacity="0">SCL</text>
<path d="M24031 35959
L24087 35978
L24181 35978
L24218 35959
L24237 35940
L24256 35903
L24256 35865
L24237 35828
L24218 35809
L24181 35790
L24106 35771
L24068 35753
L24050 35734
L24031 35696
L24031 35659
L24050 35621
L24068 35603
L24106 35584
L24200 35584
L24256 35603
" />
<path d="M24649 35940
L24631 35959
L24574 35978
L24537 35978
L24481 35959
L24443 35921
L24425 35884
L24406 35809
L24406 35753
L24425 35678
L24443 35640
L24481 35603
L24537 35584
L24574 35584
L24631 35603
L24649 35621
" />
<path d="M25006 35978
L24818 35978
L24818 35584
" />
<text x="24500" y="34896.9"
textLength="1182.88" font-size="524.934" lengthAdjust="spacingAndGlyphs"
text-anchor="middle" opacity="0">SDA</text>
<path d="M24021 34859
L24078 34878
L24171 34878
L24209 34859
L24228 34840
L24246 34803
L24246 34765
L24228 34728
L24209 34709
L24171 34690
L24096 34671
L24059 34653
L24040 34634
L24021 34596
L24021 34559
L24040 34521
L24059 34503
L24096 34484
L24190 34484
L24246 34503
" />
<path d="M24415 34878
L24415 34484
L24509 34484
L24565 34503
L24603 34540
L24621 34578
L24640 34653
L24640 34709
L24621 34784
L24603 34821
L24565 34859
L24509 34878
L24415 34878
" />
<path d="M24790 34765
L24978 34765
" />
<path d="M24753 34878
L24884 34484
L25015 34878
" />
<text x="24500" y="33896.9"
textLength="1201.63" font-size="524.934" lengthAdjust="spacingAndGlyphs"
text-anchor="middle" opacity="0">VCC</text>
<path d="M23975 33484
L24106 33878
L24237 33484
" />
<path d="M24593 33840
L24574 33859
L24518 33878
L24481 33878
L24425 33859
L24387 33821
L24368 33784
L24350 33709
L24350 33653
L24368 33578
L24387 33540
L24425 33503
L24481 33484
L24518 33484
L24574 33503
L24593 33521
" />
<path d="M24987 33840
L24968 33859
L24912 33878
L24874 33878
L24818 33859
L24781 33821
L24762 33784
L24743 33709
L24743 33653
L24762 33578
L24781 33540
L24818 33503
L24874 33484
L24912 33484
L24968 33503
L24987 33521
" />
</g>
<g style="fill:#008484; fill-opacity:0.0; 
stroke:#008484; stroke-width:47.2441; stroke-opacity:1; 
stroke-linecap:round; stroke-linejoin:round;">
<path d="M37807.3 49159.6 A673.806 673.806 0.0 1 0 37783.8 48266.9" />
<path d="M32007.3 49059.6 A673.806 673.806 0.0 1 0 31983.8 48166.9" />
<path d="M37589 43889
L37589 43710
" />
<path d="M37010 43889
L37010 43710
" />
<path d="M32089 44089
L32089 43910
" />
<path d="M31510 44089
L31510 43910
" />
<path d="M24510 57589
L24689 57589
" />
<path d="M24510 57010
L24689 57010
" />
<path d="M46789 35689
L46789 35510
" />
<path d="M46210 35689
L46210 35510
" />
<path d="M49676 37176
L50200 37176
" />
<path d="M49676 37700
L49676 37176
" />
<path d="M49676 38200
L50723 38200
" />
<path d="M50723 38200
L50723 39223
" />
<path d="M49676 38200
L49676 39223
" />
<path d="M49676 39223
L50723 39223
" />
<path d="M39958 37580
L39958 37019
" />
<path d="M39241 37580
L39241 37019
" />
<path d="M27519 43358
L28080 43358
" />
<path d="M27519 42641
L28080 42641
" />
<path d="M27519 39558
L28080 39558
" />
<path d="M27519 38841
L28080 38841
" />
<path d="M30648 38855
L29151 38855
" />
<path d="M29151 38855
L29151 43344
" />
<path d="M30648 38855
L30648 43344
" />
<path d="M30648 43344
L29151 43344
" />
</g>
<g style="fill:#008484; fill-opacity:0.0; 
stroke:#008484; stroke-width:59.0551; stroke-opacity:1; 
stroke-linecap:round; stroke-linejoin:round;">
<path d="M33481 39500
L33544 39562
" />
<path d="M35500 37481
L35590 37572
" />
<path d="M37518 39500
L37427 39409
" />
<path d="M35500 41518
L35409 41427
" />
<path d="M33481 39500
L33572 39409
" />
<path d="M35500 41518
L35590 41427
" />
<path d="M37518 39500
L37427 39590
" />
<path d="M35500 37481
L35409 37572
" />
<path d="M33544 39562
L33147 39959
" />
</g>
<g style="fill:#008484; fill-opacity:0.0; 
stroke:#008484; stroke-width:47.2441; stroke-opacity:1; 
stroke-linecap:round; stroke-linejoin:round;">
<path d="M44106 34534
L42334 34534
" />
<path d="M44598 36109
L44598 35518
" />
<path d="M42334 37093
L44106 37093
" />
<path d="M41842 35518
L41842 36109
" />
<path d="M38008 45471
L36591 45471
" />
<path d="M36576.2 45476.2 A1023.62 1023.62 0.0 0 0 37300 47223.6" />
<path d="M37300 47223.6 A1023.62 1023.62 0.0 0 0 38023.8 45476.2" />
<path d="M32408 45471
L30991 45471
" />
<path d="M30976.2 45476.2 A1023.62 1023.62 0.0 0 0 31700 47223.6" />
<path d="M31700 47223.6 A1023.62 1023.62 0.0 0 0 32423.8 45476.2" />
<path d="M43007 53844
L50960 53844
" />
<path d="M50960 53844
L50960 40380
" />
<path d="M50960 40380
L43007 40380
" />
<path d="M43007 40380
L43007 53844
" />
<path d="M45606 53998
L46397 53998
" />
<path d="M39541 57696
L39344 57893
" />
<path d="M39384 57893
L39541 57735
" />
<path d="M39541 57775
L39423 57893
" />
<path d="M39462 57893
L39541 57814
" />
<path d="M39541 57854
L39502 57893
" />
<path d="M35409 50500
L35409 49830
" />
<path d="M35409 49830
L36000 49830
" />
<path d="M35685 57901
L35448 57901
" />
<path d="M35448 57901
L35448 49870
" />
<path d="M35448 49870
L39543 49870
" />
<path d="M39543 49870
L39543 57901
" />
<path d="M39543 57901
L36313 57901
" />
<path d="M37338 50500
L36905 50500
" />
<path d="M37614 50500
L38047 50500
" />
<path d="M37338 50578
L37614 50421
" />
<path d="M37338 50263
L37338 50736
" />
<path d="M37338 50736
L37614 50736
" />
<path d="M37614 50736
L37614 50263
" />
<path d="M37614 50263
L37338 50263
" />
<path d="M33541 57696
L33344 57893
" />
<path d="M33384 57893
L33541 57735
" />
<path d="M33541 57775
L33423 57893
" />
<path d="M33462 57893
L33541 57814
" />
<path d="M33541 57854
L33502 57893
" />
<path d="M29409 50500
L29409 49830
" />
<path d="M29409 49830
L30000 49830
" />
<path d="M29685 57901
L29448 57901
" />
<path d="M29448 57901
L29448 49870
" />
<path d="M29448 49870
L33543 49870
" />
<path d="M33543 49870
L33543 57901
" />
<path d="M33543 57901
L30313 57901
" />
<path d="M31338 50500
L30905 50500
" />
<path d="M31614 50500
L32047 50500
" />
<path d="M31338 50578
L31614 50421
" />
<path d="M31338 50263
L31338 50736
" />
<path d="M31338 50736
L31614 50736
" />
<path d="M31614 50736
L31614 50263
" />
<path d="M31614 50263
L31338 50263
" />
<path d="M39400 61400
L35400 61400
" />
<path d="M39400 61900
L39400 58900
" />
<path d="M39400 58900
L35400 58900
" />
<path d="M35400 58900
L35400 61900
" />
<path d="M35400 61900
L39400 61900
" />
<path d="M39023 34523
L39023 33476
" />
<path d="M35000 34523
L39023 34523
" />
<path d="M35000 33476
L39023 33476
" />
<path d="M35000 34523
L35000 33476
" />
<path d="M34500 34523
L33976 34523
" />
<path d="M33976 34523
L33976 34000
" />
<path d="M25230 37267
L26277 37267
" />
<path d="M25230 34244
L25230 37267
" />
<path d="M26277 34244
L26277 37267
" />
<path d="M25230 34244
L26277 34244
" />
<path d="M25230 33744
L25230 33220
" />
<path d="M25230 33220
L25753 33220
" />
<path d="M28500 61900
L28500 58900
" />
<path d="M34500 61900
L34500 58900
" />
<path d="M28500 61400
L34500 61400
" />
<path d="M28500 58900
L34500 58900
" />
<path d="M28500 61900
L34500 61900
" />
<path d="M39176 43623
L41223 43623
" />
<path d="M39176 41600
L39176 43623
" />
<path d="M41223 40576
L41223 43623
" />
<path d="M39176 41600
L40200 41600
" />
<path d="M40200 41600
L40200 40576
" />
<path d="M40200 40576
L41223 40576
" />
<path d="M39176 41100
L39176 40576
" />
<path d="M39176 40576
L39700 40576
" />
<path d="M22000 61900
L22000 58900
" />
<path d="M28000 61900
L28000 58900
" />
<path d="M22000 61400
L28000 61400
" />
<path d="M22000 58900
L28000 58900
" />
<path d="M22000 61900
L28000 61900
" />
<path d="M42600 61900
L42600 58900
" />
<path d="M48600 61900
L48600 58900
" />
<path d="M42600 61400
L48600 61400
" />
<path d="M42600 58900
L48600 58900
" />
<path d="M42600 61900
L48600 61900
" />
<path d="M41643 54350
L41643 58050
" />
<path d="M51250 54350
L51250 58050
" />
<path d="M41643 54350
L51250 54350
" />
<path d="M41643 58050
L51250 58050
" />
<circle cx="46500" cy="38893.7" r="834.646" /> 
<path d="M47318 38893
L45681 38893
" />
<path d="M47318 38909
L45681 38909
" />
<path d="M47318 38925
L45681 38925
" />
<path d="M47317 38940
L45682 38940
" />
<path d="M47316 38956
L45683 38956
" />
<path d="M47315 38972
L46830 38972
" />
<path d="M46169 38972
L45684 38972
" />
<path d="M47313 38988
L46830 38988
" />
<path d="M46169 38988
L45686 38988
" />
<path d="M47311 39003
L46830 39003
" />
<path d="M46169 39003
L45688 39003
" />
<path d="M47309 39019
L46830 39019
" />
<path d="M46169 39019
L45690 39019
" />
<path d="M47307 39035
L46830 39035
" />
<path d="M46169 39035
L45692 39035
" />
<path d="M47303 39051
L46830 39051
" />
<path d="M46169 39051
L45696 39051
" />
<path d="M47300 39066
L46830 39066
" />
<path d="M46169 39066
L45699 39066
" />
<path d="M47297 39082
L46830 39082
" />
<path d="M46169 39082
L45702 39082
" />
<path d="M47293 39098
L46830 39098
" />
<path d="M46169 39098
L45706 39098
" />
<path d="M47289 39114
L46830 39114
" />
<path d="M46169 39114
L45710 39114
" />
<path d="M47285 39129
L46830 39129
" />
<path d="M46169 39129
L45714 39129
" />
<path d="M47280 39145
L46830 39145
" />
<path d="M46169 39145
L45719 39145
" />
<path d="M47274 39161
L46830 39161
" />
<path d="M46169 39161
L45725 39161
" />
<path d="M47269 39177
L46830 39177
" />
<path d="M46169 39177
L45730 39177
" />
<path d="M47263 39193
L46830 39193
" />
<path d="M46169 39193
L45736 39193
" />
<path d="M47257 39209
L46830 39209
" />
<path d="M46169 39209
L45742 39209
" />
<path d="M47250 39224
L46830 39224
" />
<path d="M46169 39224
L45749 39224
" />
<path d="M47243 39240
L46830 39240
" />
<path d="M46169 39240
L45756 39240
" />
<path d="M47236 39256
L46830 39256
" />
<path d="M46169 39256
L45763 39256
" />
<path d="M47228 39272
L46830 39272
" />
<path d="M46169 39272
L45771 39272
" />
<path d="M47220 39287
L46830 39287
" />
<path d="M46169 39287
L45779 39287
" />
<path d="M47211 39303
L46830 39303
" />
<path d="M46169 39303
L45788 39303
" />
<path d="M47202 39319
L46830 39319
" />
<path d="M46169 39319
L45797 39319
" />
<path d="M47192 39335
L46830 39335
" />
<path d="M46169 39335
L45807 39335
" />
<path d="M47183 39350
L46830 39350
" />
<path d="M46169 39350
L45816 39350
" />
<path d="M47172 39366
L46830 39366
" />
<path d="M46169 39366
L45827 39366
" />
<path d="M47161 39382
L46830 39382
" />
<path d="M46169 39382
L45838 39382
" />
<path d="M47149 39398
L46830 39398
" />
<path d="M46169 39398
L45850 39398
" />
<path d="M47137 39413
L46830 39413
" />
<path d="M46169 39413
L45862 39413
" />
<path d="M47124 39429
L46830 39429
" />
<path d="M46169 39429
L45875 39429
" />
<path d="M47111 39445
L46830 39445
" />
<path d="M46169 39445
L45888 39445
" />
<path d="M47096 39461
L46830 39461
" />
<path d="M46169 39461
L45903 39461
" />
<path d="M47081 39476
L46830 39476
" />
<path d="M46169 39476
L45918 39476
" />
<path d="M47066 39492
L46830 39492
" />
<path d="M46169 39492
L45933 39492
" />
<path d="M47049 39508
L46830 39508
" />
<path d="M46169 39508
L45950 39508
" />
<path d="M47031 39524
L46830 39524
" />
<path d="M46169 39524
L45968 39524
" />
<path d="M47013 39539
L46830 39539
" />
<path d="M46169 39539
L45986 39539
" />
<path d="M46993 39555
L46830 39555
" />
<path d="M46169 39555
L46006 39555
" />
<path d="M46972 39571
L46830 39571
" />
<path d="M46169 39571
L46027 39571
" />
<path d="M46949 39587
L46830 39587
" />
<path d="M46169 39587
L46050 39587
" />
<path d="M46925 39602
L46830 39602
" />
<path d="M46169 39602
L46074 39602
" />
<path d="M46898 39618
L46101 39618
" />
<path d="M46870 39634
L46129 39634
" />
<path d="M46838 39650
L46161 39650
" />
<path d="M46802 39665
L46197 39665
" />
<path d="M46761 39681
L46238 39681
" />
<path d="M46711 39697
L46288 39697
" />
<path d="M46645 39712
L46354 39712
" />
<path d="M46970 38000
L46970 38157
" />
<path d="M47049 38078
L46891 38078
" />
</g>
<g style="fill:#008484; fill-opacity:0.0; 
stroke:#008484; stroke-width:59.0551; stroke-opacity:1; 
stroke-linecap:round; stroke-linejoin:round;">
<text x="37800" y="47813.9"
textLength="845.426" font-size="524.934" lengthAdjust="spacingAndGlyphs"
text-anchor="middle" opacity="0">D2</text>
<path d="M37509 47795
L37509 47401
L37603 47401
L37659 47420
L37696 47457
L37715 47495
L37734 47570
L37734 47626
L37715 47701
L37696 47738
L37659 47776
L37603 47795
L37509 47795
" />
<path d="M37884 47438
L37903 47420
L37940 47401
L38034 47401
L38071 47420
L38090 47438
L38109 47476
L38109 47513
L38090 47570
L37865 47795
L38109 47795
" />
<text x="36473.2" y="48896.9"
textLength="470.472" font-size="524.934" lengthAdjust="spacingAndGlyphs"
text-anchor="middle" opacity="0">K</text>
<path d="M36370 48878
L36370 48484
" />
<path d="M36595 48878
L36426 48653
" />
<path d="M36595 48484
L36370 48709
" />
<text x="32000" y="47713.9"
textLength="845.426" font-size="524.934" lengthAdjust="spacingAndGlyphs"
text-anchor="middle" opacity="0">D1</text>
<path d="M31709 47695
L31709 47301
L31803 47301
L31859 47320
L31896 47357
L31915 47395
L31934 47470
L31934 47526
L31915 47601
L31896 47638
L31859 47676
L31803 47695
L31709 47695
" />
<path d="M32309 47695
L32084 47695
" />
<path d="M32196 47695
L32196 47301
L32159 47357
L32121 47395
L32084 47413
" />
<text x="30673.2" y="48796.9"
textLength="470.472" font-size="524.934" lengthAdjust="spacingAndGlyphs"
text-anchor="middle" opacity="0">K</text>
<path d="M30570 48778
L30570 48384
" />
<path d="M30795 48778
L30626 48553
" />
<path d="M30795 48384
L30570 48609
" />
<g transform="rotate(-90 36650.4 43800)">
<text x="36650.4" y="43996.9"
textLength="845.426" font-size="524.934" lengthAdjust="spacingAndGlyphs"
text-anchor="middle" opacity="0">R4</text>
</g>
<path d="M36828 43865
L36641 43996
" />
<path d="M36828 44090
L36434 44090
L36434 43940
L36453 43903
L36472 43884
L36509 43865
L36566 43865
L36603 43884
L36622 43903
L36641 43940
L36641 44090
" />
<path d="M36566 43528
L36828 43528
" />
<path d="M36416 43621
L36697 43715
L36697 43471
" />
<g transform="rotate(-90 31150.4 44000)">
<text x="31150.4" y="44196.9"
textLength="845.426" font-size="524.934" lengthAdjust="spacingAndGlyphs"
text-anchor="middle" opacity="0">R3</text>
</g>
<path d="M31328 44065
L31141 44196
" />
<path d="M31328 44290
L30934 44290
L30934 44140
L30953 44103
L30972 44084
L31009 44065
L31066 44065
L31103 44084
L31122 44103
L31141 44140
L31141 44290
" />
<path d="M30934 43934
L30934 43690
L31084 43821
L31084 43765
L31103 43728
L31122 43709
L31159 43690
L31253 43690
L31291 43709
L31309 43728
L31328 43765
L31328 43878
L31309 43915
L31291 43934
" />
<text x="24600" y="56847.2"
textLength="845.426" font-size="524.934" lengthAdjust="spacingAndGlyphs"
text-anchor="middle" opacity="0">R2</text>
<path d="M24534 56828
L24403 56641
" />
<path d="M24309 56828
L24309 56434
L24459 56434
L24496 56453
L24515 56472
L24534 56509
L24534 56566
L24515 56603
L24496 56622
L24459 56641
L24309 56641
" />
<path d="M24684 56472
L24703 56453
L24740 56434
L24834 56434
L24871 56453
L24890 56472
L24909 56509
L24909 56547
L24890 56603
L24665 56828
L24909 56828
" />
<g transform="rotate(-90 45850.4 35600)">
<text x="45850.4" y="35796.9"
textLength="845.426" font-size="524.934" lengthAdjust="spacingAndGlyphs"
text-anchor="middle" opacity="0">R1</text>
</g>
<path d="M46028 35665
L45841 35796
" />
<path d="M46028 35890
L45634 35890
L45634 35740
L45653 35703
L45672 35684
L45709 35665
L45766 35665
L45803 35684
L45822 35703
L45841 35740
L45841 35890
" />
<path d="M46028 35290
L46028 35515
" />
<path d="M46028 35403
L45634 35403
L45691 35440
L45728 35478
L45747 35515
" />
<text x="49100" y="38596.9"
textLength="751.687" font-size="524.934" lengthAdjust="spacingAndGlyphs"
text-anchor="middle" opacity="0">J8</text>
<path d="M48968 38184
L48968 38465
L48950 38521
L48912 38559
L48856 38578
L48818 38578
" />
<path d="M49212 38353
L49174 38334
L49156 38315
L49137 38278
L49137 38259
L49156 38221
L49174 38203
L49212 38184
L49287 38184
L49324 38203
L49343 38221
L49362 38259
L49362 38278
L49343 38315
L49324 38334
L49287 38353
L49212 38353
L49174 38371
L49156 38390
L49137 38428
L49137 38503
L49156 38540
L49174 38559
L49212 38578
L49287 38578
L49324 38559
L49343 38540
L49362 38503
L49362 38428
L49343 38390
L49324 38371
L49287 38353
" />
<g transform="rotate(-90 38871.7 37300)">
<text x="38871.7" y="37496.9"
textLength="845.426" font-size="524.934" lengthAdjust="spacingAndGlyphs"
text-anchor="middle" opacity="0">C4</text>
</g>
<path d="M39012 37365
L39031 37384
L39049 37440
L39049 37478
L39031 37534
L38993 37571
L38956 37590
L38881 37609
L38824 37609
L38749 37590
L38712 37571
L38674 37534
L38656 37478
L38656 37440
L38674 37384
L38693 37365
" />
<path d="M38787 37028
L39049 37028
" />
<path d="M38637 37121
L38918 37215
L38918 36971
" />
<text x="27800" y="42468.5"
textLength="845.426" font-size="524.934" lengthAdjust="spacingAndGlyphs"
text-anchor="middle" opacity="0">C2</text>
<path d="M27734 42412
L27715 42431
L27659 42449
L27621 42449
L27565 42431
L27528 42393
L27509 42356
L27490 42281
L27490 42224
L27509 42149
L27528 42112
L27565 42074
L27621 42056
L27659 42056
L27715 42074
L27734 42093
" />
<path d="M27884 42093
L27903 42074
L27940 42056
L28034 42056
L28071 42074
L28090 42093
L28109 42131
L28109 42168
L28090 42224
L27865 42449
L28109 42449
" />
<text x="27800" y="38668.5"
textLength="845.426" font-size="524.934" lengthAdjust="spacingAndGlyphs"
text-anchor="middle" opacity="0">C1</text>
<path d="M27734 38612
L27715 38631
L27659 38649
L27621 38649
L27565 38631
L27528 38593
L27509 38556
L27490 38481
L27490 38424
L27509 38349
L27528 38312
L27565 38274
L27621 38256
L27659 38256
L27715 38274
L27734 38293
" />
<path d="M28109 38649
L27884 38649
" />
<path d="M27996 38649
L27996 38256
L27959 38312
L27921 38349
L27884 38368
" />
<g transform="rotate(-90 31081.1 41100)">
<text x="31081.1" y="41296.9"
textLength="789.183" font-size="524.934" lengthAdjust="spacingAndGlyphs"
text-anchor="middle" opacity="0">Y1</text>
</g>
<path d="M31071 41287
L31259 41287
" />
<path d="M30865 41418
L31071 41287
L30865 41156
" />
<path d="M31259 40818
L31259 41043
" />
<path d="M31259 40931
L30865 40931
L30921 40968
L30959 41006
L30977 41043
" />
<text x="50400" y="59896.9"
textLength="901.669" font-size="524.934" lengthAdjust="spacingAndGlyphs"
text-anchor="middle" opacity="0">M4</text>
<path d="M50081 59878
L50081 59484
L50212 59765
L50343 59484
L50343 59878
" />
<path d="M50699 59615
L50699 59878
" />
<path d="M50606 59465
L50512 59746
L50756 59746
" />
<text x="50300" y="36396.9"
textLength="901.669" font-size="524.934" lengthAdjust="spacingAndGlyphs"
text-anchor="middle" opacity="0">M3</text>
<path d="M49981 36378
L49981 35984
L50112 36265
L50243 35984
L50243 36378
" />
<path d="M50393 35984
L50637 35984
L50506 36134
L50562 36134
L50599 36153
L50618 36171
L50637 36209
L50637 36303
L50618 36340
L50599 36359
L50562 36378
L50449 36378
L50412 36359
L50393 36340
" />
<text x="20300" y="36396.9"
textLength="901.669" font-size="524.934" lengthAdjust="spacingAndGlyphs"
text-anchor="middle" opacity="0">M1</text>
<path d="M19981 36378
L19981 35984
L20112 36265
L20243 35984
L20243 36378
" />
<path d="M20637 36378
L20412 36378
" />
<path d="M20524 36378
L20524 35984
L20487 36040
L20449 36078
L20412 36096
" />
<text x="20300" y="60000.8"
textLength="901.669" font-size="524.934" lengthAdjust="spacingAndGlyphs"
text-anchor="middle" opacity="0">M2</text>
<path d="M19981 59982
L19981 59588
L20112 59869
L20243 59588
L20243 59982
" />
<path d="M20412 59625
L20431 59607
L20468 59588
L20562 59588
L20599 59607
L20618 59625
L20637 59663
L20637 59700
L20618 59757
L20393 59982
L20637 59982
" />
<g transform="rotate(-45 33815.7 37815.7)">
<text x="33815.7" y="38012.6"
textLength="864.173" font-size="524.934" lengthAdjust="spacingAndGlyphs"
text-anchor="middle" opacity="0">U1</text>
</g>
<path d="M33451 37875
L33676 38100
L33716 38114
L33742 38114
L33782 38100
L33835 38047
L33848 38007
L33848 37981
L33835 37941
L33610 37716
" />
<path d="M34167 37716
L34007 37875
" />
<path d="M34087 37795
L33809 37517
L33822 37583
L33822 37636
L33809 37676
" />
<text x="43220.5" y="34096.9"
textLength="1276.62" font-size="524.934" lengthAdjust="spacingAndGlyphs"
text-anchor="middle" opacity="0">SW1</text>
<path d="M42695 34059
L42751 34078
L42845 34078
L42883 34059
L42901 34040
L42920 34003
L42920 33965
L42901 33928
L42883 33909
L42845 33890
L42770 33871
L42733 33853
L42714 33834
L42695 33796
L42695 33759
L42714 33721
L42733 33703
L42770 33684
L42864 33684
L42920 33703
" />
<path d="M43051 33684
L43145 34078
L43220 33796
L43295 34078
L43389 33684
" />
<path d="M43745 34078
L43520 34078
" />
<path d="M43632 34078
L43632 33684
L43595 33740
L43557 33778
L43520 33796
" />
<text x="38800" y="46396.9"
textLength="864.173" font-size="524.934" lengthAdjust="spacingAndGlyphs"
text-anchor="middle" opacity="0">Q2</text>
<path d="M38762 46415
L38725 46396
L38687 46359
L38631 46303
L38593 46284
L38556 46284
" />
<path d="M38575 46378
L38537 46359
L38500 46321
L38481 46246
L38481 46115
L38500 46040
L38537 46003
L38575 45984
L38650 45984
L38687 46003
L38725 46040
L38743 46115
L38743 46246
L38725 46321
L38687 46359
L38650 46378
L38575 46378
" />
<path d="M38893 46021
L38912 46003
L38949 45984
L39043 45984
L39081 46003
L39099 46021
L39118 46059
L39118 46096
L39099 46153
L38874 46378
L39118 46378
" />
<text x="33200" y="46396.9"
textLength="864.173" font-size="524.934" lengthAdjust="spacingAndGlyphs"
text-anchor="middle" opacity="0">Q1</text>
<path d="M33162 46415
L33125 46396
L33087 46359
L33031 46303
L32993 46284
L32956 46284
" />
<path d="M32975 46378
L32937 46359
L32900 46321
L32881 46246
L32881 46115
L32900 46040
L32937 46003
L32975 45984
L33050 45984
L33087 46003
L33125 46040
L33143 46115
L33143 46246
L33125 46321
L33087 46359
L33050 46378
L32975 46378
" />
<path d="M33518 46378
L33293 46378
" />
<path d="M33406 46378
L33406 45984
L33368 46040
L33331 46078
L33293 46096
" />
<text x="46600" y="48396.9"
textLength="1220.38" font-size="524.934" lengthAdjust="spacingAndGlyphs"
text-anchor="middle" opacity="0">PS1</text>
<path d="M46121 48378
L46121 47984
L46271 47984
L46309 48003
L46328 48021
L46346 48059
L46346 48115
L46328 48153
L46309 48171
L46271 48190
L46121 48190
" />
<path d="M46496 48359
L46553 48378
L46646 48378
L46684 48359
L46703 48340
L46721 48303
L46721 48265
L46703 48228
L46684 48209
L46646 48190
L46571 48171
L46534 48153
L46515 48134
L46496 48096
L46496 48059
L46515 48021
L46534 48003
L46571 47984
L46665 47984
L46721 48003
" />
<path d="M47096 48378
L46871 48378
" />
<path d="M46984 48378
L46984 47984
L46946 48040
L46909 48078
L46871 48096
" />
<text x="37500" y="54096.9"
textLength="845.426" font-size="524.934" lengthAdjust="spacingAndGlyphs"
text-anchor="middle" opacity="0">K2</text>
<path d="M37209 54078
L37209 53684
" />
<path d="M37434 54078
L37265 53853
" />
<path d="M37434 53684
L37209 53909
" />
<path d="M37584 53721
L37603 53703
L37640 53684
L37734 53684
L37771 53703
L37790 53721
L37809 53759
L37809 53796
L37790 53853
L37565 54078
L37809 54078
" />
<text x="31600" y="54096.9"
textLength="845.426" font-size="524.934" lengthAdjust="spacingAndGlyphs"
text-anchor="middle" opacity="0">K1</text>
<path d="M31309 54078
L31309 53684
" />
<path d="M31534 54078
L31365 53853
" />
<path d="M31534 53684
L31309 53909
" />
<path d="M31909 54078
L31684 54078
" />
<path d="M31796 54078
L31796 53684
L31759 53740
L31721 53778
L31684 53796
" />
<text x="37400" y="59496.9"
textLength="751.687" font-size="524.934" lengthAdjust="spacingAndGlyphs"
text-anchor="middle" opacity="0">J7</text>
<path d="M37268 59084
L37268 59365
L37250 59421
L37212 59459
L37156 59478
L37118 59478
" />
<path d="M37418 59084
L37681 59084
L37512 59478
" />
<text x="33300" y="34196.9"
textLength="751.687" font-size="524.934" lengthAdjust="spacingAndGlyphs"
text-anchor="middle" opacity="0">J6</text>
<path d="M33168 33784
L33168 34065
L33150 34121
L33112 34159
L33056 34178
L33018 34178
" />
<path d="M33524 33784
L33449 33784
L33412 33803
L33393 33821
L33356 33878
L33337 33953
L33337 34103
L33356 34140
L33374 34159
L33412 34178
L33487 34178
L33524 34159
L33543 34140
L33562 34103
L33562 34009
L33543 33971
L33524 33953
L33487 33934
L33412 33934
L33374 33953
L33356 33971
L33337 34009
" />
<text x="26800" y="35396.9"
textLength="751.687" font-size="524.934" lengthAdjust="spacingAndGlyphs"
text-anchor="middle" opacity="0">J5</text>
<path d="M26668 34984
L26668 35265
L26650 35321
L26612 35359
L26556 35378
L26518 35378
" />
<path d="M27043 34984
L26856 34984
L26837 35171
L26856 35153
L26893 35134
L26987 35134
L27024 35153
L27043 35171
L27062 35209
L27062 35303
L27043 35340
L27024 35359
L26987 35378
L26893 35378
L26856 35359
L26837 35340
" />
<text x="31488.2" y="59496.9"
textLength="751.687" font-size="524.934" lengthAdjust="spacingAndGlyphs"
text-anchor="middle" opacity="0">J4</text>
<path d="M31356 59084
L31356 59365
L31338 59421
L31300 59459
L31244 59478
L31206 59478
" />
<path d="M31713 59215
L31713 59478
" />
<path d="M31619 59065
L31525 59346
L31769 59346
" />
<text x="40200" y="40379.5"
textLength="751.687" font-size="524.934" lengthAdjust="spacingAndGlyphs"
text-anchor="middle" opacity="0">J3</text>
<path d="M40068 39967
L40068 40248
L40050 40304
L40012 40342
L39956 40360
L39918 40360
" />
<path d="M40218 39967
L40462 39967
L40331 40117
L40387 40117
L40424 40135
L40443 40154
L40462 40192
L40462 40285
L40443 40323
L40424 40342
L40387 40360
L40274 40360
L40237 40342
L40218 40323
" />
<text x="24800" y="59496.9"
textLength="751.687" font-size="524.934" lengthAdjust="spacingAndGlyphs"
text-anchor="middle" opacity="0">J2</text>
<path d="M24668 59084
L24668 59365
L24650 59421
L24612 59459
L24556 59478
L24518 59478
" />
<path d="M24837 59121
L24856 59103
L24893 59084
L24987 59084
L25024 59103
L25043 59121
L25062 59159
L25062 59196
L25043 59253
L24818 59478
L25062 59478
" />
<text x="45600" y="59496.9"
textLength="751.687" font-size="524.934" lengthAdjust="spacingAndGlyphs"
text-anchor="middle" opacity="0">J1</text>
<path d="M45468 59084
L45468 59365
L45450 59421
L45412 59459
L45356 59478
L45318 59478
" />
<path d="M45862 59478
L45637 59478
" />
<path d="M45749 59478
L45749 59084
L45712 59140
L45674 59178
L45637 59196
" />
<text x="46500" y="56396.9"
textLength="789.183" font-size="524.934" lengthAdjust="spacingAndGlyphs"
text-anchor="middle" opacity="0">F1</text>
<path d="M46368 56171
L46237 56171
" />
<path d="M46237 56378
L46237 55984
L46425 55984
" />
<path d="M46781 56378
L46556 56378
" />
<path d="M46668 56378
L46668 55984
L46631 56040
L46593 56078
L46556 56096
" />
<text x="47779.5" y="39090.6"
textLength="845.426" font-size="524.934" lengthAdjust="spacingAndGlyphs"
text-anchor="middle" opacity="0">C3</text>
<path d="M47713 39034
L47695 39053
L47638 39071
L47601 39071
L47545 39053
L47507 39015
L47488 38978
L47470 38903
L47470 38846
L47488 38771
L47507 38734
L47545 38696
L47601 38678
L47638 38678
L47695 38696
L47713 38715
" />
<path d="M47845 38678
L48088 38678
L47957 38828
L48013 38828
L48051 38846
L48070 38865
L48088 38903
L48088 38996
L48070 39034
L48051 39053
L48013 39071
L47901 39071
L47863 39053
L47845 39034
" />
<g >
</g>
</g>
<g style="fill:#000000; fill-opacity:0.0; 
stroke:#000000; stroke-width:59.0551; stroke-opacity:1; 
stroke-linecap:round; stroke-linejoin:round;">
</g>
<g style="fill:#C2C200; fill-opacity:0.0; 
stroke:#C2C200; stroke-width:59.0551; stroke-opacity:1; 
stroke-linecap:round; stroke-linejoin:round;">
</g>
<g style="fill:#C2C200; fill-opacity:0.0; 
stroke:#C2C200; stroke-width:19.685; stroke-opacity:1; 
stroke-linecap:round; stroke-linejoin:round;">
<path d="M20000 32800
L18300 32800
" />
<path d="M18300 63000
L18300 62900
" />
<path d="M20000 63000
L18300 63000
" />
<path d="M21700 63000
L20000 63000
" />
<path d="M21700 32800
L20000 32800
" />
<path d="M18300 32800
L18300 62900
" />
<path d="M52100 32800
L21700 32800
" />
<path d="M52100 63000
L52100 32800
" />
<path d="M21700 63000
L52100 63000
" />
<g >
</g>
<g >
</g>
<g >
</g>
<g >
</g>
<g >
</g>
<g >
</g>
<g >
</g>
<g >
</g>
<g >
</g>
<g >
</g>
<g >
</g>
<g >
</g>
<g >
</g>
<g >
</g>
<g >
</g>
<g >
</g>
<g >
</g>
<g >
</g>
<g >
</g>
<g >
</g>
<g >
</g>
<g >
</g>
<g >
</g>
<g >
</g>
<g >
</g>
<g >
</g>
<g >
</g>
<g >
</g>
<g >
</g>
<g >
</g>
<g >
</g>
<g >
</g>
</g> 
</svg>
