M48
INCH,TZ
T1C0.0315
T2C0.0354
T3C0.0394
T4C0.0433
%
G90
G05
T1
X55800Y-25950
X56225Y-28275
X56225Y-31275
X56784Y-25950
X58225Y-40950
X58225Y-43950
T2
X58014Y-30850
X58014Y-38500
X58900Y-33644
X58900Y-34628
X58900Y-35612
X59014Y-30850
X59014Y-38500
T3
X51725Y-26825
X53694Y-26825
X60311Y-25400
X60311Y-26400
X60403Y-43121
X60403Y-44121
X61311Y-25400
X61311Y-26400
X61403Y-43121
X61403Y-44121
T4
X51550Y-32750
X51550Y-34750
X51550Y-36750
X51550Y-38750
X51625Y-30700
X52625Y-30700
X53625Y-30700
X55550Y-32750
X55550Y-34750
X55550Y-36750
X55550Y-38750
T3
G00X53813Y-41731
M15
G01X53813Y-42519
M16
G05
G00X54600Y-43975
M15
G01X55388Y-43975
M16
G05
G00X56175Y-41731
M15
G01X56175Y-42519
M16
G05
T0
M30
