%TF.GenerationSoftware,KiCad,Pcbnew,(5.1.9)-1*%
%TF.CreationDate,2021-10-20T23:10:06+02:00*%
%TF.ProjectId,BreadBoardPowerSupply,42726561-6442-46f6-9172-64506f776572,V1*%
%TF.SameCoordinates,Original*%
%TF.FileFunction,Soldermask,Bot*%
%TF.FilePolarity,Negative*%
%FSLAX46Y46*%
G04 Gerber Fmt 4.6, Leading zero omitted, Abs format (unit mm)*
G04 Created by KiCad (PCBNEW (5.1.9)-1) date 2021-10-20 23:10:06*
%MOMM*%
%LPD*%
G01*
G04 APERTURE LIST*
%ADD10R,2.000000X2.000000*%
%ADD11C,2.000000*%
%ADD12R,1.600000X1.600000*%
%ADD13C,1.600000*%
%ADD14R,2.200000X2.200000*%
%ADD15O,2.200000X2.200000*%
%ADD16R,1.800000X1.800000*%
%ADD17C,1.800000*%
%ADD18R,3.500000X3.500000*%
%ADD19R,1.700000X1.700000*%
%ADD20O,1.700000X1.700000*%
%ADD21O,1.600000X1.600000*%
%ADD22R,1.900000X1.900000*%
%ADD23C,1.900000*%
%ADD24R,1.905000X2.000000*%
%ADD25O,1.905000X2.000000*%
G04 APERTURE END LIST*
D10*
%TO.C,C1*%
X131381500Y-68135500D03*
D11*
X136381500Y-68135500D03*
%TD*%
D12*
%TO.C,C2*%
X141732000Y-65913000D03*
D13*
X144232000Y-65913000D03*
%TD*%
D14*
%TO.C,D1*%
X130937000Y-93345000D03*
D15*
X141097000Y-93345000D03*
%TD*%
D14*
%TO.C,D2*%
X130937000Y-83185000D03*
D15*
X141097000Y-83185000D03*
%TD*%
%TO.C,D3*%
X141097000Y-98425000D03*
D14*
X130937000Y-98425000D03*
%TD*%
D15*
%TO.C,D4*%
X141097000Y-88265000D03*
D14*
X130937000Y-88265000D03*
%TD*%
D16*
%TO.C,D5*%
X147356000Y-97790000D03*
D17*
X149896000Y-97790000D03*
%TD*%
%TO.C,D6*%
X149896000Y-78359000D03*
D16*
X147356000Y-78359000D03*
%TD*%
D18*
%TO.C,J1*%
X142684500Y-106997500D03*
G36*
G01*
X135184500Y-107997500D02*
X135184500Y-105997500D01*
G75*
G02*
X135934500Y-105247500I750000J0D01*
G01*
X137434500Y-105247500D01*
G75*
G02*
X138184500Y-105997500I0J-750000D01*
G01*
X138184500Y-107997500D01*
G75*
G02*
X137434500Y-108747500I-750000J0D01*
G01*
X135934500Y-108747500D01*
G75*
G02*
X135184500Y-107997500I0J750000D01*
G01*
G37*
G36*
G01*
X137934500Y-112572500D02*
X137934500Y-110822500D01*
G75*
G02*
X138809500Y-109947500I875000J0D01*
G01*
X140559500Y-109947500D01*
G75*
G02*
X141434500Y-110822500I0J-875000D01*
G01*
X141434500Y-112572500D01*
G75*
G02*
X140559500Y-113447500I-875000J0D01*
G01*
X138809500Y-113447500D01*
G75*
G02*
X137934500Y-112572500I0J875000D01*
G01*
G37*
%TD*%
D19*
%TO.C,J2*%
X153190000Y-64516000D03*
D20*
X155730000Y-64516000D03*
X153190000Y-67056000D03*
X155730000Y-67056000D03*
%TD*%
%TO.C,J3*%
X155964000Y-112068000D03*
X153424000Y-112068000D03*
X155964000Y-109528000D03*
D19*
X153424000Y-109528000D03*
%TD*%
D21*
%TO.C,R1*%
X147891500Y-111633000D03*
D13*
X147891500Y-104013000D03*
%TD*%
%TO.C,R2*%
X142811500Y-71818500D03*
D21*
X142811500Y-79438500D03*
%TD*%
D22*
%TO.C,SW1*%
X149606000Y-90454500D03*
D23*
X149606000Y-87954500D03*
X149606000Y-85454500D03*
%TD*%
D24*
%TO.C,U1*%
X131127500Y-77978000D03*
D25*
X133667500Y-77978000D03*
X136207500Y-77978000D03*
%TD*%
M02*
